<svg viewBox="0 0 75 65" xmlns="http://www.w3.org/2000/svg">
  <g transform="translate(2 1)" stroke="currentColor" stroke-width="1.5" fill="none" fill-rule="evenodd">
    <path d="M58.816 41.967h3.088v-4.702a2.585 2.585 0 00-2.586-2.585H53.21l-2.34-4.91A2.067 2.067 0 0049 28.62H35.541c-.952 0-1.724.772-1.724 1.724v11.623h2.695M42.442 41.967H52.86"/>
    <circle cx="55.827" cy="41.967" r="2.967"/>
    <circle cx="39.48" cy="41.967" r="2.967"/>
    <path d="M33.818 34.68h19.369M24.262 25.751l-4.298 26.253M8.176 32.77L0 62.434l19.964-10.43L36.73 59.81l15.01-6.447 20.074 9.07-10.38-39.37-14.22-7.615-10.108 6.028-8.574-5.117"/>
    <path d="M26.765 12.43c0 6.863-12.43 25.637-12.43 25.637S1.904 19.293 1.904 12.431C1.904 5.566 7.469 0 14.334 0 21.2 0 26.766 5.566 26.766 12.43z"/>
    <ellipse cx="14.335" cy="11.035" rx="3.207" ry="3.245"/>
    <path d="M8.367 19.216a6.093 6.093 0 0111.935-.114"/>
    <circle cx="14.335" cy="12.736" r="8.82"/>
    <path d="M48.447 26.635l-1.118-10.953M51.627 53.449l-.927-9.638"/>
  </g>
</svg>
