<svg xmlns="http://www.w3.org/2000/svg" viewBox="0 0 18 17">
  <path fill="currentColor" fill-rule="evenodd" d="M9.75333.3334c4.60267 0 7.87534 3.73133 7.31 8.33333-.56533 4.602-4.754 8.33334-9.35666 8.33334-4.602 0-7.87534-3.73134-7.31-8.33334C.962 4.06473 5.15067.3334 9.75333.3334zm-1.56 12.70333c-1.43266 0-2.51533.13467-3.21533.40067-.5.18933-.72133.40667-.82467.62733.37267.29734.78267.54667 1.228.74534.778.34733 1.62934.52333 2.53.52333.90067 0 1.79534-.176 2.65867-.52333.49667-.19934.97-.45067 1.41733-.75-.04333-.254-.21666-.46867-.66533-.65-.62-.25134-1.64333-.37334-3.12867-.37334zM9.54867 2.00007c-.90067 0-1.79534.176-2.65867.52333-.83533.33533-1.60733.81667-2.29533 1.42933-.688.61267-1.256 1.326-1.68934 2.11934-.448.82066-.73133 1.694-.842 2.59466-.11066.90067-.04133 1.774.20467 2.59467.17733.59.44 1.13533.784 1.628.02333-.02733.04667-.05333.07067-.08.356-.386.83666-.696 1.42933-.92067.932-.354 2.15467-.51866 3.846-.51866 1.74133 0 2.88733.14933 3.71533.48533.64534.26133 1.04134.62333 1.27334 1.01733.458-.48866.85-1.028 1.168-1.61133.448-.82067.73133-1.694.842-2.59467.11066-.90066.042-1.774-.20467-2.59466-.238-.79334-.63133-1.50667-1.16867-2.11934-.538-.61266-1.192-1.094-1.94466-1.42933-.778-.34733-1.62934-.52333-2.53-.52333zm-.179 1.45793c2.01333 0 3.44533 1.63267 3.198 3.646-.24734 2.014-2.08 3.646-4.09334 3.646-2.01333 0-3.44533-1.632-3.198-3.646.24734-2.01333 2.08-3.646 4.09334-3.646zM9.165 5.12533c-1.09133 0-2.088.88734-2.222 1.97867-.134 1.09133.64467 1.97933 1.736 1.97933 1.09133 0 2.088-.888 2.222-1.97933.134-1.09133-.64467-1.97867-1.736-1.97867z"/>
</svg>
