<svg xmlns="http://www.w3.org/2000/svg" viewBox="0 0 37 39">
  <path fill="currentColor" fill-rule="evenodd" clip-rule="evenodd" d="M4.37 31.2c1.98 0 3.24 1.53 2.88 3.51-.36 1.98-2.16 3.51-4.14 3.51-1.98 0-3.24-1.53-2.88-3.51.36-1.89 2.25-3.51 4.14-3.51zm-.27 1.89c-.9 0-1.8.72-1.89 1.62-.18.9.45 1.62 1.35 1.62.9 0 1.8-.72 1.89-1.62.09-.9-.45-1.62-1.35-1.62zm19.8-1.89c1.98 0 3.24 1.53 2.88 3.51-.36 1.98-2.16 3.51-4.14 3.51-1.98 0-3.24-1.53-2.88-3.51.36-1.89 2.16-3.51 4.14-3.51zm-.36 1.89c-.9 0-1.8.72-1.89 1.62-.18.9.45 1.62 1.35 1.62.9 0 1.8-.72 1.89-1.62.18-.9-.45-1.62-1.35-1.62zm3.87-4.68H2.48L4.64 2.67H.86L1.22.78H6.8L4.46 26.52h21.87l7.47-14.04H13.46l.36-1.89h23.04l-9.45 17.82z" />
</svg>
