<svg xmlns="http://www.w3.org/2000/svg" viewBox="0 0 57.67 64">
  <path fill="none" stroke="currentColor" stroke-width="2" stroke-linejoin="bevel" stroke-miterlimit="10" d="M18.02 43.19l-.26-.26C7 32.15 2.47 21.56 2.17 19.75c-.54-3.15.93-4.58.93-4.58l10.11-10c2.86.03 9.09 11.82 8.72 12.72s-3.3 3.6-4.43 4.67c-1.54 1.45-1.71 2.53-1.48 3.81.67 3.7 2.14 6.19 7.03 11.53l-.09-.09c5.33 4.9 7.82 6.38 11.51 7.04 1.28.23 2.35.06 3.8-1.49 1.06-1.13 3.77-4.06 4.66-4.44s12.66 5.87 12.7 8.73l-9.99 10.12s-1.42 1.47-4.57.93c-1.8-.31-12.38-4.84-23.13-15.62l-.26-.26.34.37z" />
</svg>
