<svg viewBox="0 0 22 22" xmlns="http://www.w3.org/2000/svg" xmlns:xlink="http://www.w3.org/1999/xlink">
  <defs>
    <path d="M18.4 15.609a6.946 6.946 0 01-2.213 1.492 6.91 6.91 0 01-2.708.546 6.91 6.91 0 01-2.709-.546 6.946 6.946 0 01-2.212-1.492 6.946 6.946 0 01-1.493-2.213 6.91 6.91 0 01-.545-2.708c0-.94.183-1.852.545-2.708a6.946 6.946 0 011.493-2.213 6.946 6.946 0 012.212-1.492 6.91 6.91 0 012.709-.546c.94 0 1.851.183 2.708.546.828.35 1.573.852 2.213 1.492a6.946 6.946 0 011.492 2.213 6.91 6.91 0 01.546 2.708 6.91 6.91 0 01-.546 2.708A6.946 6.946 0 0118.4 15.61M13.479 1.667a9.02 9.02 0 00-9.021 9.02c0 2.12.73 4.07 1.954 5.61l-4.746 4.745L3.125 22.5l4.746-4.745a8.984 8.984 0 005.608 1.954 9.02 9.02 0 009.02-9.021 9.02 9.02 0 00-9.02-9.02" id="a"/>
  </defs>
  <use fill="currentColor" xlink:href="#a" transform="translate(-1 -1)" fill-rule="evenodd"/>
</svg>
