<svg xmlns="http://www.w3.org/2000/svg" viewBox="40 21 120 20">
  <g fill="currentColor" fill-rule="evenodd">
    <path d="M41.08785 40.43996c-.115-.0105-.115-.11288-.01204-.14175.52815-.28744 1.80773-.55125 1.80773-2.97938V24.41564c-.03209-1.45687-1.25953-2.39268-1.72617-2.48193l-.01337-.13257h13.84412l.04412.06825v3.70913c.0147.12337-.12435.11287-.16847.01181-.38107-1.08281-1.85453-2.32181-3.45635-2.32181h-5.4593v6.41025h4.76134c1.16326.01312 2.56853-1.092 2.76508-2.19713h.14708v5.86425h-.17248c-.4653-1.01193-1.60048-2.20237-2.77578-2.20237h-4.72523v6.07819c0 2.17218.8945 2.47275 2.0805 3.0765.0869.03937.0762.12862 0 .14306zm41.52325-9.00677l4.91376 9.009h4.5621v-.28744c-.70998-.16931-1.19-.29137-2.41342-2.11969L85.6623 31.2127z"/>
    <path d="M83.45853 23.10249h-3.7465v7.38937l.01204.01182h3.36676c5.09294-.01182 4.63298-7.40775.3677-7.4012m-.29416 8.77276h-3.45233v5.34581c0 1.995.41717 2.37956 1.78767 3.0765v.14438h-6.65999v-.14438c.78353-.57619 1.90267-.55125 1.90267-2.97937V24.34805c-.07354-1.39256-.61506-2.05275-2.0123-2.43731v-.10894h9.4157c2.5458.04725 3.2959.56569 4.55275 1.53825 1.72082 1.32956 2.36128 5.53088-1.02821 7.45369-1.95748 1.11037-3.2812 1.00931-4.50596 1.0815m42.20383-10.0737h4.08744l10.38777 12.77325v-9.53007c0-1.995-.41717-2.40187-1.78902-3.10012v-.14306h5.0769v.14306c-.78354.5775-1.76362.5775-1.76362 3.003h.01338v15.50325h-.83033l-12.04173-14.59763v11.05913c0 2.14856.62575 2.67619 1.9976 3.37312v.14307h-5.36704v-.14306c.78353-.5762 1.76227-1.30332 1.76227-3.72882V25.04473h.01337c0-1.995-.42118-2.40188-1.79302-3.10013v-.14306h4.33347M120.93256 35.42252l-.00133-10.40156c0-1.99369-.41985-2.37825-1.79169-3.0765v-.14306h5.31489v.14306c-.78353.5775-1.7636.55388-1.7636 2.97938l.02139 9.83193c0 2.5515-1.19535 5.8892-6.26422 5.8892-6.90601 0-7.98236-3.8942-8.00776-5.86557v-9.75844c0-1.99369-.41583-2.37825-1.78768-3.0765v-.14306h6.67203v.14306c-.78353.5775-1.76361.55388-1.76361 2.97938v10.38581c0 1.72856 1.26621 3.90994 4.84022 3.90994 3.332 0 4.53136-1.81913 4.53136-3.79707M158.92245 35.766l-.80626 4.67644h-14.25058v-.14437c1.19802-.61163 1.66734-1.1655 1.76628-2.58694l-.00401-.0945V24.44438l.004-.09712c-.09892-1.42144-.56824-1.79157-1.76626-2.40188v-.14437h14.01526v3.82068l-.08691.00132c-.34363-1.25082-2.62335-2.62107-3.94439-2.62107h-5.117l.00535 6.87488v.0105h4.56613c1.83046-.03019 2.40406-.48431 3.08464-1.77713h.14841v4.935h-.14841c-.58698-.76912-.85573-1.75087-3.328-1.75087h-.34897l-3.9738.00787v5.92988c.10028.80325.60971 1.85062 4.13826 1.85062 3.10737 0 5.21862-1.18387 5.8925-3.32325z"/>
    <path d="M97.3314 35.28091l-.00536-12.25743c-4.2118 0-4.5581.45937-6.15056 2.9833l-.0976-.07218.9306-4.494c.12168.168.46397.31238.8584.36094h12.09522c.39176-.04857.73406-.19294.85707-.36094l.92927 4.494-.09627.07219c-1.59113-2.52394-1.95615-2.98725-6.16661-2.98725v12.47662l-.00401-.21525.00401 1.89c0 2.42682 1.2261 2.55807 2.0123 3.13425v.14569h-7.1801v-.14569c.78352-.57618 2.0123-.70743 2.0123-3.13425zm-32.06583 4.06823c3.69569 0 6.69342-3.7485 6.69342-8.37375 0-4.62394-2.99773-8.37507-6.69342-8.37507-3.69836 0-6.69475 3.75113-6.69475 8.37507 0 4.62525 2.9964 8.37375 6.69475 8.37375m-10.26609-8.37375c0-5.33532 4.5942-9.66263 10.2661-9.66263 5.66787 0 10.26207 4.32731 10.26207 9.66263 0 5.33662-4.5942 9.66393-10.26208 9.66393-5.67189 0-10.26609-4.3273-10.26609-9.66393"/>
  </g>
</svg>
