<?xml version="1.0" standalone="no"?>
<!DOCTYPE svg PUBLIC "-//W3C//DTD SVG 20010904//EN"
 "http://www.w3.org/TR/2001/REC-SVG-20010904/DTD/svg10.dtd">
<svg version="1.0" xmlns="http://www.w3.org/2000/svg"
 width="1024.000000pt" height="1024.000000pt" viewBox="0 0 1024.000000 1024.000000"
 preserveAspectRatio="xMidYMid meet">
<metadata>
Created by potrace 1.11, written by Peter Selinger 2001-2013
</metadata>
<g transform="translate(0.000000,1024.000000) scale(0.100000,-0.100000)"
fill="#000000" stroke="none">
<path d="M3580 8886 c-473 -61 -850 -298 -1122 -705 -271 -406 -384 -946 -273
-1306 14 -44 28 -85 33 -92 4 -7 6 59 4 147 -18 695 353 1267 943 1453 160 50
244 61 470 61 230 0 323 -11 545 -66 915 -226 1903 -964 2697 -2014 274 -362
558 -877 731 -1323 4 -12 -12 -13 -99 -8 -233 13 -434 83 -618 215 -36 25
-130 102 -210 171 -264 228 -318 267 -476 343 -124 59 -259 94 -416 110 -437
44 -1054 -168 -1664 -571 -71 -47 -133 -88 -138 -89 -4 -2 12 52 36 120 24 67
194 557 378 1088 276 799 338 970 361 991 26 25 14 22 -175 -37 -601 -190
-959 -256 -1135 -209 -197 53 -447 201 -710 421 -57 47 -105 84 -107 82 -8 -7
-1418 -4103 -1423 -4128 -3 -21 11 -40 77 -107 241 -243 524 -414 829 -500
122 -34 311 -42 452 -18 240 40 518 151 753 301 59 38 67 41 67 24 0 -11 2
-20 4 -20 2 0 48 28 102 62 345 216 773 388 1134 455 137 25 461 25 585 0 96
-20 283 -78 325 -101 31 -18 36 -16 -160 -56 -879 -177 -1990 -525 -2936 -918
-706 -294 -1420 -655 -1959 -990 -126 -79 -413 -269 -454 -301 -24 -18 -21
-19 280 -25 167 -3 762 -8 1322 -11 l1017 -6 141 116 c732 602 1626 1143 2341
1419 258 99 1007 326 1078 326 24 0 145 -66 133 -73 -4 -2 -73 -26 -153 -52
-456 -150 -864 -319 -1181 -490 -331 -179 -901 -538 -1204 -760 -221 -162
-540 -426 -553 -457 -2 -4 532 -8 1186 -8 l1190 0 297 225 c164 124 301 225
306 225 4 0 54 -11 111 -25 464 -111 866 -88 1158 67 367 194 690 699 798
1248 l17 85 55 27 c292 145 1224 503 1753 674 48 15 87 31 87 35 0 7 -146 15
-575 30 -309 11 -1095 6 -1232 -8 l-63 -6 0 54 c0 38 51 248 165 688 91 348
165 635 165 637 0 2 -46 -21 -103 -51 -172 -91 -487 -202 -506 -178 -4 4 -31
64 -61 133 -193 452 -486 944 -856 1435 -160 213 -220 283 -447 522 -295 311
-608 602 -897 833 -632 504 -1206 792 -1745 875 -144 22 -350 27 -475 11z
m-475 -3291 l7 -285 37 -10 c84 -23 320 -2 491 44 30 9 56 14 57 12 2 -2 -125
-95 -282 -206 -158 -111 -289 -209 -292 -217 -3 -9 1 -128 10 -266 9 -138 15
-253 12 -255 -5 -5 -100 48 -202 115 -89 58 -132 105 -184 198 -18 33 -34 62
-35 64 -2 2 -15 -6 -31 -17 -48 -34 -152 -71 -298 -106 -161 -39 -215 -49
-215 -41 0 4 74 115 164 248 l164 242 -46 65 c-81 116 -171 272 -191 334 -22
68 -36 146 -27 146 4 0 82 -51 174 -114 170 -116 276 -176 310 -176 14 0 67
72 188 255 93 140 172 255 175 255 4 0 10 -128 14 -285z m4775 -2647 c0 -25
-59 -244 -85 -318 -69 -194 -200 -392 -338 -511 -245 -212 -508 -318 -828
-335 -122 -6 -337 8 -367 25 -16 9 -38 -8 568 453 474 360 538 407 664 485
109 67 368 213 378 213 5 0 8 -6 8 -12z"/>
</g>
</svg>
