<svg xmlns="http://www.w3.org/2000/svg" viewBox="0 0 32 32">
  <g fill="none" stroke="currentColor" stroke-width="1.5" stroke-miterlimit="10">
    <path class="st0" d="M18.98 16.91h9.27c1.25-.04 2.06-.98 1.96-2.53-.1-1.41-.88-2.14-2.1-2.16-1.46-.03-7.41-.02-8.93 0l-4.48-.02M19.04 21.62l7.88.01c1.23-.04 2.01-.81 2.07-2.21.07-1.5-.71-2.46-1.99-2.51"/>
    <path class="st0" d="M18.98 26.31h8.05c1.25-.04 2.06-.98 1.96-2.53-.1-1.41-.88-2.14-2.1-2.16"/>
    <path class="st0" d="M25.45 26.32c1.28.05 2.06 1 1.99 2.51-.07 1.4-.84 2.17-2.07 2.21-1.34.04-11.78.07-14.79-.05-1.31-.05-2.38-.87-2.63-2.23-.21-1.17-.87-1.55-1.89-1.51-1.42.06-2.8.17-4.28.17V13.57c1.46 0 2.89-.14 4.25-.18 1.45-.04 2.3-1.58 2.3-1.58l4.91-10.75c1.67 0 2.74 2.11 2.53 3.67-.16 1.18-1.82 12.63-1.82 12.63"/>
  </g>
</svg>
