<svg viewBox="0 0 74 80" xmlns="http://www.w3.org/2000/svg">
  <g transform="translate(1 1)" stroke="currentColor" stroke-width="1.5" fill="none" fill-rule="evenodd">
    <path d="M41.658 66.66H0V0h32.76L50.1 17.34v9.486"/>
    <path d="M50.442 17.682H32.76V0M23.526 54.558H6.96M33.6 49.404H6.96M21.276 14.094H6.966M25.284 8.94H6.966M37.302 32.478H6.966M44.514 27.324H6.966"/>
    <path d="M50.874 49.53c.856.24 1.739.372 2.628.39h1.032M55.494 29.34a10.368 10.368 0 00-4.62 20.19" stroke-linejoin="bevel"/>
    <path d="M55.404 50.082L48.45 74.616l-4.578 2.916-3.42-6.12.492-1.74 4.518-1.062.414-1.458-2.964-4.416 6-2.988-3.576-5.574 1.908-6.72"/>
    <circle stroke-linejoin="bevel" cx="55.938" cy="36.33" r="3.384"/>
    <circle stroke-linejoin="bevel" cx="56.736" cy="39.708" r="10.368"/>
    <path d="M63.816 47.448l7.506 24.57-2.262 4.938-6.192-3.294-.522-1.728 3.216-3.336-.444-1.458-4.884-2.1 3.426-5.76-6.024-2.748-2.046-6.684"/>
    <path d="M59.55 30.054c.348-2.352-.042-4.248-1.026-4.5-1.2-.312-2.772 1.872-3.552 4.866-.78 2.994-.456 5.676.726 6 .678.18 1.5-.474 2.22-1.638l.414-.822" stroke-linejoin="bevel"/>
    <path d="M37.302 38.442H6.966"/>
  </g>
</svg>
