<svg viewBox="0 0 1767.22 187.01" xmlns="http://www.w3.org/2000/svg"><path d="m478 119.06c0 23.7 12.42 37.25 31.05 37.25 9.87 0 15.94-3.95 19.89-10.16l.85 8.47h14.21v-70.56c-8.18-2.82-16.51-4-26.67-4-26.08.05-39.33 14.16-39.33 39zm50.52 19.47a24.27 24.27 0 0 1 -15.1 5.08c-13.83 0-19.61-10.16-19.61-24.55 0-15.81 7.47-25.69 23.56-25.69a63.5 63.5 0 0 1 11.15.85zm60.68-58.42c-7.47 0-18.34 1.55-28.22 4v70.56h15.52v-60.17a78.62 78.62 0 0 1 12.28-1.13c15.52 0 19.19 5.37 19.19 16.51v44.74h15.53v-47.42c-.01-17.07-8.34-27.09-34.31-27.09zm97.66 1.13a60.38 60.38 0 0 0 -11.57-1.13c-26.11 0-39.37 14.11-39.37 39 0 23.7 12.42 37.25 31 37.25 10.16 0 16.23-4.09 20.18-10.72l.85 9h14.25v-98.81c-5.08 0-10.58.43-15.38 2.12zm0 57a24.89 24.89 0 0 1 -15.52 5.36c-13.83 0-19.62-10.16-19.62-24.55 0-16.09 7.34-25.69 22.72-25.69a62.47 62.47 0 0 1 12.42 1.41zm-303.43-58.13c-7.48 0-18.34 1.55-28.22 4v70.56h15.52v-60.17a78.62 78.62 0 0 1 12.27-1.13c15.52 0 19.19 5.37 19.19 16.51v44.74h15.52v-47.42c.01-17.07-8.31-27.09-34.28-27.09zm-257.07 1.83a32.48 32.48 0 0 0 -4.36-14.88l-23.5-40.75a32.57 32.57 0 0 1 -3.72-9.85l-1 1.7a32.62 32.62 0 0 0 0 32.6l18.82 32.6a32.6 32.6 0 0 1 0 32.59l-1 1.71a32.33 32.33 0 0 0 -3.73-9.85l-17.19-29.81-11-19a32.77 32.77 0 0 1 -3.68-9.94l-1 1.7a32.61 32.61 0 0 0 -.06 32.49l18.86 32.75a32.62 32.62 0 0 1 0 32.6l-1 1.7a32.53 32.53 0 0 0 -3.73-9.85l-23.5-40.79a32.51 32.51 0 0 1 -4.33-17.72c-25.19 6.58-42.57 20.55-42.57 36.73 0 22.5 33.64 40.75 75.13 40.75s75.13-18.25 75.13-40.75c0-16.18-17.38-30.15-42.57-36.73zm110.73 18.21-7.62-3.25c-9.88-4.23-15.39-8.47-15.39-15.81s5.65-12.27 17.92-12.27a71.63 71.63 0 0 1 23.14 4.09 54.13 54.13 0 0 0 2.86-14.11 77.43 77.43 0 0 0 -25.82-4.09c-22.86 0-34 10.3-34 26.38 0 15 9 22.44 22.3 28.23l7.19 3.1c13.27 5.79 18.63 9.6 18.63 17.78 0 8.33-7.34 12.56-20.46 12.56a66 66 0 0 1 -25.83-5.5 47.47 47.47 0 0 0 -2.68 14.25c7.9 3.67 17.36 5.37 28.93 5.37 24 0 36.27-11.15 36.27-27.38-.04-13.69-7.53-21.73-25.44-29.35zm35.14 18.91c0 23.7 12.42 37.25 31 37.25 9.87 0 15.94-3.95 19.89-10.16l.85 8.47h14.25v-70.56c-8.18-2.82-16.51-4-26.67-4-26.06.05-39.32 14.16-39.32 39zm50.52 19.47a24.27 24.27 0 0 1 -15.1 5.08c-13.83 0-19.62-10.16-19.62-24.55 0-15.81 7.48-25.69 23.57-25.69a63.5 63.5 0 0 1 11.15.85zm149.17-42.76a120.48 120.48 0 0 0 1.41-13.26h-24.55v-26.68a53.8 53.8 0 0 0 -15.53 2.26v74.09c0 17.22 9.6 24.13 24.7 24.13a35.09 35.09 0 0 0 13.12-2.26c.85-4.09 1.41-8.89 1.84-13.12a35.19 35.19 0 0 1 -12.14 2.12c-7.48 0-12-3.53-12-12.7v-34.58zm873.73-.23a22.06 22.06 0 0 0 -1-2.39c-.18-.38-.37-.76-.57-1.13a20.43 20.43 0 0 0 -1.3-2.1c-4.51-6.37-12.64-9.8-25.29-9.8-1.08 0-2.15 0-3.22.11a54.34 54.34 0 0 0 -12.52 2.33c-1 .31-2 .65-3 1q-3 1.09-5.93 2.48a21.18 21.18 0 0 0 -5.33-3.19 32 32 0 0 0 -6.77-1.94 57 57 0 0 0 -10-.8 97.53 97.53 0 0 0 -14.23 1.1q-3 .45-5.94 1c-2.53.52-5.08 1.12-7.63 1.8v70.56h9.88v-63.72c2.06-.48 4.21-.88 6.36-1.19a76.38 76.38 0 0 1 10.57-.79c5.66 0 10 .79 13.2 2.51a14.17 14.17 0 0 1 1.51.93 12.66 12.66 0 0 1 4.27 5.34 26.56 26.56 0 0 1 1.77 10.55v46.43h9.87v-47.7a40 40 0 0 0 -1.37-11 24.15 24.15 0 0 0 -1-2.94 47.78 47.78 0 0 1 18.77-4.09c14.54 0 20.75 6.77 20.75 19.62v46.14h9.87v-47.7a40.58 40.58 0 0 0 -.63-7.45 29.09 29.09 0 0 0 -1.09-3.97zm120.79-15.11c-1.12 0-2.26 0-3.43 0a71.61 71.61 0 0 0 -7.42.42h-.3c-2 .21-3.92.48-5.84.81-1.7.3-3.36.64-4.93 1-.75.18-1.47.37-2.17.56l-1.56.45-1.2.39v70.56h9.88v-64.2l1.76-.35c1.18-.22 2.38-.41 3.58-.57a63.9 63.9 0 0 1 8.48-.63 86.5 86.5 0 0 1 10.87.56 19.6 19.6 0 0 0 .56-2.7q.08-.54.15-1.11a43.12 43.12 0 0 0 .28-4.65c-1.17-.16-2.51-.28-4-.37s-3.04-.14-4.71-.17zm-48.65 10.37a24.36 24.36 0 0 0 -7.54-6.75 26.76 26.76 0 0 0 -2.73-1.37 34.23 34.23 0 0 0 -13.65-2.56 37.87 37.87 0 0 0 -11.6 1.68 29.36 29.36 0 0 0 -3.26 1.25 26.63 26.63 0 0 0 -6.85 4.49c-7.56 6.83-10.89 17.77-10.89 30.26 0 15.17 4.85 26.42 14.24 32.73a31.06 31.06 0 0 0 6.18 3.19 43.49 43.49 0 0 0 15.57 2.6 53.53 53.53 0 0 0 11.58-1.14l1.39-.34c.93-.24 1.84-.51 2.75-.82a39.08 39.08 0 0 0 4-1.65c.89-.43 1.78-.9 2.66-1.41.27-1.16.51-2.43.73-3.69.36-2.09.65-4.18.82-5.76a44.52 44.52 0 0 1 -10.34 4.28 50.35 50.35 0 0 1 -13.36 1.78c-12.07 0-20.08-5.08-23.87-14.76a38.55 38.55 0 0 1 -2.38-11.2h52.21a58.57 58.57 0 0 0 .57-8.75c0-8-1.73-15.23-5.45-20.88-.21-.4-.49-.8-.78-1.18zm-3.6 21.92h-42.9a33.85 33.85 0 0 1 3.79-14 18.9 18.9 0 0 1 5.45-6.23 18.55 18.55 0 0 1 5.73-2.76 25.48 25.48 0 0 1 7.19-1 23.09 23.09 0 0 1 9.13 1.7 16.93 16.93 0 0 1 5.1 3.31 17.27 17.27 0 0 1 1.38 1.46c3.44 4.11 5.13 10 5.13 17zm-200.38 27.09a31.11 31.11 0 0 1 -3.82 3.09 29.17 29.17 0 0 1 -5.24 2.84 28.83 28.83 0 0 1 -11 2.12c-4.76 0-8.57-.88-11.47-2.74-4.84-3.11-7.15-9-7.15-18.15v-45.16h-9.88v47.19a38.19 38.19 0 0 0 2.11 13.46 23.77 23.77 0 0 0 1 2.35c.19.38.39.74.59 1.1a21.94 21.94 0 0 0 1.32 2 19 19 0 0 0 7.22 5.87 20 20 0 0 0 2.27.93 28.6 28.6 0 0 0 5.08 1.24 39.29 39.29 0 0 0 5.79.4 41.18 41.18 0 0 0 13.67-2 25.94 25.94 0 0 0 2.75-1.13 26.7 26.7 0 0 0 2.53-1.38 26.15 26.15 0 0 0 4.47-3.52l.29 6.35h9.31v-72.86h-9.88zm351.19-82.13v63.22a32.45 32.45 0 0 1 -1.58 10.33c-.1.29-.2.58-.31.86a22.82 22.82 0 0 1 -4.88 7.88 22.62 22.62 0 0 1 -1.75 1.64c-4.35 3.62-10.3 5.67-17.71 5.67-9.37 0-16.55-3.39-21-9.22-.25-.33-.49-.66-.72-1a23.47 23.47 0 0 1 -1.86-3.24 30.88 30.88 0 0 1 -2.77-13.35v-64.34a42.19 42.19 0 0 0 -9.61 1.48l-.27.07v64.21c0 13.49 5.94 24.84 17.35 30.61a33 33 0 0 0 3.25 1.44 38.83 38.83 0 0 0 5.38 1.6 47.41 47.41 0 0 0 10.29 1.06c8.83 0 16.12-2.12 21.78-5.81a29.64 29.64 0 0 0 6.22-5.38 29 29 0 0 0 2-2.56 31.88 31.88 0 0 0 3.78-7.26 39.29 39.29 0 0 0 2.33-13.7v-65.76a42.28 42.28 0 0 0 -9.61 1.48zm90.12 69.23a24 24 0 0 0 -2-7.6 20.58 20.58 0 0 0 -1-1.92c-.19-.31-.38-.62-.58-.93a22.11 22.11 0 0 0 -1.32-1.78 20.35 20.35 0 0 0 -1.53-1.71c-4.09-4.18-10.24-7.68-18.91-11.12l-6.78-2.68c-12.28-4.8-18.77-9.74-18.77-19.61a14.43 14.43 0 0 1 1.51-6.73 12.31 12.31 0 0 1 1.83-2.62 17.83 17.83 0 0 1 9.34-5 40.23 40.23 0 0 1 9-.93 65.85 65.85 0 0 1 19.8 3.14c.58.18 1.15.38 1.72.58.74.25 1.47.51 2.19.79l.09-.3q.23-.7.42-1.47l.12-.48a49.38 49.38 0 0 0 1.06-7.06q-3-1.11-6-2c-1-.28-2-.54-3-.77q-3-.7-6.25-1.14c-1.07-.14-2.15-.26-3.26-.36-2.22-.19-4.51-.29-6.91-.29a46.26 46.26 0 0 0 -17.17 2.89l-.77.32a24.75 24.75 0 0 0 -7.4 4.8c-4.25 4.07-6.55 9.63-6.55 16.55 0 11.32 4.92 18.36 13.46 23.55.71.43 1.44.85 2.2 1.26 1.52.82 3.14 1.59 4.85 2.33.86.37 1.73.73 2.63 1.08l6.78 2.68q2.51 1 4.66 2c.94.41 1.83.83 2.68 1.23l1.47.73c.36.18.7.37 1 .55a31.58 31.58 0 0 1 6.24 4.23 15.8 15.8 0 0 1 3.15 3.81c.09.16.18.32.26.48a16 16 0 0 1 1.66 7.61 14 14 0 0 1 -3.55 9.73c-3.88 4.24-10.8 6.5-20.15 6.5-8.47 0-18.91-2-27.38-6.63a27.15 27.15 0 0 0 -1.35 5.5 36.08 36.08 0 0 0 -.34 4.1 56.63 56.63 0 0 0 21.11 6q3.92.38 8.1.37a55.51 55.51 0 0 0 11.23-1.06c.57-.12 1.12-.24 1.66-.38a36.79 36.79 0 0 0 4.62-1.45c1-.38 1.89-.79 2.77-1.23s1.72-.92 2.52-1.42a25.48 25.48 0 0 0 2.26-1.62 23.21 23.21 0 0 0 2.92-2.76c.29-.33.57-.66.84-1a22.36 22.36 0 0 0 3.67-6.88 24 24 0 0 0 .68-2.59 26.16 26.16 0 0 0 .42-2.72c.09-.93.13-1.88.13-2.85 0-.43 0-.86 0-1.28.1-.83.04-1.65-.05-2.44zm53-70.64a62.73 62.73 0 0 0 -9.59.72c-1 .16-2 .34-2.83.55l-34 97.09h10.45l8.18-23.85h43.6l8.19 23.85h10.44zm-24.7 65.2 18.77-54.9 18.63 54.9zm-672.42-15.37a41.37 41.37 0 0 0 -1.5-5.14 33.84 33.84 0 0 0 -2.09-4.7c-.26-.5-.54-1-.83-1.46a32.92 32.92 0 0 0 -1.86-2.74 28.71 28.71 0 0 0 -3.3-3.66c-5.19-4.85-12.28-7.83-21.27-8.23-.69 0-1.4 0-2.11 0a39.72 39.72 0 0 0 -13 2 30.27 30.27 0 0 0 -9.04 4.83c-.44.34-.86.7-1.28 1.07a30 30 0 0 0 -4.48 5 31.93 31.93 0 0 0 -1.81 2.93 36.82 36.82 0 0 0 -3.44 8.39 52.91 52.91 0 0 0 -1.83 14.28c0 21.73 11.43 37.67 34 37.67 22.3 0 35-14.67 35-38.8a55.89 55.89 0 0 0 -.53-7.77c-.17-1.26-.39-2.48-.63-3.67zm-11.2 26.78a25.9 25.9 0 0 1 -1 2.4c-.19.38-.39.76-.59 1.13-3.91 7-10.69 11-20.41 11-16.09 0-24.56-10.58-24.56-29.49 0-7 1.33-13.15 4-17.9.42-.73.86-1.43 1.34-2.1a21.69 21.69 0 0 1 2.36-2.77c4-3.94 9.62-6.16 16.85-6.16a26.63 26.63 0 0 1 10.54 2q.57.24 1.11.51a19.87 19.87 0 0 1 7.28 6.16c.24.33.48.67.7 1a24.68 24.68 0 0 1 1.26 2.2c.19.38.38.77.56 1.17a30.3 30.3 0 0 1 1.39 3.83 44.69 44.69 0 0 1 1.57 12.36 41.47 41.47 0 0 1 -2.42 14.66zm-85.14-77.88c-11.11 0-20.46 2.62-27.8 7.59-.61.42-1.21.85-1.79 1.29-6.43 4.92-11.15 11.79-14 20.41-.25.79-.5 1.59-.72 2.4a71.05 71.05 0 0 0 -2.35 19.11c0 9.57 1.59 18.12 4.67 25.35a44.86 44.86 0 0 0 2 4.18 43.62 43.62 0 0 0 2.38 3.85 39 39 0 0 0 5.81 6.65 36.6 36.6 0 0 0 3.42 2.77 36.14 36.14 0 0 0 3.72 2.4 41.33 41.33 0 0 0 8.5 3.55 50.38 50.38 0 0 0 9.8 1.83c1.74.16 3.53.23 5.37.23s3.8-.06 5.57-.18 3.24-.29 4.76-.51l.74-.12c1.47-.23 2.89-.51 4.25-.85a43.07 43.07 0 0 0 4.3-1.3 64.55 64.55 0 0 0 1.37-7.9c.08-.85.14-1.69.18-2.54a39.63 39.63 0 0 1 -4.54 1.69c-.8.24-1.62.47-2.45.68-1.54.38-3.14.69-4.75.93-1.05.17-2.11.3-3.17.4-1.68.16-3.35.25-5 .25-18.11 0-31-10.15-35.21-28.12a59.86 59.86 0 0 1 -1.48-13.65 62.05 62.05 0 0 1 1-11.63 46.79 46.79 0 0 1 1.57-6.07c.21-.64.43-1.27.67-1.88.39-1 .83-2 1.3-3 .36-.75.74-1.48 1.15-2.19q.46-.8 1-1.56a30.72 30.72 0 0 1 7.13-7.74c.46-.35.93-.69 1.41-1a30 30 0 0 1 4.58-2.56c.53-.25 1.08-.48 1.64-.7a38.91 38.91 0 0 1 10.93-2.46c1.32-.11 2.66-.16 4-.16 1.73 0 3.45.08 5.14.23a56 56 0 0 1 11.51 2.25l1.27.41c.47.16.95.32 1.41.49.22-.63.42-1.33.61-2.07.09-.37.18-.75.26-1.14.17-.78.33-1.6.45-2.43a37.23 37.23 0 0 0 .38-3.81c-.76-.3-1.54-.58-2.35-.83a63 63 0 0 0 -18.64-2.54zm217.34 59.55-6.63-2.25c-2.19-.75-4.17-1.45-5.92-2.22a22.59 22.59 0 0 1 -3.51-1.86 12 12 0 0 1 -1.85-1.47 10 10 0 0 1 -3-7.72c0-6 4.21-9.51 12.54-10.28 1.19-.11 2.47-.16 3.82-.16a62.77 62.77 0 0 1 13.06 1.41 54.92 54.92 0 0 1 7.55 2.17c.1-.36.2-.71.29-1.07.28-1.08.5-2.18.68-3.26.11-.71.2-1.41.28-2.08q0-.51.09-1c0-.32 0-.63.07-.93a49.11 49.11 0 0 0 -7.75-2.28 65.27 65.27 0 0 0 -8.52-1.17q-3-.23-6-.22c-15.94 0-25.54 6.63-25.54 19.19 0 7.76 3.27 13.19 9.39 17.06q.84.52 1.74 1a44.71 44.71 0 0 0 8.34 3.37l6.5 2a49 49 0 0 1 6.37 2.37 17.13 17.13 0 0 1 5.35 3.73 11 11 0 0 1 .8 1 10.62 10.62 0 0 1 2 6.46c0 5-2.59 8.24-7.19 9.94a30.16 30.16 0 0 1 -10.31 1.49 53.82 53.82 0 0 1 -7.19-.5 45 45 0 0 1 -15.81-5c-.15.42-.29.89-.43 1.38a31.31 31.31 0 0 0 -1 7.23c.54.31 1.12.59 1.68.88a37.67 37.67 0 0 0 6.44 2.53c1 .29 2 .54 3 .77a63.53 63.53 0 0 0 13.56 1.32 46.7 46.7 0 0 0 8.77-.77l1.3-.28c.86-.2 1.69-.42 2.48-.68a25.53 25.53 0 0 0 5.39-2.38c.64-.39 1.25-.8 1.82-1.23s1.11-.9 1.62-1.38a18.09 18.09 0 0 0 5.44-13.6c.01-12.33-8.6-17.7-19.72-21.51zm-337.47-30.49v70.56h15.53v-60.4a77.14 77.14 0 0 1 11.43-.85 98.74 98.74 0 0 1 11.71.57 57.71 57.71 0 0 0 1.41-13.27 127.62 127.62 0 0 0 -13.55-.56c-8.75 0-19.9 1.69-26.53 3.95zm-45.16-4c-24.69 0-34.43 16.65-34.43 37.68 0 24.13 12.56 38.52 38.52 38.52 8.33 0 15.81-1.27 22.86-4.52 1-4.65 1.84-10 2.4-14.11a60.46 60.46 0 0 1 -24.83 5.37c-13.83 0-21.17-6.07-23.15-18.63h49.54a83.41 83.41 0 0 0 .84-12c0-17.73-9.59-32.26-31.75-32.26zm-18.91 31.33c1.27-12 7.06-18.35 18.06-18.35 10.73 0 16.94 6.77 16.94 18.35zm348.84-23.39a19.64 19.64 0 0 0 -4-3.23 25.25 25.25 0 0 0 -3.79-1.88c-.92-.36-1.9-.7-2.92-1-.52-.15-1-.29-1.58-.42a58.63 58.63 0 0 0 -13.47-1.37 86.44 86.44 0 0 0 -13.24 1.12c-1.83.28-3.7.62-5.59 1-2.53.52-5.1 1.12-7.7 1.82v70.56h9.88v-63.75c1.34-.32 2.72-.6 4.11-.85.78-.14 1.58-.26 2.37-.38a70.53 70.53 0 0 1 9.89-.75c17.36 0 22.3 6.77 22.3 19.9v45.86h9.87v-47.7c0-6.93-1.32-12.66-4.5-17a18.18 18.18 0 0 0 -1.63-1.93z" fill="#fff"/></svg>