<svg enable-background="new 0 0 24 24" viewBox="0 0 24 24"  xmlns="http://www.w3.org/2000/svg"><path clip-rule="evenodd" d="m12 2c2.5 0 4.5 2 4.5 4.5v2h5c.2 0 .4.2.5.4v.1 8.1c0 2.7-2.2 4.9-4.9 4.9h-10.2c-2.7 0-4.9-2.2-4.9-4.9v-8.1c0-.3.2-.5.5-.5h5v-2c0-2.4 1.9-4.4 4.3-4.5zm9 7.5h-4.5v2c0 .2-.2.4-.4.5h-.1c-.3 0-.5-.2-.5-.5v-2h-7v2c0 .2-.2.4-.4.5h-.1c-.3 0-.5-.2-.5-.5v-2h-4.5v7.6c0 2.2 1.7 3.9 3.9 3.9h10.2c2.2 0 3.9-1.7 3.9-3.9zm-9-6.5c-1.9 0-3.5 1.6-3.5 3.5v2h7v-2c0-1.9-1.5-3.4-3.3-3.5z" /></svg>