<svg width="75" height="14" viewBox="0 0 75 14" fill="none" xmlns="http://www.w3.org/2000/svg">
<path d="M62.3265 6.54656C62.9967 6.03546 63.7839 5.54567 64.5498 5.54567C65.3582 5.54567 65.7306 6.19518 65.571 7.14283L64.3902 13.7977H68.2836L69.5069 6.64239C70.0814 3.23511 67.89 2.01062 65.922 2.01062C64.4434 2.01062 62.986 2.66013 61.9435 3.82074C61.4116 2.45783 60.2309 2.01062 59.1139 2.01062C57.7523 2.01062 56.4545 2.5643 55.3907 3.7462L55.6673 2.21293H49.8378L49.2314 5.59891H51.4335L49.9974 13.7977H53.8589L55.1354 6.54656C55.8056 6.03546 56.5928 5.54567 57.3587 5.54567C58.1671 5.54567 58.5395 6.19518 58.3799 7.14283L57.1991 13.7977H61.0606L62.3265 6.54656Z" fill="white"/>
<path fill-rule="evenodd" clip-rule="evenodd" d="M36.7212 8.36735C36.7212 4.99201 39.136 2 43.2315 2C46.476 2 49.0929 4.1402 49.0929 7.63265C49.0929 11.008 46.6781 14 42.5826 14C39.3381 14 36.7212 11.8705 36.7212 8.36735ZM40.572 8.18634C40.572 9.58119 41.4337 10.6673 42.7953 10.6673C44.2953 10.6673 45.242 9.32564 45.2526 7.81366C45.2526 6.41881 44.391 5.33274 43.0294 5.33274C41.5188 5.33274 40.572 6.685 40.572 8.18634Z" fill="white"/>
<path fill-rule="evenodd" clip-rule="evenodd" d="M23.7539 8.36735C23.7539 4.99201 26.1687 2 30.2642 2C33.5087 2 36.1256 4.1402 36.1256 7.63265C36.1256 11.008 33.7108 14 29.6153 14C26.3708 14 23.7539 11.8705 23.7539 8.36735ZM27.6048 8.18634C27.6048 9.58119 28.4664 10.6673 29.828 10.6673C31.328 10.6673 32.2854 9.32564 32.2854 7.81366C32.2854 6.41881 31.4237 5.33274 30.0621 5.33274C28.5515 5.33274 27.6048 6.685 27.6048 8.18634Z" fill="white"/>
<path d="M24.1583 2L23.3924 6.17391H21.818C20.3394 6.17391 19.733 6.91925 19.5309 8.12245L18.5629 13.7977H14.6907L16.1268 5.59894H13.9248L14.5312 2.21295H20.3606L19.9458 4.43833C20.733 2.56433 22.4456 2 24.0413 2H24.1583Z" fill="white"/>
<path d="M0 5.59893L0.595713 2.21295H6.14861L5.88266 10.2839L9.58459 2.21295H13.9354L8.07404 13.7977H2.20201V5.59893H0Z" fill="white"/>
<path d="M74.87 2.6C74.87 1.54 74.05 0.77 73.06 0.77C72.07 0.77 71.25 1.54 71.25 2.6C71.25 3.66 72.07 4.43 73.06 4.43C74.05 4.43 74.87 3.66 74.87 2.6ZM74.56 2.6C74.56 3.49 73.89 4.13 73.06 4.13C72.23 4.13 71.55 3.49 71.55 2.6C71.55 1.7 72.23 1.06 73.06 1.06C73.89 1.06 74.56 1.7 74.56 2.6ZM73.02 2.86L73.47 3.54H73.94L73.45 2.82C73.71 2.75 73.87 2.55 73.87 2.25C73.87 1.85 73.61 1.62 73.19 1.62H72.35V3.54H72.77V2.86H73.02ZM73.47 2.25C73.47 2.39 73.36 2.51 73.17 2.51H72.77V1.98H73.17C73.36 1.98 73.47 2.1 73.47 2.25Z" fill="white"/>
</svg>
