<svg fill="none" height="20" viewBox="0 0 102 20" width="102" xmlns="http://www.w3.org/2000/svg"><g fill="#767676"><path d="m83.1019 8.06208c.8936-.68146 1.9432-1.33452 2.9644-1.33452 1.0779 0 1.5744.86602 1.3616 2.12955l-1.5744 8.87309h5.1912l1.6312-9.54035c.7659-4.54304-2.156-6.17569-4.7799-6.17569-1.9716 0-3.9147.86602-5.3047 2.41349-.7092-1.81722-2.2836-2.41349-3.7729-2.41349-1.8155 0-3.5459.73824-4.9642 2.31411l.3687-2.04437h-7.7726l-.8085 4.51464h2.9361l-1.9148 10.93166h5.1486l1.7021-9.66812c.8935-.68146 1.9431-1.33452 2.9643-1.33452 1.078 0 1.5744.86602 1.3617 2.12955l-1.5744 8.87309h5.1486z"/><path clip-rule="evenodd" d="m48.9619 10.4898c0-4.50045 3.2197-8.4898 8.6804-8.4898 4.326 0 7.8152 2.85359 7.8152 7.5102 0 4.5004-3.2197 8.4898-8.6804 8.4898-4.326 0-7.8152-2.8394-7.8152-7.5102zm5.1345-.2414c0 1.8599 1.1489 3.3079 2.9644 3.3079 1.9999 0 3.2622-1.7888 3.2764-3.80475 0-1.8598-1.1489-3.30789-2.9644-3.30789-2.0141 0-3.2764 1.80301-3.2764 3.80474z" fill-rule="evenodd"/><path clip-rule="evenodd" d="m31.6719 10.4898c0-4.50045 3.2197-8.4898 8.6804-8.4898 4.326 0 7.8151 2.85359 7.8151 7.5102 0 4.5004-3.2196 8.4898-8.6803 8.4898-4.326 0-7.8152-2.8394-7.8152-7.5102zm5.1345-.2414c0 1.8599 1.1488 3.3079 2.9643 3.3079 1.9999 0 3.2764-1.7888 3.2764-3.80475 0-1.8598-1.1488-3.30789-2.9643-3.30789-2.0141 0-3.2764 1.80301-3.2764 3.80474z" fill-rule="evenodd"/><path d="m32.2111 2-1.0213 5.56522h-2.0991c-1.9716 0-2.78.99379-3.0495 2.59808l-1.2907 7.567h-5.1629l1.9148-10.93172h-2.936l.8085-4.51464h7.7726l-.5532 2.96717c1.0496-2.49867 3.3332-3.25111 5.4607-3.25111z"/><path d="m0 6.79858.794284-4.51464h7.403856l-.35459 10.76126 4.93595-10.76126h5.8011l-7.8152 15.44636h-7.82939v-10.93172z"/><path d="m101.192 2.96c0-1.696-1.312-2.9280004-2.896-2.9280004s-2.896 1.2320004-2.896 2.9280004 1.312 2.928 2.896 2.928 2.896-1.232 2.896-2.928zm-.496 0c0 1.424-1.072 2.448-2.4 2.448s-2.416-1.024-2.416-2.448c0-1.44 1.088-2.464001 2.416-2.464001s2.4 1.024001 2.4 2.464001zm-2.464.416.72 1.088h.752l-.784-1.152c.416-.112.672-.432.672-.912 0-.64-.416-1.008-1.088-1.008h-1.344v3.072h.672v-1.088zm.72-.976c0 .224-.176.416-.48.416h-.64v-.848h.64c.304 0 .48.192.48.432z"/></g></svg>