<svg xmlns="http://www.w3.org/2000/svg" viewBox="36 20 128 20">
  <g fill="currentColor" fill-rule="evenodd">
    <path d="M97.00472 25.35066c0 2.51869-.254 10.32806-.254 10.32806 0 1.5107.508 2.1827 1.94601 2.1827v.672h-5.67002v-.672c1.43933 0 2.20001-.672 2.20001-2.1827l.508-12.76274c-.422-1.008-.84666-1.344-1.946-1.428v-.588h4.31667l4.56935 11.92406 4.65535-11.92407h3.89334v.588c-1.10067 0-1.69333.504-1.69333 1.6787l.508 12.34405c0 1.8467.33866 2.3507 1.86134 2.3507v.672h-6.51669v-.672c1.27 0 1.86267-.42 1.778-2.3507 0 0-.254-8.64937-.33866-10.16006l-3.13135 8.56406c-.42333 1.092-.84666 2.3507-1.18533 3.6947l-1.01468.084c-.254-.924-.93133-2.6027-.93133-2.6027s-2.62334-7.30537-3.55468-9.74006m-5.33175 13.26662c-.33867-.084-.67733-.084-1.016-.084-.67733 0-1.86134.336-3.30068.336-5.50068 0-9.56336-3.27469-9.56336-9.32006 0-5.12269 3.80868-9.06806 9.64803-9.06806 1.35467 0 2.87734.252 4.14734.75468.254-.252.33867-.42.59267-.67068h.508c-.08467.92268-.42333 3.94537-.42333 3.94537h-.508c-.33867-1.76269-1.27-2.93869-4.23201-2.93869-3.55468 0-6.77069 2.7707-6.77069 7.89338 0 5.79337 3.30068 8.31206 6.94002 8.31206 2.36934 0 3.80868-1.344 4.74001-3.02269l.59134.252zM75.67719 24.17466h-.59267c-.08466-1.59468-.59266-2.09868-1.86134-2.09868h-2.45401v13.18274c0 2.1827.422 2.6027 1.86134 2.6027v.672h-6.34735v-.672c1.438 0 1.86134-.42 1.86134-2.6867V22.07599h-2.454c-1.60868 0-1.86268.42-2.28469 2.09868h-.59266l.42333-3.77737.42333.084c.16801.41868.50668.41868 1.52268.41868h8.2087c1.524 0 1.86267 0 2.20133-.50268h.508z"/>
    <path d="M57.73513 38.95302c-1.18533 0-2.11667-.168-2.79268-.42-.67733-.168-1.18533-.42-1.43933-.588-.33867.336-.59134.756-.59134.756l-.508-.168.42333-3.94669.59134.084c.33867 1.848 1.60867 3.19069 4.23201 3.19069 2.03068 0 3.38535-1.67869 3.38535-3.52669 0-1.51069-.59267-2.26669-2.62335-3.77737-.67733-.42-1.27-.756-1.778-1.176-1.86134-1.176-3.04667-2.5187-3.04667-4.70138 0-2.52 2.11534-4.19869 4.90934-4.19869 1.60734 0 2.62334.504 2.96201.6707l.59267-.6707.42333.084-.42333 3.60938-.59267-.08269c0-1.68-1.016-2.436-2.708-2.436-1.60868 0-2.794.84-2.794 2.436 0 1.42669 1.10066 2.35069 2.37066 3.18938.676.42 1.184.756 1.692 1.092 2.96202 2.1 3.63935 3.44268 3.63935 5.45868 0 2.93738-2.28468 5.12138-5.92402 5.12138M48.0871 24.17466h-.67733c0-1.51068-.67734-2.09868-2.03068-2.09868h-3.80868v6.63337h2.45401c1.27 0 1.524-.672 1.69201-1.764h.59267v4.70269h-.59267c-.168-1.26-.422-1.76269-1.77667-1.76269H41.5704v5.62538c0 2.09868.508 2.35068 1.86135 2.35068v.672h-6.43201v-.672c1.60734 0 1.86134-.42 1.86134-2.35068V23.16666c0-1.17468-.50668-1.67868-1.86134-1.67868v-.588h8.80136c1.524 0 1.86267-.084 2.11667-.5867h.59266zM128.82642 24.34253l-2.36934 7.64139h4.90802zm10.57937.84v10.07606c0 2.1827.508 2.6027 1.86134 2.6027v.672h-9.9867v-.672c.762 0 1.43934-.252 1.43934-.756 0-.336-.08467-.9227-.254-1.5107l-.762-2.43468h-5.58536c-.08466.336-1.10066 3.10537-1.10066 3.86137 0 .672.762.84 1.27.84v.672h-4.65402v-.672c.84534 0 1.52267-.084 2.11534-1.84668l4.31535-13.68676c-.254-.588-.59134-.756-1.184-.84v-.588h3.80735l4.57067 14.35875c.42334 1.51068.84667 2.26668 1.524 2.60268 1.01468-.336 1.26868-.672 1.26868-2.60268V23.16652c-.762-1.00669-.84666-1.67869-2.28468-1.67869v-.588h4.31668l7.10803 12.00675v-9.15074c0-1.848-.422-2.268-1.86134-2.268v-.588h9.4787v.588c-.59267 0-1.09935.252-1.09935.84 0 .42.16934.8387.33735 1.3427l2.70933 5.79468 2.62334-5.62669c.42334-.75469.508-1.17469.508-1.59469 0-.504-.33866-.756-1.10066-.756v-.588h4.486v.588c-1.10066 0-1.778 1.008-2.286 2.1827l-3.47 7.05337v4.61869c0 2.016.508 2.51868 1.86266 2.51868v.672h-6.43202v-.672c1.35335 0 1.86135-.50268 1.86135-2.51868v-3.9467l-3.72401-7.80937c-.67734-1.51069-.93001-1.84669-1.35335-2.09869-.84666.336-1.10066.924-1.10066 2.268v12.92944s.08466 1.008.16933 2.184l-1.10067.084z"/>
    <path d="M117.48599 22.07584h-.42334v8.64807h.762c2.79268 0 4.23069-1.2587 4.23069-4.44938s-1.26868-4.19869-4.56935-4.19869m.84666 9.90807h-1.27v3.61068c0 1.848.50668 2.2667 1.94601 2.2667v.672h-6.51668v-.672c1.35466 0 1.86266-.5027 1.86266-2.3507V23.67053c0-1.84669-.508-2.18269-1.86266-2.18269v-.588h4.90934c4.74 0 7.53136 1.428 7.53136 5.2907 0 4.03068-3.38534 5.79337-6.60003 5.79337M88.79523 25.0988c-2.20133 0-2.96201 2.09868-2.96201 4.53468 0 2.26669.67733 4.53338 2.96201 4.53338 2.20133 0 2.87734-2.2667 2.87734-4.61738 0-2.268-.84534-4.45069-2.87734-4.45069m0 10.07607c-3.21601 0-5.41602-2.268-5.41602-5.54138 0-3.108 2.28468-5.54269 5.41602-5.54269 3.04668 0 5.33135 2.3507 5.33135 5.5427 0 3.10537-2.36934 5.54137-5.33135 5.54137M50.3719 26.02227l-1.26867 4.11469h2.62335zm1.18534 8.14537v-.588c.84667 0 1.016-.252 1.016-.504 0-.336-.08466-.588-.16933-.84 0 0-.16933-.672-.33867-1.176h-3.30067l-.33867 1.092c-.08467.252-.16933.504-.16933.84s.33866.588.84666.588v.588h-3.302v-.588c.84667 0 1.18534-.252 1.524-1.176l2.53868-7.55737c-.08467-.336-.33867-.58669-.84534-.58669v-.58931h2.708c2.20002 6.38269 2.79268 8.06137 2.79268 8.06137.42334 1.428.84535 1.848 1.524 1.848v.588z"/>
  </g>
</svg>
