<svg xmlns="http://www.w3.org/2000/svg" viewBox="38.5 19 122.5 22.5">
  <path fill="currentColor" fill-rule="evenodd" d="M65.74567 31.97305v-7.78863h3.48895v6.77684c0 1.34148.13583 2.6501 1.88911 2.6501 1.75328 0 1.89037-1.30862 1.89037-2.6501v-6.77684h3.48895v7.78863c0 3.01263-1.92684 4.68632-5.37932 4.68632-3.5556 0-5.37806-1.67369-5.37806-4.68632M77.4412 34.88185l1.68284-2.33431c.62258.74905 1.6665 1.4299 2.8626 1.4299.90305 0 1.43884-.38527 1.43884-1.09896 0-.85263-.7798-1.09768-2.0979-1.4981-1.76962-.53937-3.33047-1.464-3.33047-3.57221 0-2.3179 1.89037-3.86905 4.56305-3.86905 1.85516 0 3.26256.576 4.14675 1.41347l-1.57972 2.33305c-.50309-.57473-1.35332-1.06358-2.39346-1.06358-.90305 0-1.2854.36758-1.2854.85516 0 .76674.9194.97642 1.92684 1.29095 1.9759.62526 3.50404 1.5322 3.50404 3.77937 0 2.352-1.68284 4.11158-4.719 4.11158-2.23751 0-3.97318-.95748-4.71902-1.77727M94.8443 31.86821l-.93575-2.94568c-.19243-.57474-.34839-1.30737-.41756-1.8278h-.1044c-.07043.52043-.22513 1.25306-.4163 1.8278l-.93576 2.94568zm-3.27764-7.68379h3.83356l4.52784 12.23116h-3.62604l-.57227-1.75958h-4.59827l-.55466 1.75958h-3.53926zM104.99634 27.02476h-3.0022v-2.84084h9.49084v2.84084h-3.0022v9.39284h-3.48644zM121.51464 30.31705c0-2.19663-1.42501-3.3259-3.1217-3.3259-1.66649 0-3.09024 1.12927-3.09024 3.3259 0 2.18021 1.42375 3.29306 3.09025 3.29306 1.69668 0 3.12169-1.11285 3.12169-3.29306m-9.7839 0c0-3.0139 2.1482-6.37642 6.6773-6.37642 4.5467 0 6.69868 3.36253 6.69868 6.37642 0 2.99621-2.15198 6.34232-6.69868 6.34232-4.5291 0-6.6773-3.3461-6.6773-6.34232M129.84397 33.5928h.74583c2.2375 0 3.43487-1.08 3.43487-3.29179 0-2.21432-1.19736-3.29305-3.43487-3.29305h-.74583zm-3.48895-9.408h4.49513c4.3027 0 6.7666 2.30021 6.7666 6.11621 0 3.74526-2.53433 6.11621-6.7666 6.11621h-4.49513zM144.9399 31.86821l-.93576-2.94568c-.19243-.57474-.34839-1.30737-.41757-1.8278h-.10439c-.07043.52043-.22513 1.25306-.41756 1.8278l-.9345 2.94568zm-3.27765-7.68379h3.83356l4.52784 12.23116h-3.62604l-.57227-1.75958h-4.59827l-.55466 1.75958h-3.54052zM152.1755 32.05945l-4.54544-7.87452h3.81721l1.64763 3.01263c.3484.64547.83514 1.62063.93701 2.26484h.07044c.10439-.64421.58861-1.61937.93575-2.26484l1.65014-3.01263h3.71157l-4.54544 7.87452v4.35663h-3.67887zM60.90642 30.26274c0 6.07326-4.90515 10.99958-10.95359 10.99958-6.04717 0-10.95233-4.92632-10.95233-10.99958 0-6.07453 4.90516-10.99958 10.95233-10.99958 6.04844 0 10.9536 4.92505 10.9536 10.99958"/>
</svg>
