<svg width="75" height="66" viewBox="0 0 75 66" fill="none" xmlns="http://www.w3.org/2000/svg">
<path fill-rule="evenodd" clip-rule="evenodd" d="M19.7978 19.4242L10.7759 36.5081L2.64469 43.7799L1.90836 47.9561L1.27221 51.5635L0 58.7786H4.26338L3.03454 65.7475H16.1526L17.3815 58.7786H48.209L46.9802 65.7475H60.0982L61.3271 58.7786H65.5905L66.8916 51.3996L67.4699 48.12L68.2362 43.7742L61.9923 35.7398H14.6582L21.5424 22.7037H39.8941L40.4724 19.4242H19.7978ZM5.69458 45.0811L12.4728 39.0193H60.0093L64.7249 45.087L64.1901 48.12H51.072L50.4937 51.3996H63.6118L62.889 55.499H3.85756L4.5515 51.5635H17.6696L18.3057 47.9561H5.18765L5.69458 45.0811ZM51.4887 58.7786H58.0477L57.3971 62.4681H50.8382L51.4887 58.7786ZM7.54275 58.7786H14.1018L13.4513 62.4681H6.89217L7.54275 58.7786Z" fill="#E7131A"/>
<path fill-rule="evenodd" clip-rule="evenodd" d="M62.1983 1.12305C55.2429 1.12305 48.6104 6.76145 47.3839 13.7167C46.1575 20.672 50.8017 26.3104 57.757 26.3104C64.7123 26.3104 71.3449 20.672 72.5714 13.7167C73.7978 6.76145 69.1536 1.12305 62.1983 1.12305M61.9764 2.3824C63.5071 2.3824 64.9385 2.68191 66.2309 3.27263C67.4797 3.84343 68.5479 4.66085 69.4056 5.70218C70.2633 6.74351 70.867 7.95579 71.1999 9.30532C71.5443 10.7019 71.5821 12.1861 71.3122 13.7168C71.0423 15.2474 70.481 16.7316 69.6441 18.1282C68.8353 19.4778 67.8042 20.69 66.5793 21.7314C65.3543 22.7728 63.9979 23.5901 62.5477 24.1609C61.047 24.7516 59.5099 25.0511 57.9793 25.0511C56.4486 25.0511 55.0171 24.7516 53.7247 24.1609C52.4759 23.5901 51.4078 22.7728 50.55 21.7314C49.6923 20.69 49.0886 19.4778 48.7558 18.1282C48.4113 16.7316 48.3735 15.2474 48.6434 13.7168C48.9134 12.1861 49.4746 10.7019 50.3116 9.30532C51.1203 7.95579 52.1515 6.74351 53.3764 5.70218C54.6014 4.66085 55.9578 3.84343 57.4079 3.27263C58.9086 2.68191 60.4457 2.3824 61.9764 2.3824" fill="#E7131A"/>
<path d="M47.3839 13.7167L46.7438 13.6039L46.7438 13.6039L47.3839 13.7167ZM72.5714 13.7167L73.2115 13.8296L73.2115 13.8296L72.5714 13.7167ZM66.2309 3.27263L65.9607 3.8638L65.9607 3.86381L66.2309 3.27263ZM69.4056 5.70218L69.9074 5.28894L69.9073 5.28892L69.4056 5.70218ZM71.1999 9.30532L71.8309 9.14967L71.8309 9.14965L71.1999 9.30532ZM69.6441 18.1282L69.0865 17.7941L69.0865 17.7941L69.6441 18.1282ZM66.5793 21.7314L66.1582 21.2361L66.1582 21.2361L66.5793 21.7314ZM62.5477 24.1609L62.3097 23.5561L62.3097 23.5561L62.5477 24.1609ZM53.7247 24.1609L53.995 23.5697L53.9949 23.5697L53.7247 24.1609ZM50.55 21.7314L50.0483 22.1446L50.0483 22.1446L50.55 21.7314ZM48.7558 18.1282L48.1247 18.2839L48.1247 18.2839L48.7558 18.1282ZM50.3116 9.30532L50.8691 9.63944L50.8691 9.63944L50.3116 9.30532ZM53.3764 5.70218L52.9554 5.20694L52.9554 5.20696L53.3764 5.70218ZM57.4079 3.27263L57.646 3.87746L57.646 3.87746L57.4079 3.27263ZM62.1983 0.473047C54.9202 0.473047 48.0238 6.34512 46.7438 13.6039L48.024 13.8296C49.197 7.17778 55.5656 1.77305 62.1983 1.77305V0.473047ZM46.7438 13.6039C46.1002 17.254 46.9934 20.5982 49.0006 23.0351C51.0085 25.4729 54.0969 26.9604 57.757 26.9604V25.6604C54.4617 25.6604 51.7504 24.3288 50.004 22.2086C48.2569 20.0874 47.4412 17.1348 48.024 13.8296L46.7438 13.6039ZM57.757 26.9604C65.035 26.9604 71.9315 21.0884 73.2115 13.8296L71.9313 13.6039C70.7583 20.2557 64.3897 25.6604 57.757 25.6604V26.9604ZM73.2115 13.8296C73.8551 10.1795 72.9619 6.8353 70.9547 4.39841C68.9467 1.96059 65.8583 0.473047 62.1983 0.473047V1.77305C65.4935 1.77305 68.2049 3.10471 69.9512 5.22491C71.6984 7.34605 72.514 10.2987 71.9313 13.6039L73.2115 13.8296ZM61.9764 3.0324C63.4211 3.0324 64.7595 3.31477 65.9607 3.8638L66.5011 2.68146C65.1175 2.04904 63.593 1.7324 61.9764 1.7324V3.0324ZM65.9607 3.86381C67.1215 4.39438 68.11 5.1516 68.9039 6.11545L69.9073 5.28892C68.9858 4.17011 67.8379 3.29248 66.5011 2.68145L65.9607 3.86381ZM68.9039 6.11543C69.6978 7.07935 70.2585 8.20296 70.5688 9.46098L71.8309 9.14965C71.4755 7.70862 70.8288 6.40768 69.9074 5.28894L68.9039 6.11543ZM70.5688 9.46096C70.8898 10.7628 70.9275 12.1551 70.6721 13.6039L71.9523 13.8296C72.2367 12.2171 72.1988 10.6411 71.8309 9.14967L70.5688 9.46096ZM70.6721 13.6039C70.4166 15.0527 69.8846 16.4623 69.0865 17.7941L70.2016 18.4623C71.0774 17.001 71.668 15.4422 71.9523 13.8296L70.6721 13.6039ZM69.0865 17.7941C68.315 19.0816 67.3304 20.2397 66.1582 21.2361L67.0003 22.2266C68.2779 21.1404 69.3556 19.8741 70.2016 18.4623L69.0865 17.7941ZM66.1582 21.2361C64.9861 22.2326 63.6911 23.0123 62.3097 23.5561L62.7858 24.7657C64.3046 24.1679 65.7225 23.3129 67.0003 22.2266L66.1582 21.2361ZM62.3097 23.5561C60.8807 24.1186 59.4241 24.4011 57.9793 24.4011V25.7011C59.5957 25.7011 61.2134 25.3847 62.7858 24.7657L62.3097 23.5561ZM57.9793 24.4011C56.5345 24.4011 55.1961 24.1188 53.995 23.5697L53.4545 24.7521C54.8381 25.3845 56.3626 25.7011 57.9793 25.7011V24.4011ZM53.9949 23.5697C52.8341 23.0391 51.8456 22.282 51.0517 21.3181L50.0483 22.1446C50.9699 23.2635 52.1177 24.1411 53.4545 24.7521L53.9949 23.5697ZM51.0517 21.3181C50.2578 20.3542 49.6972 19.2306 49.3869 17.9726L48.1247 18.2839C48.4801 19.725 49.1268 21.0259 50.0483 22.1446L51.0517 21.3181ZM49.3869 17.9726C49.0658 16.6708 49.0281 15.2784 49.2836 13.8296L48.0033 13.6039C47.719 15.2164 47.7569 16.7925 48.1247 18.2839L49.3869 17.9726ZM49.2836 13.8296C49.539 12.3809 50.071 10.9712 50.8691 9.63944L49.754 8.97119C48.8783 10.4326 48.2877 11.9914 48.0033 13.6039L49.2836 13.8296ZM50.8691 9.63944C51.6406 8.35204 52.6253 7.19386 53.7974 6.19741L52.9554 5.20696C51.6777 6.29317 50.6 7.55954 49.754 8.97119L50.8691 9.63944ZM53.7974 6.19743C54.9696 5.20096 56.2645 4.42122 57.646 3.87746L57.1698 2.6678C55.651 3.26564 54.2331 4.12075 52.9554 5.20694L53.7974 6.19743ZM57.646 3.87746C59.075 3.31496 60.5315 3.0324 61.9764 3.0324V1.7324C60.3599 1.7324 58.7422 2.04885 57.1698 2.6678L57.646 3.87746Z" fill="#E7131A"/>
<path fill-rule="evenodd" clip-rule="evenodd" d="M54.7286 18.9312L54.1152 17.9477L59.2344 14.3587L60.7355 5.8457H61.9949L60.3871 14.964L54.7286 18.9312Z" fill="#E7131A"/>
<path fill-rule="evenodd" clip-rule="evenodd" d="M54.7286 18.9312L54.1152 17.9477L59.2344 14.3587L60.7355 5.8457H61.9949L60.3871 14.964L54.7286 18.9312Z" stroke="#E7131A" stroke-width="1.3"/>
</svg>
