<svg xmlns="http://www.w3.org/2000/svg" viewBox="178.19 140.27 385.68 261.33">
 <g id="Layer_1">
  <title>Layer 1</title>
  <g id="svg_211" transform="matrix(3.70676 0 0 -3.70676 2597.03 -7283.24)" stroke="null">
   <path d="m-646.59076,-2057.69512l1.102,6.25l23.152,0l0,5l-22.27,0l0.765,4.338l10.664,9.537l71.695,0l1.037,-0.225l6.639,-8.672l-0.877,-4.978l-23.153,0l0,-5l22.271,0l-1.102,-6.25l-89.923,0zm81.572,-10.5l-9.923,0l0.97,5.5l9.923,0l-0.97,-5.5zm-67,0l-9.923,0l0.97,5.5l9.923,0l-0.97,-5.5zm12.529,60.5l53.643,0l3.487,-19.875l-67.626,0l10.496,19.875zm-16.893,-21.033l-12.083,-10.805l-4.083,-23.162l6.5,0l-1.852,-10.5l20.077,0l1.852,10.5l46.923,0l-1.852,-10.5l20.077,0l1.852,10.5l6.5,0l3.971,22.522l-8.526,11.137l-4.621,26.341l-60.857,0l-13.135,-24.875" id="svg_1" fill="#E7131A" fill-rule="nonzero" stroke="null"/>
  </g>
 </g>
</svg>