<svg xmlns="http://www.w3.org/2000/svg" width="10" height="16" viewBox="0 0 10 16">
    <path fill="#E7131A" fill-rule="evenodd" d="M5.634 10.012H1.656l.68-4.317 1.19-.059c1.25-.046 1.443-1.053 1.461-1.168.085-.538-.224-.538-.34-.538-.473 0-.553.482-.557.503l-.11.704H0l.143-.914C.54 1.698 2.613 0 5.299 0 7.928 0 9.62 1.846 9.235 4.293c-.232 1.473-1.248 3.369-3.348 4.11l-.253 1.609zM2.98 8.848h1.693l.207-1.32.444-.113c2.257-.578 2.7-2.702 2.766-3.122.286-1.813-.965-3.13-2.976-3.13-1.972 0-3.399 1.07-3.782 2.81h1.741A1.946 1.946 0 0 1 4.83 2.767c.938 0 1.461.684 1.301 1.702a2.805 2.805 0 0 1-.75 1.467c-.359.373-.996.827-1.99.864l-.087.005-.321 2.044zm2.562 4.16c.204-1.296-.667-2.35-1.938-2.35-1.263 0-2.456 1.054-2.66 2.35-.203 1.286.66 2.332 1.924 2.332 1.272 0 2.472-1.046 2.674-2.332zm-1.144 0c-.1.644-.705 1.168-1.348 1.168-.632 0-1.065-.524-.963-1.168.103-.654.701-1.186 1.334-1.186.642 0 1.08.532.977 1.186z"/>
</svg>
