<svg class="sc-jrsJWt bnNxYg" fill="#E7131A" stroke="none" width="16" height="16" viewBox="0 0 16 16" xmlns="http://www.w3.org/2000/svg">
    <g>
        <path fill-rule="evenodd"
              d="M8 15C11.866 15 15 11.866 15 8C15 4.13401 11.866 1 8 1C4.13401 1 1 4.13401 1 8C1 11.866 4.13401 15 8 15ZM8 16C12.4183 16 16 12.4183 16 8C16 3.58172 12.4183 0 8 0C3.58172 0 0 3.58172 0 8C0 12.4183 3.58172 16 8 16Z" />
        <path d="M7.33333 4.33333C7.33333 5.07246 7.92754 5.66667 8.66667 5.66667C9.4058 5.66667 10 5.07246 10 4.33333C10 3.5942 9.4058 3 8.66667 3C7.92754 3 7.33333 3.5942 7.33333 4.33333ZM9.7971 6.26087H6.34783L6 8.21739H7.18841L6.34783 13H8.6087L9.7971 6.26087Z" />
    </g>
</svg>
