<?xml version="1.0" encoding="utf-8"?>
<svg viewBox="187.84 135.631 121.481 133.167" xmlns="http://www.w3.org/2000/svg">
  <path d="M 307.011 242.738 C 305.458 240.962 303.067 239.372 299.908 238.01 C 294.631 235.737 287.178 234.034 277.732 232.944 C 275.766 235.106 273.806 237.169 271.88 239.124 L 273.946 239.338 C 283.575 240.336 291.323 242.009 296.352 244.176 C 300.635 246.021 302.89 248.217 302.54 250.202 C 302.346 251.302 300.812 252.684 298.334 253.989 C 295.175 255.654 290.704 257.14 285.044 258.402 C 274.366 260.788 260.304 262.156 246.468 262.156 C 232.718 262.156 219.144 260.766 209.231 258.342 C 197.082 255.372 194.324 251.826 194.611 250.202 C 194.952 248.272 197.963 246.108 202.872 244.264 C 208.67 242.086 216.979 240.397 226.904 239.377 L 229.038 239.158 C 227.8 237.209 226.567 235.15 225.364 232.989 C 215.588 234.1 207.56 235.818 201.482 238.101 C 197.86 239.462 194.926 241.044 192.756 242.804 C 189.398 245.528 188.299 248.329 187.97 250.202 C 187.326 253.852 189.068 257.036 193.15 259.665 C 196.238 261.656 200.754 263.385 206.575 264.809 C 216.944 267.344 231.058 268.798 245.296 268.798 C 259.618 268.798 274.238 267.368 285.408 264.873 C 291.739 263.458 296.87 261.729 300.658 259.733 C 305.664 257.094 308.532 253.886 309.182 250.202 C 309.515 248.31 309.41 245.48 307.011 242.738" style="fill-opacity: 1; fill-rule: nonzero; stroke: none; fill: rgb(231, 19, 26);" id="path428"/>
  <path d="M 227.804 203.521 C 225.498 194.518 225.09 185.643 226.589 177.142 C 228.232 167.827 233.402 159.071 241.15 152.486 C 248.897 145.899 258.293 142.271 267.608 142.271 C 276.921 142.271 285.037 145.899 290.462 152.486 C 295.887 159.071 297.97 167.827 296.327 177.142 C 294.849 185.529 291.323 194.333 285.849 203.31 C 281.35 210.685 275.541 218.185 268.581 225.602 C 261.318 233.341 254.286 239.389 249.821 242.99 C 246.621 239.43 241.728 233.451 237.202 225.77 C 232.857 218.394 229.694 210.909 227.804 203.521 M 248.284 251.862 C 248.284 251.862 295.738 218.155 302.97 177.142 C 307.011 154.215 291.703 135.631 268.777 135.631 C 245.852 135.631 223.99 154.215 219.948 177.142 C 212.628 218.653 248.284 251.862 248.284 251.862" style="fill-opacity: 1; fill-rule: nonzero; stroke: none; fill: rgb(231, 19, 26);" id="path432"/>
  <path d="M 248.038 179.798 C 249.33 172.474 256.34 166.515 263.664 166.515 C 270.989 166.515 275.897 172.474 274.605 179.798 C 273.314 187.123 266.304 193.082 258.98 193.082 C 251.654 193.082 246.746 187.123 248.038 179.798 M 281.246 179.798 C 283.184 168.811 275.822 159.874 264.836 159.874 C 253.848 159.874 243.334 168.811 241.397 179.798 C 239.458 190.785 246.821 199.723 257.809 199.723 C 268.796 199.723 279.31 190.785 281.246 179.798" style="fill-opacity: 1; fill-rule: nonzero; stroke: none; fill: rgb(231, 19, 26);" id="path436"/>
</svg>