<svg width="16" height="17" viewBox="0 0 16 17" fill="none" xmlns="http://www.w3.org/2000/svg">
<path fill-rule="evenodd" clip-rule="evenodd" d="M11.0428 2.47395C11.747 2.99078 12.1661 3.94968 12.0683 5.00342H6.10219C6.20121 4.50307 6.41868 3.99016 6.77829 3.50019C7.98987 1.84941 9.93354 1.65982 11.0428 2.47395ZM4.0835 5.00342C4.19971 4.07669 4.55701 3.1465 5.16595 2.31683C6.91439 -0.0654359 10.0754 -0.716958 12.2262 0.86161C13.5353 1.82245 14.1684 3.38804 14.0692 5.00342H16L14 16.0034H0L2 5.00342H4.0835ZM2.43961 13.8034L3.63961 7.20342H13.5604L12.3604 13.8034H2.43961Z" fill="#041022"/>
<path fill-rule="evenodd" clip-rule="evenodd" d="M8.6517 10.2619C8.86495 10.0785 9 9.80674 9 9.50342C9 8.95113 8.55228 8.50342 8 8.50342C7.44772 8.50342 7 8.95113 7 9.50342C7 9.75156 7.09038 9.97859 7.24001 10.1534L6.5 12.0034H9L8.6517 10.2619Z" fill="#041022"/>
</svg>
