<svg width="24" height="25" viewBox="0 0 24 25" fill="none" xmlns="http://www.w3.org/2000/svg">
<path fill-rule="evenodd" clip-rule="evenodd" d="M12.5 8.53C12.5 10.4669 10.93 12.0424 9 12.0424C7.07 12.0424 5.5 10.4669 5.5 8.53C5.5 6.59315 7.07 5.01758 9 5.01758C10.93 5.01758 12.5 6.59315 12.5 8.53ZM10.5 8.53C10.5 7.69706 9.83 7.02468 9 7.02468C8.17 7.02468 7.5 7.69706 7.5 8.53C7.5 9.36295 8.17 10.0353 9 10.0353C9.83 10.0353 10.5 9.36295 10.5 8.53ZM9 13.7986C6.66 13.7986 2 14.9728 2 17.3111V19.0673H16V17.3111C16 14.9728 11.34 13.7986 9 13.7986ZM9 15.8057C7.21 15.8057 5.18 16.4757 4.34 17.0557H13.66C12.82 16.4757 10.79 15.8057 9 15.8057ZM16.04 13.8589C17.2 14.7018 18 15.8258 18 17.3111V19.0673H22V17.3111C22 15.2839 18.5 14.1298 16.04 13.8589ZM18.5 8.53C18.5 10.4669 16.93 12.0424 15 12.0424C14.46 12.0424 13.96 11.912 13.5 11.6912C14.13 10.798 14.5 9.70416 14.5 8.53C14.5 7.35585 14.13 6.26198 13.5 5.36882C13.96 5.14804 14.46 5.01758 15 5.01758C16.93 5.01758 18.5 6.59315 18.5 8.53Z" fill="#1960D0"/>
</svg>
