<svg xmlns="http://www.w3.org/2000/svg" width="15" height="16" viewBox="0 0 15 16">
    <path fill="#E7131A" fill-rule="evenodd" d="M2.809 1.283c-.932.821-1.545 1.912-1.726 3.071L.053 10.98c-.18 1.16.095 2.248.774 3.066.675.816 1.672 1.265 2.808 1.265h.008l2.905-.006.855-5.495-2.592.005.678-4.374 2.616-.006L8.95 0 6.02.006C4.883.008 3.741.462 2.81 1.283zm4.287 2.936l-1.688.003c-.247 0-.496.1-.698.278a1.134 1.134 0 0 0-.375.666l-.765 4.928a.827.827 0 0 0 .167.666c.147.177.364.28.612.275l1.666-.004-.475 3.058-1.707.003h-.007c-.815 0-1.533-.323-2.02-.91-.486-.588-.684-1.371-.554-2.204L2.28 4.352c.13-.834.571-1.618 1.241-2.209.671-.59 1.49-.916 2.31-.918l1.73-.004-.466 2.998zm7.265-.88l-.19 1.218H9.988l.192-1.218h4.18zM10.55 1.035l-.247 1.219h4.188l.245-1.22H10.55z"/>
</svg>
