<svg width="63" height="24" viewBox="0 0 63 24" fill="none" xmlns="http://www.w3.org/2000/svg">
<path fill-rule="evenodd" clip-rule="evenodd" d="M33.1241 8.13389C32.5956 7.68948 31.6936 7.46729 30.4176 7.46729H27.5396V16.3613H29.6916V13.5743H30.6556C31.8256 13.5743 32.6836 13.3167 33.2296 12.8011C33.8451 12.2234 34.1541 11.4543 34.1541 10.4943C34.1541 9.4989 33.8106 8.71211 33.1241 8.13389ZM30.6021 11.5613H29.6916V9.48072H30.5096C31.5046 9.48072 32.0021 9.82968 32.0021 10.5276C32.0021 11.2164 31.5351 11.5613 30.6021 11.5613Z" fill="#999DA3"/>
<path fill-rule="evenodd" clip-rule="evenodd" d="M37.8368 7.46729H35.5928V16.3613H40.4378V14.3479H37.8368V7.46729Z" fill="#999DA3"/>
<path fill-rule="evenodd" clip-rule="evenodd" d="M44.8341 7.46729L41.3091 16.3613H43.7251L44.1871 15.068H47.2501L47.6726 16.3613H50.1156L46.6161 7.46729H44.8341ZM44.8076 13.2677L45.7321 10.2276L46.6426 13.2677H44.8076Z" fill="#999DA3"/>
<mask id="mask0" mask-type="alpha" maskUnits="userSpaceOnUse" x="0" y="0" width="63" height="24">
<path d="M0 23.737H63V0.000488281H0V23.737Z" fill="white"/>
</mask>
<g mask="url(#mask0)">
<path fill-rule="evenodd" clip-rule="evenodd" d="M51.2368 16.3613H53.4813V7.46729H51.2368V16.3613Z" fill="#999DA3"/>
<path fill-rule="evenodd" clip-rule="evenodd" d="M62.195 9.13429C61.8955 8.70756 61.539 8.36568 61.1255 8.10763C60.448 7.6809 59.5235 7.46729 58.353 7.46729H55.396V16.3613H58.855C60.1045 16.3613 61.108 15.9528 61.865 15.1347C62.622 14.3171 63 13.2324 63 11.881C63 10.8058 62.7315 9.89027 62.195 9.13429ZM58.604 14.3479H57.6405V9.48072H58.6175C59.304 9.48072 59.8315 9.69534 60.2015 10.1241C60.571 10.5528 60.756 11.1609 60.756 11.9476C60.756 13.548 60.039 14.3479 58.604 14.3479Z" fill="#999DA3"/>
<path fill-rule="evenodd" clip-rule="evenodd" d="M9.31851 0.000488281L2.04451 1.90535L0.0405117 9.21977L2.54751 11.7938L-0.000488281 14.3253L1.88601 21.6721L9.12801 23.6956L11.676 21.1635L14.183 23.737L21.4565 21.8321L23.4605 14.5167L20.954 11.9437L23.5015 9.41217L21.6155 2.06543L14.3725 0.0418983L11.8255 2.57346L9.31851 0.000488281ZM4.85451 3.31228L8.68601 2.30834L10.3615 4.02837L7.91801 6.45641L4.85451 3.31228ZM13.2655 4.0516L14.968 2.35985L18.783 3.4259L15.6695 6.51953L13.2655 4.0516ZM2.33601 8.61932L3.39151 4.76668L6.45401 7.91081L4.01101 10.3388L2.33601 8.61932ZM17.1095 7.99767L20.223 4.90353L21.216 8.77385L19.514 10.4656L17.1095 7.99767ZM9.35851 7.93454L11.802 5.5065L14.2055 7.97444L11.7625 10.4025L9.35851 7.93454ZM5.45151 11.817L7.89451 9.38894L10.299 11.8569L7.85551 14.2849L5.45151 11.817ZM13.203 11.8806L15.646 9.45257L18.05 11.9205L15.6065 14.3485L13.203 11.8806ZM2.28501 14.9636L3.98801 13.2714L6.39151 15.7398L3.27901 18.8329L2.28501 14.9636ZM9.29551 15.7631L11.739 13.335L14.143 15.8029L11.7 18.231L9.29551 15.7631ZM17.0465 15.8267L19.49 13.3986L21.1655 15.1182L20.11 18.9708L17.0465 15.8267ZM4.71851 20.3116L7.83151 17.2175L10.236 19.6854L8.53351 21.3776L4.71851 20.3116ZM13.14 19.7091L15.583 17.2811L18.646 20.4252L14.815 21.4286L13.14 19.7091Z" fill="#999DA3"/>
</g>
</svg>
