<?xml version="1.0" encoding="UTF-8"?>
<svg width="16px" height="16px" viewBox="0 0 16 16" version="1.1" xmlns="http://www.w3.org/2000/svg" xmlns:xlink="http://www.w3.org/1999/xlink">
    <defs></defs>
    <g id="Style-Guide" stroke="none" stroke-width="1" fill="none" fill-rule="evenodd">
        <g id="style-guide---icons" transform="translate(-972.000000, -280.000000)" fill="#E7131A">
            <g id="icons" transform="translate(49.000000, 226.000000)">
                <g id="#1-red" transform="translate(923.000000, 54.000000)">
                    <g id="Group">
                        <path d="M7.52704,1.448448 C4.17504,1.448448 1.44704,4.176448 1.44704,7.526848 C1.44704,10.880448 4.17504,13.606848 7.52704,13.606848 C10.87904,13.606848 13.60704,10.880448 13.60704,7.526848 C13.60704,4.176448 10.87904,1.448448 7.52704,1.448448 M7.52704,15.054848 C3.37664,15.054848 0.00064,11.678848 0.00064,7.526848 C0.00064,3.376448 3.37664,0.000448 7.52704,0.000448 C11.67744,0.000448 15.05344,3.376448 15.05344,7.526848 C15.05344,11.678848 11.67744,15.054848 7.52704,15.054848" id="Fill-1"></path>
                        <polygon id="Fill-4" points="8.50672 11.454688 6.90832 11.454688 6.90832 5.467488 5.07792 6.376288 5.07792 4.776288 7.47152 3.600288 8.50672 3.600288"></polygon>
                    </g>
                </g>
            </g>
        </g>
    </g>
</svg>