<svg fill="none" height="56" viewBox="0 0 56 56" width="56" xmlns="http://www.w3.org/2000/svg"><g fill="#ec0000"><path d="m47.53 0h-39.05222c-2.24845 0-4.4048.893192-5.9947 2.48308-1.589888 1.5899-2.48308 3.74625-2.48308 5.9947v26.52222c-.00000095 2.2471.892123 4.4023 2.48033 5.9919 1.58821 1.5897 3.74257 2.4838 5.98967 2.4859h13.5878l-2.17 9.7222h-1.6722c-.3713 0-.7274.1475-.99.4101-.2625.2625-.41.6186-.41.9899s.1475.7274.41.99c.2626.2625.6187.41.99.41h19.6c.3706-.002.7255-.1502.9877-.4123.2621-.2621.4102-.617.4123-.9877v-.1167c-.0293-.3493-.1885-.6751-.4463-.9127s-.5954-.3699-.946-.3706h-1.6877l-2.17-9.7533h13.5566c2.2431 0 4.3947-.8889 5.9837-2.4721s2.4859-3.7315 2.4941-5.9746v-26.53c-.0021-2.24575-.8951-4.39893-2.4831-5.98692-1.588-1.587987-3.7411-2.48102062-5.9869-2.48308zm-24.7722 53.2 2.17-9.7533h6.1678l2.1544 9.7533zm30.4422-18.2c0 1.5058-.5982 2.95-1.663 4.0148s-2.5089 1.663-4.0148 1.663h-39.0522c-.74525 0-1.48319-.1469-2.17161-.4324-.68843-.2854-1.31383-.7037-1.84044-1.2311-.52661-.5273-.94409-1.1533-1.22858-1.8421s-.43039-1.427-.42937-2.1722v-1.4h50.4zm0-4.1689h-50.4v-22.35332c0-1.50584.59819-2.95001 1.66298-4.0148s2.50896-1.66298 4.0148-1.66298h39.23892c1.4705.05039 2.8641.66969 3.8869 1.7274 1.0229 1.0577 1.5952 2.4712 1.5964 3.9426z"/><path d="m39.581 23.0378-5.4444-5.4445c.6933-1.5903.8548-3.362.4604-5.0515-.3943-1.6895-1.3234-3.20658-2.6491-4.3257-1.3257-1.11911-2.9772-1.78046-4.7089-1.8857-1.7318-.10525-3.4512.35124-4.9027 1.30157-1.4514.95033-2.5574 2.34376-3.1535 3.97303-.596 1.6293-.6503 3.4075-.1547 5.0701s1.5146 3.1209 2.9055 4.158c1.3908 1.037 3.0792 1.5975 4.8141 1.598 1.1011-.0008 2.1909-.2229 3.2044-.6533l5.4445 5.4444c.5603.5136 1.2974.7908 2.0572.7739.7599-.0169 1.4839-.3267 2.0208-.8646s.8453-1.2625.8608-2.0224-.2631-1.4964-.7777-2.0558zm-12.8566-3.1111c-1.1045 0-2.1842-.3276-3.1026-.9412-.9183-.6136-1.6341-1.4858-2.0568-2.5062s-.5332-2.1433-.3178-3.2265c.2155-1.0833.7474-2.0784 1.5284-2.8594.781-.78097 1.776-1.31284 2.8593-1.52832 1.0833-.21547 2.2061-.10488 3.2265.31779 1.0205.42267 1.8926 1.13843 2.5063 2.05683.6136.9183.9411 1.998.9411 3.1025 0 1.4818-.5881 2.9031-1.6352 3.9516-1.047 1.0485-2.4674 1.6386-3.9492 1.6406zm11.1066 5.5144c-.0428.0445-.0941.0798-.1509.104s-.1179.0366-.1796.0366-.1228-.0124-.1796-.0366-.1082-.0595-.151-.104l-5.0866-5.0711c.2337-.2065.4545-.4273.6611-.6611l5.0866 5.0789c.086.0885.1341.2071.1341.3305 0 .1235-.0481.242-.1341.3306z"/></g></svg>