<svg viewBox="0 0 80 60.07" xmlns="http://www.w3.org/2000/svg"><path d="m77.33 40.08h-9.73a1.9 1.9 0 0 1 -1.82-1.37l-5.84-20.3a8.74 8.74 0 0 0 -8.42-6.41h-19a8.75 8.75 0 0 0 -8.42 6.42l-5.88 20.29a1.9 1.9 0 0 1 -1.82 1.37h-9.73a4.68 4.68 0 0 0 -4.67 4.67v21.25a2 2 0 0 0 2 2h12.08a9.92 9.92 0 0 0 15.92 0h19.9a9.93 9.93 0 0 0 15.94 0h12.16a2 2 0 0 0 2-2v-21.25a4.67 4.67 0 0 0 -4.67-4.67zm-21.25-20.6 5.11 17.78h-9.84l-10.26-21.26h10.43a4.73 4.73 0 0 1 4.56 3.48zm-28.16 0a4.74 4.74 0 0 1 4.56-3.48h4.16l10.26 21.26h-24.09zm-3.87 48.52a6 6 0 1 1 6-6 6 6 0 0 1 -6 6zm35.83 0a6 6 0 1 1 6-6 6 6 0 0 1 -6 6zm18.12-4h-8.3a10.2 10.2 0 0 0 .2-2 10 10 0 0 0 -20 0 10.2 10.2 0 0 0 .2 2h-16.24a9.5 9.5 0 0 0 .21-2 10 10 0 0 0 -20 0 10.2 10.2 0 0 0 .21 2h-8.28v-19.25a.67.67 0 0 1 .66-.66h9.74a5.89 5.89 0 0 0 5-2.82h41.22a5.89 5.89 0 0 0 5 2.82h9.73a.67.67 0 0 1 .66.66z" fill="#ec0000" transform="translate(-2 -11.96)"/></svg>