<svg width="15" height="14" viewBox="0 0 21 20" fill="none" xmlns="http://www.w3.org/2000/svg">
<path fill-rule="evenodd" clip-rule="evenodd" d="M10.0566 18.75C14.8891 18.75 18.8066 14.8325 18.8066 10C18.8066 5.16751 14.8891 1.25 10.0566 1.25C5.22415 1.25 1.30664 5.16751 1.30664 10C1.30664 14.8325 5.22415 18.75 10.0566 18.75ZM10.0566 20C15.5795 20 20.0566 15.5228 20.0566 10C20.0566 4.47715 15.5795 0 10.0566 0C4.53379 0 0.0566406 4.47715 0.0566406 10C0.0566406 15.5228 4.53379 20 10.0566 20Z" fill="inherit"/>
<path d="M9.22331 5.41667C9.22331 6.34058 9.96606 7.08333 10.89 7.08333C11.8139 7.08333 12.5566 6.34058 12.5566 5.41667C12.5566 4.49275 11.8139 3.75 10.89 3.75C9.96606 3.75 9.22331 4.49275 9.22331 5.41667ZM12.303 7.82609H7.99142L7.55664 10.2717H9.04215L7.99142 16.25H10.8175L12.303 7.82609Z" fill="inherit"/>
</svg>