<svg xmlns="http://www.w3.org/2000/svg" viewBox="0 0 522 57">
  <path d="M192.9 27.2l21.3 27.4H199L179.4 29v25.6h-12.8V2.3h12.8v23.3l18.9-23.3h15.2l-20.6 24.9zM232.8 43.8h24.9v10.7H220V2.3h36.5v10.8h-23.7v9.5h21.4v10.5h-21.4zM262.9 2.3v10.8h15.9v41.4h12.8V13.1h15.8V2.3z"/>
  <path d="M262.9 2.3v10.8h15.9v41.4h12.8V13.1h15.8V2.3zM32.7 34.5l15.7 20.1H33.6L14.9 29.4v25.1H2.1V2.3h23.5c11.2 0 19 6.9 19 16.9 0 7.1-4.5 13.6-11.9 15.3zm-.8-15.1c0-3.9-3.1-6.6-7.5-6.6H15V26h9.4c4.5 0 7.5-2.6 7.5-6.6z"/>
  <path d="M79.3 12.7c9.4 0 16.8 7.2 16.8 17.1 0 7.8-3.9 12.5-9.1 16l7.2 9.6c8.9-6.1 14.5-14.5 14.5-25.6 0-16.4-13-28.3-29.4-28.3S50 13.4 50 29.8c0 11.1 5.6 19.5 14.5 25.6l7.2-9.6c-5.2-3.5-9.1-8.2-9.1-16 0-9.9 7.3-17.1 16.7-17.1z" fill="#c8102e"/>
  <path d="M153.7 40.1l6.7 9.2c-4.9 4.3-10.9 6.2-18.4 6.2-14.7 0-27.4-10.7-27.4-27 0-16 12.6-26.9 27.4-26.9 7.1 0 13.5 1.8 18.3 5.7l-7 9.5c-2.9-2.2-6.2-3.9-11.2-3.9-8.1 0-14.6 6.4-14.6 15.9 0 9.3 6.5 15.6 14.8 15.6 5-.2 8.5-2.1 11.4-4.3z"/>
  <g>
    <path d="M357.3 47.4v6.8h-29.6V2.4h7.5v45h22.1zM360.1 35.8c0-11.1 8.1-19.1 19.3-19.1 11.4 0 19.3 8 19.3 19.1 0 11.2-7.9 19.1-19.3 19.1-11.2 0-19.3-7.9-19.3-19.1zm31.6 0c0-7.5-5-12.6-12.2-12.6-7.1 0-12.2 5.1-12.2 12.6 0 7.6 5.2 12.6 12.2 12.6 7.3 0 12.2-5.1 12.2-12.6zM442.3 17.5v36.8h-6.9v-6.5c-2.9 5-7.7 7.1-13.3 7.1-10.4 0-17.7-7.9-17.7-19 0-11.2 7.4-19.2 17.7-19.2 5.7 0 10.7 2.3 13.3 7v-6.3l6.9.1zm-6.6 18.3c0-7.3-5.3-12.7-12.4-12.7-7 0-11.9 5.1-11.9 12.7 0 7.5 4.7 12.6 11.8 12.6 7.2.1 12.5-5.4 12.5-12.6zM484.5 32v22.2h-6.9V33.6c0-6.6-3.2-10.6-9.2-10.6s-10.1 4.5-10.1 10.7v20.5h-6.9V17.5h6.9v5.2c2.4-3.9 6.9-6 12.3-6 8.8 0 13.9 5.4 13.9 15.3zM491.3 49.3l4.2-4.4c2.6 2.6 5.8 4.3 10.4 4.3 3.9 0 6.7-1.8 6.7-5.1s-2.8-4.5-8.5-6c-5.8-1.6-11.1-4.2-11.1-10.7 0-6.5 5.3-10.6 13-10.6 6.2 0 10.3 2.3 12.7 4.8l-4.1 4.4c-2-2-4.9-3.5-8.5-3.5-4 0-6.4 1.8-6.4 4.7 0 3.1 3.2 4.1 8.2 5.5 6.6 1.8 11.7 4.2 11.7 11.2 0 6.6-5.4 11.1-13.6 11.1-6.9-.1-11.2-2.2-14.7-5.7z"/>
  </g>
</svg>
