<svg xmlns="http://www.w3.org/2000/svg" viewBox="242 254 315 104">
  <path d="M371.9 345.9h-12.6l-2.5 6.8h-4.2l10.8-28.7h4.4l10.9 28.7h-4.4l-2.4-6.8zm-1.3-3.4l-5.1-13.9-5.1 13.9h10.2zM399.4 332.3v20.4h-3.8v-3c-1.4 2.1-3.8 3.4-6.8 3.4-4.9 0-7.8-2.8-7.8-8.4v-12.4h3.8v11.4c0 3.9 1.8 5.9 4.9 5.9 3.4 0 5.8-2.5 5.8-6.1v-11.3h3.9zM406.1 345v-9.2h-3.5v-3.4h3.5v-5.9l3.8-1.3v7.1h5.7v3.4h-5.7v8.7c0 3.4 1.8 4.9 5.1 4.9h.4l-.6 3.8h-.2c-5.7-.1-8.5-2.6-8.5-8.1zM417.6 342.5c0-6.1 4.5-10.6 10.7-10.6 6.3 0 10.7 4.4 10.7 10.6 0 6.2-4.4 10.6-10.7 10.6-6.2 0-10.7-4.4-10.7-10.6zm17.5 0c0-4.2-2.8-7-6.8-7s-6.8 2.8-6.8 7 2.9 7 6.8 7c4 0 6.8-2.8 6.8-7z"/>
  <g>
    <path d="M434.2 284.6l21.3 27.4h-15.3l-19.5-25.6V312h-12.8v-52.2h12.8v23.3l18.9-23.3h15.2l-20.6 24.8zM474.1 301.2h24.8V312h-37.6v-52.2h36.4v10.7h-23.6v9.5h21.3v10.5h-21.3zM504.1 259.8v10.7H520V312h12.8v-41.5h15.9v-10.7z"/>
    <path d="M504.1 259.8v10.7H520V312h12.8v-41.5h15.9v-10.7zM273.9 291.9l15.7 20.1h-14.7l-18.7-25.2V312h-12.8v-52.2h23.5c11.2 0 19 6.9 19 16.9-.1 7.1-4.6 13.5-12 15.2zm-.7-15.1c0-3.9-3.1-6.6-7.5-6.6h-9.4v13.2h9.4c4.5.1 7.5-2.6 7.5-6.6z"/>
    <path d="M320.6 270.1c9.4 0 16.8 7.2 16.8 17.1 0 7.8-3.9 12.5-9.1 16l7.2 9.6c8.9-6.1 14.5-14.5 14.5-25.6 0-16.4-13-28.3-29.4-28.3-16.3 0-29.4 12-29.4 28.3 0 11.1 5.6 19.5 14.5 25.6l7.2-9.6c-5.2-3.5-9.1-8.2-9.1-16 0-9.9 7.4-17.1 16.8-17.1z" fill="#c8102e"/>
    <path d="M395 297.5l6.7 9.1c-4.9 4.3-10.9 6.2-18.4 6.2-14.7 0-27.4-10.7-27.4-27.1 0-16 12.6-26.9 27.4-26.9 7.1 0 13.5 1.8 18.3 5.7l-7 9.5c-2.8-2.2-6.2-3.9-11.3-3.9-8.1 0-14.6 6.4-14.6 15.9 0 9.3 6.5 15.6 14.8 15.6 5 0 8.6-1.8 11.5-4.1z"/>
  </g>
</svg>
