<svg xmlns="http://www.w3.org/2000/svg" viewBox="0 0 666 127">
  <path d="M188.5 100c0 6.1-4 10.6-9.9 10.6-2.8 0-6-1.4-7.7-4.3v3.9h-2.8V79.9h2.8v14c1.7-2.8 4.9-4.2 7.9-4.2 5.7-.2 9.7 4.2 9.7 10.3zm-2.9 0c0-4.4-2.8-7.9-7.2-7.9-4.3 0-7.8 3.3-7.8 7.8s3.3 7.9 7.7 7.9c4.4.1 7.3-3.2 7.3-7.8zM209.6 89.9l-8.5 21.1c-2.2 5.7-4.7 7.9-8.4 7.9h-.2l-.6-2.8h.4c2.5 0 4.5-1.6 6.4-6.2l.3-.7-8.7-19.4h3.1l7.1 15.9 6.2-15.9 2.9.1zM247.7 110.8L245 108c-2.3 1.6-5.2 2.6-8.3 2.6-8 0-14.6-6.4-14.6-14.8S228.7 81 236.7 81s14.6 6.4 14.6 14.7c0 4.2-1.7 7.9-4.3 10.6l4.4 4.3-3.7.2zm-4.8-4.9L238 101h3.5l3.4 3.3c2.1-2.1 3.3-5.1 3.3-8.4 0-6.6-5.1-11.9-11.4-11.9s-11.4 5.3-11.4 11.9 5.1 11.9 11.4 11.9c2.2 0 4.3-.8 6.1-1.9zM273.8 89.9v20.3H271v-3.4c-1.3 2.2-3.7 3.8-7 3.8-4.8 0-7.8-2.8-7.8-8.4V89.9h2.8v11.7c0 4.2 2 6.5 5.5 6.5 3.8 0 6.5-2.7 6.5-6.6V89.9h2.8zM279.5 83.3c0-1.2.9-2.1 2.1-2.1s2.1.9 2.1 2.1-.9 2.1-2.1 2.1-2.1-.9-2.1-2.1zm.6 6.6h2.8v20.3h-2.8V89.9zM288.3 100.1c0-6.3 4.5-10.6 10.6-10.6 2.7 0 4.8.9 6.5 2.1l-1.3 2.4c-1.2-1-3-1.9-5.1-1.9-4.4 0-7.8 3.2-7.8 7.8 0 4.8 3.4 7.9 7.6 7.9 2.6 0 4.2-.9 5.7-2l1.2 2.3c-1.8 1.4-4 2.4-7 2.4-5.9.1-10.4-4.2-10.4-10.4zM310.3 79.8h2.8v19.3l9.5-9.2h3.8l-10.3 9.6 10.7 10.7h-3.9l-9.8-10.1v10.1h-2.8V79.8zM348.3 100.9h-16.8c.3 4.3 3.1 7.1 7.2 7.1 3.2 0 5.1-1.4 6.5-2.8l1.9 1.7c-1.5 1.7-4 3.7-8.4 3.7-6.3 0-10.2-4.7-10.2-10.5 0-6 4.3-10.6 10-10.6s9.7 4.3 9.7 11.1l.1.3zm-3-2.3c-.4-4.2-3-6.6-6.6-6.6s-6.8 2.4-7.2 6.6h13.8zM371 98v12.2h-2.8V98.5c0-4-2.1-6.5-5.7-6.5s-6.3 2.7-6.3 6.5v11.6h-2.8V89.9h2.8v3.2c1.3-2.3 3.7-3.6 7-3.6 4.8 0 7.8 2.9 7.8 8.5zM404.3 107.4v2.8h-15.9V81.5h3v25.9h12.9zM406.6 100c0-6.2 4.4-10.6 10.5-10.6s10.5 4.4 10.5 10.6-4.3 10.6-10.5 10.6c-6.1 0-10.5-4.4-10.5-10.6zm18.1 0c0-4.7-3.1-7.8-7.6-7.8-4.4 0-7.6 3.2-7.6 7.8 0 4.7 3.2 7.9 7.6 7.9 4.5 0 7.6-3.1 7.6-7.9zM452 89.9v20.4h-2.8v-4c-1.8 3.1-4.7 4.3-7.8 4.3-5.8 0-9.8-4.4-9.8-10.5 0-6.2 4.1-10.6 9.8-10.6 3.2 0 6.2 1.4 7.8 4.3v-3.9h2.8zm-2.6 10.1c0-4.5-3.3-7.8-7.6-7.8s-7.3 3.2-7.3 7.9 2.9 7.8 7.3 7.8c4.3 0 7.6-3.4 7.6-7.9zM475.5 98v12.2h-2.8V98.5c0-4-2.1-6.5-5.7-6.5s-6.3 2.7-6.3 6.5v11.6h-2.8V89.9h2.8v3.2c1.3-2.3 3.7-3.6 7-3.6 4.8 0 7.8 2.9 7.8 8.5zM479.3 107.6l1.8-1.9c1.5 1.4 3.2 2.4 6 2.4 2.5 0 4.3-1.2 4.3-3.3 0-2.2-1.7-2.9-5-3.9-3.1-.9-6.2-2.2-6.2-5.8 0-3.4 2.8-5.7 6.8-5.7 3.3 0 5.4 1.2 6.8 2.6l-1.7 1.9c-1.2-1.1-2.8-2-5-2-2.5 0-4 1.2-4 3.1 0 2 2 2.7 4.8 3.6 3.4 1.1 6.4 2.3 6.4 6.1 0 3.5-3 5.9-7.2 5.9-3.5 0-5.9-1.1-7.8-3z"/>
  <g>
    <path d="M198 33.8l21.3 27.4H204l-19.5-25.6v25.6h-12.8V9h12.8v23.3L203.4 9h15.2L198 33.8zM237.9 50.4h24.9v10.8h-37.7V9h36.5v10.8h-23.7v9.4h21.4v10.6h-21.4zM268 9v10.8h15.9v41.4h12.8V19.8h15.8V9z"/>
    <path d="M268 9v10.8h15.9v41.4h12.8V19.8h15.8V9zM37.8 41.1l15.7 20.1H38.8L20 36v25.2H7.2V9.1h23.5c11.2 0 19 6.9 19 16.9 0 7-4.6 13.4-11.9 15.1zM37 26c0-3.9-3.1-6.6-7.5-6.6h-9.4v13.2h9.4C34 32.8 37 30 37 26z"/>
    <path d="M84.4 19.3c9.4 0 16.8 7.2 16.8 17.1 0 7.8-3.9 12.5-9.1 16l7.2 9.6c8.9-6.1 14.5-14.5 14.5-25.6 0-16.4-13-28.3-29.4-28.3S55 20.1 55 36.4c0 11.1 5.6 19.5 14.5 25.6l7.2-9.6c-5.2-3.5-9.1-8.2-9.1-16 .1-9.9 7.4-17.1 16.8-17.1z" fill="#c8102e"/>
    <path d="M158.8 46.8l6.7 9.1c-4.9 4.3-10.9 6.2-18.4 6.2-14.7 0-27.4-10.7-27.4-27.1 0-16 12.6-26.9 27.4-26.9 7.1 0 13.5 1.8 18.3 5.7l-7 9.5c-2.8-2.2-6.2-3.9-11.3-3.9-8.1 0-14.6 6.4-14.6 15.9 0 9.3 6.5 15.6 14.8 15.6 5.1-.1 8.6-1.9 11.5-4.1zM333.4 9h8.4l16.8 24.3L375.5 9h8.6v52.2h-7.4V19.8l-16.9 24.3h-2.4l-16.6-24.3v41.4h-7.4V9z"/>
    <g>
      <path d="M390.5 42.6c0-11.2 8.2-19.3 19.5-19.3 11.5 0 19.5 8.1 19.5 19.3s-7.9 19.3-19.5 19.3c-11.3 0-19.5-8-19.5-19.3zm31.9 0c0-7.6-5.1-12.7-12.4-12.7-7.2 0-12.3 5.1-12.3 12.7s5.2 12.7 12.3 12.7c7.4.1 12.4-5.2 12.4-12.7zM456 24.1v6.4h-2.9c-7.1 0-10.2 5.1-10.2 12.6v18H436V24h6.9v6.5c2.4-4.8 6.2-6.5 10.3-6.5h2.8v.1zM466.9 47V30.3h-6.4V24h6.4V13.3l7-2.3v12.9h10.4v6.3h-10.4v15.7c0 6.2 3.3 8.8 9.3 8.8h.7l-1.1 6.8h-.3c-10.5.3-15.6-4.3-15.6-14.5zM526.8 24.1v34.3c0 12.2-7.4 18.8-19.2 18.8-8.4 0-13.7-3.1-17.4-8l5.7-3.6c2.1 2.6 5.7 5.4 12 5.4 7.5 0 11.9-4.3 11.9-12.1v-4.6c-2.9 4.7-7.6 6.9-13.4 6.9-10.4 0-17.9-7.8-17.9-18.7s7.3-19 17.9-19c6 0 10.4 2.5 13.4 6.9v-6.2l7-.1zM520 42.2c0-6.7-5.1-12.6-12.2-12.6-7.4 0-12.2 5.6-12.2 12.8 0 7.4 5.1 12.6 12.3 12.6 7.2-.1 12.1-5.6 12.1-12.8zM571.3 24.1v37.1h-7v-6.5c-2.9 5.1-7.8 7.2-13.5 7.2-10.4 0-17.9-8-17.9-19.2 0-11.3 7.5-19.3 17.9-19.3 5.7 0 10.8 2.4 13.5 7.1v-6.3l7-.1zm-6.6 18.5c0-7.4-5.4-12.8-12.5-12.8s-12 5.1-12 12.9c0 7.6 4.8 12.7 11.9 12.7 7.2 0 12.6-5.5 12.6-12.8zM615.9 24.1v34.3c0 12.2-7.4 18.8-19.2 18.8-8.4 0-13.7-3.1-17.4-8l5.7-3.6c2.1 2.6 5.7 5.4 12 5.4 7.5 0 11.9-4.3 11.9-12.1v-4.6c-2.9 4.7-7.6 6.9-13.4 6.9-10.4 0-17.9-7.8-17.9-18.7s7.3-19 17.9-19c6 0 10.4 2.5 13.4 6.9v-6.2l7-.1zm-6.8 18.1c0-6.7-5.1-12.6-12.2-12.6-7.4 0-12.2 5.6-12.2 12.8 0 7.4 5.1 12.6 12.3 12.6 7.3-.1 12.1-5.6 12.1-12.8zM658.8 44.6h-29.5c.7 6.9 5.2 11.2 11.8 11.2 5.2 0 8.5-2.3 10.8-4.6l4.8 3.6c-2.9 3.5-7.6 7.1-15.7 7.1-11.4 0-18.7-8.3-18.7-19.1 0-11.1 7.9-19.3 18.5-19.3 10.7 0 18 7.9 18 20.3v.8zm-7.3-5.1c-.7-6.5-4.7-10.4-10.6-10.4-5.7 0-10.6 3.8-11.5 10.4h22.1z"/>
    </g>
  </g>
</svg>
