<svg width="93" height="16" viewBox="0 0 93 16" fill="none" xmlns="http://www.w3.org/2000/svg">
<path d="M83.1019 6.06208C83.9955 5.38062 85.0451 4.72756 86.0663 4.72756C87.1442 4.72756 87.6407 5.59358 87.4279 6.85711L85.8535 15.7302H91.0447L92.6759 6.18985C93.4418 1.64681 90.5199 0.0141602 87.896 0.0141602C85.9244 0.0141602 83.9813 0.880176 82.5913 2.42765C81.8821 0.610434 80.3077 0.0141602 78.8184 0.0141602C77.0029 0.0141602 75.2725 0.752403 73.8542 2.32827L74.2229 0.283903H66.4503L65.6418 4.79854H68.5779L66.6631 15.7302H71.8117L73.5138 6.06208C74.4073 5.38062 75.4569 4.72756 76.4781 4.72756C77.5561 4.72756 78.0525 5.59358 77.8398 6.85711L76.2654 15.7302H81.414L83.1019 6.06208Z" fill="#E7131A"/>
<path fill-rule="evenodd" clip-rule="evenodd" d="M48.9619 8.4898C48.9619 3.98935 52.1816 0 57.6423 0C61.9683 0 65.4575 2.85359 65.4575 7.5102C65.4575 12.0106 62.2378 16 56.7771 16C52.4511 16 48.9619 13.1606 48.9619 8.4898ZM54.0964 8.24845C54.0964 10.1083 55.2453 11.5563 57.0608 11.5563C59.0607 11.5563 60.323 9.76752 60.3372 7.75155C60.3372 5.89175 59.1883 4.44366 57.3728 4.44366C55.3587 4.44366 54.0964 6.24667 54.0964 8.24845Z" fill="#E7131A"/>
<path fill-rule="evenodd" clip-rule="evenodd" d="M31.6719 8.4898C31.6719 3.98935 34.8916 0 40.3523 0C44.6783 0 48.1674 2.85359 48.1674 7.5102C48.1674 12.0106 44.9478 16 39.4871 16C35.1611 16 31.6719 13.1606 31.6719 8.4898ZM36.8064 8.24845C36.8064 10.1083 37.9552 11.5563 39.7707 11.5563C41.7706 11.5563 43.0471 9.76752 43.0471 7.75155C43.0471 5.89175 41.8983 4.44366 40.0828 4.44366C38.0687 4.44366 36.8064 6.24667 36.8064 8.24845Z" fill="#E7131A"/>
<path d="M32.2111 0L31.1898 5.56522H29.0907C27.1191 5.56522 26.3107 6.55901 26.0412 8.16326L24.7505 15.7303H19.5876L21.5024 4.79858H18.5664L19.3749 0.28394H27.1475L26.5943 3.25111C27.6439 0.75244 29.9275 0 32.055 0H32.2111Z" fill="#E7131A"/>
<path d="M0 4.79858L0.794284 0.283936H8.19814L7.84355 11.0452L12.7795 0.283936H18.5806L10.7654 15.7303H2.93601V4.79858H0Z" fill="#E7131A"/>
</svg>
