<svg width="16" height="16" viewBox="0 0 16 16" fill="none" xmlns="http://www.w3.org/2000/svg">
    <path fill-rule="evenodd" clip-rule="evenodd" d="M8.87241 9.48572V15.0762C8.87241 15.2025 8.92258 15.3236 9.01188 15.4129C9.10119 15.5022 9.22231 15.5524 9.3486 15.5524C9.47489 15.5524 9.59601 15.5022 9.68532 15.4129C9.77462 15.3236 9.82479 15.2025 9.82479 15.0762V9.63049L15.5391 1.18858C15.574 1.13736 15.5985 1.07974 15.6111 1.01903C15.6237 0.958316 15.6241 0.895716 15.6125 0.834824C15.6008 0.773932 15.5772 0.71595 15.543 0.664211C15.5088 0.612472 15.4648 0.567997 15.4134 0.533343C15.3607 0.496801 15.3009 0.471659 15.2379 0.459524C15.175 0.447389 15.1102 0.448527 15.0476 0.462867C15.0314 0.458157 15.0148 0.454341 14.9981 0.451438H0.853362C0.839408 0.450554 0.825412 0.450554 0.811458 0.451438C0.7799 0.454378 0.748666 0.460115 0.718124 0.468581C0.687836 0.477837 0.658497 0.489955 0.630505 0.504771C0.619077 0.504771 0.603839 0.504771 0.59241 0.52001C0.580981 0.535248 0.571458 0.552391 0.560029 0.571438C0.535307 0.592351 0.51237 0.615287 0.491458 0.64001C0.472773 0.662164 0.456787 0.686462 0.443839 0.71239C0.428869 0.738071 0.417342 0.765609 0.409553 0.794295C0.399561 0.824551 0.393167 0.855877 0.390505 0.887629C0.389422 0.902847 0.389422 0.918124 0.390505 0.933343C0.380981 0.939057 0.380981 0.952391 0.380981 0.965724C0.384576 0.99671 0.39095 1.02731 0.400029 1.05715C0.411495 1.08722 0.426184 1.11596 0.443839 1.14287C0.44808 1.1565 0.453169 1.16986 0.459077 1.18287L6.04193 9.62858V15.0762C6.04193 15.2025 6.0921 15.3236 6.18141 15.4129C6.27071 15.5022 6.39183 15.5524 6.51812 15.5524C6.64442 15.5524 6.76554 15.5022 6.85484 15.4129C6.94414 15.3236 6.99431 15.2025 6.99431 15.0762V9.48572C6.99455 9.39354 6.96737 9.30337 6.91622 9.22668L1.72955 1.3962H14.2572L8.95241 9.22096C8.89992 9.29926 8.87206 9.39147 8.87241 9.48572Z" fill="#257FA4"/>
</svg>
