<svg viewBox="0 0 74 62" xmlns="http://www.w3.org/2000/svg">
  <g transform="translate(1 1)" stroke="currentColor" stroke-width="1.5" fill="none" fill-rule="evenodd">
    <path d="M2.671 9.525h66.46M5.815 6.013h3.149M12.108 6.013h3.149M18.401 6.013h3.15M36.89 46.08H1.1a1.1 1.1 0 01-1.1-1.1V1.1A1.1 1.1 0 011.1 0h69.586a1.1 1.1 0 011.1 1.1v43.88a1.1 1.1 0 01-1.1 1.1h-1.55"/>
    <path d="M32.812 43.15H2.715V2.804h66.356v40.348h-2.743M42.892 46.25l2.985 13.472H25.909l2.984-13.472"/>
    <path d="M65.141 29.35c0 9.665-7.835 17.5-17.5 17.5s-17.5-7.835-17.5-17.5 7.835-17.5 17.5-17.5a17.413 17.413 0 0117.5 17.5h0z"/>
    <path d="M60.612 41.15l8.294 8.129-1.512 1.302-8.288-8.128M11.712 22.815a2.825 2.825 0 00-2.198-1.067c-1.446 0-2.105.89-2.105 1.748 0 2.446 4.353 1.358 4.353 4.095a2.105 2.105 0 01-2.199 1.967 3.347 3.347 0 01-2.605-1.313M9.508 21.715v-1.94M9.508 31.718V29.52M14.197 21.457h12.811M14.197 25.711h12.811M14.197 30.136h12.811M56.644 36.275v2.704h-2.71v-2.704"/>
    <circle cx="39.974" cy="31.691" r="1.946"/>
    <circle cx="55.572" cy="31.691" r="1.946"/>
    <path d="M41.062 36.275v2.704h-2.71v-2.704M51.791 33.021h-7.937M43.854 30.081h7.937"/>
    <path d="M36.214 36.275v-8.772l1.462-.363 2.809-8.272h14.609l2.808 8.272 1.468.363v8.772z"/>
    <path d="M43.282 26.327h11.73l-1.71-5.469h-10.02 9.108-10.02l-1.71 5.469h11.73"/>
  </g>
</svg>
