<svg xmlns="http://www.w3.org/2000/svg">
    <!-- GAS start-->
    <path id="gas"
          d="m19.77 7.23.01-.01-3.72-3.72-1.06 1.06 2.11 2.11c-.94.36-1.61 1.26-1.61 2.33 0 1.38 1.12 2.5 2.5 2.5.36 0 .69-.08 1-.21v7.21c0 .55-.45 1-1 1s-1-.45-1-1v-4.5c0-1.1-.9-2-2-2h-1v-7c0-1.1-.9-2-2-2h-6c-1.1 0-2 .9-2 2v16h10v-7.5h1.5v5c0 1.38 1.12 2.5 2.5 2.5s2.5-1.12 2.5-2.5v-9.5c0-.69-.28-1.32-.73-1.77zm-7.77 2.77h-6v-5h6zm5-1c0 .55.45 1 1 1s1-.45 1-1-.45-1-1-1-1 .45-1 1z"/>
    <!-- GAS end-->

    <!-- ENGINE start-->
    <path id="engine" d="m20 10-1.94-2h-4.06v-2h3v-2h-9v2h3v2h-5v3h-2v-3h-2v9h2v-3h2v3h4l2 3h8v-2h2v-8z"/>
    <!-- ENGINE end-->

    <!-- SEAT start-->
    <path id="seat"
          d="m7 13h10v-8c0-1.1-.9-2-2-2h-6c-1.1 0-2 .9-2 2zm-5-3h3v3h-3zm20 0h-3v3h3zm-15 11h-3v-6h16v6h-3v-3h-10z"
    />
    <!-- SEAT end-->

    <!-- CHECKMARK start-->
    <g id="checkmark">
        <path d="m0 0h2.46726v5.75693h-2.46726z" transform="matrix(.729523 -.683956 .729523 .683956 0 5.06255)"/>
        <path d="m0 0h10.6914v2.46726h-10.6914z"
              transform="matrix(.729523 -.683956 .729523 .683956 2.40039 7.31248)"/>
    </g>
    <!-- CHECKMARK end-->

    <!-- VROOM start-->
    <g id="vroom">
        <path d="M103.877 7.57765C104.994 6.72584 106.306 5.90951 107.583 5.90951C108.93 5.90951 109.551 6.99203 109.285 8.57144L107.317 19.6628H113.806L115.845 7.73737C116.802 2.05858 113.15 0.0177612 109.87 0.0177612C107.406 0.0177612 104.977 1.10028 103.239 3.03462C102.353 0.763103 100.385 0.0177612 98.523 0.0177612C96.2536 0.0177612 94.0906 0.940565 92.3177 2.9104L92.7786 0.35494H83.0628L82.0522 5.99824H85.7223L83.3288 19.6628H89.7646L91.8921 7.57765C93.0091 6.72584 94.3211 5.90951 95.5976 5.90951C96.9451 5.90951 97.5656 6.99203 97.2997 8.57144L95.3317 19.6628H101.768L103.877 7.57765Z"/>
        <path d="M61.2023 10.6122C61.2023 4.98669 65.2269 0 72.0528 0C77.4603 0 81.8217 3.56699 81.8217 9.38776C81.8217 15.0133 77.7971 20 70.9713 20C65.5637 20 61.2023 16.4508 61.2023 10.6122ZM67.6204 10.3106C67.6204 12.6353 69.0565 14.4454 71.3258 14.4454C73.8257 14.4454 75.4036 12.2094 75.4214 9.68944C75.4214 7.36468 73.9853 5.55457 71.7159 5.55457C69.1983 5.55457 67.6204 7.80834 67.6204 10.3106Z"/>
        <path d="M39.59 10.6122C39.59 4.98669 43.6146 0 50.4405 0C55.848 0 60.2094 3.56699 60.2094 9.38776C60.2094 15.0133 56.1848 20 49.3589 20C43.9514 20 39.59 16.4508 39.59 10.6122ZM46.0081 10.3106C46.0081 12.6353 47.4442 14.4454 49.7135 14.4454C52.2134 14.4454 53.8091 12.2094 53.8091 9.68944C53.8091 7.36468 52.373 5.55457 50.1036 5.55457C47.586 5.55457 46.0081 7.80834 46.0081 10.3106Z"/>
        <path d="M40.2637 0L38.9872 6.95652H36.3632C33.8988 6.95652 32.8882 8.19876 32.5514 10.2041L30.938 19.6628H24.4844L26.8779 5.99823H23.2079L24.2185 0.354925H33.9343L33.2428 4.06389C34.5548 0.94055 37.4093 0 40.0687 0H40.2637Z"/>
        <path d="M0 5.99822L0.992855 0.354919H10.2477L9.80444 13.8066L15.9743 0.354919H23.2257L13.4567 19.6628H3.67002V5.99822H0Z"/>
    </g>
    <!-- VROOM end-->

    <!-- Google Play start-->
    <g id="google-play" fill="#fff">
        <path d="m104 .64a3.35 3.35 0 0 1 3.36 3.36v24a3.35 3.35 0 0 1 -3.36 3.36h-100a3.35 3.35 0 0 1 -3.36-3.36v-24a3.35 3.35 0 0 1 3.36-3.36zm0-.64h-100a4 4 0 0 0 -4 4v24a4 4 0 0 0 4 4h100a4 4 0 0 0 4-4v-24a4 4 0 0 0 -4-4z" />
        <g stroke="#fff" stroke-miterlimit="10" stroke-width=".2">
            <path d="m37.94 8.19a2.14 2.14 0 0 1 -.6 1.6 2.34 2.34 0 0 1 -1.76.71 2.48 2.48 0 0 1 -2.5-2.5 2.38 2.38 0 0 1 .73-1.78 2.42 2.42 0 0 1 1.77-.72 2.36 2.36 0 0 1 1 .2 2 2 0 0 1 .75.53l-.42.43a1.61 1.61 0 0 0 -1.31-.57 1.82 1.82 0 0 0 -1.32.53 1.88 1.88 0 0 0 -.57 1.38 1.84 1.84 0 0 0 .55 1.38 1.87 1.87 0 0 0 1.32.54 1.82 1.82 0 0 0 1.34-.54 1.49 1.49 0 0 0 .4-1h-1.74v-.55h2.32a2.47 2.47 0 0 1 .04.36z" />
            <path d="m41.62 6.19h-2.18v1.52h2v.58h-2v1.52h2.18v.59h-2.8v-4.8h2.8z" />
            <path d="m44.22 10.4h-.61v-4.21h-1.35v-.59h3.3v.59h-1.34z" />
            <path d="m48 10.4v-4.8h.62v4.8z" />
            <path d="m51.3 10.4h-.61v-4.21h-1.35v-.59h3.3v.59h-1.34z" />
            <path d="m58.89 9.78a2.51 2.51 0 0 1 -3.52 0 2.48 2.48 0 0 1 -.71-1.78 2.46 2.46 0 0 1 .71-1.78 2.35 2.35 0 0 1 1.76-.72 2.4 2.4 0 0 1 1.76.72 2.59 2.59 0 0 1 0 3.56zm-3.07-.4a1.78 1.78 0 0 0 1.31.53 1.74 1.74 0 0 0 1.3-.53 1.91 1.91 0 0 0 .57-1.38 1.87 1.87 0 0 0 -.54-1.38 1.75 1.75 0 0 0 -1.3-.54 1.79 1.79 0 0 0 -1.31.54 1.9 1.9 0 0 0 -.56 1.38 1.9 1.9 0 0 0 .53 1.38z" />
            <path d="m60.46 10.4v-4.8h.76l2.33 3.74v-.93-2.81h.62v4.8h-.64l-2.44-3.91v.93 3z" />
        </g>
        <path d="m54.51 17.4a3.4 3.4 0 1 0 3.42 3.4 3.35 3.35 0 0 0 -3.42-3.4zm0 5.46a2.07 2.07 0 1 1 1.92-2.06 2 2 0 0 1 -1.92 2.06zm-7.45-5.46a3.4 3.4 0 1 0 3.41 3.4 3.36 3.36 0 0 0 -3.41-3.4zm0 5.46a2 2 0 0 1 -1.92-2.06 1.92 1.92 0 1 1 1.92 2.06zm-8.87-4.41v1.44h3.46a3 3 0 0 1 -.79 1.81 3.48 3.48 0 0 1 -2.66 1.06 3.84 3.84 0 0 1 0-7.68 3.69 3.69 0 0 1 2.6 1l1-1a5 5 0 0 0 -3.63-1.46 5.29 5.29 0 1 0 0 10.58 4.67 4.67 0 0 0 4.94-4.86 4.7 4.7 0 0 0 -.08-.9h-4.84zm36.25 1.12a3.15 3.15 0 0 0 -2.91-2.17 3.24 3.24 0 0 0 -3.21 3.4 3.33 3.33 0 0 0 3.38 3.4 3.37 3.37 0 0 0 2.83-1.5l-1.16-.78a1.93 1.93 0 0 1 -1.67.94 1.73 1.73 0 0 1 -1.65-1l4.55-1.86zm-4.64 1.13a1.87 1.87 0 0 1 1.78-2 1.33 1.33 0 0 1 1.26.72zm-3.7 3.3h1.5v-10h-1.5zm-2.44-5.84h-.06a2.36 2.36 0 0 0 -1.79-.76 3.41 3.41 0 0 0 0 6.81 2.31 2.31 0 0 0 1.79-.78v.49a1.75 1.75 0 0 1 -1.82 2 1.89 1.89 0 0 1 -1.71-1.21l-1.3.55a3.22 3.22 0 0 0 3 2c1.75 0 3.23-1 3.23-3.54v-6.11h-1.35v.55zm-1.72 4.7a2 2 0 0 1 -1.9-2 2 2 0 0 1 1.9-2.08 1.92 1.92 0 0 1 1.81 2.08 1.88 1.88 0 0 1 -1.81 2zm19.51-8.86h-3.58v10h1.5v-3.79h2.09a3.11 3.11 0 1 0 0-6.21zm0 4.82h-2.09v-3.44h2.12a1.72 1.72 0 1 1 0 3.44zm9.23-1.44a2.8 2.8 0 0 0 -2.66 1.53l1.33.55a1.4 1.4 0 0 1 1.36-.73 1.42 1.42 0 0 1 1.59 1.27v.1a3.34 3.34 0 0 0 -1.56-.38c-1.43 0-2.88.78-2.88 2.24a2.31 2.31 0 0 0 2.48 2.2 2.11 2.11 0 0 0 1.91-1v.84h1.44v-3.85a2.74 2.74 0 0 0 -2.98-2.77zm-.18 5.48c-.49 0-1.17-.24-1.17-.84 0-.77.85-1.07 1.58-1.07a2.64 2.64 0 0 1 1.36.34 1.8 1.8 0 0 1 -1.74 1.57zm8.5-5.26-1.71 4.34-1.83-4.34h-1.61l2.66 6.06-1.51 3.34h1.56l4.11-9.43zm-13.45 6.4h1.5v-10h-1.5z" />
        <path d="m26.45 16a1.41 1.41 0 0 0 -.84-1.16s-15.91-9-16-9h-.18-.23a.59.59 0 0 0 -.19 0 .58.58 0 0 0 -.19 0 1 1 0 0 0 -.16.06 1.77 1.77 0 0 0 -.22.1 1.35 1.35 0 0 0 -.26.44.43.43 0 0 1 0 0 2 2 0 0 0 -.1.63v17.78a1.6 1.6 0 0 0 .27 1.15l.06.05a.67.67 0 0 0 .14.09.83.83 0 0 0 .16.09.47.47 0 0 0 .17 0 .78.78 0 0 0 .22 0h.15a1.94 1.94 0 0 0 .75-.23l15.59-8.87a1.41 1.41 0 0 0 .86-1.13zm-18.45-9.25a3.26 3.26 0 0 0 0 .33 3.26 3.26 0 0 1 0-.33z" />
    </g>
    <!-- Google Play end-->

    <!-- Apple Store start-->
    <g id="apple-store">
        <path d="M88.352.8h.864c.2 0 .4.008.592.008h.144c.496.008.992.048 1.48.128.456.08.896.224 1.296.424.824.424 1.48 1.072 1.896 1.888.208.408.344.84.424 1.296.08.488.128.984.136 1.48v.744c.016.288.016.576.016.864v16.744c0 .288 0 .576-.008.872v.72c-.008.496-.056.992-.136 1.488-.072.448-.216.888-.416 1.288-.208.4-.48.768-.808 1.096-.32.32-.688.592-1.088.792-.416.208-.848.352-1.304.432-.488.08-.992.128-1.496.128-.24.008-.48.008-.728.008H6.768c-.24 0-.48 0-.728-.008-.496-.008-1-.048-1.48-.128-.456-.08-.888-.224-1.296-.432-.408-.208-.776-.472-1.096-.8-.32-.32-.592-.68-.792-1.088-.208-.408-.352-.84-.424-1.296-.08-.488-.128-.984-.136-1.496-.008-.16-.008-.32-.016-.48V6.528c0-.16 0-.32.008-.504.008-.488.056-.984.136-1.472.072-.448.216-.888.424-1.296.208-.408.472-.768.8-1.088.32-.32.688-.592 1.096-.792.408-.216.84-.36 1.296-.432.488-.08.992-.128 1.488-.128H6.2C6.392.808 6.584.8 6.776.8h81.576zm0-.8H6.768c-.24 0-.488.008-.736.008-.536.008-1.072.056-1.608.144-.528.088-1.04.264-1.52.504s-.92.56-1.304.944c-.384.376-.696.816-.944 1.296-.24.48-.416.992-.504 1.52-.088.528-.136 1.064-.144 1.6 0 .248-.008.496-.008.736V25.24c0 .248.008.488.016.736.008.536.056 1.072.144 1.6s.256 1.048.504 1.52c.24.48.56.912.944 1.288.376.384.816.696 1.296.944.48.24.992.416 1.528.504.528.088 1.072.136 1.608.144.24.016.488.024.728.024H89.224c.248 0 .496 0 .736-.008.536-.008 1.072-.056 1.608-.144s1.048-.264 1.528-.504.92-.56 1.296-.944c.384-.376.704-.816.944-1.288.24-.48.408-.992.496-1.52.088-.528.136-1.064.152-1.6v-.736c.016-.296.016-.592.016-.888V7.632c0-.296 0-.584-.008-.872v-.736c-.008-.536-.056-1.072-.152-1.6-.088-.528-.256-1.04-.496-1.52-.496-.96-1.28-1.744-2.248-2.24-.48-.24-1-.408-1.528-.504C91.04.072 90.504.024 89.96.016c-.248 0-.496-.008-.736-.008C88.936 0 88.64 0 88.352 0z" fill="#fff"/>
        <path d="M20.056 15.912c.016-1.408.76-2.712 1.968-3.456-.768-1.088-2-1.752-3.328-1.792-1.4-.144-2.76.832-3.472.832-.728 0-1.824-.824-3.008-.8-1.56.048-2.97599.912-3.72799 2.272-1.616 2.784-.408 6.88 1.136 9.128C10.4 23.2 11.304 24.432 12.48 24.384c1.16-.048 1.592-.736 2.984-.736 1.384 0 1.792.736 2.992.712 1.24-.024 2.024-1.104 2.768-2.224.552-.784.984-1.656 1.264-2.576-1.472-.608-2.432-2.048-2.432-3.648zM17.7761 9.184c.68-.808 1.008-1.856.928-2.904-1.032.112-1.992.6-2.672 1.384-.68.768-1.024 1.776-.952 2.8 1.04 0 2.04-.464 2.696-1.28zM33.9361 21.712h-3.8l-.912 2.688h-1.608l3.6-9.936h1.672l3.6 9.936h-1.632l-.92-2.688zm-3.4-1.24h3.008l-1.48-4.36h-.04l-1.488 4.36zM44.2481 20.776c0 2.248-1.208 3.696-3.032 3.696-.944.048-1.832-.44-2.288-1.264h-.032v3.584h-1.488v-9.64h1.44v1.208h.024c.472-.816 1.368-1.312 2.312-1.28 1.8559 0 3.064 1.448 3.064 3.696zm-1.528 0c0-1.464-.76-2.432-1.92-2.432-1.136 0-1.904.984-1.904 2.432 0 1.456.768 2.44 1.904 2.44 1.16 0 1.92-.96 1.92-2.44zM52.248 20.776c0 2.248-1.208 3.696-3.032 3.696-.944.048-1.832-.44-2.2879-1.264h-.0321v3.584h-1.4879v-9.64h1.44v1.208h.024c.472-.816 1.3679-1.312 2.3119-1.28 1.848 0 3.064 1.448 3.064 3.696zm-1.536 0c0-1.464-.76-2.432-1.92-2.432-1.1359 0-1.9039.984-1.9039 2.432 0 1.456.768 2.44 1.9039 2.44 1.16 0 1.92-.96 1.92-2.44zM57.528 21.632c.112.984 1.072 1.632 2.384 1.632 1.256 0 2.16-.648 2.16-1.536 0-.768-.544-1.232-1.84-1.552l-1.288-.312c-1.832-.44-2.68-1.296-2.68-2.68 0-1.712 1.496-2.888 3.624-2.888 2.104 0 3.552 1.176 3.6 2.888h-1.504c-.088-.992-.912-1.592-2.112-1.592-1.2 0-2.024.608-2.024 1.488 0 .704.528 1.112 1.808 1.432l1.096.272c2.048.48 2.896 1.304 2.896 2.752 0 1.856-1.48 3.024-3.848 3.024-2.208 0-3.704-1.136-3.8-2.936l1.528.008zM66.8642 15.44v1.712h1.384v1.176h-1.384v3.992c0 .624.28.912.88.912.16 0 .328-.016.488-.032v1.168c-.272.048-.552.072-.832.072-1.472 0-2.048-.552-2.048-1.952v-4.152h-1.056V17.16h1.056v-1.72h1.512zM69.0481 20.776c0-2.28 1.344-3.712 3.448-3.712s3.448 1.432 3.448 3.712c0 2.288-1.336 3.712-3.448 3.712-2.12 0-3.448-1.424-3.448-3.712zm5.368 0c0-1.56-.72-2.488-1.928-2.488s-1.928.928-1.928 2.488c0 1.568.72 2.488 1.928 2.488s1.928-.92 1.928-2.488zM77.168 17.152h1.424v1.232h.032c.2-.792.928-1.336 1.744-1.312.168 0 .344.016.512.056v1.392c-.216-.064-.44-.096-.672-.088-.832-.032-1.528.608-1.56 1.44 0 .08 0 .152.008.232V24.4h-1.488v-7.248zM87.752 22.272c-.2 1.312-1.488 2.216-3.128 2.216-2.112 0-3.424-1.408-3.424-3.68 0-2.272 1.32-3.744 3.36-3.744 2.008 0 3.272 1.376 3.272 3.576v.512h-5.128v.088c-.096 1.04.68 1.952 1.72 2.048.08.008.16.008.24.008.72.064 1.408-.344 1.68-1.016l1.408-.008zm-5.04-2.168h3.632c.056-.96-.68-1.784-1.648-1.832h-.136c-1.016-.008-1.84.808-1.848 1.824v.008zM30.3441 6.984c1.168-.08 2.184.79201 2.264 1.952.008.13601.008.28-.008.416 0 1.528-.824 2.4-2.256 2.4h-1.728V6.984h1.728zm-.984 4.096h.904c.832.048 1.544-.584 1.592-1.408.008-.104 0-.208-.016-.312.112-.824-.464-1.584-1.288-1.696-.096-.016-.192-.016-.288-.008h-.904v3.424zM33.4402 9.952c-.088-.936.6-1.768 1.544-1.864.944-.088 1.776.6 1.864 1.536.008.112.008.216 0 .328.088.936-.6 1.776-1.536 1.864-.944.088-1.776-.592-1.872-1.536-.016-.104-.016-.216 0-.328zm2.672 0c0-.784-.352-1.24-.968-1.24s-.968.456-.968 1.24.352 1.24.968 1.24.968-.456.968-1.24zM41.376 11.76h-.736l-.744-2.656h-.056l-.744 2.656h-.736l-.992-3.6h.72l.648 2.752h.056l.744-2.752h.68l.744 2.752h.056l.64-2.752h.712l-.992 3.6zM43.2 8.152h.688v.576h.056c.184-.424.616-.68 1.08-.64.648-.048 1.208.432 1.256 1.08.008.088 0 .176-.008.256v2.328h-.712V9.6c0-.576-.256-.864-.776-.864-.456-.024-.848.328-.864.784v2.232h-.72v-3.6zM47.4081 6.752h.712v5.008h-.712V6.752zM49.1121 9.952c-.088-.936.6-1.768 1.544-1.864.944-.088 1.776.6 1.864 1.536.008.112.008.216 0 .328.088.936-.6 1.776-1.536 1.864-.944.088-1.776-.592-1.872-1.536-.008-.104-.008-.216 0-.328zm2.672 0c0-.784-.352-1.24-.968-1.24s-.968.456-.968 1.24.352 1.24.968 1.24.968-.456.968-1.24zM53.272 10.736c0-.648.488-1.024 1.344-1.072l.976-.056v-.312c0-.384-.256-.592-.736-.592-.4 0-.672.144-.752.4h-.688c.072-.616.656-1.016 1.48-1.016.904 0 1.416.448 1.416 1.208v2.464h-.688v-.504h-.056c-.232.368-.648.584-1.088.568-.6.064-1.136-.376-1.2-.968-.008-.048-.008-.08-.008-.12zm2.32-.304v-.304l-.88.056c-.496.032-.72.2-.72.52 0 .328.28.512.672.512.464.048.888-.296.936-.76-.008-.008-.008-.016-.008-.024zM57.2401 9.952c0-1.136.5839-1.856 1.4959-1.856.464-.024.896.224 1.104.632h.056V6.752h.712v5.008h-.68v-.568h-.056c-.232.4-.672.648-1.136.632-.92-.008-1.4959-.728-1.4959-1.872zm.7359 0c0 .768.36 1.224.968 1.224.6 0 .976-.464.976-1.224 0-.752-.376-1.224-.976-1.224-.6.008-.968.472-.968 1.224zM63.56 9.952c-.088-.936.6-1.768 1.544-1.864.944-.096 1.776.6 1.864 1.536.008.112.008.216 0 .328.088.936-.6 1.776-1.536 1.864-.944.088-1.776-.592-1.872-1.536-.008-.104-.008-.216 0-.328zm2.672 0c0-.784-.352-1.24-.968-1.24s-.968.456-.968 1.24.352 1.24.968 1.24c.624 0 .968-.456.968-1.24zM67.9282 8.152h.688v.576h.056c.184-.424.616-.68 1.08-.64.648-.048 1.208.432 1.256 1.08.008.088 0 .176-.008.256v2.328h-.712V9.6c0-.576-.256-.864-.776-.864-.456-.024-.848.328-.864.784v2.232h-.712v-3.6h-.008zM75.024 7.256v.912h.784v.6h-.784v1.856c0 .376.152.544.512.544.088 0 .184-.008.272-.016v.592c-.128.024-.256.032-.384.04-.792 0-1.112-.28-1.112-.976V8.776h-.576v-.6h.576v-.92h.712zM76.7761 6.752h.704v1.984h.056c.192-.424.632-.68 1.104-.648.656-.032 1.216.464 1.256 1.12.008.072 0 .152-.008.224v2.328h-.712V9.608c0-.576-.272-.864-.776-.864-.464-.04-.872.304-.912.768v2.248h-.712V6.752zM84.048 10.784c-.2.68-.856 1.12-1.568 1.04-.904.024-1.656-.688-1.68-1.592 0-.088 0-.176.016-.264-.12-.912.52-1.744 1.432-1.864.08-.008.16-.016.232-.016 1.008 0 1.608.688 1.608 1.816v.248h-2.552v.04c-.048.528.344.984.872 1.032h.088c.352.04.688-.128.856-.44h.696zm-2.512-1.16h1.824c.032-.48-.328-.896-.808-.928h-.088c-.512-.008-.928.4-.936.912.008 0 .008.008.008.016z" fill="#fff"/>
    </g>
    <!-- Apple Store end-->

    <!-- Facebook start-->
    <path id="facebook" d="M5 3h14a2 2 0 0 1 2 2v14a2 2 0 0 1-2 2H5a2 2 0 0 1-2-2V5a2 2 0 0 1 2-2m13 2h-2.5A3.5 3.5 0 0 0 12 8.5V11h-2v3h2v7h3v-7h3v-3h-3V9a1 1 0 0 1 1-1h2V5z"/>
    <!-- Facebook end-->

    <!-- Twitter start-->
    <path id="twitter" d="M22.46 6c-.77.35-1.6.58-2.46.69.88-.53 1.56-1.37 1.88-2.38-.83.5-1.75.85-2.72 1.05C18.37 4.5 17.26 4 16 4c-2.35 0-4.27 1.92-4.27 4.29 0 .34.04.67.11.98C8.28 9.09 5.11 7.38 3 4.79c-.37.63-.58 1.37-.58 2.15 0 1.49.75 2.81 1.91 3.56-.71 0-1.37-.2-1.95-.5v.03c0 2.08 1.48 3.82 3.44 4.21a4.22 4.22 0 0 1-1.93.07 4.28 4.28 0 0 0 4 2.98 8.521 8.521 0 0 1-5.33 1.84c-.34 0-.68-.02-1.02-.06C3.44 20.29 5.7 21 8.12 21 16 21 20.33 14.46 20.33 8.79c0-.19 0-.37-.01-.56.84-.6 1.56-1.36 2.14-2.23z"/>
    <!-- Twitter end-->

    <!-- Instagram start-->
    <path id="instagram" d="M7.8 2h8.4C19.4 2 22 4.6 22 7.8v8.4a5.8 5.8 0 0 1-5.8 5.8H7.8C4.6 22 2 19.4 2 16.2V7.8A5.8 5.8 0 0 1 7.8 2m-.2 2A3.6 3.6 0 0 0 4 7.6v8.8C4 18.39 5.61 20 7.6 20h8.8a3.6 3.6 0 0 0 3.6-3.6V7.6C20 5.61 18.39 4 16.4 4H7.6m9.65 1.5a1.25 1.25 0 0 1 1.25 1.25A1.25 1.25 0 0 1 17.25 8 1.25 1.25 0 0 1 16 6.75a1.25 1.25 0 0 1 1.25-1.25M12 7a5 5 0 0 1 5 5 5 5 0 0 1-5 5 5 5 0 0 1-5-5 5 5 0 0 1 5-5m0 2a3 3 0 0 0-3 3 3 3 0 0 0 3 3 3 3 0 0 0 3-3 3 3 0 0 0-3-3z"/>
    <!-- Instagram end-->

    <!-- Arrow down start-->
    <path id="arrow-down" d="M16.59 8.59L12 13.17 7.41 8.59 6 10l6 6 6-6z"/>
    <!-- Arrow end start-->

    <!-- Vroom shield start -->
    <g id='vroom-shield'>
        <path d="m28 4.7c7.4185 4.00832 15.5937 6.42 24 7.08v18.62c0 8.56-6.78 16.14-12.48 21-3.5818 3.0206-7.4386 5.6989-11.52 8-4.0814-2.3011-7.9382-4.9794-11.52-8-5.7-4.86-12.48-12.44-12.48-21v-18.62c8.4063-.66 16.5815-3.07168 24-7.08zm0-4.7c-12 8-28 8-28 8v22.4c0 19.6 28 33.6 28 33.6s28-14 28-33.6v-22.4s-16 0-28-8z"/>
        <path d="m13 26.4802 1.36-7.78h12.76l-.62 18.54 8.5-18.54h10l-13.46 26.6h-13.48v-18.82z"/>
    </g>
    <!-- Vroom shield start -->
</svg>