<svg xmlns="http://www.w3.org/2000/svg">
    <!-- GAS start-->
    <path id="gas"
          d="m19.77 7.23.01-.01-3.72-3.72-1.06 1.06 2.11 2.11c-.94.36-1.61 1.26-1.61 2.33 0 1.38 1.12 2.5 2.5 2.5.36 0 .69-.08 1-.21v7.21c0 .55-.45 1-1 1s-1-.45-1-1v-4.5c0-1.1-.9-2-2-2h-1v-7c0-1.1-.9-2-2-2h-6c-1.1 0-2 .9-2 2v16h10v-7.5h1.5v5c0 1.38 1.12 2.5 2.5 2.5s2.5-1.12 2.5-2.5v-9.5c0-.69-.28-1.32-.73-1.77zm-7.77 2.77h-6v-5h6zm5-1c0 .55.45 1 1 1s1-.45 1-1-.45-1-1-1-1 .45-1 1z"/>
    <!-- GAS end-->

    <!-- ENGINE start-->
    <path id="engine" d="m20 10-1.94-2h-4.06v-2h3v-2h-9v2h3v2h-5v3h-2v-3h-2v9h2v-3h2v3h4l2 3h8v-2h2v-8z"/>
    <!-- ENGINE end-->

    <!-- SEAT start-->
    <path id="seat"
          d="m7 13h10v-8c0-1.1-.9-2-2-2h-6c-1.1 0-2 .9-2 2zm-5-3h3v3h-3zm20 0h-3v3h3zm-15 11h-3v-6h16v6h-3v-3h-10z"
    />
    <!-- SEAT end-->

    <!-- CHECKMARK start-->
    <g id="checkmark">
        <path d="m0 0h2.46726v5.75693h-2.46726z" transform="matrix(.729523 -.683956 .729523 .683956 0 5.06255)"/>
        <path d="m0 0h10.6914v2.46726h-10.6914z"
              transform="matrix(.729523 -.683956 .729523 .683956 2.40039 7.31248)"/>
    </g>
    <!-- CHECKMARK end-->

    <!-- VROOM start-->
    <g id="vroom">
        <path d="M103.877 7.57765C104.994 6.72584 106.306 5.90951 107.583 5.90951C108.93 5.90951 109.551 6.99203 109.285 8.57144L107.317 19.6628H113.806L115.845 7.73737C116.802 2.05858 113.15 0.0177612 109.87 0.0177612C107.406 0.0177612 104.977 1.10028 103.239 3.03462C102.353 0.763103 100.385 0.0177612 98.523 0.0177612C96.2536 0.0177612 94.0906 0.940565 92.3177 2.9104L92.7786 0.35494H83.0628L82.0522 5.99824H85.7223L83.3288 19.6628H89.7646L91.8921 7.57765C93.0091 6.72584 94.3211 5.90951 95.5976 5.90951C96.9451 5.90951 97.5656 6.99203 97.2997 8.57144L95.3317 19.6628H101.768L103.877 7.57765Z"/>
        <path d="M61.2023 10.6122C61.2023 4.98669 65.2269 0 72.0528 0C77.4603 0 81.8217 3.56699 81.8217 9.38776C81.8217 15.0133 77.7971 20 70.9713 20C65.5637 20 61.2023 16.4508 61.2023 10.6122ZM67.6204 10.3106C67.6204 12.6353 69.0565 14.4454 71.3258 14.4454C73.8257 14.4454 75.4036 12.2094 75.4214 9.68944C75.4214 7.36468 73.9853 5.55457 71.7159 5.55457C69.1983 5.55457 67.6204 7.80834 67.6204 10.3106Z"/>
        <path d="M39.59 10.6122C39.59 4.98669 43.6146 0 50.4405 0C55.848 0 60.2094 3.56699 60.2094 9.38776C60.2094 15.0133 56.1848 20 49.3589 20C43.9514 20 39.59 16.4508 39.59 10.6122ZM46.0081 10.3106C46.0081 12.6353 47.4442 14.4454 49.7135 14.4454C52.2134 14.4454 53.8091 12.2094 53.8091 9.68944C53.8091 7.36468 52.373 5.55457 50.1036 5.55457C47.586 5.55457 46.0081 7.80834 46.0081 10.3106Z"/>
        <path d="M40.2637 0L38.9872 6.95652H36.3632C33.8988 6.95652 32.8882 8.19876 32.5514 10.2041L30.938 19.6628H24.4844L26.8779 5.99823H23.2079L24.2185 0.354925H33.9343L33.2428 4.06389C34.5548 0.94055 37.4093 0 40.0687 0H40.2637Z"/>
        <path d="M0 5.99822L0.992855 0.354919H10.2477L9.80444 13.8066L15.9743 0.354919H23.2257L13.4567 19.6628H3.67002V5.99822H0Z"/>
    </g>
    <!-- VROOM end-->

    <!-- Google Play start-->
    <g id="google-play" fill="#fff">
        <path d="m104 .64a3.35 3.35 0 0 1 3.36 3.36v24a3.35 3.35 0 0 1 -3.36 3.36h-100a3.35 3.35 0 0 1 -3.36-3.36v-24a3.35 3.35 0 0 1 3.36-3.36zm0-.64h-100a4 4 0 0 0 -4 4v24a4 4 0 0 0 4 4h100a4 4 0 0 0 4-4v-24a4 4 0 0 0 -4-4z" />
        <g stroke="#fff" stroke-miterlimit="10" stroke-width=".2">
            <path d="m37.94 8.19a2.14 2.14 0 0 1 -.6 1.6 2.34 2.34 0 0 1 -1.76.71 2.48 2.48 0 0 1 -2.5-2.5 2.38 2.38 0 0 1 .73-1.78 2.42 2.42 0 0 1 1.77-.72 2.36 2.36 0 0 1 1 .2 2 2 0 0 1 .75.53l-.42.43a1.61 1.61 0 0 0 -1.31-.57 1.82 1.82 0 0 0 -1.32.53 1.88 1.88 0 0 0 -.57 1.38 1.84 1.84 0 0 0 .55 1.38 1.87 1.87 0 0 0 1.32.54 1.82 1.82 0 0 0 1.34-.54 1.49 1.49 0 0 0 .4-1h-1.74v-.55h2.32a2.47 2.47 0 0 1 .04.36z" />
            <path d="m41.62 6.19h-2.18v1.52h2v.58h-2v1.52h2.18v.59h-2.8v-4.8h2.8z" />
            <path d="m44.22 10.4h-.61v-4.21h-1.35v-.59h3.3v.59h-1.34z" />
            <path d="m48 10.4v-4.8h.62v4.8z" />
            <path d="m51.3 10.4h-.61v-4.21h-1.35v-.59h3.3v.59h-1.34z" />
            <path d="m58.89 9.78a2.51 2.51 0 0 1 -3.52 0 2.48 2.48 0 0 1 -.71-1.78 2.46 2.46 0 0 1 .71-1.78 2.35 2.35 0 0 1 1.76-.72 2.4 2.4 0 0 1 1.76.72 2.59 2.59 0 0 1 0 3.56zm-3.07-.4a1.78 1.78 0 0 0 1.31.53 1.74 1.74 0 0 0 1.3-.53 1.91 1.91 0 0 0 .57-1.38 1.87 1.87 0 0 0 -.54-1.38 1.75 1.75 0 0 0 -1.3-.54 1.79 1.79 0 0 0 -1.31.54 1.9 1.9 0 0 0 -.56 1.38 1.9 1.9 0 0 0 .53 1.38z" />
            <path d="m60.46 10.4v-4.8h.76l2.33 3.74v-.93-2.81h.62v4.8h-.64l-2.44-3.91v.93 3z" />
        </g>
        <path d="m54.51 17.4a3.4 3.4 0 1 0 3.42 3.4 3.35 3.35 0 0 0 -3.42-3.4zm0 5.46a2.07 2.07 0 1 1 1.92-2.06 2 2 0 0 1 -1.92 2.06zm-7.45-5.46a3.4 3.4 0 1 0 3.41 3.4 3.36 3.36 0 0 0 -3.41-3.4zm0 5.46a2 2 0 0 1 -1.92-2.06 1.92 1.92 0 1 1 1.92 2.06zm-8.87-4.41v1.44h3.46a3 3 0 0 1 -.79 1.81 3.48 3.48 0 0 1 -2.66 1.06 3.84 3.84 0 0 1 0-7.68 3.69 3.69 0 0 1 2.6 1l1-1a5 5 0 0 0 -3.63-1.46 5.29 5.29 0 1 0 0 10.58 4.67 4.67 0 0 0 4.94-4.86 4.7 4.7 0 0 0 -.08-.9h-4.84zm36.25 1.12a3.15 3.15 0 0 0 -2.91-2.17 3.24 3.24 0 0 0 -3.21 3.4 3.33 3.33 0 0 0 3.38 3.4 3.37 3.37 0 0 0 2.83-1.5l-1.16-.78a1.93 1.93 0 0 1 -1.67.94 1.73 1.73 0 0 1 -1.65-1l4.55-1.86zm-4.64 1.13a1.87 1.87 0 0 1 1.78-2 1.33 1.33 0 0 1 1.26.72zm-3.7 3.3h1.5v-10h-1.5zm-2.44-5.84h-.06a2.36 2.36 0 0 0 -1.79-.76 3.41 3.41 0 0 0 0 6.81 2.31 2.31 0 0 0 1.79-.78v.49a1.75 1.75 0 0 1 -1.82 2 1.89 1.89 0 0 1 -1.71-1.21l-1.3.55a3.22 3.22 0 0 0 3 2c1.75 0 3.23-1 3.23-3.54v-6.11h-1.35v.55zm-1.72 4.7a2 2 0 0 1 -1.9-2 2 2 0 0 1 1.9-2.08 1.92 1.92 0 0 1 1.81 2.08 1.88 1.88 0 0 1 -1.81 2zm19.51-8.86h-3.58v10h1.5v-3.79h2.09a3.11 3.11 0 1 0 0-6.21zm0 4.82h-2.09v-3.44h2.12a1.72 1.72 0 1 1 0 3.44zm9.23-1.44a2.8 2.8 0 0 0 -2.66 1.53l1.33.55a1.4 1.4 0 0 1 1.36-.73 1.42 1.42 0 0 1 1.59 1.27v.1a3.34 3.34 0 0 0 -1.56-.38c-1.43 0-2.88.78-2.88 2.24a2.31 2.31 0 0 0 2.48 2.2 2.11 2.11 0 0 0 1.91-1v.84h1.44v-3.85a2.74 2.74 0 0 0 -2.98-2.77zm-.18 5.48c-.49 0-1.17-.24-1.17-.84 0-.77.85-1.07 1.58-1.07a2.64 2.64 0 0 1 1.36.34 1.8 1.8 0 0 1 -1.74 1.57zm8.5-5.26-1.71 4.34-1.83-4.34h-1.61l2.66 6.06-1.51 3.34h1.56l4.11-9.43zm-13.45 6.4h1.5v-10h-1.5z" />
        <path d="m26.45 16a1.41 1.41 0 0 0 -.84-1.16s-15.91-9-16-9h-.18-.23a.59.59 0 0 0 -.19 0 .58.58 0 0 0 -.19 0 1 1 0 0 0 -.16.06 1.77 1.77 0 0 0 -.22.1 1.35 1.35 0 0 0 -.26.44.43.43 0 0 1 0 0 2 2 0 0 0 -.1.63v17.78a1.6 1.6 0 0 0 .27 1.15l.06.05a.67.67 0 0 0 .14.09.83.83 0 0 0 .16.09.47.47 0 0 0 .17 0 .78.78 0 0 0 .22 0h.15a1.94 1.94 0 0 0 .75-.23l15.59-8.87a1.41 1.41 0 0 0 .86-1.13zm-18.45-9.25a3.26 3.26 0 0 0 0 .33 3.26 3.26 0 0 1 0-.33z" />
    </g>
    <!-- Google Play end-->

    <!-- Apple Store start-->
    <g id="apple-store">
        <path d="M88.352.8h.864c.2 0 .4.008.592.008h.144c.496.008.992.048 1.48.128.456.08.896.224 1.296.424.824.424 1.48 1.072 1.896 1.888.208.408.344.84.424 1.296.08.488.128.984.136 1.48v.744c.016.288.016.576.016.864v16.744c0 .288 0 .576-.008.872v.72c-.008.496-.056.992-.136 1.488-.072.448-.216.888-.416 1.288-.208.4-.48.768-.808 1.096-.32.32-.688.592-1.088.792-.416.208-.848.352-1.304.432-.488.08-.992.128-1.496.128-.24.008-.48.008-.728.008H6.768c-.24 0-.48 0-.728-.008-.496-.008-1-.048-1.48-.128-.456-.08-.888-.224-1.296-.432-.408-.208-.776-.472-1.096-.8-.32-.32-.592-.68-.792-1.088-.208-.408-.352-.84-.424-1.296-.08-.488-.128-.984-.136-1.496-.008-.16-.008-.32-.016-.48V6.528c0-.16 0-.32.008-.504.008-.488.056-.984.136-1.472.072-.448.216-.888.424-1.296.208-.408.472-.768.8-1.088.32-.32.688-.592 1.096-.792.408-.216.84-.36 1.296-.432.488-.08.992-.128 1.488-.128H6.2C6.392.808 6.584.8 6.776.8h81.576zm0-.8H6.768c-.24 0-.488.008-.736.008-.536.008-1.072.056-1.608.144-.528.088-1.04.264-1.52.504s-.92.56-1.304.944c-.384.376-.696.816-.944 1.296-.24.48-.416.992-.504 1.52-.088.528-.136 1.064-.144 1.6 0 .248-.008.496-.008.736V25.24c0 .248.008.488.016.736.008.536.056 1.072.144 1.6s.256 1.048.504 1.52c.24.48.56.912.944 1.288.376.384.816.696 1.296.944.48.24.992.416 1.528.504.528.088 1.072.136 1.608.144.24.016.488.024.728.024H89.224c.248 0 .496 0 .736-.008.536-.008 1.072-.056 1.608-.144s1.048-.264 1.528-.504.92-.56 1.296-.944c.384-.376.704-.816.944-1.288.24-.48.408-.992.496-1.52.088-.528.136-1.064.152-1.6v-.736c.016-.296.016-.592.016-.888V7.632c0-.296 0-.584-.008-.872v-.736c-.008-.536-.056-1.072-.152-1.6-.088-.528-.256-1.04-.496-1.52-.496-.96-1.28-1.744-2.248-2.24-.48-.24-1-.408-1.528-.504C91.04.072 90.504.024 89.96.016c-.248 0-.496-.008-.736-.008C88.936 0 88.64 0 88.352 0z" fill="#fff"/>
        <path d="M20.056 15.912c.016-1.408.76-2.712 1.968-3.456-.768-1.088-2-1.752-3.328-1.792-1.4-.144-2.76.832-3.472.832-.728 0-1.824-.824-3.008-.8-1.56.048-2.97599.912-3.72799 2.272-1.616 2.784-.408 6.88 1.136 9.128C10.4 23.2 11.304 24.432 12.48 24.384c1.16-.048 1.592-.736 2.984-.736 1.384 0 1.792.736 2.992.712 1.24-.024 2.024-1.104 2.768-2.224.552-.784.984-1.656 1.264-2.576-1.472-.608-2.432-2.048-2.432-3.648zM17.7761 9.184c.68-.808 1.008-1.856.928-2.904-1.032.112-1.992.6-2.672 1.384-.68.768-1.024 1.776-.952 2.8 1.04 0 2.04-.464 2.696-1.28zM33.9361 21.712h-3.8l-.912 2.688h-1.608l3.6-9.936h1.672l3.6 9.936h-1.632l-.92-2.688zm-3.4-1.24h3.008l-1.48-4.36h-.04l-1.488 4.36zM44.2481 20.776c0 2.248-1.208 3.696-3.032 3.696-.944.048-1.832-.44-2.288-1.264h-.032v3.584h-1.488v-9.64h1.44v1.208h.024c.472-.816 1.368-1.312 2.312-1.28 1.8559 0 3.064 1.448 3.064 3.696zm-1.528 0c0-1.464-.76-2.432-1.92-2.432-1.136 0-1.904.984-1.904 2.432 0 1.456.768 2.44 1.904 2.44 1.16 0 1.92-.96 1.92-2.44zM52.248 20.776c0 2.248-1.208 3.696-3.032 3.696-.944.048-1.832-.44-2.2879-1.264h-.0321v3.584h-1.4879v-9.64h1.44v1.208h.024c.472-.816 1.3679-1.312 2.3119-1.28 1.848 0 3.064 1.448 3.064 3.696zm-1.536 0c0-1.464-.76-2.432-1.92-2.432-1.1359 0-1.9039.984-1.9039 2.432 0 1.456.768 2.44 1.9039 2.44 1.16 0 1.92-.96 1.92-2.44zM57.528 21.632c.112.984 1.072 1.632 2.384 1.632 1.256 0 2.16-.648 2.16-1.536 0-.768-.544-1.232-1.84-1.552l-1.288-.312c-1.832-.44-2.68-1.296-2.68-2.68 0-1.712 1.496-2.888 3.624-2.888 2.104 0 3.552 1.176 3.6 2.888h-1.504c-.088-.992-.912-1.592-2.112-1.592-1.2 0-2.024.608-2.024 1.488 0 .704.528 1.112 1.808 1.432l1.096.272c2.048.48 2.896 1.304 2.896 2.752 0 1.856-1.48 3.024-3.848 3.024-2.208 0-3.704-1.136-3.8-2.936l1.528.008zM66.8642 15.44v1.712h1.384v1.176h-1.384v3.992c0 .624.28.912.88.912.16 0 .328-.016.488-.032v1.168c-.272.048-.552.072-.832.072-1.472 0-2.048-.552-2.048-1.952v-4.152h-1.056V17.16h1.056v-1.72h1.512zM69.0481 20.776c0-2.28 1.344-3.712 3.448-3.712s3.448 1.432 3.448 3.712c0 2.288-1.336 3.712-3.448 3.712-2.12 0-3.448-1.424-3.448-3.712zm5.368 0c0-1.56-.72-2.488-1.928-2.488s-1.928.928-1.928 2.488c0 1.568.72 2.488 1.928 2.488s1.928-.92 1.928-2.488zM77.168 17.152h1.424v1.232h.032c.2-.792.928-1.336 1.744-1.312.168 0 .344.016.512.056v1.392c-.216-.064-.44-.096-.672-.088-.832-.032-1.528.608-1.56 1.44 0 .08 0 .152.008.232V24.4h-1.488v-7.248zM87.752 22.272c-.2 1.312-1.488 2.216-3.128 2.216-2.112 0-3.424-1.408-3.424-3.68 0-2.272 1.32-3.744 3.36-3.744 2.008 0 3.272 1.376 3.272 3.576v.512h-5.128v.088c-.096 1.04.68 1.952 1.72 2.048.08.008.16.008.24.008.72.064 1.408-.344 1.68-1.016l1.408-.008zm-5.04-2.168h3.632c.056-.96-.68-1.784-1.648-1.832h-.136c-1.016-.008-1.84.808-1.848 1.824v.008zM30.3441 6.984c1.168-.08 2.184.79201 2.264 1.952.008.13601.008.28-.008.416 0 1.528-.824 2.4-2.256 2.4h-1.728V6.984h1.728zm-.984 4.096h.904c.832.048 1.544-.584 1.592-1.408.008-.104 0-.208-.016-.312.112-.824-.464-1.584-1.288-1.696-.096-.016-.192-.016-.288-.008h-.904v3.424zM33.4402 9.952c-.088-.936.6-1.768 1.544-1.864.944-.088 1.776.6 1.864 1.536.008.112.008.216 0 .328.088.936-.6 1.776-1.536 1.864-.944.088-1.776-.592-1.872-1.536-.016-.104-.016-.216 0-.328zm2.672 0c0-.784-.352-1.24-.968-1.24s-.968.456-.968 1.24.352 1.24.968 1.24.968-.456.968-1.24zM41.376 11.76h-.736l-.744-2.656h-.056l-.744 2.656h-.736l-.992-3.6h.72l.648 2.752h.056l.744-2.752h.68l.744 2.752h.056l.64-2.752h.712l-.992 3.6zM43.2 8.152h.688v.576h.056c.184-.424.616-.68 1.08-.64.648-.048 1.208.432 1.256 1.08.008.088 0 .176-.008.256v2.328h-.712V9.6c0-.576-.256-.864-.776-.864-.456-.024-.848.328-.864.784v2.232h-.72v-3.6zM47.4081 6.752h.712v5.008h-.712V6.752zM49.1121 9.952c-.088-.936.6-1.768 1.544-1.864.944-.088 1.776.6 1.864 1.536.008.112.008.216 0 .328.088.936-.6 1.776-1.536 1.864-.944.088-1.776-.592-1.872-1.536-.008-.104-.008-.216 0-.328zm2.672 0c0-.784-.352-1.24-.968-1.24s-.968.456-.968 1.24.352 1.24.968 1.24.968-.456.968-1.24zM53.272 10.736c0-.648.488-1.024 1.344-1.072l.976-.056v-.312c0-.384-.256-.592-.736-.592-.4 0-.672.144-.752.4h-.688c.072-.616.656-1.016 1.48-1.016.904 0 1.416.448 1.416 1.208v2.464h-.688v-.504h-.056c-.232.368-.648.584-1.088.568-.6.064-1.136-.376-1.2-.968-.008-.048-.008-.08-.008-.12zm2.32-.304v-.304l-.88.056c-.496.032-.72.2-.72.52 0 .328.28.512.672.512.464.048.888-.296.936-.76-.008-.008-.008-.016-.008-.024zM57.2401 9.952c0-1.136.5839-1.856 1.4959-1.856.464-.024.896.224 1.104.632h.056V6.752h.712v5.008h-.68v-.568h-.056c-.232.4-.672.648-1.136.632-.92-.008-1.4959-.728-1.4959-1.872zm.7359 0c0 .768.36 1.224.968 1.224.6 0 .976-.464.976-1.224 0-.752-.376-1.224-.976-1.224-.6.008-.968.472-.968 1.224zM63.56 9.952c-.088-.936.6-1.768 1.544-1.864.944-.096 1.776.6 1.864 1.536.008.112.008.216 0 .328.088.936-.6 1.776-1.536 1.864-.944.088-1.776-.592-1.872-1.536-.008-.104-.008-.216 0-.328zm2.672 0c0-.784-.352-1.24-.968-1.24s-.968.456-.968 1.24.352 1.24.968 1.24c.624 0 .968-.456.968-1.24zM67.9282 8.152h.688v.576h.056c.184-.424.616-.68 1.08-.64.648-.048 1.208.432 1.256 1.08.008.088 0 .176-.008.256v2.328h-.712V9.6c0-.576-.256-.864-.776-.864-.456-.024-.848.328-.864.784v2.232h-.712v-3.6h-.008zM75.024 7.256v.912h.784v.6h-.784v1.856c0 .376.152.544.512.544.088 0 .184-.008.272-.016v.592c-.128.024-.256.032-.384.04-.792 0-1.112-.28-1.112-.976V8.776h-.576v-.6h.576v-.92h.712zM76.7761 6.752h.704v1.984h.056c.192-.424.632-.68 1.104-.648.656-.032 1.216.464 1.256 1.12.008.072 0 .152-.008.224v2.328h-.712V9.608c0-.576-.272-.864-.776-.864-.464-.04-.872.304-.912.768v2.248h-.712V6.752zM84.048 10.784c-.2.68-.856 1.12-1.568 1.04-.904.024-1.656-.688-1.68-1.592 0-.088 0-.176.016-.264-.12-.912.52-1.744 1.432-1.864.08-.008.16-.016.232-.016 1.008 0 1.608.688 1.608 1.816v.248h-2.552v.04c-.048.528.344.984.872 1.032h.088c.352.04.688-.128.856-.44h.696zm-2.512-1.16h1.824c.032-.48-.328-.896-.808-.928h-.088c-.512-.008-.928.4-.936.912.008 0 .008.008.008.016z" fill="#fff"/>
    </g>
    <!-- Apple Store end-->

    <!-- Facebook start-->
    <path id="facebook" d="M5 3h14a2 2 0 0 1 2 2v14a2 2 0 0 1-2 2H5a2 2 0 0 1-2-2V5a2 2 0 0 1 2-2m13 2h-2.5A3.5 3.5 0 0 0 12 8.5V11h-2v3h2v7h3v-7h3v-3h-3V9a1 1 0 0 1 1-1h2V5z"/>
    <!-- Facebook end-->

    <!-- Twitter start-->
    <path id="twitter" d="M22.46 6c-.77.35-1.6.58-2.46.69.88-.53 1.56-1.37 1.88-2.38-.83.5-1.75.85-2.72 1.05C18.37 4.5 17.26 4 16 4c-2.35 0-4.27 1.92-4.27 4.29 0 .34.04.67.11.98C8.28 9.09 5.11 7.38 3 4.79c-.37.63-.58 1.37-.58 2.15 0 1.49.75 2.81 1.91 3.56-.71 0-1.37-.2-1.95-.5v.03c0 2.08 1.48 3.82 3.44 4.21a4.22 4.22 0 0 1-1.93.07 4.28 4.28 0 0 0 4 2.98 8.521 8.521 0 0 1-5.33 1.84c-.34 0-.68-.02-1.02-.06C3.44 20.29 5.7 21 8.12 21 16 21 20.33 14.46 20.33 8.79c0-.19 0-.37-.01-.56.84-.6 1.56-1.36 2.14-2.23z"/>
    <!-- Twitter end-->

    <!-- Instagram start-->
    <path id="instagram" d="M7.8 2h8.4C19.4 2 22 4.6 22 7.8v8.4a5.8 5.8 0 0 1-5.8 5.8H7.8C4.6 22 2 19.4 2 16.2V7.8A5.8 5.8 0 0 1 7.8 2m-.2 2A3.6 3.6 0 0 0 4 7.6v8.8C4 18.39 5.61 20 7.6 20h8.8a3.6 3.6 0 0 0 3.6-3.6V7.6C20 5.61 18.39 4 16.4 4H7.6m9.65 1.5a1.25 1.25 0 0 1 1.25 1.25A1.25 1.25 0 0 1 17.25 8 1.25 1.25 0 0 1 16 6.75a1.25 1.25 0 0 1 1.25-1.25M12 7a5 5 0 0 1 5 5 5 5 0 0 1-5 5 5 5 0 0 1-5-5 5 5 0 0 1 5-5m0 2a3 3 0 0 0-3 3 3 3 0 0 0 3 3 3 3 0 0 0 3-3 3 3 0 0 0-3-3z"/>
    <!-- Instagram end-->

    <!-- Arrow down start-->
    <path id="arrow-down" d="M16.59 8.59L12 13.17 7.41 8.59 6 10l6 6 6-6z"/>
    <!-- Arrow end start-->

    <!-- Vroom shield start -->
    <g id='vroom-shield'>
        <path d="m28 4.7c7.4185 4.00832 15.5937 6.42 24 7.08v18.62c0 8.56-6.78 16.14-12.48 21-3.5818 3.0206-7.4386 5.6989-11.52 8-4.0814-2.3011-7.9382-4.9794-11.52-8-5.7-4.86-12.48-12.44-12.48-21v-18.62c8.4063-.66 16.5815-3.07168 24-7.08zm0-4.7c-12 8-28 8-28 8v22.4c0 19.6 28 33.6 28 33.6s28-14 28-33.6v-22.4s-16 0-28-8z"/>
        <path d="m13 26.4802 1.36-7.78h12.76l-.62 18.54 8.5-18.54h10l-13.46 26.6h-13.48v-18.82z"/>
    </g>
    <!-- Vroom shield start -->

    <!-- No Vehicle start-->
    <svg id="no-vehicle"><path d="m57.72 30h-3l.69 4h-41.67l6-11h12.26v-3h-14l-8.5 15.5-7 6-2.5 14.5h4.33l-1.33 6h12l1.33-6h29l-1.33 6h12l1.33-6h4.67l2-14-5.5-7.5zm-45.13 29h-5.85l.67-3h5.85zm41 0h-5.85l.67-3h5.85zm6.81-13h-12.22v3h11.82l-.57 4h-55.87l.69-4h12.25v-3h-11.73l.5-2.93 6.83-6.07h44.4l4.36 5.79z"/><path d="m37.56 29.56 6.54-6.56a11.92 11.92 0 1 0 -2-2.24l-6.66 6.66zm14.44-24.56a9 9 0 1 1 -9 9 9 9 0 0 1 9-9z"/><path d="m49.46 18.66 2.54-2.54 2.54 2.54 2.12-2.12-2.54-2.54 2.54-2.54-2.12-2.12-2.54 2.54-2.54-2.54-2.12 2.12 2.54 2.54-2.54 2.54z"/></svg>
    <!-- No Vehicle end-->

    <!-- Favorite Outlined start-->
    <svg id="favourite-outlined"><path d="M13.5413 0C12.3792 0 11.2172 0.427296 10.3301 1.28119L9.00027 2.56308L7.67043 1.28119C6.78338 0.427296 5.6213 0 4.45922 0C3.29641 0 2.13433 0.427296 1.248 1.28119C-0.526081 2.99038 -0.30216 5.37865 1.248 7.46866C3.32377 10.269 9.00027 16 9.00027 16C9.00027 16 14.6768 10.269 16.7525 7.46866C18.302 5.37865 18.5259 2.99038 16.7525 1.28119C15.8662 0.427296 14.7034 0 13.5413 0ZM13.541 1.7501C14.2689 1.7501 14.953 2.0234 15.4678 2.51867C15.966 2.99799 16.1993 3.54391 16.1827 4.18832C16.164 4.89238 15.8501 5.67483 15.2741 6.45174C13.8967 8.30936 10.7813 11.6015 8.99997 13.4445C7.21869 11.6015 4.10396 8.31075 2.72587 6.45174C2.14987 5.67483 1.83595 4.89238 1.81723 4.18832C1.80067 3.54391 2.03395 2.99799 2.53147 2.51867C3.04627 2.0234 3.73099 1.7501 4.45892 1.7501C5.18612 1.7501 5.87084 2.0234 6.38564 2.51867L7.71549 3.80056L8.99997 5.03805L10.2845 3.80056L11.6143 2.51867C12.1291 2.0234 12.8131 1.7501 13.541 1.7501Z"/></svg>
    <!-- Favorite Outlined end-->

    <!-- Favorite Filled start-->
    <svg id="favourite-filled"><path d="M13.5413 0C12.3792 0 11.2172 0.427296 10.3301 1.28119L9.00027 2.56308L7.67043 1.28119C6.78338 0.427296 5.6213 0 4.45922 0C3.29641 0 2.13433 0.427296 1.248 1.28119C-0.526081 2.99038 -0.30216 5.37865 1.248 7.46866C3.32377 10.269 9.00027 16 9.00027 16C9.00027 16 14.6768 10.269 16.7525 7.46866C18.302 5.37865 18.5259 2.99038 16.7525 1.28119C15.8662 0.427296 14.7034 0 13.5413 0Z"/></svg>
    <!-- Favorite Filled end-->

    <svg id="close-large"><path d=
          "M0.157246 1.28213L1.43857 0L6.0789 4.64036L10.5614 0.158186L11.8428 1.43941L7.36017 5.92164L12 10.5615L10.7187 11.8427L6.07865 7.20306L1.28133 12L0 10.7188L4.79732 5.92184L0.157246 1.28213Z"/></svg>

          <!-- Car Diagram start -->
          <svg id="car-diagram"><path d="m376.999 60.5429-.37-.5434c-1.712-2.2286-2.572-5.0207-2.42-7.8531v-8.0889c.002-.6757-.16-1.3413-.47-1.9377-.739-1.3805-1.39-2.8085-1.95-4.2751-.249-1.685-.105-3.4066.42-5.0235.148-.5817.099-1.1976-.139-1.747s-.651-.9997-1.171-1.2774c-1.833-.7704-3.799-1.1505-5.78-1.1175-1.66 0-3.4 0-5.24 0-5.72.082-12.19.1846-19-2.1324-2.7-.9329-7.82-2.9526-13.74-5.2901-13.96-5.5464-33.03-13.08166-42.54-15.13208v-3.07563c-.004-.3385-.126-.66429-.344-.91824-.219-.25395-.519-.41921-.846-.4658-4.331-.64418-8.751.10442-12.65 2.14269-3.33-.29731-40.85-3.475459-70.49-2.68605-40.25 1.08672-71.41 21.07831-88.15 31.78151-1.373.8817-2.653 1.6984-3.84 2.4502-1.036.667-2.037 1.3891-3 2.1632-58.7197 1.1483-81.5997 10.2521-88.7197 14.0659-3.5621 1.8766-6.8259 4.2963-9.68004 7.1765-.201.2435-.3109.5524-.31.8714v5.9565c-.00348.2203-.05677.4369-.15567.6326-.09891.1956-.24073.3651-.41433.4951-1.57 1.1585-4.13 3.5267-4.13 6.4383 0 3.3422.35 19.5508.39 21.3039-1.530002 2.1939-1.680002 4.1008-.39 5.044 3.45 2.6242 11.84004 5.9462 15.14004 6.3152 3.71.41 21.32 2.133 21.5 2.153h.11c.1494.001.2974-.03.435-.09.1375-.06.2617-.148.365-.259l.36-.451-.06-.492c-.6363-4.567-1.0236-9.167-1.16-13.7785 0-10.5904 10.89-30.3462 31.7-30.3462 19.8 0 32.0597 17.7874 32.0597 34.2625v8.9092c-.002.179.031.357.098.523s.166.316.292.441c.248.25.582.39.93.389h.23c16-.174 156.81-1.681 165-1.722.181 0 .36-.04.524-.118s.31-.192.426-.333c.112-.142.194-.307.241-.484.046-.176.056-.361.029-.542-1.83-11.5126.87-22.6362 7.39-30.4893 5.94-7.1764 14.45-10.9492 24.63-10.9492 4.368-.0723 8.696.8503 12.674 2.7013 3.977 1.8509 7.504 4.5839 10.326 8.0019 6 7.3302 8.33 17.203 6.52 27.7933-.049.303-.033.612.046.908.08.296.221.57.414.804.192.224.429.403.695.523s.555.18.845.174c4-.102 14.31-1.927 22.68-3.5879 17.47-3.4857 17.87-4.2956 18.11-4.7877.15-.3076.36-.7894.62-1.3738.54-1.2507 1.29-2.9526 2.12-4.5007.563-1.0227.823-2.1909.75-3.3626-.031-1.8949.191-3.7852.66-5.6182.37-1.8966.82-4.2444 1.14-7.1765.82-7.2995-.21-8.786-2.71-12.3947zm-16.42-9.391-.41-.1538c-1.47-.5126-3.75-1.1174-6.26-1.7326.45-1.5378 2-6.2332 4.11-8.1504 5.15-.1127 10.8-.2358 12.87-.2563.4.8407.8 1.6404 1.09 2.1837.159.3167.238.6692.23 1.0252v7.7916c-4.43 1.8454-7.63.7074-11.63-.7074zm.59 19.3252c-.205-.519-.23-1.0946-.07-1.63h1.6c-.405.6374-.924 1.1905-1.53 1.63zm2.13-2.6553h-1.83l.74-1.5275h1.79c-.21.5433-.46 1.0559-.7 1.5275zm1.18-2.5527h-1.78c.23-.4716.46-1.0252.71-1.5173h1.7c-.21.5228-.42 1.0252-.63 1.5173zm1-2.5426h-1.64c.22-.4921.44-1.0252.66-1.5173h1.56c-.16.5024-.35 1.015-.55 1.5173zm.95-2.5425h-1.43c.21-.5023.42-1.0252.62-1.5173h1.38c-.17.4921-.35.9945-.54 1.5173zm.9-2.5425h-1.33l.54-1.5276h1.35c-.18.4716-.35.974-.53 1.5276zm.84-2.5528h-1.35c.14-.4203.27-.8406.39-1.2712h.37 1c-.06.2768-.2.7279-.38 1.2712zm-26.67-8.6322-.75-.1846c-2.12-.5433-3.42-1.466-3.46-2.0504 0-.2973.39-.6459 1.1-.9329 1.392-.6184 2.826-1.1323 4.29-1.5378-.818.7015-1.364 1.6796-1.54 2.7578-.094.676.044 1.3646.39 1.9479zm2.38.5433c-.266-.0314-.524-.1174-.757-.2528-.233-.1355-.438-.3177-.601-.5357-.163-.2181-.282-.4676-.349-.7337-.068-.2661-.082-.5433-.043-.8152.236-.9838.8-1.852 1.595-2.4547.794-.6028 1.769-.9022 2.755-.8465 1.72 0 5.7-.1025 10.06-.2051-2 2.399-3.26 6.4999-3.66 7.8941-2.41-.5741-5-1.1379-7.14-1.63zm-17.13-23.7336c-9.33-2.5015-20.36-5.4746-22.94-6.2538l-1.81-.5331c-4.55-1.3225-8.53-2.4912-8.9-5.7924 9.89 3.2089 23 8.3862 33.32 12.4666zm-315.5097 34.283h2.54c-.4005.6146-.9132 1.1438-1.51 1.5584-.63.3178-2.49004 1.1277-3.74004 1.6608v-.8099c.85244-.8614 1.75764-1.6661 2.71004-2.4093zm3.81 0c.76-.164 3.6-.7689 6.56-1.3532-.4462 1.0321-.6607 2.1538-.6278 3.2823.0328 1.1284.3123 2.235.8178 3.238-4.4857.7538-8.9235 1.7808-13.29004 3.0756 0-.0717 0-.1333 0-.205v-3.7113c1.22-.5228 3.45004-1.4763 4.19004-1.8556.9468-.6628 1.7474-1.522 2.35-2.522zm14.44-2.604c3.07-.2358 8.13-.4101 11.65-.5229l2.68-.1025c.2153-.0347.4346-.0347.65 0-.7171.9729-1.6586 1.7479-2.74 2.2555-1.5877.6922-3.0995 1.5548-4.51 2.5733-1 .7791-2.49 1.5685-6.5 2.0504-1.16.1435-3.78.5228-6.95 1.0765zm-6.84 7.1765c-.4829-.9712-.7152-2.0529-.6749-3.1422.0402-1.0893.3517-2.1499.9049-3.0808 2.06-.3896 4-.7382 5.24-.8715zm-4.72 32.0993c-1.2364-.1645-2.4367-.5424-3.55-1.1175-.3684-.2128-.7052-.4787-1-.7894h3.62zm-5.41-2.9321c-.3234-.4885-.614-.9988-.87-1.5276h4.17c.23.4921.48 1.0252.72 1.5276zm-1.33-2.5528c-.2-.4818-.4-1.0252-.59-1.5275h4l.73 1.5275zm-.92-2.5528c-.15-.4818-.29004-1.0252-.44004-1.5275h3.55004l.73 1.5275zm-.69004-2.5527c-.12-.4921-.24-1.0252-.35-1.5276h2.88004c.19.3588.38.7177.56 1.0252.06.1436.14.2973.21.4511zm-.58-2.5528c-.1-.4921-.19-1.0252-.29-1.5276h1.89004c.32.5024.64 1.0253.94 1.5276zm-.46-2.5528c-.12-.6766-.22-1.384-.32-2.1119.56.6459 1.12 1.3533 1.66 2.1119zm-1.5-3.3627c.96 7.5251 2.96 16.834 6.90004 18.8537 1.3931.7557 2.927 1.1995 4.5 1.302 1.76 3.7112 3.4 7.176 4.27 9.053l-5.49-.564-.37-.062c-1.33-1.476-4.46-4.7055-7.08004-5.5257-1.57-.4818-4.33-1.343-5.61-3.0756.07333-.1818.10744-.3776.1-.5741 0-.1743-.39-17.9207-.39-21.4167-.00482-.0888-.00482-.1777 0-.2665 1.18839.5554 2.26909 1.3265 3.19 2.2759zm-3.42 20.9143c1.54 1.7531 4.26 2.6041 5.86 3.0756 1.86004.5742 4.10004 2.6148 5.60004 4.1008-3.68-1.025-9.44004-3.4959-12.00004-5.4643-.19-.0615-.02-.7894.54-1.7121zm106.68974 8.8784c1.15-1.702 3.26-2.799 8-2.881 39-.718 103.17-1.343 130.49 1.425-36.97.369-113.67 1.189-138.49 1.456zm265.12-16.8135c-.86 1.6198-1.63 3.3627-2.19 4.6442-.18.4203-.34.7792-.47 1.0252-2.92 1.2815-32 7.2991-39.14 7.4841 1.91-11.2056-.57-21.673-7-29.4748-3.031-3.6283-6.801-6.5319-11.044-8.5067-4.243-1.9749-8.856-2.9731-13.516-2.9244-10.78 0-19.83 4.0393-26.15 11.6669-6.74 8.1196-9.62 19.4789-8 31.269l-11.94.113c-21.45-3.8347-94.76-3.148-137.72-2.369-5.73.103-8 1.62-9.21 3.917h-4.8v-8.202c-.151-8.8956-3.275-17.4686-8.8497-24.2872-3.0657-3.7824-6.9093-6.8229-11.2556-8.9037s-9.0876-3.1504-13.8844-3.1323c-22.13 0-33.7 21.0886-33.7 32.3967.1037 4.3213.4375 8.6335 1 12.9175-2.49-.246-8.68-.851-13.71-1.363-.78-1.651-2.67-5.6596-4.68-9.8937-.87-1.8556-1.77-3.7523-2.61-5.5156-1.22-2.5733-2.32-4.8595-3-6.3153-.21-.4409-.45-.8817-.69-1.3225-2.28-4.1829-5.67004-8.2837-8.70004-9.4832.70354-1.4067 1.73381-2.6143 3-3.5165.48422-.3744.86364-.8729 1.1-1.4455 6.59004-2.2965 19.59004-4.2854 22.60004-4.6647 3.43-.4409 5.46-1.1073 7-2.2863 1.3563-.9745 2.8073-1.8025 4.33-2.4707.82-.3896 3.61-2.1735 3.31-3.4652-.13-.5639-.7-.8202-1.68-.7894l-2.67.1025c-4.11.1333-10.31.3486-13.06.6561-3.41.3793-12.65 2.3682-13.36 2.522h-2.16c1.5526-1.1385 3.1797-2.1661 4.87-3.0756 7-3.783 29.53-12.6818 87.7697-13.8301.94.2358 2.25.5229 3.87.8202-3.72 5.3823-3.79 12.487-3.83 17.2543v2.4297c-1.06 23.0877 5.57 37.7995 5.64 37.9328l.1.3383h96.06c.42 0 41.35-.3896 48.07-.9637h.25c6.62-.5639 8.61-.7382 11.68-12.7229s12-19.8378 16.79-23.9899c4.31-3.7317 11.4-11.2773 10.53-19.4789-.351-3.9687-2.046-7.6862-4.79-10.5084.584-.4235 1.066-.9774 1.41-1.6199.222-.4377.324-.9281.298-1.4204-.026-.4922-.181-.9682-.448-1.3784-2.74-4.757-12.85-11.185-20.71-15.2551-3.539-1.78247-7.311-3.02912-11.2-3.70103-5-.83042-19.53-1.52756-27.33-1.89664l-3.18-.15378c-6.71-.34857-11.23-.48185-16.11-.48185-43.8 0-66.59 13.3277-90.72 27.5064l-11.73 7.1764c-1.19-.2152-2.22-.4203-3.08-.6151.55-.4203 1.46-1.097 2.54-1.7736l3.85-2.4605c16.58-10.6417 47.43-30.43847 87.14-31.50469 30.81-.82017 70.13 2.66554 70.47 2.6963.26.03104.522-.02278.75-.15378 3.399-1.81625 7.256-2.53128 11.06-2.05042v3.07563c-.001.33373.111.65755.317.91576s.494.43467.813.49903c2.828.60596 5.622 1.36569 8.37 2.27597.11 4.3264 5 5.7412 9.66 7.1047l1.77.5229c3.49 1.0252 22.37 6.1512 31.71 8.6117 2.06.7894 3.8 1.4456 5 1.8659 7.1 2.4297 13.75 2.3375 19.62 2.2452 1.82 0 3.54-.0513 5.15 0 1.684-.0615 3.362.2316 4.93.8612.119.0649.212.1694.265.2962s.062.2682.025.4009c-.48 1.9274-.93 4.5725-.37 6.2025.15.4306.34.9022.55 1.3841-1.75 0-5.3.0717-12.63.2358-5.46.1128-10.62.2358-11.88.2358-3 0-5 .8406-7.89 2.0504-1.5.6151-1.77 1.4045-1.73 1.9581.09 1.4046 2.24 2.4503 4.22 2.9629.71.1845 1.81.4306 3.11.7176l1.93.4306c4.76 1.0252 11.28 2.5015 14.26 3.5575l.42.1435c1.933.7754 3.946 1.3223 6 1.6301-1.524 4.6976-3.417 9.2609-5.66 13.6456-.305.521-.492 1.1061-.546 1.7115-.053.6054.027 1.2155.236 1.7844.56 1.3123 2 2.2863 4.29 2.9834 4.349 1.3688 8.417 3.544 12 6.4178-.446 1.8362-.641 3.7269-.58 5.6182.033.7554-.151 1.5041-.53 2.1529zm-82.05-46.8316c.82 7.7506-6 14.9476-10.19 18.5461-4.86 4.2238-13.93 12.0872-17.11 24.523-2.88 11.2773-4.4 11.4106-10.8 11.9539l-.28.0103c-6.29.5433-42.79.9124-47.5.9637-.101-4.0774-.543-8.1383-1.32-12.1385-1.2-5.9667-2.66-19.0587-1.5-28.7776l2.6-16.4034 7.92-.2358h.15c12.45-.3793 35-1.138 42-1.8556 16.57-1.7019 26.9-3.8856 31.34-6.6331 2.676 2.6727 4.339 6.2337 4.69 10.047zm-183.19-.6971c5.227.8741 10.514 1.313 15.81 1.3122l.39.1948c-1.77.8099-5.12 2.6246-4.88 4.6647.11 1.0252.92 1.7634 2.29 2.2042.764.2425 1.56.3635 2.36.3589.658.0462 1.318-.0414 1.943-.2578s1.202-.5574 1.697-1.0032l3.75-4.3059c1.58.1435 3.38.2255 5.42.2255.059.0144.121.0144.18 0 .081-.0336.15-.0906.2-.164v-.0513c.051-.0756.078-.1647.08-.2563 0-.5331 0-1.0252 0-1.5275l59.86-1.7019h.1.11l6.77-.1948-2.54 16.1471c-1.18 9.8625.3 23.0979 1.51 29.1262.77 3.949 1.205 7.9588 1.3 11.9847h-94.9c-.92-2.1632-6.38-16.1368-5.42-37.1639 0-.7176 0-1.548 0-2.4707.08-4.8083.15-11.9642 3.97-17.121zm29.21.287c-.54-7.0739-3.24-9.2269-3.37-9.2986-.057-.0388-.122-.0633-.19-.0718h-.07c-3.716-.0074-7.339 1.1912-10.35 3.4242v-1.7531c23.69-13.8096 44.82-24.43074 81.26-25.4252l-7.68 31.4227zm-7 2.7066-3.3 3.7933c-.79.9124-3.15 1.1995-5 .6151-1-.3076-1.54-.7997-1.6-1.343-.15-1.3021 3-3.1474 5.26-4.0291 1.505.4645 3.048.7871 4.61.9637zm-8.48-5.7002c2.71-3.7933 7.67-5.2388 11.34-5.3618l.14 3.2396c.106 2.6016.989 5.107 2.53 7.1765-8.77-.1743-13.84-1.9787-14.01-5.0543zm12.38-4.4391c.82 1.2507 2 3.8137 2.17 8.4989-1.252-1.8308-1.97-3.9893-2.07-6.223zm-11.91 2.3887c-.51.4806-.976 1.0092-1.39 1.5788-.058.0877-.089.1913-.09.2973.008.6082.147 1.2071.408 1.7532.262.5462.638 1.0259 1.102 1.4045-3.453-.0626-6.901-.309-10.33-.7382l10.3-6.346zm142.55-22.9237-.8 22.9237-.51.0718.86-23.18zm5.45 2.7886.85.4716c5.79 3.2396 9.68 5.8334 11.21 8.7348.595 1.1334.875 2.4124.81 3.6976-.065 1.2853-.473 2.5276-1.18 3.5916-5.539 1.6539-11.207 2.82-16.94 3.4857l.79-22.3291c1.66.769 3.07 1.5789 4.46 2.3478zm-7.77 20.3196c-2.25.2871-4.68.5742-7.33.8407-6.93.7177-28.91 1.4558-41.44 1.8351l2.23-30.9613c3.75.17429 29.42 1.33277 37.78 2.3375 3.29.3566 6.527 1.1173 9.64 2.2657zm23.95-5.8539h-.07c-.932.5909-1.92 1.0822-2.95 1.466.508-1.1446.752-2.3935.714-3.6504-.038-1.2568-.358-2.4878-.934-3.5978-1.65-3.1371-5.51-5.7309-11.62-9.1449l-.83-.4818c-1.52-.8509-3.18-1.7839-5.19-2.6656h-.06c-.45-.1947-.91-.3895-1.4-.5741-3.297-1.2532-6.733-2.07972-10.23-2.46048-8.54-1.02521-35-2.21445-38-2.34773-.105-.00552-.21.01026-.309.04646-.099.03619-.19.09207-.268.16445s-.142.15982-.187.25733-.071.20317-.076.31092l-2.25 31.23815-7.36.2153 5.26-33.10404c4.7 0 9.13.13328 15.63.4716l3.19.15378c7.78.36907 22.26 1.02521 27.21 1.87613 3.788.66289 7.462 1.88173 10.91 3.61903 8.25 4.3161 17.77 10.5494 20.25 14.845.179.2627.285.5705.306.8902s-.043.6393-.186.9244c-.378.6439-.912 1.1771-1.55 1.5481zm-82.1 8.8065-6.39.1846 7.7-31.78152s0 0 0-.06152c0-.06151 0-.05126 0-.07176.005-.04088.005-.08215 0-.12303 0 0 0 0 0-.06151-.023-.04568-.054-.08722-.09-.12302l-.1-.06152h-.08s0 0-.06 0h-.07c-37.22.89194-58.59 11.68738-82.65 25.72248l-12.22 7.3405-1.1-.1537 10.7-6.5614c23.89-14.0351 46.47-27.26031 89.62-27.38334zm171.28 33.7705c-.28 2.5425-.66 4.5929-1 6.4075-3.579-2.7962-7.616-4.9173-11.92-6.264-1.127-.2722-2.175-.8131-3.06-1.5788 1.013-.7572 1.83-1.7567 2.38-2.9116 2.57-5.0031 5.44-14.353 5.57-14.7528.858-.1615 1.699-.4087 2.51-.7382.008 2.9894.982 5.8919 2.77 8.253l.38.5536c2.36 3.4242 3.08 4.4597 2.37 11.0313z" fill="#6c717a"/><path d="m266.34 48.631c2.88 0 11.72-.082 15.55-.2563 2.49-.123 3.61-1.3943 3.61-2.6041-.046-.6141-.328-1.1845-.783-1.5861-.456-.4016-1.048-.6018-1.647-.5565-2.65-.1333-10.83.41-16.76.8304-2.1.1538-2.81 1.1482-2.78 2.0504.04 1.1585 1.3 2.1222 2.81 2.1222zm0-3.1474c5.9-.4204 14.05-.9637 16.65-.8304 1 0 1.47.6151 1.47 1.1174 0 .6972-.83 1.4866-2.66 1.5789-3.81.1743-12.63.2563-15.5.2563-1.14 0-1.8-.6869-1.81-1.1483-.01-.4613.75-.8919 1.89-.9739z" fill="#6c717a"/><path d="m179.93 50.63c2.87 0 11.72-.082 15.54-.2666 2.5-.1127 3.62-1.384 3.62-2.5937-.048-.6131-.331-1.1819-.786-1.583-.454-.4011-1.045-.6022-1.644-.5597-2.67-.1333-10.85.4101-16.77.8304-2.09.1435-2.81 1.1482-2.78 2.0504.04 1.1585 1.3 2.1222 2.82 2.1222zm0-3.1474c5.9-.4203 14-.9534 16.65-.8407 1 0 1.48.6254 1.48 1.1278 0 .6971-.84 1.4865-2.67 1.5788-3.8.1743-12.62.2563-15.49.2563-1.15 0-1.8-.6869-1.82-1.1585s.74-.8817 1.92-.9637z" fill="#6c717a"/><path d="m326.44 39.7126c-.13-2.6041-1.89-4.6442-4-4.6442h-11.85c-.434-.0314-.87.0318-1.278.1856-.409.1537-.781.3944-1.092.7063-.243.2769-.43.6011-.548.9533-.119.3523-.167.7254-.142 1.0971.06 1.0868.2 2.8296.3 4.2444l.09 1.1482c.1 1.3841.35 4.6237 3.5 4.6237h12.18c.418.0413.839-.0139 1.234-.1616.394-.1477.751-.3842 1.045-.692.293-.3078.516-.6792.651-1.0868s.18-.841.13-1.2685v-.8099c-.08-1.1482-.13-2.5015-.22-4.2956zm-1.27 6.7664c-.211.1978-.459.3491-.729.4443-.27.0953-.556.1325-.841.1093h-12.18c-2.06 0-2.36-1.8147-2.5-3.6805l-.09-1.1483c-.11-1.4148-.24-3.1371-.3-4.2238-.022-.2358.003-.4736.074-.6992.07-.2255.185-.4341.336-.6131.221-.2074.482-.3655.766-.4643s.585-.1362.884-.1098h11.84c1.59 0 2.91 1.6096 3 3.6702.09 1.7942.14 3.1474.19 4.3162v.8099c.033.2823.01.5685-.067.8416-.077.273-.208.5273-.383.7475z" fill="#6c717a"/><path d="m301.35 67.3929v4.1008c4.053.0134 8.031 1.1144 11.54 3.1936 3.509 2.0793 6.426 5.0642 8.46 8.6579 2.028 3.6015 3.097 7.6868 3.098 11.8456 0 4.1588-1.066 8.2442-3.092 11.8472-2.027 3.603-4.942 6.595-8.454 8.677-3.511 2.082-7.495 3.18-11.552 3.184-4.053-.011-8.033-1.111-11.542-3.19-3.509-2.08-6.425-5.066-8.458-8.661-2.028-3.602-3.096-7.6869-3.097-11.8457-.001-4.1587 1.065-8.2446 3.091-11.8472 2.027-3.6026 4.942-6.5951 8.454-8.6771 3.511-2.0821 7.496-3.1802 11.552-3.1843v-4.1008c-5.969.0053-11.77 2.0293-16.502 5.7583-4.733 3.729-8.134 8.9546-9.675 14.8666s-1.137 12.1802 1.15 17.8322c2.288 5.653 6.33 10.374 11.501 13.431 5.17 3.058 11.18 4.281 17.098 3.48 5.918-.8 11.412-3.58 15.632-7.908 4.22-4.329 6.929-9.963 7.708-16.0303.778-6.0672-.418-12.2283-3.402-17.528-2.368-4.2429-5.792-7.7654-9.923-10.2078-4.13-2.4424-8.819-3.7171-13.587-3.694z" fill="#6c717a"/><path d="m280.81 88.3484c-1.321 4.169-1.406 8.646-.246 12.8646 1.161 4.219 3.516 7.99 6.767 10.837s7.252 4.642 11.498 5.158c4.246.515 8.546-.271 12.356-2.261s6.959-5.093 9.049-8.917 3.027-8.1975 2.692-12.5675c-.334-4.37-1.925-8.5403-4.571-11.9834-2.646-3.4432-6.229-6.0047-10.295-7.3606-2.159-.7282-4.417-1.0986-6.69-1.097v1.0252c5.472 0 10.719 2.2283 14.588 6.1947s6.042 9.346 6.042 14.9554c0 5.6092-2.173 10.9892-6.042 14.9552-3.869 3.967-9.116 6.195-14.588 6.195-5.471 0-10.719-2.228-14.587-6.195-3.869-3.966-6.043-9.346-6.043-14.9552 0-5.6094 2.174-10.989 6.043-14.9554 3.868-3.9664 9.116-6.1947 14.587-6.1947v-1.0252c-4.566.0027-9.015 1.487-12.708 4.2402s-6.442 6.634-7.852 11.0867z" fill="#6c717a"/><path d="m70.1398 67.3927v4.1008c4.0528.0134 8.0315 1.1144 11.5403 3.1937 3.5089 2.0792 6.4255 5.0641 8.4597 8.6578 2.0283 3.6016 3.0965 7.6869 3.0975 11.8456.001 4.1588-1.0653 8.2444-3.0919 11.8474-2.0265 3.602-4.9419 6.595-8.4535 8.677-3.5115 2.082-7.4956 3.18-11.5521 3.184-6.1318 0-12.0124-2.497-16.3483-6.942-4.3358-4.445-6.7717-10.474-6.7717-16.7606 0-6.2864 2.4359-12.3153 6.7717-16.7605 4.3359-4.4451 10.2165-6.9424 16.3483-6.9424v-4.1008c-5.9694.003-11.7712 2.0252-16.5055 5.7529-4.7343 3.7276-8.1367 8.9526-9.6796 14.8646s-1.14 12.1808 1.1461 17.8338c2.2861 5.654 6.3278 10.376 11.4982 13.435 5.1705 3.058 11.1808 4.282 17.099 3.483 5.9183-.8 11.4138-3.58 15.6343-7.908s6.9303-9.963 7.7091-16.0302c.7788-6.0676-.4169-12.2292-3.4016-17.5293-2.372-4.2371-5.7956-7.7552-9.9231-10.1968-4.1274-2.4417-8.8116-3.72-13.5769-3.705z" fill="#6c717a"/><path d="m49.5997 88.3484c-1.3217 4.1693-1.4078 8.6468-.2473 12.8666 1.1605 4.219 3.5155 7.991 6.767 10.838 3.2516 2.848 7.2537 4.642 11.5003 5.158 4.2465.515 8.5468-.272 12.3569-2.263 3.8101-1.99 6.9589-5.094 9.0482-8.919s3.0252-8.1995 2.6895-12.57c-.3358-4.3705-1.9282-8.5407-4.5759-11.9833-2.6476-3.4426-6.2316-6.003-10.2987-7.3572-2.1556-.7275-4.4106-1.0978-6.68-1.097v1.0252c2.163-.0073 4.3133.3387 6.37 1.0252 4.9266 1.6348 9.0711 5.1135 11.6067 9.7423 2.5356 4.6287 3.2759 10.0674 2.0734 15.2308-1.2025 5.164-4.2596 9.673-8.5614 12.628-4.3017 2.955-9.5321 4.139-14.6477 3.316-5.1155-.823-9.7404-3.593-12.952-7.758-3.2116-4.164-4.7738-9.4168-4.3752-14.7098.3987-5.2931 2.7289-10.2375 6.526-13.8471 3.7972-3.6095 8.782-5.619 13.9602-5.6274v-1.0252c-4.5667.0012-9.0158 1.4848-12.7094 4.2382-3.6935 2.7534-6.4417 6.6352-7.8506 11.0887z" fill="#6c717a"/><g fill="#1960d0"><ellipse cx="367" cy="74" opacity=".3" rx="3.99998" ry="4"/><ellipse cx="367" cy="74" rx="2" ry="2"/><ellipse cx="315" cy="42" opacity=".3" rx="3.99998" ry="4"/><ellipse cx="315" cy="42" rx="2" ry="2"/><circle cx="313" cy="104" opacity=".3" r="4"/><ellipse cx="313" cy="104" rx="1.99998" ry="2"/><ellipse cx="362" cy="46" opacity=".3" rx="3.99998" ry="4"/><ellipse cx="362" cy="46" rx="1.99997" ry="2"/><ellipse cx="276" cy="10" opacity=".3" rx="4" ry="4"/><ellipse cx="276" cy="10" rx="2" ry="2"/><ellipse cx="217" cy="66" opacity=".3" rx="4.00001" ry="4"/><ellipse cx="217" cy="66" rx="1.99999" ry="2"/><ellipse cx="193" cy="50" opacity=".3" rx="3.99999" ry="4"/><ellipse cx="193" cy="50" rx="2.00001" ry="2"/><ellipse cx="148" cy="28" opacity=".3" rx="4" ry="4"/><ellipse cx="148" cy="28" rx="1.99999" ry="2"/><ellipse cx="96" cy="53" opacity=".3" rx="4" ry="4"/><ellipse cx="96" cy="53" rx="2" ry="2"/><ellipse cx="59" cy="85" opacity=".3" rx="4" ry="4"/><ellipse cx="59" cy="85" rx="2" ry="2"/><ellipse cx="34" cy="61" opacity=".3" rx="4" ry="4"/><ellipse cx="34" cy="61" rx="2" ry="2"/><ellipse cx="14" cy="94" opacity=".3" rx="4" ry="4"/><ellipse cx="14" cy="94" rx="2" ry="2"/></g></svg>
          <!-- Car Diagram end -->

    <!-- No Images start-->
    <svg id="no-images"><path id="Fill 298" fill-rule="evenodd" clip-rule="evenodd" d="M119.31 62.1226L117.953 70.0869H7.22107L8.52196 62.4415H33.1293L34.323 55.4316H9.71568L10.6667 49.8469L23.3812 38.0688H112.552L121.398 49.8584L120.394 55.7506H95.7865L94.7024 62.1226H119.31ZM107.679 83.6277H95.376L96.5956 76.4596H108.9L107.679 83.6277ZM25.2275 83.6277H12.9232L14.144 76.4596H26.4471L25.2275 83.6277ZM40.4076 6.37195H106.457L110.381 31.6991H27.4948L40.4076 6.37195ZM117.029 32.6867L111.964 0H37.1383L20.2144 33.1919L4.96212 47.319L3.57992 55.4326L2.38743 62.4425L0 76.4599H7.99754L5.69264 90H30.3L32.6049 76.4599H90.4318L88.1269 90H112.734L115.04 76.4599H123.037L125.478 62.1236L126.562 55.7516L128 47.3088L117.029 32.6867Z"/></svg>
    <!-- No Images end-->
</svg>