<?xml version="1.0" encoding="UTF-8"?>
<svg width="131px" height="48px" viewBox="0 0 131 48" version="1.1" xmlns="http://www.w3.org/2000/svg" xmlns:xlink="http://www.w3.org/1999/xlink">
    <title>capital one logo</title>
    <defs>
        <path d="M35.2117211,47.4272727 C35.1499386,47.4238373 35.0906331,47.3929712 35.0530303,47.3378788 C34.9848485,47.2424242 35.0090909,47.1121212 35.1030303,47.0454545 L35.3818182,46.8833333 C42.4348485,42.5621212 48.9924242,38.4454545 54.5272727,34.5257576 C54.5348485,34.5227273 54.5409091,34.5181818 54.5454545,34.5136364 C54.7681818,35.2651515 55.080303,35.9484848 55.4606061,36.5727273 C55.4227273,36.5909091 55.3863636,36.6136364 55.3484848,36.6333333 C48.4348485,40.4348485 41.5636364,44.1424242 35.580303,47.2651515 L35.3439394,47.3893939 C35.3104437,47.4127877 35.272657,47.4251739 35.2349001,47.4272727 L35.2117184,47.4272727 L35.2117211,47.4272727 Z M2.12878788,9.35 L1.57272727,9.46969697 C1.45909091,9.49090909 1.38030303,9.60151515 1.4,9.71212121 C1.42121212,9.83030303 1.53030303,9.90606061 1.64545455,9.88636364 L2.19848485,9.77727273 C21.980303,6.25757576 63.1181818,1.37272727 71.9712121,10.15 C74.6712121,12.8287879 74.0272727,16.2772727 70.8969697,20.3484848 C72.5848485,21.4333333 73.7863636,23.1393939 74.3287879,25.2742424 C86.5545455,17.1409091 94.7681818,9.38787879 90.8818182,5.10151515 C88.0318182,1.95757576 80.1212121,0.765151515 69.9333333,0.763636364 C48.9212121,0.763636364 18.2075758,5.83787879 2.12878788,9.35 L2.12878788,9.35 Z" id="path-1"></path>
        <path d="M2.12878788,9.35 L1.57272727,9.46969697 C1.45909091,9.49090909 1.38030303,9.60151515 1.4,9.71212121 C1.42121212,9.83030303 1.53030303,9.90606061 1.64545455,9.88636364 L2.19848485,9.77727273 C21.980303,6.25757576 63.1181818,1.37272727 71.9712121,10.15 C74.6712121,12.8287879 74.0272727,16.2772727 70.8969697,20.3484848 C72.5848485,21.4333333 73.7863636,23.1393939 74.3287879,25.2742424 C86.5545455,17.1409091 94.7681818,9.38787879 90.8818182,5.10151515 C88.0318182,1.95757576 80.1212121,0.765151515 69.9333333,0.765151515 C48.9212121,0.763636364 18.2090909,5.83636364 2.12878788,9.35 L2.12878788,9.35 Z M54.5272727,34.5257576 C48.9924242,38.4454545 42.4348485,42.5621212 35.3818182,46.8833333 L35.1030303,47.0454545 C35.0090909,47.1121212 34.9848485,47.2424242 35.0530303,47.3378788 C35.1181818,47.4333333 35.2484848,47.4560606 35.3439394,47.3893939 L35.580303,47.2651515 C41.5636364,44.1424242 48.4348485,40.4348485 55.3484848,36.6333333 C55.3863636,36.6136364 55.4227273,36.5909091 55.4606061,36.5727273 C55.080303,35.9484848 54.7681818,35.2651515 54.5454545,34.5136364 C54.5409091,34.5181818 54.5348485,34.5227273 54.5272727,34.5257576 L54.5272727,34.5257576 Z" id="path-3"></path>
    </defs>
    <g id="Page-1" stroke="none" stroke-width="1" fill="none" fill-rule="evenodd">
        <g id="1440-Finance" transform="translate(-486.000000, -1178.000000)">
            <g id="capital-one-logo" transform="translate(485.000000, 1177.000000)">
                <g id="Group-5" transform="translate(34.848485, 1.158182)" fill="#CD2F2F">
                    <path d="M55.4601515,36.5719697 C55.4222727,36.5916667 55.3874242,36.6128788 55.3495455,36.6325758 C49.3631818,39.925 43.4101515,43.1431818 38.0374242,45.975 C44.9601515,42.8492424 50.5965152,40.0977273 55.9328788,37.2598485 C55.7631818,37.0401515 55.6086364,36.8113636 55.4601515,36.5719697" id="Fill-1"></path>
                    <path d="M90.8810606,5.10075758 C82.155303,-4.52348485 26.005303,4.13409091 2.1280303,9.34924242 L1.57348485,9.46893939 C1.45833333,9.49015152 1.38106061,9.60075758 1.40075758,9.71287879 C1.4219697,9.82954545 1.53106061,9.90530303 1.64621212,9.88560606 L2.19772727,9.7780303 C21.9810606,6.25681818 63.1189394,1.3719697 71.9719697,10.1507576 C74.6719697,12.8280303 74.0280303,16.2780303 70.8977273,20.3492424 C72.5840909,21.4325758 73.7871212,23.1386364 74.3295455,25.275 C86.555303,17.1416667 94.7674242,9.38863636 90.8810606,5.10075758 M54.544697,34.5143939 C54.5401515,34.5189394 54.5340909,34.5234848 54.5280303,34.525 C48.9931818,38.4462121 42.4340909,42.5628788 35.3810606,46.8825758 L35.1022727,47.044697 C35.0083333,47.1113636 34.9840909,47.2431818 35.0522727,47.3386364 C35.1174242,47.4340909 35.2492424,47.4568182 35.344697,47.3901515 L35.5795455,47.2659091 C41.5628788,44.1431818 48.4340909,40.4356061 55.3492424,36.6325758 C55.3871212,36.6128788 55.4234848,36.5901515 55.4598485,36.5719697 C55.0795455,35.9492424 54.7674242,35.2643939 54.544697,34.5143939" id="Fill-3"></path>
                </g>
                <g id="Group-8" transform="translate(34.848485, 1.158182)">
                    <mask id="mask-2" fill="white">
                        <use xlink:href="#path-1"></use>
                    </mask>
                    <g id="Clip-7"></g>
                    <polygon id="Fill-6" fill="#CD2F2F" mask="url(#mask-2)" points="-33.6878788 47.4272727 100.45 47.4272727 100.45 0.763636364 -33.6878788 0.763636364"></polygon>
                </g>
                <g id="Group-11" transform="translate(34.848485, 1.158182)">
                    <mask id="mask-4" fill="white">
                        <use xlink:href="#path-3"></use>
                    </mask>
                    <g id="Clip-10"></g>
                    <polygon id="Fill-9" fill="#CD2F2F" mask="url(#mask-4)" points="-53.030303 11.0487879 70.8863636 -13.28 119.793939 37.1427273 -4.12272727 103.030606"></polygon>
                </g>
                <g id="Group-32" transform="translate(0.000000, 20.855152)" fill="#004879">
                    <path d="M90.0642424,12.1086364 C89.8642424,6.32984848 94.3915152,0.419242424 100.968788,0.419242424 C105.367273,0.419242424 108.247576,3.35106061 108.408182,7.84045455 C108.618788,13.9343939 104.388485,19.5298485 97.5036364,19.5298485 C93.1036364,19.5298485 90.2248485,16.6056061 90.0642424,12.1086364 M92.9248485,12.2919697 C93.0369697,15.675303 95.1809091,18.4495455 97.9763636,18.4495455 C103.39,18.4495455 105.696061,11.8010606 105.53697,7.35712121 C105.421818,3.96166667 103.220303,1.195 100.432424,1.195 C95.7733333,1.195 92.7672727,7.81621212 92.9248485,12.2919697" id="Fill-12"></path>
                    <path d="M33.4795455,7.02681818 C33.455303,7.55712121 33.3628788,8.02227273 33.2204545,8.83287879 L32.2537879,14.2631818 C32.1704545,14.745 32.3492424,15.125303 32.7962121,15.3843939 L32.7674242,15.595 L27.2295455,15.5874242 L27.1780303,14.2071212 C26.3719697,14.6934848 25.3992424,15.1025758 24.5174242,15.345 C23.6416667,15.5692424 22.9310606,15.6692424 21.8643939,15.6692424 C20.075,15.6692424 19.0507576,15.4828788 18.3431818,14.8631818 C17.625,14.2237879 17.275,13.7995455 17.3098485,12.9207576 C17.3386364,12.4131818 17.6007576,11.764697 17.9795455,11.3101515 C18.3628788,10.8480303 18.8856061,10.545 19.455303,10.2798485 C20.0265152,10.0071212 20.6992424,9.80863636 21.6765152,9.65560606 C22.655303,9.49651515 24.0204545,9.33742424 25.8477273,9.18439394 C26.8083333,9.10409091 27.3931818,8.88287879 27.6674242,8.77378788 C28.0492424,8.62530303 28.1992424,8.46015152 28.255303,8.14954545 C28.3583333,7.5919697 28.1795455,7.27378788 27.4386364,7.12681818 C25.4431818,6.73287879 21.7037879,7.37984848 19.775,7.86166667 L20.8234848,5.03742424 C23.3659091,4.66621212 25.7477273,4.42833333 28.2568182,4.42833333 C32.2416667,4.42833333 33.5189394,5.56469697 33.4795455,7.02681818 M27.7613636,10.5828788 C27.525,10.6707576 27.2219697,10.7571212 26.8462121,10.8374242 C26.4704545,10.9222727 25.7856061,11.045 24.7886364,11.2010606 C24.1022727,11.3101515 23.6280303,11.4525758 23.355303,11.6465152 C23.0962121,11.8404545 22.9431818,12.0677273 22.9007576,12.3465152 C22.8462121,12.645 22.9431818,12.8843939 23.2007576,13.0707576 C23.4643939,13.2525758 23.9037879,13.3495455 24.5280303,13.3495455 C24.9931818,13.3495455 25.4507576,13.2737879 25.8931818,13.1313636 C26.3416667,12.9843939 26.7174242,12.7859091 27.0083333,12.5389394 C27.2219697,12.3540909 27.375,12.1192424 27.4901515,11.8404545 C27.5537879,11.6540909 27.6492424,11.2374242 27.7613636,10.5828788" id="Fill-14"></path>
                    <path d="M51.7492424,2.23469697 C51.9068182,1.34227273 53.3143939,0.619545455 54.8871212,0.619545455 C56.4628788,0.619545455 57.6128788,1.34227273 57.4598485,2.23469697 C57.294697,3.12560606 55.8901515,3.84984848 54.3113636,3.84984848 C52.7325758,3.84984848 51.5886364,3.12560606 51.7492424,2.23469697 M49.5325758,15.595303 L51.455303,4.74833333 L56.7568182,4.74833333 L54.8371212,15.595303 L49.5325758,15.595303" id="Fill-16"></path>
                    <path d="M81.3068182,7.04727273 C81.2840909,7.58060606 81.1916667,8.04878788 81.0462121,8.85333333 L80.0856061,14.289697 C80.0007576,14.7684848 80.1795455,15.1457576 80.625,15.4124242 L80.5916667,15.600303 L75.055303,15.6109091 L75.0128788,14.2275758 C74.2037879,14.7169697 73.225,15.1260606 72.3507576,15.3639394 C71.4689394,15.5957576 70.7583333,15.689697 69.6871212,15.689697 C67.8992424,15.689697 66.8810606,15.5109091 66.1734848,14.8866667 C65.4507576,14.2442424 65.1022727,13.8230303 65.1401515,12.9457576 C65.1613636,12.4351515 65.4265152,11.7806061 65.8083333,11.3336364 C66.1901515,10.8669697 66.7143939,10.57 67.2856061,10.3033333 C67.8568182,10.0336364 68.5325758,9.83363636 69.4992424,9.6730303 C70.4840909,9.52 71.8522727,9.35484848 73.6780303,9.20181818 C74.6295455,9.12151515 75.2143939,8.90636364 75.4886364,8.80030303 C75.875,8.65181818 76.0265152,8.48515152 76.0840909,8.1730303 C76.1825758,7.62454545 76.0083333,7.29878788 75.2704545,7.14878788 C73.2659091,6.75333333 69.5356061,7.40333333 67.6083333,7.88363636 L68.6507576,5.05787879 C71.2022727,4.68515152 73.5734848,4.44727273 76.0856061,4.44727273 C80.0689394,4.44727273 81.3386364,5.58969697 81.3068182,7.04727273 M75.5916667,10.6078788 C75.3537879,10.6881818 75.0462121,10.7775758 74.6719697,10.8639394 C74.2992424,10.9518182 73.6128788,11.0624242 72.6113636,11.2260606 C71.9295455,11.3336364 71.444697,11.4775758 71.1825758,11.6730303 C70.9295455,11.8593939 70.7780303,12.089697 70.7234848,12.37 C70.6674242,12.67 70.7780303,12.9109091 71.0265152,13.0912121 C71.2931818,13.2760606 71.7386364,13.3654545 72.3613636,13.3654545 C72.8219697,13.3654545 73.2765152,13.2972727 73.7204545,13.1563636 C74.1734848,13.0048485 74.5492424,12.8124242 74.8416667,12.5639394 C75.0462121,12.3806061 75.2022727,12.139697 75.3143939,11.8593939 C75.3825758,11.6760606 75.475,11.2593939 75.5916667,10.6078788" id="Fill-18"></path>
                    <path d="M16.5856061,11.6969697 C14.8598485,12.0393939 13.8886364,12.169697 12.1810606,12.169697 C9.64772727,12.169697 7.63560606,10.9121212 7.74469697,8.60606061 C7.82348485,7.07121212 9.64318182,3.83030303 14.2643939,3.83030303 C15.7174242,3.83030303 16.8568182,4.08787879 18.3856061,4.95909091 L19.0583333,1.19090909 C16.9780303,0.404545455 15.6007576,0.287878788 13.8143939,0.304545455 C7.75833333,0.371212121 1.93560606,3.12575758 1.21590909,8.72727273 C0.481060606,14.4181818 7.43257576,15.85 10.5204545,15.8378788 C12.3007576,15.830303 14.1537879,15.7590909 15.8825758,15.580303 L16.5856061,11.6969697" id="Fill-20"></path>
                    <path d="M59.6804545,4.68454545 L60.0622727,2.47545455 L65.6077273,1.26939394 L65.0183333,4.68454545 L67.7334848,4.68454545 L67.2183333,6.87090909 L64.5834848,6.86333333 L62.9834848,15.5875758 C62.9834848,15.5875758 57.6425758,15.5527273 57.6228788,15.5875758 L59.2168182,6.88454545 L57.2001515,6.88454545 L57.6107576,4.68454545 L59.6804545,4.68454545" id="Fill-22"></path>
                    <polygon id="Fill-24" points="86.6913636 15.5874242 81.2898485 15.595 84.0080303 0.460151515 89.2671212 0.607121212"></polygon>
                    <path d="M32.8628788,19.3407576 L35.4431818,4.80136364 L40.1022727,4.80136364 L39.7401515,6.65590909 C40.144697,6.10136364 40.7901515,5.64681818 41.6810606,5.27712121 C42.5795455,4.90893939 43.5901515,4.63621212 44.6886364,4.63621212 C45.9037879,4.63621212 46.6537879,4.70136364 47.5628788,5.17409091 C48.4674242,5.64681818 49.0992424,6.33621212 49.4431818,7.23166667 C49.7916667,8.115 49.8643939,9.10742424 49.6765152,10.184697 C49.3598485,11.9771212 48.4856061,13.3907576 47.055303,14.4301515 C45.6325758,15.4665152 44.3537879,15.7392424 42.5265152,15.7468182 C41.8795455,15.7468182 41.3386364,15.6771212 40.8886364,15.5695455 C40.4507576,15.4559091 40.1022727,15.315 39.8325758,15.145303 C39.5780303,14.9740909 39.3083333,14.7362121 38.9613636,14.3574242 L38.0931818,19.3407576 L32.8628788,19.3407576 Z M42.5189394,7.28924242 C41.8234848,7.28924242 41.194697,7.49984848 40.6340909,7.92257576 C40.0810606,8.34378788 39.7295455,8.95742424 39.5856061,9.77863636 C39.4204545,10.7256061 39.5189394,11.4059091 39.8916667,11.8256061 C40.2734848,12.2422727 40.8174242,12.4513636 41.5310606,12.4513636 C42.0143939,12.4513636 42.5143939,12.365 42.8810606,12.184697 C43.3356061,11.9437879 43.6492424,11.6907576 43.9204545,11.2907576 C44.2128788,10.8710606 44.4037879,10.4028788 44.5037879,9.85893939 C44.655303,9.00287879 44.5265152,8.36045455 44.1280303,7.93772727 C43.7416667,7.50439394 43.2113636,7.28924242 42.5189394,7.28924242 L42.5189394,7.28924242 Z" id="Fill-26"></path>
                    <path d="M129.604848,15.2995455 L130.024545,15.5843939 C128.963939,17.7434848 126.800303,19.4828788 124.263939,19.4828788 C122.188182,19.4828788 120.486667,18.1025758 120.397273,15.5071212 C120.227576,10.8571212 124.583636,6.53742424 128.151818,6.53742424 C129.683636,6.53742424 131.100303,7.20712121 131.165455,8.85409091 C131.295758,12.5525758 126.104848,13.6813636 122.683636,13.7586364 C122.571515,14.145 122.530606,14.5328788 122.550303,15.125303 C122.606364,16.6586364 123.535152,17.945 125.453333,17.945 C127.110909,17.945 128.76697,16.6131818 129.604848,15.2995455 M129.138182,8.62227273 C129.107879,7.74651515 128.67,7.16015152 127.76697,7.16015152 C125.591212,7.16015152 123.277576,11.4207576 122.877576,13.1374242 C126.447273,13.1374242 129.226061,11.0116667 129.138182,8.62227273" id="Fill-28"></path>
                    <path d="M108.329545,8.49909091 C108.696212,8.45212121 109.291667,8.38545455 109.547727,8.38545455 C109.937121,8.38545455 110.302273,8.45969697 110.32197,8.84606061 C110.32803,9.07484848 109.914394,10.7218182 109.82803,11.1036364 L108.999242,14.7506061 C108.665909,16.2430303 108.303788,17.8066667 107.982576,19.0415152 L110.108333,19.0415152 L111.303788,13.2642424 C114.946212,9.46575758 116.350758,8.22939394 117.211364,8.22939394 C117.596212,8.22939394 117.862879,8.43242424 117.882576,8.89606061 C117.903788,9.56424242 117.490152,11.0824242 117.346212,11.5157576 L116.12803,15.7293939 C115.850758,16.6763636 115.644697,17.5309091 115.665909,18.1430303 C115.700758,19.0657576 116.261364,19.4793939 117.091667,19.4793939 C118.644697,19.4793939 119.770455,17.859697 120.756818,16.270303 L120.468939,15.7460606 C120.068939,16.3869697 119.147727,17.7824242 118.42197,17.7824242 C118.193182,17.7824242 117.976515,17.6278788 117.968939,17.2445455 C117.946212,16.7521212 118.153788,16.0157576 118.296212,15.5263636 L119.650758,10.59 C120.014394,9.23090909 120.188636,8.35515152 120.179545,7.88848485 C120.146212,6.96727273 119.606818,6.53545455 118.782576,6.53545455 C117.385606,6.53545455 115.526515,7.55818182 111.597727,12.0809091 L111.541667,12.0809091 L112.035606,9.87333333 C112.305303,8.66575758 112.568939,7.40666667 112.823485,6.53545455 C111.462879,7.02636364 109.512879,7.57484848 108.309848,7.80666667 L108.329545,8.49909091" id="Fill-30"></path>
                </g>
            </g>
        </g>
    </g>
</svg>