<?xml version="1.0" encoding="utf-8"?>
<!-- Generator: Adobe Illustrator 24.1.0, SVG Export Plug-In . SVG Version: 6.00 Build 0)  -->
<svg version="1.1" id="Santander" xmlns="http://www.w3.org/2000/svg" xmlns:xlink="http://www.w3.org/1999/xlink" x="0px" y="0px"
	 viewBox="10 0 89 50" style="enable-background:new 0 0 109 50;" xml:space="preserve">
<style type="text/css">
	.st0{fill:#EC0000;}
</style>
<g>
	<g>
		<path class="st0" d="M44.34,23.87l0.08,0.83h1.4v-6.93c-0.8-0.28-1.62-0.39-2.62-0.39c-2.56,0-3.87,1.39-3.87,3.82
			c0,2.33,1.22,3.66,3.05,3.66C43.36,24.87,43.95,24.48,44.34,23.87z M40.89,21.21c0-1.55,0.73-2.52,2.31-2.52
			c0.43,0,0.78,0.03,1.09,0.08v4.35c-0.4,0.3-0.89,0.5-1.48,0.5C41.46,23.62,40.89,22.62,40.89,21.21z M52.1,24.7h1.52v-4.66
			c0-1.68-0.82-2.66-3.37-2.66c-0.73,0-1.8,0.15-2.77,0.39v6.93h1.52v-5.9c0.42-0.07,0.85-0.11,1.21-0.11
			c1.52,0,1.88,0.53,1.88,1.62V24.7z M93.23,17.39c-0.86,0-1.95,0.17-2.61,0.39v6.93h1.52v-5.93c0.37-0.06,0.75-0.08,1.12-0.08
			c0.43,0,0.79,0.01,1.15,0.06c0.08-0.29,0.14-0.85,0.14-1.3C94.23,17.4,93.7,17.39,93.23,17.39z M86.59,24.87
			c0.82,0,1.55-0.12,2.24-0.44c0.1-0.46,0.18-0.98,0.24-1.39c-0.76,0.35-1.61,0.53-2.44,0.53c-1.36,0-2.08-0.6-2.27-1.83h4.86
			c0.06-0.4,0.08-0.75,0.08-1.18c0-1.75-0.94-3.17-3.12-3.17c-2.42,0-3.38,1.64-3.38,3.7C82.81,23.46,84.04,24.87,86.59,24.87z
			 M86.11,18.66c1.05,0,1.66,0.67,1.66,1.8h-3.44C84.46,19.28,85.03,18.66,86.11,18.66z M34.78,23.54c-0.76,0-1.76-0.18-2.54-0.54
			c-0.15,0.44-0.24,0.83-0.26,1.4c0.78,0.36,1.7,0.53,2.84,0.53c2.36,0,3.56-1.09,3.56-2.69c0-1.34-0.73-2.13-2.49-2.88l-0.75-0.32
			c-0.97-0.42-1.51-0.83-1.51-1.55c0-0.73,0.55-1.21,1.76-1.21c0.64,0,1.52,0.12,2.27,0.4c0.14-0.4,0.24-0.83,0.28-1.39
			c-0.79-0.28-1.64-0.4-2.54-0.4c-2.24,0-3.34,1.01-3.34,2.59c0,1.47,0.89,2.2,2.19,2.77l0.71,0.3c1.3,0.57,1.83,0.94,1.83,1.75
			C36.79,23.12,36.07,23.54,34.78,23.54z M58.86,24.65c0.08-0.4,0.14-0.87,0.18-1.29c-0.33,0.12-0.75,0.21-1.19,0.21
			c-0.73,0-1.18-0.35-1.18-1.25v-3.4h2.27c0.07-0.4,0.11-0.83,0.14-1.3h-2.41V15c-0.47,0-1.05,0.07-1.52,0.22v7.27
			c0,1.69,0.94,2.37,2.43,2.37C58,24.87,58.45,24.81,58.86,24.65z M25.02,17.57c-0.02-0.51-0.16-1.01-0.43-1.46l-2.31-4
			c-0.18-0.31-0.3-0.63-0.37-0.97l-0.1,0.17c-0.57,0.99-0.57,2.21,0,3.2l1.85,3.2c0.57,0.99,0.57,2.21,0,3.2l-0.1,0.17
			c-0.07-0.34-0.19-0.66-0.37-0.97l-1.69-2.93l-1.08-1.87c-0.18-0.31-0.3-0.63-0.37-0.97l-0.1,0.17c-0.57,0.99-0.57,2.2-0.01,3.19h0
			l1.85,3.21c0.57,0.99,0.57,2.21,0,3.2l-0.1,0.17c-0.07-0.34-0.19-0.66-0.37-0.97l-2.31-4c-0.31-0.54-0.45-1.14-0.43-1.74
			c-2.47,0.65-4.18,2.02-4.18,3.61c0,2.21,3.3,4,7.38,4s7.38-1.79,7.38-4C29.2,19.58,27.49,18.21,25.02,17.57z M70.46,17.39
			c-0.73,0-1.8,0.15-2.77,0.39v6.93h1.52v-5.9c0.42-0.07,0.85-0.11,1.21-0.11c1.52,0,1.88,0.53,1.88,1.62v4.39h1.52v-4.66
			C73.83,18.37,73.01,17.39,70.46,17.39z M81.56,15c-0.5,0-1.04,0.04-1.51,0.21v2.29c-0.36-0.07-0.73-0.11-1.14-0.11
			c-2.56,0-3.87,1.39-3.87,3.82c0,2.33,1.22,3.66,3.05,3.66c1,0,1.59-0.4,1.98-1.05l0.08,0.89h1.4V15z M80.05,23.09
			c-0.42,0.32-0.91,0.53-1.52,0.53c-1.36,0-1.93-1-1.93-2.41c0-1.58,0.72-2.52,2.23-2.52c0.4,0,0.82,0.06,1.22,0.14V23.09z
			 M66.03,17.77c-0.8-0.28-1.62-0.39-2.62-0.39c-2.56,0-3.87,1.39-3.87,3.82c0,2.33,1.22,3.66,3.05,3.66c0.97,0,1.57-0.39,1.95-1
			l0.08,0.83h1.4V17.77z M64.5,23.12c-0.4,0.3-0.89,0.5-1.48,0.5c-1.36,0-1.93-1-1.93-2.41c0-1.55,0.73-2.52,2.31-2.52
			c0.43,0,0.78,0.03,1.09,0.08V23.12z M66.99,30.19c-1.54,0-2.17,1.11-2.17,2.51c0,1.61,0.83,2.56,2.39,2.56
			c0.54,0,1.02-0.08,1.49-0.36c0.05-0.21,0.08-0.46,0.1-0.63c-0.51,0.29-1.07,0.4-1.58,0.4c-1.07,0-1.66-0.6-1.75-1.73h3.47
			c0.03-0.19,0.04-0.39,0.04-0.58C69,31.15,68.4,30.19,66.99,30.19z M68.34,32.36h-2.85c0.08-0.98,0.54-1.6,1.47-1.6
			c0.93,0,1.38,0.63,1.38,1.56V32.36z M82.69,31.63l-0.45-0.18c-0.82-0.32-1.25-0.65-1.25-1.3c0-0.69,0.55-1.01,1.45-1.01
			c0.5,0,1.05,0.09,1.58,0.3c0.06-0.17,0.09-0.39,0.11-0.62c-0.53-0.2-1.05-0.3-1.69-0.3c-1.32,0-2.12,0.58-2.12,1.63
			c0,1,0.58,1.5,1.54,1.88l0.45,0.18c1.03,0.41,1.41,0.72,1.41,1.37c0,0.69-0.58,1.08-1.58,1.08c-0.56,0-1.26-0.13-1.82-0.44
			c-0.07,0.19-0.1,0.37-0.11,0.64c0.55,0.29,1.2,0.42,1.94,0.42c1.46,0,2.24-0.69,2.24-1.73C84.39,32.63,83.92,32.12,82.69,31.63z
			 M70.03,30.45v4.69h0.66v-4.27c0.31-0.07,0.65-0.1,0.92-0.1c0.26,0,0.51,0.01,0.72,0.04c0.04-0.12,0.07-0.37,0.07-0.56
			c-0.21-0.03-0.5-0.04-0.81-0.04C71.08,30.21,70.45,30.31,70.03,30.45z M35.11,29.14c0.46,0,0.91,0.08,1.29,0.23
			c0.06-0.17,0.1-0.4,0.11-0.63c-0.4-0.16-0.91-0.23-1.4-0.23c-1.97,0-3.11,1.24-3.11,3.38c0,2.04,1.08,3.38,3.04,3.38
			c0.52,0,0.94-0.07,1.3-0.2c0.06-0.24,0.09-0.47,0.1-0.69c-0.38,0.17-0.87,0.26-1.32,0.26c-1.48,0-2.44-1.02-2.44-2.78
			C32.69,30.08,33.64,29.14,35.11,29.14z M78.38,32.9c0,1.04-0.62,1.76-1.75,1.76c-1.11,0-1.76-0.71-1.76-1.78v-4.28
			c-0.21,0-0.49,0.06-0.66,0.1v4.27c0,1.3,0.84,2.31,2.41,2.31c1.57,0,2.4-1,2.4-2.31v-4.38c-0.21,0-0.49,0.06-0.66,0.1V32.9z
			 M55.01,34.16c-0.36,0.34-0.81,0.54-1.33,0.54c-0.85,0-1.24-0.41-1.24-1.39v-3h-0.66v3.14c0,1.25,0.6,1.82,1.69,1.82
			c0.71,0,1.19-0.18,1.56-0.54l0.02,0.42h0.62V30.3h-0.66V34.16z M49.57,32.48l-0.44-0.15c-0.58-0.2-0.95-0.36-0.95-0.88
			c0-0.46,0.37-0.69,1.09-0.69c0.46,0,0.94,0.08,1.37,0.23c0.06-0.19,0.08-0.39,0.09-0.55c-0.43-0.17-0.94-0.24-1.48-0.24
			c-1.06,0-1.7,0.44-1.7,1.28c0,0.75,0.46,1.17,1.3,1.43l0.43,0.13c0.45,0.14,0.97,0.34,0.97,0.9c0,0.53-0.44,0.76-1.16,0.76
			c-0.48,0-1.09-0.11-1.53-0.37c-0.05,0.13-0.08,0.31-0.09,0.57c0.44,0.25,0.99,0.37,1.64,0.37c1.13,0,1.78-0.5,1.78-1.35
			C50.88,33.09,50.31,32.73,49.57,32.48z M44.35,30.19c-0.53,0-1.14,0.09-1.77,0.26v4.69h0.66V30.9c0.36-0.08,0.75-0.13,1.09-0.13
			c1.15,0,1.48,0.45,1.48,1.32v3.05h0.66v-3.17C46.47,30.83,45.93,30.19,44.35,30.19z M61.91,30.19c-0.57,0-1.13,0.15-1.64,0.39
			c-0.33-0.27-0.82-0.39-1.47-0.39c-0.6,0-1.22,0.09-1.85,0.26v4.69h0.66V30.9c0.37-0.08,0.77-0.13,1.13-0.13
			c1,0,1.38,0.38,1.38,1.29v3.09h0.66v-3.17c0-0.38-0.06-0.69-0.16-0.93c0.39-0.17,0.82-0.27,1.25-0.27c0.97,0,1.38,0.45,1.38,1.31
			v3.07h0.66v-3.17C63.89,30.83,63.33,30.19,61.91,30.19z M87.07,28.68l-2.26,6.46h0.69l0.54-1.59h2.9l0.54,1.59h0.69L87.9,28.6
			C87.62,28.6,87.31,28.63,87.07,28.68z M86.25,32.94l1.25-3.65l1.24,3.65H86.25z M39.32,30.19c-1.46,0-2.32,0.98-2.32,2.56
			c0,1.45,0.76,2.51,2.26,2.51c1.48,0,2.33-0.98,2.33-2.58C41.6,31.25,40.84,30.19,39.32,30.19z M39.3,34.67
			c-1.07,0-1.63-0.7-1.63-1.96c0-1.15,0.54-1.92,1.63-1.92c1.06,0,1.62,0.71,1.62,1.94C40.93,33.9,40.39,34.67,39.3,34.67z"/>
	</g>
</g>
</svg>
