<?xml version="1.0" encoding="UTF-8"?>
<svg width="87px" height="50px" viewBox="0 0 87 50" version="1.1" xmlns="http://www.w3.org/2000/svg" xmlns:xlink="http://www.w3.org/1999/xlink">
    <title>suntrust</title>
    <defs>
        <polygon id="path-1" points="0.418004968 0.0400742115 12.8686713 0.0400742115 12.8686713 21.085855 0.418004968 21.085855 0.418004968 0.0400742115"></polygon>
    </defs>
    <g id="Page-1" stroke="none" stroke-width="1" fill="none" fill-rule="evenodd">
        <g id="1440-Finance" transform="translate(-1117.000000, -1177.000000)">
            <g id="suntrust" transform="translate(1117.000000, 1177.000000)">
                <path d="M11.1135791,19.4762152 C11.3252513,21.762919 11.8603389,26.4798021 11.9100573,27.1551268 C11.9597757,27.8309462 11.7097071,29.8306988 11.0751827,26.2675572 C10.440166,22.7044156 9.72244955,20.5334818 10.0931221,19.5761534 C10.4633023,18.618825 10.9019068,17.1895114 11.1135791,19.4762152" id="Fill-1" fill="#E36F1E"></path>
                <path d="M12.8557399,20.1765739 C12.9054582,21.4025479 13.0546133,25.1294496 13.0546133,25.9047124 C13.0546133,26.68047 12.6317611,27.0302536 12.5072191,25.3298207 C12.3826771,23.6283983 11.9101065,20.8019295 12.233522,20.1765739 C12.5569375,19.5512183 12.8060215,18.9505999 12.8557399,20.1765739" id="Fill-3" fill="#E36F1E"></path>
                <path d="M14.6228583,13.6229066 C14.4490902,15.8170934 14.1995139,22.7529004 14.2492322,23.4282251 C14.2989506,24.1035498 13.801767,26.0300804 13.677225,22.9028077 C13.5526829,19.7765244 13.4448778,14.1755349 13.677225,13.7728139 C14.2246192,12.8224119 14.7971187,11.4217934 14.6228583,13.6229066" id="Fill-5" fill="#E36F1E"></path>
                <path d="M16.2404771,15.6238466 C16.046034,17.7715275 15.7354173,22.5517378 15.6295812,23.2201361 C15.5237451,23.8895238 14.9241712,25.791812 15.1205834,22.1777118 C15.3169955,18.5631169 15.2948438,15.8484601 15.5434355,15.4739394 C15.9392134,14.8782684 16.4147375,13.6978108 16.2404771,15.6238466" id="Fill-7" fill="#E36F1E"></path>
                <path d="M18.805649,9.41323438 C18.515215,11.5856524 17.0906118,20.8650588 16.9847757,21.5344465 C16.8789396,22.2028448 16.1134737,24.1110699 16.4757778,20.4915275 C16.8375896,16.8714904 17.5853341,9.81694496 17.8344181,9.44242424 C18.2301959,8.84675325 19.062117,7.4961039 18.805649,9.41323438" id="Fill-9" fill="#E36F1E"></path>
                <path d="M20.3999346,11.7702412 C19.8958594,14.0059864 18.3531135,21.3400618 18.2049429,21.9362276 C18.0562801,22.5323933 17.1667645,24.8878664 17.6112762,21.7274459 C18.0562801,18.5675201 19.238691,11.6668398 19.5158339,11.2938033 C20.1700487,10.4141497 20.8853039,9.61662338 20.3999346,11.7702412" id="Fill-11" fill="#E36F1E"></path>
                <path d="M24.9459155,4.61338281 C24.4167349,6.73978973 19.9844171,19.5808534 19.7771753,20.2670625 C19.5694411,20.952282 18.4633307,23.4180829 19.361707,19.6110328 C20.0439807,16.7192579 23.4258136,5.47967842 23.6035198,4.82364873 C23.7748266,4.1933457 25.4426068,2.61758813 24.9459155,4.61338281" id="Fill-13" fill="#E36F1E"></path>
                <path d="M27.1639942,7.15839208 C26.4989496,9.2333457 20.7262052,21.0121954 20.5184711,21.6979097 C20.3112292,22.383624 18.7871892,24.8543723 20.0734671,21.1611132 C21.1116455,18.1797897 25.7748337,7.69320965 25.9530322,7.03767471 C26.1238467,6.40638219 27.7916269,5.2001979 27.1639942,7.15839208" id="Fill-15" fill="#E36F1E"></path>
                <g id="Group-19" transform="translate(21.167222, 0.454669)">
                    <mask id="mask-2" fill="white">
                        <use xlink:href="#path-1"></use>
                    </mask>
                    <g id="Clip-18"></g>
                    <path d="M12.5778585,1.31299938 C11.4855314,3.32561534 1.91302459,19.0678541 1.59010139,19.7065677 C1.26717819,20.3457761 -0.607843848,22.7220284 1.18054026,19.2083612 C2.52736628,16.5624737 11.1015679,1.25808287 11.4126768,0.654001237 C11.7764577,-0.0515027829 13.5579501,-0.492813853 12.5778585,1.31299938" id="Fill-17" fill="#E36F1E" mask="url(#mask-2)"></path>
                    <text id="E36F1E" mask="url(#mask-2)" font-family="Helvetica" font-size="18" font-weight="normal" line-spacing="18" fill="#008ED3">
                        <tspan x="-19.8514323" y="46.7032256">E36F1E</tspan>
                    </text>
                </g>
                <path d="M36.1116742,5.13444651 C34.9829198,6.96400742 23.4536755,21.8503401 23.0032568,22.5538652 C22.552838,23.2583797 20.7821753,24.8598639 22.7443275,21.7563389 C24.4298291,19.090167 34.4468476,5.18985776 34.6880554,4.5546073 C34.9829198,3.78033395 37.190218,3.3860235 36.1116742,5.13444651" id="Fill-20" fill="#E36F1E"></path>
                <path d="M44.0861542,2.5361039 C42.6487522,4.13264069 26.364267,20.7377118 25.7986591,21.3521831 C25.2335435,21.967149 23.2128123,23.2351763 25.681501,20.521509 C27.801669,18.1902783 42.1092342,1.50258503 42.5202721,0.962325294 C42.9938271,0.3404329 44.7777809,1.76776747 44.0861542,2.5361039" id="Fill-22" fill="#E36F1E"></path>
                <path d="M44.4986197,8.50879406 C42.9283072,9.97323438 26.0299726,23.3684106 25.4136618,23.9314286 C24.7973511,24.4944465 22.6747218,25.5809029 25.3688661,23.0933333 C27.6834772,20.9570315 42.6191673,7.30607297 43.0754932,6.80440322 C43.601228,6.22555349 45.2542403,7.80378479 44.4986197,8.50879406" id="Fill-24" fill="#E36F1E"></path>
                <path d="M49.9120628,10.9167594 C48.2206541,12.2377242 29.0721946,23.0849722 28.4086268,23.5915894 C27.7460435,24.0987013 25.5367763,24.9946815 28.4371779,22.7529994 C30.9280185,20.8269635 48.7222681,8.37575758 49.2204362,7.91564626 C49.7939202,7.38577613 50.7257702,10.2805195 49.9120628,10.9167594" id="Fill-26" fill="#E36F1E"></path>
                <path d="M46.052343,19.3704391 C44.1359711,20.3332096 27.6821481,25.9520099 26.9723077,26.1771181 C26.2624674,26.4027211 24.2732408,26.9919604 27.4817979,25.2257267 C30.5407075,23.5426098 45.0702824,16.2777984 45.6521348,15.9304886 C46.9989609,15.1250464 46.63518,19.077551 46.052343,19.3704391" id="Fill-28" fill="#E36F1E"></path>
                <path d="M48.4256808,24.3801608 C46.3069896,24.9327891 30.1765821,27.0191218 29.410624,27.1477551 C28.6441737,27.2768831 27.0088827,27.1289549 30.2494367,26.2136797 C33.6800034,25.2449722 47.8462897,20.9827582 48.4557088,20.6878912 C49.8675132,20.0036611 49.0557749,24.215906 48.4256808,24.3801608" id="Fill-30" fill="#E36F1E"></path>
                <path d="M44.5601523,29.1029314 C42.1923771,29.1776376 28.428268,29.2093012 27.8099882,29.1776376 C27.081442,29.1415213 26.2076788,28.7388002 29.0115973,28.4097959 C32.5509537,27.9937168 44.668942,26.5797403 45.1055775,26.5797403 C46.6862275,26.5797403 45.2109213,29.0826469 44.5601523,29.1029314" id="Fill-32" fill="#E36F1E"></path>
                <path d="M9.97763764,33.6266667 C9.99782034,34.6943228 9.97763764,35.8490538 9.96730016,36.947384 L9.11519641,36.951342 C9.05267927,36.1805318 9.04775666,35.27812 8.4570435,34.7314286 C7.40803536,33.8913544 5.9671875,33.8097217 4.5696586,33.9057019 C3.5984277,34.0140507 2.52677557,34.4786147 2.22354281,35.4893754 C2.04928243,36.0825727 2.11081505,36.8533828 2.62768907,37.2373036 C3.4546875,37.8705751 4.45594632,38.0585776 5.428654,38.3509709 C6.84341203,38.7586395 8.33102469,39.0782437 9.52623433,40.0217192 C10.900627,41.1719975 11.0719338,43.1588868 10.6830476,44.8662461 C10.3079447,46.4390353 8.9753943,47.6912307 7.43264841,48.0850464 C5.30115841,48.6881385 2.82803928,48.3447866 0.897884013,47.5675448 C0.587267339,47.4364378 0.306678585,47.2885096 0.0118142633,47.0822016 C0.00639939263,45.8661224 -0.00492260972,44.6797279 0.00246130486,43.4493012 L0.891976881,43.4448485 C0.970246375,44.334397 0.960401156,45.3723686 1.7430961,45.976945 C2.7773364,46.9357576 4.19061765,47.1959926 5.67675353,47.1588868 C6.88279291,47.1227706 8.07111089,46.5389734 8.46344289,45.3367471 C8.70908111,44.579295 8.6613318,43.5843661 8.06963411,43.0094743 C7.64136707,42.566679 7.05213068,42.3613605 6.50621326,42.1273469 C4.76705525,41.4530118 2.85314459,41.2249351 1.30301479,40.076141 C0.018213656,39.1183179 -0.196412128,37.2506617 0.237762049,35.7807792 C0.554778115,34.4142981 1.90308092,33.2358194 3.27008964,32.9335312 C5.07767192,32.4793568 7.2258988,32.6465801 8.93552116,33.1868398 C9.27370445,33.319431 9.63846983,33.4510328 9.97763764,33.6266667" id="Fill-34" fill="#00447C"></path>
                <path d="M44.4832612,36.9376871 L50.0891291,36.9480767 C51.4571224,37.0163513 52.9590106,37.2464069 53.6127332,38.5767718 C54.0597061,39.6439332 53.8888916,41.0831416 53.0259581,41.8732468 C52.6154124,42.2606308 52.0867241,42.5149289 51.543268,42.6509833 L51.7357421,43.0210513 L54.0498609,47.0443043 C54.2723629,47.3391713 54.5962706,47.4415832 54.9344539,47.455436 L54.9378997,48.1075077 C54.9378997,48.1075077 52.4972698,48.3118367 51.552621,47.827483 C51.1696419,47.605838 50.94714,47.2075696 50.7689415,46.8226592 L48.4503923,42.0429437 C49.3177562,42.0691651 50.2747115,42.1082498 50.7866629,41.2914286 C51.2528341,40.4869759 51.2336359,39.4193197 50.9057901,38.5762771 C50.3859625,37.5101051 49.1070685,37.8133828 48.0920264,37.758961 L48.0767663,46.9982931 C48.0777508,47.1472109 48.1510977,47.2951391 48.2992682,47.3540136 C48.5060178,47.4262461 48.7265507,47.4410884 48.9460991,47.4400989 L48.9500372,48.1065182 C47.4791614,48.128287 45.9492143,48.1104762 44.4330505,48.103055 C44.4177905,47.8804205 44.4168059,47.6879654 44.4305892,47.4366357 C44.7239768,47.3901299 45.1069558,47.4613729 45.2674329,47.1650216 L45.3250274,46.9122078 L45.3265042,38.0543228 C45.3117364,37.949932 45.2822007,37.8316883 45.1931015,37.7579716 C44.7505589,37.5081262 44.1234184,37.6595176 43.6085134,37.6026221 C43.5445195,36.5646506 43.7980339,35.2728757 43.1324971,34.4456648 C42.8519083,34.1507978 42.5132328,34.0335436 42.1297615,34.0053432 C41.4972061,33.9944589 40.8203473,34.0127644 40.1877919,33.9999011 L40.1902532,46.6114038 C40.2064978,46.8780705 40.2960893,47.1590847 40.5466502,47.2768336 C40.9153536,47.453457 41.3859551,47.4064564 41.8122531,47.4336673 L41.8122531,48.1010761 L35.391201,48.1020656 L35.3877552,47.4356463 C35.638316,47.4034879 35.8736168,47.4326778 36.1379609,47.401509 C36.4170729,47.3851824 36.7262128,47.3391713 36.8866899,47.0715152 C37.0176313,46.8335436 37.017139,46.5366976 37.0299378,46.2556834 L37.0250152,34.0152381 C36.3624319,33.9890167 35.6417619,33.9781323 34.9511197,34.0107854 C34.5248217,34.057786 34.1137838,34.2823995 33.8942354,34.6682993 C33.427572,35.5019419 33.6490894,36.6635993 33.5944485,37.612517 C33.5944485,37.612517 32.7408679,37.5942115 32.3347526,37.7015708 C32.0265973,37.8658256 32.1604923,38.2809153 32.1181578,38.5480767 L32.114712,48.0986024 L29.2059419,48.0986024 L24.5870572,39.3896351 L24.5811501,46.9047866 C24.5964102,47.0383673 24.611178,47.1714533 24.7145528,47.2743599 C25.0099094,47.4658256 25.4066717,47.3901299 25.7748829,47.4326778 L25.7738984,48.1000866 L22.2616164,48.0981076 L22.2591551,47.4346568 C22.6411496,47.3881509 23.0827077,47.5049103 23.3765875,47.2372542 L23.4592873,47.0289672 L23.4647022,38.0117749 C23.4351665,37.8930365 23.4194142,37.758961 23.286996,37.7154236 C23.0507107,37.5833271 22.7563387,37.6140012 22.4762422,37.6006432 C22.0351763,37.6323067 21.5502993,37.5308844 21.1678125,37.7109709 C21.0654222,37.7554978 21.0511466,37.8752257 21.0073354,37.9637848 L20.9974902,38.8840074 L20.9659855,44.7120841 C20.8985457,45.9875325 20.4491115,47.3248237 19.2302733,47.9239579 C18.1438534,48.4929128 16.805888,48.44047 15.525025,48.3420161 C14.4356514,48.1841929 13.2862221,47.7601979 12.7511344,46.6945207 C12.1874956,45.5996537 12.2544431,44.3237106 12.2628115,43.048757 L12.2539508,38.0127644 C12.2386907,37.894026 12.1796194,37.8054669 12.0905202,37.7307607 C11.8837706,37.6135065 11.6041663,37.6149907 11.3841257,37.6159802 L11.3801876,36.9272975 L15.951323,36.9312554 L15.9596914,37.6085591 C15.6653194,37.6397279 15.3123682,37.5862956 15.1218632,37.8396042 L15.0637764,38.1062709 L15.053439,45.0668151 C15.0864205,45.9271738 15.3556872,46.8013853 16.1812089,47.1828324 C17.0948452,47.5484477 18.4195195,47.5425108 19.1367437,46.7974273 C19.7515777,46.1567347 19.8357543,45.2513544 19.8608596,44.3469635 L19.8598751,38.0835127 C19.8451073,37.949932 19.8293549,37.8316883 19.7264724,37.7579716 C19.4453914,37.5665059 19.0343534,37.653086 18.6809101,37.610538 C18.66565,37.3587137 18.678941,37.184564 18.6922321,36.9322449 L26.4315591,36.9292764 L30.9598678,45.5234632 L30.9884189,45.4645887 L30.9972796,38.04047 C30.9667594,37.9217316 30.9229482,37.7891404 30.8043133,37.7302659 C30.5099412,37.5981694 30.1309003,37.6446753 29.8079771,37.6159802 L29.815361,36.9272975 L32.7241311,36.9347186 L32.722162,32.9832035 L44.4748927,32.980235 L44.4832612,36.9376871 Z" id="Fill-36" fill="#00447C"></path>
                <g id="Group-40" transform="translate(65.470709, 36.570934)" fill="#00447C">
                    <path d="M7.38002572,0.756660482 L7.38790189,3.29222016 L6.65640209,3.29667285 C6.61062182,3.01466914 6.62391286,2.68813853 6.59290042,2.39277675 C6.57567129,1.93266543 6.27982244,1.5180705 5.88207558,1.32759431 C5.11464072,0.915967842 4.11387417,0.831861472 3.23272703,0.969400124 C2.59967942,1.07675943 1.92478963,1.4359431 1.67816688,2.07465677 C1.5467332,2.46105133 1.50538328,3.01071119 1.80172438,3.33427335 C2.14089219,3.68900433 2.61198594,3.82011132 3.05452856,3.95220779 C4.89607685,4.47713049 7.53065757,4.61269017 7.99732097,6.99834261 C8.2252378,8.37521336 7.95252523,9.74119975 7.00098477,10.7400866 C5.42033479,12.3346444 2.51993314,12.0081138 0.646387882,11.2155349 C0.440130535,11.1126283 0.249625539,11.0102165 0.0571514988,10.8771305 L0.0423836697,10.8326036 L0.0448449745,8.15307359 L0.779790605,8.1451577 C0.856583317,8.84175634 0.786682259,9.67243043 1.436959,10.1142362 C2.49925818,10.9092888 4.19263592,11.2140507 5.4252574,10.5694001 C6.05633596,10.1958689 6.4215936,9.57150278 6.37384429,8.82938776 C6.37089072,8.35542362 6.11983763,7.97100804 5.73587407,7.7058256 C4.21527993,6.7494867 2.21571586,6.96618429 0.827047659,5.72734694 C-0.0747744416,4.88677798 -0.124985061,3.43272727 0.207291095,2.33439703 C0.555319602,1.10100186 1.80172438,0.235200989 3.03729942,0.110525665 C4.15423957,-0.0131601732 5.33172781,0.0556091528 6.36350681,0.347012987 C6.7154734,0.448930118 7.05513347,0.580037106 7.38002572,0.756660482" id="Fill-38"></path>
                </g>
                <path d="M59.0039753,36.9284848 L59.0074211,37.6171676 C58.6874515,37.6196413 58.3605902,37.6052938 58.1700852,37.8586024 L58.1267663,38.1549536 L58.1159365,45.0966976 C58.1499025,45.9862461 58.4482127,46.9183426 59.3332979,47.2562523 C60.2469343,47.5629932 61.5115527,47.542214 62.1997335,46.8268151 C62.8145675,46.1861224 62.8982519,45.2357205 62.9238494,44.3763513 L62.9233572,38.1020161 C62.9233572,37.9842672 62.8775769,37.8660235 62.80423,37.7774644 C62.5241335,37.570167 62.1022659,37.6468522 61.7340547,37.6191466 C61.7340547,37.6191466 61.7320856,37.1669511 61.7306088,36.9304638 L65.2236927,36.9383797 L65.2305843,37.6171676 C64.8485898,37.6631787 64.4070317,37.5617563 64.1289043,37.8150649 C63.983195,38.1277427 64.0580187,38.4231045 64.0299598,38.7649722 L64.0270063,44.4896475 C64.0048545,45.8838343 63.5268691,47.4427706 62.1322938,48.0290414 C60.8986878,48.5534694 59.2658582,48.5168584 57.9397071,48.2412863 C57.1156622,48.0226098 56.2743882,47.5817934 55.8436599,46.7684354 C55.4129315,45.955572 55.3208787,45.0205071 55.3159561,44.0423995 L55.3169406,38.034731 C55.3016805,37.9164873 55.2568848,37.7685591 55.1239743,37.7101793 C54.9172247,37.606778 54.6528806,37.6389363 54.446131,37.624094 C54.4313631,37.4019542 54.4417006,36.9314533 54.4417006,36.9314533 L59.0039753,36.9284848 Z" id="Fill-41" fill="#00447C"></path>
                <path d="M82.3724405,36.9381323 C82.3911464,37.9172294 82.3768708,38.8918738 82.3670256,39.8407916 L81.6310955,39.8442548 C81.5995908,39.3559431 81.6123895,38.8062832 81.46225,38.3481509 C81.0905929,37.5639827 80.1508667,37.8939765 79.413952,37.8242177 L79.4154288,46.9888435 C79.4306889,47.1080767 79.4454567,47.2119728 79.5340637,47.2995424 C79.8299126,47.4915028 80.2414427,47.4153123 80.5943939,47.4435127 L80.5978397,48.1104267 L75.4364834,48.1104267 L75.4399292,47.4425232 C75.8214315,47.3816698 76.3668566,47.5424613 76.5849282,47.140235 L76.6292317,46.9037477 L76.6262782,37.8222387 C76.1113732,37.8395547 75.5152452,37.7683117 75.0308604,37.8890291 C74.2821314,38.2041806 74.5218625,39.1822882 74.407658,39.8353494 L73.6860034,39.8388126 L73.6727123,36.9356586 L82.3724405,36.9381323 Z" id="Fill-43" fill="#00447C"></path>
                <path d="M84.0737436,37.9097588 L84.3203664,37.8790847 C84.3351342,37.9844651 84.3651621,38.0626345 84.4109424,38.1116141 C84.4557381,38.1610884 84.5167785,38.1858256 84.5940635,38.1858256 C84.6757788,38.1858256 84.7373114,38.1635622 84.7786613,38.1200247 C84.8200113,38.0759926 84.8406862,38.0245393 84.8406862,37.9656648 C84.8406862,37.9280643 84.8318255,37.895906 84.8141041,37.8696846 C84.796875,37.8429685 84.7663548,37.8197155 84.7230359,37.8004205 C84.6935002,37.7875572 84.6255682,37.7643043 84.5202243,37.7311565 C84.3843603,37.6886085 84.2888617,37.635671 84.2342207,37.5738281 C84.157428,37.4862585 84.1190316,37.3798887 84.1190316,37.2537291 C84.1190316,37.1725912 84.136753,37.0964007 84.1726881,37.0261472 C84.2091154,36.9553989 84.2612951,36.9019666 84.3297193,36.8653556 C84.3976514,36.8277551 84.4798589,36.8094496 84.5763421,36.8094496 C84.7338656,36.8094496 84.8525005,36.8534818 84.9317545,36.9410513 C85.0115008,37.0286209 85.0528507,37.1453803 85.0572811,37.2918244 L84.8037667,37.3061719 C84.7934292,37.2240445 84.7698006,37.1651701 84.7343579,37.1295485 C84.6989151,37.093927 84.6447664,37.0756215 84.5738808,37.0756215 C84.5000416,37.0756215 84.4424471,37.0949165 84.4006049,37.1335065 C84.3735306,37.1577489 84.3607318,37.1908967 84.3607318,37.2324552 C84.3607318,37.2700557 84.3730383,37.3017192 84.3981436,37.3289301 C84.4306328,37.3630674 84.5079178,37.3981942 84.6309831,37.4352999 C84.7545406,37.4719109 84.8456088,37.5100062 84.9046802,37.5495857 C84.9642437,37.5896599 85.010024,37.6430921 85.0434977,37.7118615 C85.0769715,37.7801361 85.0932161,37.8647372 85.0932161,37.9651701 C85.0932161,38.0566976 85.0735257,38.1422882 85.0336525,38.2219419 C84.9937794,38.3015955 84.9376616,38.36047 84.8638225,38.3995547 C84.7914601,38.4381447 84.6998996,38.4574397 84.5916022,38.4574397 C84.4326019,38.4574397 84.3110134,38.4109338 84.2263445,38.3174273 C84.1411834,38.2244156 84.0904805,38.0883612 84.0737436,37.9097588" id="Fill-45" fill="#00447C"></path>
                <polygon id="Fill-47" fill="#00447C" points="85.3048391 38.4296351 85.3048391 36.8360668 85.6843723 36.8360668 85.9098278 37.9235127 86.1338066 36.8360668 86.513832 36.8360668 86.513832 38.4296351 86.2795158 38.4296351 86.2790236 37.1754607 86.0314163 38.4296351 85.7867626 38.4296351 85.5396476 37.1754607 85.5391553 38.4296351"></polygon>
            </g>
        </g>
    </g>
</svg>