<?xml version="1.0" encoding="UTF-8"?>
<svg width="126px" height="42px" viewBox="0 0 126 42" version="1.1" xmlns="http://www.w3.org/2000/svg" xmlns:xlink="http://www.w3.org/1999/xlink">
    <title>TD bank</title>
    <defs>
        <polygon id="path-1" points="0.000120574163 40.056101 45.6856708 40.056101 45.6856708 0.133775596 0.000120574163 0.133775596"></polygon>
    </defs>
    <g id="Page-1" stroke="none" stroke-width="1" fill="none" fill-rule="evenodd">
        <g id="1440-Finance" transform="translate(-888.000000, -1181.000000)">
            <g id="TD-bank" transform="translate(888.000000, 1181.000000)">
                <g id="Group-3" transform="translate(0.000000, 0.455520)">
                    <mask id="mask-2" fill="white">
                        <use xlink:href="#path-1"></use>
                    </mask>
                    <g id="Clip-2"></g>
                    <path d="M29.9875177,31.4193576 L19.3450392,31.4193576 L19.3450392,12.6854727 L24.6912976,12.6854727 L24.6912976,28.1047153 L29.8325799,28.1047153 C33.3804746,28.1047153 34.8713742,25.6942805 34.8713742,19.516216 C34.8713742,13.2869032 33.1742928,11.4784881 29.5751541,11.4784881 L17.8547426,11.4784881 L17.8547426,31.4193576 L12.5591254,31.4193576 L12.5591254,11.4784881 L4.79656077,11.4784881 L4.79656077,8.16384572 L31.2209914,8.16384572 C37.5945416,8.16384572 40.6287904,11.3789369 40.6287904,19.4685021 C40.6287904,30.114 36.104245,31.4193576 29.9875177,31.4193576 L29.9875177,31.4193576 Z M0.000120574163,40.0561599 L45.6856708,40.0561599 L45.6856708,0.133775596 L0.000120574163,0.133775596 L0.000120574163,40.0561599 Z" id="Fill-1" fill="#32A948" mask="url(#mask-2)"></path>
                </g>
                <path d="M62.7347368,11.899195 L64.5668612,11.899195 C65.7713971,11.899195 66.8758565,12.2926872 66.8758565,13.5668247 C66.8758565,14.8668808 65.5959617,15.2085358 64.4167464,15.2085358 L62.7347368,15.2085358 L62.7347368,11.899195 Z M56.4124306,25.7786339 L66.5744211,25.7786339 C70.2139522,25.7786339 73.7769187,25.3368387 73.7769187,21.0207938 C73.7769187,19.3048612 72.2703445,17.4404853 69.8371579,17.1212146 L69.8371579,17.0729116 C72.1708708,16.4856185 73.4495598,15.2326872 73.4495598,12.8799804 C73.4495598,9.6189425 70.4641435,8.66289762 67.4280861,8.66289762 L56.4124306,8.66289762 L56.4124306,25.7786339 Z M62.7347368,18.7405414 L64.5415407,18.7405414 C65.7973206,18.7405414 67.0518947,19.0097419 67.0518947,20.4823927 C67.0518947,21.804244 65.7213589,22.2466283 64.4927081,22.2466283 L62.7347368,22.2466283 L62.7347368,18.7405414 Z" id="Fill-4" fill="#134229"></path>
                <path d="M76.2864287,17.0247265 C77.5410029,16.4121038 79.1476536,15.9443899 80.6536249,15.9443899 C82.2343522,15.9443899 83.9664,16.141136 83.9905148,17.7828471 C83.4135675,17.7345442 82.4097876,17.6114306 81.5314048,17.6114306 C78.3940651,17.6114306 74.7804574,18.3984151 74.7804574,22.3209677 C74.7804574,24.9929453 77.1400938,26.0721038 79.5732804,26.0721038 C81.3571751,26.0721038 82.9626201,25.3846704 83.8416057,23.9379383 L83.8904383,23.9379383 L83.8904383,25.7781627 L89.7636057,25.7781627 L89.7636057,18.0049229 C89.7636057,13.3460449 85.371089,12.7092707 81.7568785,12.7092707 C79.2989742,12.7092707 78.1697971,12.9301683 76.2864287,13.444418 L76.2864287,17.0247265 Z M83.9905148,20.5531978 C83.9905148,21.6565077 83.3376057,22.8352174 82.0329933,22.8352174 C81.0539311,22.8352174 80.5523426,22.4917952 80.5523426,21.6093829 C80.5523426,20.2857644 82.0583139,20.1632398 83.3629263,20.1632398 L83.9905148,20.1632398 L83.9905148,20.5531978 Z" id="Fill-6" fill="#134229"></path>
                <path d="M91.5447876,13.0025049 L97.5174287,13.0025049 L97.5174287,15.2085358 L97.5686727,15.2085358 C98.3204526,13.4183815 100.0525,12.7091529 101.833984,12.7091529 C105.196194,12.7091529 106.426051,14.4244965 106.426051,16.9020842 L106.426051,25.7780449 L100.101936,25.7780449 L100.101936,18.4212707 C100.101936,17.6855344 100.101936,16.6794194 98.9974766,16.6794194 C97.8689024,16.6794194 97.8689024,17.6855344 97.8689024,18.4212707 L97.8689024,25.7780449 L91.5447876,25.7780449 L91.5447876,13.0025049 Z" id="Fill-8" fill="#134229"></path>
                <polygon id="Fill-10" fill="#134229" points="114.883665 18.0791445 114.933703 18.0791445 118.547311 13.0026227 125.698565 13.0026227 121.282536 18.6405189 125.874 25.7781627 118.497273 25.7781627 114.933703 19.5741795 114.883665 19.5741795 114.883665 25.7781627 108.558947 25.7781627 108.558947 7.3871108 114.883665 7.3871108"></polygon>
            </g>
        </g>
    </g>
</svg>