<svg width="80" height="80" viewBox="0 0 80 80" fill="none" xmlns="http://www.w3.org/2000/svg">
<circle cx="40" cy="40" r="39.5" fill="#F5F5F5" stroke="#D6D7DA"/>
<path fill-rule="evenodd" clip-rule="evenodd" d="M49.4999 20.8332L48.8332 24.3332H61.3332L61.9999 20.8332H49.4999ZM60.9999 27.4999L60.4999 30.9999H47.9999L48.4999 27.4999H60.9999ZM39.1666 29.9999H34.1666C33.4999 29.9999 32.6666 30.3332 31.9999 30.8332C31.3332 31.3332 30.9999 31.9999 30.8332 32.8332L28.4999 46.9999C28.3332 47.6665 28.4999 48.3332 28.9999 48.9999C29.4999 49.4999 30.1666 49.8332 30.8332 49.8332H35.8332L34.3332 58.6665H29.1666C26.6666 58.6665 24.4999 57.6665 23.1666 55.9999C21.6666 54.3332 21.1666 51.9999 21.4999 49.6665L24.6666 30.4999C24.9999 28.1665 26.3332 25.8332 28.3332 24.1665C30.3332 22.4999 32.8332 21.4999 35.3332 21.4999H40.4999L39.1666 29.9999ZM26.3332 21.6665C23.4999 23.9999 21.6666 27.1665 21.1666 30.4999L17.9999 49.6665C17.4999 52.9999 18.3332 56.1665 20.3332 58.4999C22.3332 60.8332 25.3332 62.1665 28.8332 62.1665H37.4999L39.9999 46.3332H32.1666L34.1666 33.6665H41.9999L44.4999 17.9999H35.6666C32.4999 17.9999 29.1666 19.1665 26.3332 21.6665Z" fill="#041022"/>
</svg>
