<svg width="80" height="80" viewBox="0 0 80 80" fill="none" xmlns="http://www.w3.org/2000/svg">
<circle cx="40" cy="40" r="39.5" fill="#F5F5F5" stroke="#D6D7DA"/>
<path fill-rule="evenodd" clip-rule="evenodd" d="M35 58.8C37.3 58.8 39.5 56.9 39.9 54.6C40.3 52.3 38.8 50.4 36.5 50.4C34.2 50.4 32 52.3 31.6 54.6C31.2 56.9 32.7 58.8 35 58.8ZM36.9 48.3C40.3 48.3 42.7 51.1 42 54.5C41.4 57.9 38.1 60.7 34.6 60.7C31.1 60.7 28.8 57.9 29.5 54.5C30.1 51.1 33.4 48.3 36.9 48.3ZM42.3 39.3C46.3 37.8 49.3001 34.4 49.9001 30.6C50.8001 25.4 47.1 21.2 41.7 21.2C36.6 21.2 31.8 24.9 30.4 29.5H36.5C37.2 27.9 39 26.6 40.8 26.6C43 26.6 44.4 28.4 44 30.5C43.7 32.1 43 33.5 41.8 34.5C40.5 35.7 38.7 36.2 36.4 36.2H35.9L34.5 44H40.7L41.5 39.3H42.3ZM49.9001 22.5C51.8001 24.7 52.5 27.5 52 30.6C51.6 32.9 50.5 35.2 48.8 37.1C47.3 38.8 45.5 40.1 43.4 41L42.5 46.4H32L34 35.4L34.2 34.4H36.8C39.8 34.4 41.4 33.2 41.9 30.7C42.1 29.7 41.4 28.9 40.4 28.9C39.4 28.9 38.4 29.7 38.3 30.7L38.1 31.7H27.8L28 30.7C28.5 27.6 30.3 24.7 33 22.6C35.6 20.4 38.9 19.3 42 19.3C45.2 19.2 48.0001 20.4 49.9001 22.5Z" fill="#041022"/>
</svg>
