<svg width="13" height="14" viewBox="0 0 13 14" fill="none" xmlns="http://www.w3.org/2000/svg">
<path d="M12.5 6.99933C12.5 3.6855 9.81315 1 6.50067 1C3.18685 1 0.5 3.6855 0.5 6.99933C0.5 10.3132 3.18685 12.9987 6.50067 12.9987C9.81315 12.9987 12.5 10.3132 12.5 6.99933" stroke="#E7131A"/>
<path fill-rule="evenodd" clip-rule="evenodd" d="M6.97619 8.18333H5.78571V6.57143H6.38095C7.0375 6.57143 7.57143 6.0375 7.57143 5.38095C7.57143 4.7244 7.0375 4.19048 6.38095 4.19048C5.7244 4.19048 5.19048 4.7244 5.19048 5.38095H4C4 4.06786 5.06786 3 6.38095 3C7.69405 3 8.7619 4.06786 8.7619 5.38095C8.7619 6.4881 8.00238 7.42202 6.97619 7.68631V8.18333Z" fill="#E7131A"/>
<path fill-rule="evenodd" clip-rule="evenodd" d="M5.41724 10.8373H7.27736V8.97717H5.41724V10.8373Z" fill="#E7131A"/>
</svg>
