<svg xmlns="http://www.w3.org/2000/svg" style="display: none;">
    <!-- GAS start-->
    <path id="gas"
          d="m19.77 7.23.01-.01-3.72-3.72-1.06 1.06 2.11 2.11c-.94.36-1.61 1.26-1.61 2.33 0 1.38 1.12 2.5 2.5 2.5.36 0 .69-.08 1-.21v7.21c0 .55-.45 1-1 1s-1-.45-1-1v-4.5c0-1.1-.9-2-2-2h-1v-7c0-1.1-.9-2-2-2h-6c-1.1 0-2 .9-2 2v16h10v-7.5h1.5v5c0 1.38 1.12 2.5 2.5 2.5s2.5-1.12 2.5-2.5v-9.5c0-.69-.28-1.32-.73-1.77zm-7.77 2.77h-6v-5h6zm5-1c0 .55.45 1 1 1s1-.45 1-1-.45-1-1-1-1 .45-1 1z"/>
    <!-- GAS end-->

    <!-- ENGINE start-->
    <path id="engine" d="m20 10-1.94-2h-4.06v-2h3v-2h-9v2h3v2h-5v3h-2v-3h-2v9h2v-3h2v3h4l2 3h8v-2h2v-8z"/>
    <!-- ENGINE end-->

    <!-- SEAT start-->
    <path id="seat"
          d="m7 13h10v-8c0-1.1-.9-2-2-2h-6c-1.1 0-2 .9-2 2zm-5-3h3v3h-3zm20 0h-3v3h3zm-15 11h-3v-6h16v6h-3v-3h-10z"
    />
    <!-- SEAT end-->

    <!-- CHECKMARK start-->
    <g id="checkmark">
        <path d="m0 0h2.46726v5.75693h-2.46726z" transform="matrix(.729523 -.683956 .729523 .683956 0 5.06255)"/>
        <path d="m0 0h10.6914v2.46726h-10.6914z"
              transform="matrix(.729523 -.683956 .729523 .683956 2.40039 7.31248)"/>
    </g>
    <!-- CHECKMARK start-->
</svg>