<svg xmlns="http://www.w3.org/2000/svg" style="display: none;">
    <!-- GAS start-->
    <path id="gas"
          d="m19.77 7.23.01-.01-3.72-3.72-1.06 1.06 2.11 2.11c-.94.36-1.61 1.26-1.61 2.33 0 1.38 1.12 2.5 2.5 2.5.36 0 .69-.08 1-.21v7.21c0 .55-.45 1-1 1s-1-.45-1-1v-4.5c0-1.1-.9-2-2-2h-1v-7c0-1.1-.9-2-2-2h-6c-1.1 0-2 .9-2 2v16h10v-7.5h1.5v5c0 1.38 1.12 2.5 2.5 2.5s2.5-1.12 2.5-2.5v-9.5c0-.69-.28-1.32-.73-1.77zm-7.77 2.77h-6v-5h6zm5-1c0 .55.45 1 1 1s1-.45 1-1-.45-1-1-1-1 .45-1 1z"/>
    <!-- GAS end-->

    <!-- ENGINE start-->
    <path id="engine" d="m20 10-1.94-2h-4.06v-2h3v-2h-9v2h3v2h-5v3h-2v-3h-2v9h2v-3h2v3h4l2 3h8v-2h2v-8z"/>
    <!-- ENGINE end-->

    <!-- SEAT start-->
    <path id="seat"
          d="m7 13h10v-8c0-1.1-.9-2-2-2h-6c-1.1 0-2 .9-2 2zm-5-3h3v3h-3zm20 0h-3v3h3zm-15 11h-3v-6h16v6h-3v-3h-10z"
    />
    <!-- SEAT end-->

    <!-- CHECKMARK start-->
    <g id="checkmark">
        <path d="m0 0h2.46726v5.75693h-2.46726z" transform="matrix(.729523 -.683956 .729523 .683956 0 5.06255)"/>
        <path d="m0 0h10.6914v2.46726h-10.6914z"
              transform="matrix(.729523 -.683956 .729523 .683956 2.40039 7.31248)"/>
    </g>
    <!-- CHECKMARK end-->

    <!-- VROOM start-->
    <g id="vroom">
        <path d="M103.877 7.57765C104.994 6.72584 106.306 5.90951 107.583 5.90951C108.93 5.90951 109.551 6.99203 109.285 8.57144L107.317 19.6628H113.806L115.845 7.73737C116.802 2.05858 113.15 0.0177612 109.87 0.0177612C107.406 0.0177612 104.977 1.10028 103.239 3.03462C102.353 0.763103 100.385 0.0177612 98.523 0.0177612C96.2536 0.0177612 94.0906 0.940565 92.3177 2.9104L92.7786 0.35494H83.0628L82.0522 5.99824H85.7223L83.3288 19.6628H89.7646L91.8921 7.57765C93.0091 6.72584 94.3211 5.90951 95.5976 5.90951C96.9451 5.90951 97.5656 6.99203 97.2997 8.57144L95.3317 19.6628H101.768L103.877 7.57765Z"/>
        <path d="M61.2023 10.6122C61.2023 4.98669 65.2269 0 72.0528 0C77.4603 0 81.8217 3.56699 81.8217 9.38776C81.8217 15.0133 77.7971 20 70.9713 20C65.5637 20 61.2023 16.4508 61.2023 10.6122ZM67.6204 10.3106C67.6204 12.6353 69.0565 14.4454 71.3258 14.4454C73.8257 14.4454 75.4036 12.2094 75.4214 9.68944C75.4214 7.36468 73.9853 5.55457 71.7159 5.55457C69.1983 5.55457 67.6204 7.80834 67.6204 10.3106Z"/>
        <path d="M39.59 10.6122C39.59 4.98669 43.6146 0 50.4405 0C55.848 0 60.2094 3.56699 60.2094 9.38776C60.2094 15.0133 56.1848 20 49.3589 20C43.9514 20 39.59 16.4508 39.59 10.6122ZM46.0081 10.3106C46.0081 12.6353 47.4442 14.4454 49.7135 14.4454C52.2134 14.4454 53.8091 12.2094 53.8091 9.68944C53.8091 7.36468 52.373 5.55457 50.1036 5.55457C47.586 5.55457 46.0081 7.80834 46.0081 10.3106Z"/>
        <path d="M40.2637 0L38.9872 6.95652H36.3632C33.8988 6.95652 32.8882 8.19876 32.5514 10.2041L30.938 19.6628H24.4844L26.8779 5.99823H23.2079L24.2185 0.354925H33.9343L33.2428 4.06389C34.5548 0.94055 37.4093 0 40.0687 0H40.2637Z"/>
        <path d="M0 5.99822L0.992855 0.354919H10.2477L9.80444 13.8066L15.9743 0.354919H23.2257L13.4567 19.6628H3.67002V5.99822H0Z"/>
    </g>
    <!-- VROOM end-->

</svg>