<svg xmlns="http://www.w3.org/2000/svg">
    <!-- GAS start-->
    <path id="gas"
          d="m19.77 7.23.01-.01-3.72-3.72-1.06 1.06 2.11 2.11c-.94.36-1.61 1.26-1.61 2.33 0 1.38 1.12 2.5 2.5 2.5.36 0 .69-.08 1-.21v7.21c0 .55-.45 1-1 1s-1-.45-1-1v-4.5c0-1.1-.9-2-2-2h-1v-7c0-1.1-.9-2-2-2h-6c-1.1 0-2 .9-2 2v16h10v-7.5h1.5v5c0 1.38 1.12 2.5 2.5 2.5s2.5-1.12 2.5-2.5v-9.5c0-.69-.28-1.32-.73-1.77zm-7.77 2.77h-6v-5h6zm5-1c0 .55.45 1 1 1s1-.45 1-1-.45-1-1-1-1 .45-1 1z"/>
    <!-- GAS end-->

    <!-- ENGINE start-->
    <path id="engine" d="m20 10-1.94-2h-4.06v-2h3v-2h-9v2h3v2h-5v3h-2v-3h-2v9h2v-3h2v3h4l2 3h8v-2h2v-8z"/>
    <!-- ENGINE end-->

    <!-- SEAT start-->
    <path id="seat"
          d="m7 13h10v-8c0-1.1-.9-2-2-2h-6c-1.1 0-2 .9-2 2zm-5-3h3v3h-3zm20 0h-3v3h3zm-15 11h-3v-6h16v6h-3v-3h-10z"
    />
    <!-- SEAT end-->

    <!-- CHECKMARK start-->
    <g id="checkmark">
        <path d="m0 0h2.46726v5.75693h-2.46726z" transform="matrix(.729523 -.683956 .729523 .683956 0 5.06255)"/>
        <path d="m0 0h10.6914v2.46726h-10.6914z"
              transform="matrix(.729523 -.683956 .729523 .683956 2.40039 7.31248)"/>
    </g>
    <!-- CHECKMARK end-->

    <!-- VROOM start-->
    <g id="vroom">
        <path d="M103.877 7.57765C104.994 6.72584 106.306 5.90951 107.583 5.90951C108.93 5.90951 109.551 6.99203 109.285 8.57144L107.317 19.6628H113.806L115.845 7.73737C116.802 2.05858 113.15 0.0177612 109.87 0.0177612C107.406 0.0177612 104.977 1.10028 103.239 3.03462C102.353 0.763103 100.385 0.0177612 98.523 0.0177612C96.2536 0.0177612 94.0906 0.940565 92.3177 2.9104L92.7786 0.35494H83.0628L82.0522 5.99824H85.7223L83.3288 19.6628H89.7646L91.8921 7.57765C93.0091 6.72584 94.3211 5.90951 95.5976 5.90951C96.9451 5.90951 97.5656 6.99203 97.2997 8.57144L95.3317 19.6628H101.768L103.877 7.57765Z"/>
        <path d="M61.2023 10.6122C61.2023 4.98669 65.2269 0 72.0528 0C77.4603 0 81.8217 3.56699 81.8217 9.38776C81.8217 15.0133 77.7971 20 70.9713 20C65.5637 20 61.2023 16.4508 61.2023 10.6122ZM67.6204 10.3106C67.6204 12.6353 69.0565 14.4454 71.3258 14.4454C73.8257 14.4454 75.4036 12.2094 75.4214 9.68944C75.4214 7.36468 73.9853 5.55457 71.7159 5.55457C69.1983 5.55457 67.6204 7.80834 67.6204 10.3106Z"/>
        <path d="M39.59 10.6122C39.59 4.98669 43.6146 0 50.4405 0C55.848 0 60.2094 3.56699 60.2094 9.38776C60.2094 15.0133 56.1848 20 49.3589 20C43.9514 20 39.59 16.4508 39.59 10.6122ZM46.0081 10.3106C46.0081 12.6353 47.4442 14.4454 49.7135 14.4454C52.2134 14.4454 53.8091 12.2094 53.8091 9.68944C53.8091 7.36468 52.373 5.55457 50.1036 5.55457C47.586 5.55457 46.0081 7.80834 46.0081 10.3106Z"/>
        <path d="M40.2637 0L38.9872 6.95652H36.3632C33.8988 6.95652 32.8882 8.19876 32.5514 10.2041L30.938 19.6628H24.4844L26.8779 5.99823H23.2079L24.2185 0.354925H33.9343L33.2428 4.06389C34.5548 0.94055 37.4093 0 40.0687 0H40.2637Z"/>
        <path d="M0 5.99822L0.992855 0.354919H10.2477L9.80444 13.8066L15.9743 0.354919H23.2257L13.4567 19.6628H3.67002V5.99822H0Z"/>
    </g>
    <!-- VROOM end-->

    <!-- Google Play start-->
    <g id="google-play">
        <path d="M104 .64c1.856 0 3.36 1.504 3.36 3.36v24c0 1.856-1.504 3.36-3.36 3.36H4C2.144 31.36.64 29.856.64 28V4C.64 2.144 2.144.64 4 .64h100zm0-.64H4C1.8 0 0 1.8 0 4v24c0 2.2 1.8 4 4 4h100c2.2 0 4-1.8 4-4V4c0-2.2-1.8-4-4-4z" fill="#fff"/>
        <path d="M37.9361 8.192c0 .672-.2 1.208-.6 1.6-.448.472-1.04.712-1.76.712-.696 0-1.28-.24-1.768-.72s-.728-1.08-.728-1.784c0-.712.24-1.304.728-1.784s1.072-.72 1.768-.72c.344 0 .672.064.984.2.312.136.56.312.752.536l-.424.424c-.32-.376-.752-.568-1.312-.568-.504 0-.944.176-1.312.536-.368.352-.552.816-.552 1.384s.184 1.032.552 1.384c.368.352.808.536 1.312.536.536 0 .984-.176 1.344-.536.232-.232.368-.56.4-.976h-1.744v-.584h2.328c.016.128.032.248.032.36zM41.6242 6.19201h-2.184v1.52h1.968v.576h-1.968v1.52h2.184V10.4h-2.8V5.60001h2.8v.592zM44.224 10.4h-.616V6.19201h-1.344v-.592h3.296v.592h-1.344V10.4h.008zM47.9521 10.4V5.60001h.616V10.4h-.616zM51.304 10.4h-.6159V6.19201h-1.344v-.592h3.296v.592h-1.344V10.4h.0079zM58.888 9.776c-.472.488-1.056.728-1.76.728s-1.288-.24-1.76-.728-.704-1.08-.704-1.776.232-1.296.704-1.776c.472-.488 1.056-.728 1.76-.728.696 0 1.28.24 1.76.728.472.488.712 1.08.712 1.776-.008.704-.24 1.296-.712 1.776zm-3.064-.4c.352.36.792.536 1.304.536s.952-.176 1.304-.536c.352-.36.536-.816.536-1.376 0-.56-.176-1.016-.536-1.376-.352-.36-.792-.544-1.304-.544s-.952.176-1.304.536c-.352.368-.536.824-.536 1.384 0 .56.184 1.016.536 1.376zM60.464 10.4V5.60001h.752l2.336 3.736h.024l-.024-.928v-2.808h.616V10.4h-.64l-2.44-3.91199h-.024l.024.928V10.4h-.624z" fill="#fff" stroke="#fff" stroke-width=".2" stroke-miterlimit="10"/>
        <path d="M54.512 17.4c-1.88 0-3.416 1.432-3.416 3.4 0 1.96 1.536 3.4 3.416 3.4s3.416-1.44 3.416-3.4c0-1.968-1.536-3.4-3.416-3.4zm0 5.464c-1.032 0-1.92-.848-1.92-2.064 0-1.224.888-2.064 1.92-2.064s1.92.84 1.92 2.064c0 1.216-.896 2.064-1.92 2.064zM47.056 17.4c-1.88 0-3.416 1.432-3.416 3.4 0 1.96 1.536 3.4 3.416 3.4s3.416-1.44 3.416-3.4c0-1.968-1.536-3.4-3.416-3.4zm0 5.464c-1.032 0-1.92-.848-1.92-2.064 0-1.224.888-2.064 1.92-2.064s1.92.84 1.92 2.064c0 1.216-.888 2.064-1.92 2.064zm-8.864-4.416v1.44h3.456c-.104.808-.376 1.408-.784 1.816-.504.504-1.288 1.056-2.664 1.056-2.128 0-3.792-1.712-3.792-3.84s1.664-3.84 3.792-3.84c1.144 0 1.984.448 2.6 1.032l1.016-1.016c-.864-.824-2.008-1.456-3.624-1.456-2.912 0-5.36 2.368-5.36 5.288 0 2.912 2.448 5.288 5.36 5.288 1.576 0 2.76-.512 3.688-1.48.952-.952 1.248-2.296 1.248-3.376 0-.336-.024-.648-.08-.904h-4.856v-.008zm36.248 1.12c-.28-.76-1.144-2.168-2.912-2.168-1.752 0-3.208 1.376-3.208 3.4 0 1.904 1.44 3.4 3.376 3.4 1.56 0 2.464-.952 2.832-1.504l-1.16-.776c-.384.568-.912.944-1.672.944-.76 0-1.304-.344-1.648-1.032l4.552-1.88-.16-.384zm-4.64 1.136c-.04-1.312 1.016-1.984 1.776-1.984.592 0 1.096.296 1.264.72l-3.04 1.264zM66.104 24H67.6V14h-1.496v10zm-2.448-5.84H63.6c-.336-.4-.976-.76-1.792-.76-1.704 0-3.264 1.496-3.264 3.416 0 1.904 1.56 3.392 3.264 3.392.808 0 1.456-.36 1.792-.776h.048v.488c0 1.304-.696 2-1.816 2-.912 0-1.48-.656-1.712-1.208l-1.304.544c.376.904 1.368 2.008 3.016 2.008 1.752 0 3.232-1.032 3.232-3.544v-6.112h-1.416v.552h.008zm-1.72 4.704c-1.032 0-1.896-.864-1.896-2.048 0-1.2.864-2.072 1.896-2.072 1.016 0 1.816.88 1.816 2.072.008 1.184-.792 2.048-1.816 2.048zM81.448 14h-3.576v10h1.496v-3.792h2.088c1.656 0 3.28-1.2 3.28-3.104 0-1.904-1.64-3.104-3.288-3.104zm.032 4.816h-2.12v-3.432h2.12c1.12 0 1.752.928 1.752 1.712 0 .784-.632 1.72-1.752 1.72zm9.232-1.432c-1.08 0-2.2.48-2.664 1.528l1.328.552c.28-.552.808-.736 1.36-.736.776 0 1.56.464 1.568 1.288v.104c-.272-.152-.848-.384-1.56-.384-1.432 0-2.88.784-2.88 2.248 0 1.336 1.168 2.2 2.48 2.2 1 0 1.56-.448 1.904-.976h.048v.776h1.44v-3.832c.008-1.776-1.32-2.768-3.024-2.768zm-.184 5.48c-.488 0-1.168-.248-1.168-.848 0-.768.848-1.064 1.584-1.064.656 0 .968.144 1.36.336-.112.92-.912 1.576-1.776 1.576zm8.464-5.264l-1.712 4.336h-.048L95.456 17.6h-1.608l2.664 6.064-1.52 3.368h1.56l4.104-9.432h-1.664zM85.552 24h1.496V14h-1.496v10z" fill="#fff"/>
        <path d="M8.35213 6.032c-.232.248-.368.632-.368 1.12v17.696c0 .496.136.88.368 1.12l.056.056 9.91197-9.904v-.24L8.40813 5.976l-.056.056z" fill="url(#paint0_linear)"/>
        <path d="M21.6241 19.424l-3.304-3.304v-.24l3.304-3.304.072.04 3.912 2.224c1.12.632 1.12 1.672 0 2.312l-3.912 2.224-.072.048z" fill="url(#paint1_linear)"/>
        <path d="M21.6961 19.376L18.3201 16l-9.96799 9.968c.368.392.976.44 1.66399.048l11.68-6.64z" fill="url(#paint2_linear)"/>
        <path d="M21.6961 12.624l-11.688-6.63999c-.68804-.392-1.29604-.344-1.66404.048L18.3201 16l3.376-3.376z" fill="url(#paint3_linear)"/>
        <path opacity=".2" d="M21.6241 19.304l-11.616 6.6c-.64799.368-1.23199.344-1.59999.008l-.056.056.056.056c.376.336.952.36 1.59999-.008l11.688-6.64-.072-.072z" fill="#000"/>
        <path opacity=".12" d="M8.35213 25.856c-.232-.248-.368-.632-.368-1.12v.12c0 .496.136.88.368 1.12l.056-.056-.056-.064zM25.6081 17.04l-3.992 2.264.072.072 3.912-2.224c.56-.32.84-.736.84-1.152-.04.376-.32.752-.832 1.04z" fill="#000"/>
        <path opacity=".25" d="M10.0081 6.09699l15.6 8.86401c.504.288.792.656.84 1.04 0-.416-.28-.84-.84-1.152l-15.6-8.86401c-1.12003-.632-2.03203-.104-2.03203 1.176v.12c0-1.288.92-1.816 2.03203-1.184z" fill="#fff"/>
        <defs>
            <linearGradient id="paint0_linear" x1="17.4398" y1="6.96768" x2="4.01389" y2="20.3936" gradientUnits="userSpaceOnUse">
                <stop stop-color="#00A0FF"/>
                <stop offset=".00657445" stop-color="#00A1FF"/>
                <stop offset=".2601" stop-color="#00BEFF"/>
                <stop offset=".5122" stop-color="#00D2FF"/>
                <stop offset=".7604" stop-color="#00DFFF"/>
                <stop offset="1" stop-color="#00E3FF"/>
            </linearGradient>
            <linearGradient id="paint1_linear" x1="27.0676" y1="16.001" x2="7.71005" y2="16.001" gradientUnits="userSpaceOnUse">
                <stop stop-color="#FFE000"/>
                <stop offset=".4087" stop-color="#FFBD00"/>
                <stop offset=".7754" stop-color="orange"/>
                <stop offset="1" stop-color="#FF9C00"/>
            </linearGradient>
            <linearGradient id="paint2_linear" x1="19.8616" y1="17.8368" x2="1.65499" y2="36.0434" gradientUnits="userSpaceOnUse">
                <stop stop-color="#FF3A44"/>
                <stop offset="1" stop-color="#C31162"/>
            </linearGradient>
            <linearGradient id="paint3_linear" x1="5.83781" y1=".140885" x2="13.9679" y2="8.27089" gradientUnits="userSpaceOnUse">
                <stop stop-color="#32A071"/>
                <stop offset=".0685" stop-color="#2DA771"/>
                <stop offset=".4762" stop-color="#15CF74"/>
                <stop offset=".8009" stop-color="#06E775"/>
                <stop offset="1" stop-color="#00F076"/>
            </linearGradient>
        </defs>
    </g>
    <!-- Google Play end-->

    <!-- Apple Store start-->
    <g id="apple-store">
        <path d="M88.352.8h.864c.2 0 .4.008.592.008h.144c.496.008.992.048 1.48.128.456.08.896.224 1.296.424.824.424 1.48 1.072 1.896 1.888.208.408.344.84.424 1.296.08.488.128.984.136 1.48v.744c.016.288.016.576.016.864v16.744c0 .288 0 .576-.008.872v.72c-.008.496-.056.992-.136 1.488-.072.448-.216.888-.416 1.288-.208.4-.48.768-.808 1.096-.32.32-.688.592-1.088.792-.416.208-.848.352-1.304.432-.488.08-.992.128-1.496.128-.24.008-.48.008-.728.008H6.768c-.24 0-.48 0-.728-.008-.496-.008-1-.048-1.48-.128-.456-.08-.888-.224-1.296-.432-.408-.208-.776-.472-1.096-.8-.32-.32-.592-.68-.792-1.088-.208-.408-.352-.84-.424-1.296-.08-.488-.128-.984-.136-1.496-.008-.16-.008-.32-.016-.48V6.528c0-.16 0-.32.008-.504.008-.488.056-.984.136-1.472.072-.448.216-.888.424-1.296.208-.408.472-.768.8-1.088.32-.32.688-.592 1.096-.792.408-.216.84-.36 1.296-.432.488-.08.992-.128 1.488-.128H6.2C6.392.808 6.584.8 6.776.8h81.576zm0-.8H6.768c-.24 0-.488.008-.736.008-.536.008-1.072.056-1.608.144-.528.088-1.04.264-1.52.504s-.92.56-1.304.944c-.384.376-.696.816-.944 1.296-.24.48-.416.992-.504 1.52-.088.528-.136 1.064-.144 1.6 0 .248-.008.496-.008.736V25.24c0 .248.008.488.016.736.008.536.056 1.072.144 1.6s.256 1.048.504 1.52c.24.48.56.912.944 1.288.376.384.816.696 1.296.944.48.24.992.416 1.528.504.528.088 1.072.136 1.608.144.24.016.488.024.728.024H89.224c.248 0 .496 0 .736-.008.536-.008 1.072-.056 1.608-.144s1.048-.264 1.528-.504.92-.56 1.296-.944c.384-.376.704-.816.944-1.288.24-.48.408-.992.496-1.52.088-.528.136-1.064.152-1.6v-.736c.016-.296.016-.592.016-.888V7.632c0-.296 0-.584-.008-.872v-.736c-.008-.536-.056-1.072-.152-1.6-.088-.528-.256-1.04-.496-1.52-.496-.96-1.28-1.744-2.248-2.24-.48-.24-1-.408-1.528-.504C91.04.072 90.504.024 89.96.016c-.248 0-.496-.008-.736-.008C88.936 0 88.64 0 88.352 0z" fill="#fff"/>
        <path d="M20.056 15.912c.016-1.408.76-2.712 1.968-3.456-.768-1.088-2-1.752-3.328-1.792-1.4-.144-2.76.832-3.472.832-.728 0-1.824-.824-3.008-.8-1.56.048-2.97599.912-3.72799 2.272-1.616 2.784-.408 6.88 1.136 9.128C10.4 23.2 11.304 24.432 12.48 24.384c1.16-.048 1.592-.736 2.984-.736 1.384 0 1.792.736 2.992.712 1.24-.024 2.024-1.104 2.768-2.224.552-.784.984-1.656 1.264-2.576-1.472-.608-2.432-2.048-2.432-3.648zM17.7761 9.184c.68-.808 1.008-1.856.928-2.904-1.032.112-1.992.6-2.672 1.384-.68.768-1.024 1.776-.952 2.8 1.04 0 2.04-.464 2.696-1.28zM33.9361 21.712h-3.8l-.912 2.688h-1.608l3.6-9.936h1.672l3.6 9.936h-1.632l-.92-2.688zm-3.4-1.24h3.008l-1.48-4.36h-.04l-1.488 4.36zM44.2481 20.776c0 2.248-1.208 3.696-3.032 3.696-.944.048-1.832-.44-2.288-1.264h-.032v3.584h-1.488v-9.64h1.44v1.208h.024c.472-.816 1.368-1.312 2.312-1.28 1.8559 0 3.064 1.448 3.064 3.696zm-1.528 0c0-1.464-.76-2.432-1.92-2.432-1.136 0-1.904.984-1.904 2.432 0 1.456.768 2.44 1.904 2.44 1.16 0 1.92-.96 1.92-2.44zM52.248 20.776c0 2.248-1.208 3.696-3.032 3.696-.944.048-1.832-.44-2.2879-1.264h-.0321v3.584h-1.4879v-9.64h1.44v1.208h.024c.472-.816 1.3679-1.312 2.3119-1.28 1.848 0 3.064 1.448 3.064 3.696zm-1.536 0c0-1.464-.76-2.432-1.92-2.432-1.1359 0-1.9039.984-1.9039 2.432 0 1.456.768 2.44 1.9039 2.44 1.16 0 1.92-.96 1.92-2.44zM57.528 21.632c.112.984 1.072 1.632 2.384 1.632 1.256 0 2.16-.648 2.16-1.536 0-.768-.544-1.232-1.84-1.552l-1.288-.312c-1.832-.44-2.68-1.296-2.68-2.68 0-1.712 1.496-2.888 3.624-2.888 2.104 0 3.552 1.176 3.6 2.888h-1.504c-.088-.992-.912-1.592-2.112-1.592-1.2 0-2.024.608-2.024 1.488 0 .704.528 1.112 1.808 1.432l1.096.272c2.048.48 2.896 1.304 2.896 2.752 0 1.856-1.48 3.024-3.848 3.024-2.208 0-3.704-1.136-3.8-2.936l1.528.008zM66.8642 15.44v1.712h1.384v1.176h-1.384v3.992c0 .624.28.912.88.912.16 0 .328-.016.488-.032v1.168c-.272.048-.552.072-.832.072-1.472 0-2.048-.552-2.048-1.952v-4.152h-1.056V17.16h1.056v-1.72h1.512zM69.0481 20.776c0-2.28 1.344-3.712 3.448-3.712s3.448 1.432 3.448 3.712c0 2.288-1.336 3.712-3.448 3.712-2.12 0-3.448-1.424-3.448-3.712zm5.368 0c0-1.56-.72-2.488-1.928-2.488s-1.928.928-1.928 2.488c0 1.568.72 2.488 1.928 2.488s1.928-.92 1.928-2.488zM77.168 17.152h1.424v1.232h.032c.2-.792.928-1.336 1.744-1.312.168 0 .344.016.512.056v1.392c-.216-.064-.44-.096-.672-.088-.832-.032-1.528.608-1.56 1.44 0 .08 0 .152.008.232V24.4h-1.488v-7.248zM87.752 22.272c-.2 1.312-1.488 2.216-3.128 2.216-2.112 0-3.424-1.408-3.424-3.68 0-2.272 1.32-3.744 3.36-3.744 2.008 0 3.272 1.376 3.272 3.576v.512h-5.128v.088c-.096 1.04.68 1.952 1.72 2.048.08.008.16.008.24.008.72.064 1.408-.344 1.68-1.016l1.408-.008zm-5.04-2.168h3.632c.056-.96-.68-1.784-1.648-1.832h-.136c-1.016-.008-1.84.808-1.848 1.824v.008zM30.3441 6.984c1.168-.08 2.184.79201 2.264 1.952.008.13601.008.28-.008.416 0 1.528-.824 2.4-2.256 2.4h-1.728V6.984h1.728zm-.984 4.096h.904c.832.048 1.544-.584 1.592-1.408.008-.104 0-.208-.016-.312.112-.824-.464-1.584-1.288-1.696-.096-.016-.192-.016-.288-.008h-.904v3.424zM33.4402 9.952c-.088-.936.6-1.768 1.544-1.864.944-.088 1.776.6 1.864 1.536.008.112.008.216 0 .328.088.936-.6 1.776-1.536 1.864-.944.088-1.776-.592-1.872-1.536-.016-.104-.016-.216 0-.328zm2.672 0c0-.784-.352-1.24-.968-1.24s-.968.456-.968 1.24.352 1.24.968 1.24.968-.456.968-1.24zM41.376 11.76h-.736l-.744-2.656h-.056l-.744 2.656h-.736l-.992-3.6h.72l.648 2.752h.056l.744-2.752h.68l.744 2.752h.056l.64-2.752h.712l-.992 3.6zM43.2 8.152h.688v.576h.056c.184-.424.616-.68 1.08-.64.648-.048 1.208.432 1.256 1.08.008.088 0 .176-.008.256v2.328h-.712V9.6c0-.576-.256-.864-.776-.864-.456-.024-.848.328-.864.784v2.232h-.72v-3.6zM47.4081 6.752h.712v5.008h-.712V6.752zM49.1121 9.952c-.088-.936.6-1.768 1.544-1.864.944-.088 1.776.6 1.864 1.536.008.112.008.216 0 .328.088.936-.6 1.776-1.536 1.864-.944.088-1.776-.592-1.872-1.536-.008-.104-.008-.216 0-.328zm2.672 0c0-.784-.352-1.24-.968-1.24s-.968.456-.968 1.24.352 1.24.968 1.24.968-.456.968-1.24zM53.272 10.736c0-.648.488-1.024 1.344-1.072l.976-.056v-.312c0-.384-.256-.592-.736-.592-.4 0-.672.144-.752.4h-.688c.072-.616.656-1.016 1.48-1.016.904 0 1.416.448 1.416 1.208v2.464h-.688v-.504h-.056c-.232.368-.648.584-1.088.568-.6.064-1.136-.376-1.2-.968-.008-.048-.008-.08-.008-.12zm2.32-.304v-.304l-.88.056c-.496.032-.72.2-.72.52 0 .328.28.512.672.512.464.048.888-.296.936-.76-.008-.008-.008-.016-.008-.024zM57.2401 9.952c0-1.136.5839-1.856 1.4959-1.856.464-.024.896.224 1.104.632h.056V6.752h.712v5.008h-.68v-.568h-.056c-.232.4-.672.648-1.136.632-.92-.008-1.4959-.728-1.4959-1.872zm.7359 0c0 .768.36 1.224.968 1.224.6 0 .976-.464.976-1.224 0-.752-.376-1.224-.976-1.224-.6.008-.968.472-.968 1.224zM63.56 9.952c-.088-.936.6-1.768 1.544-1.864.944-.096 1.776.6 1.864 1.536.008.112.008.216 0 .328.088.936-.6 1.776-1.536 1.864-.944.088-1.776-.592-1.872-1.536-.008-.104-.008-.216 0-.328zm2.672 0c0-.784-.352-1.24-.968-1.24s-.968.456-.968 1.24.352 1.24.968 1.24c.624 0 .968-.456.968-1.24zM67.9282 8.152h.688v.576h.056c.184-.424.616-.68 1.08-.64.648-.048 1.208.432 1.256 1.08.008.088 0 .176-.008.256v2.328h-.712V9.6c0-.576-.256-.864-.776-.864-.456-.024-.848.328-.864.784v2.232h-.712v-3.6h-.008zM75.024 7.256v.912h.784v.6h-.784v1.856c0 .376.152.544.512.544.088 0 .184-.008.272-.016v.592c-.128.024-.256.032-.384.04-.792 0-1.112-.28-1.112-.976V8.776h-.576v-.6h.576v-.92h.712zM76.7761 6.752h.704v1.984h.056c.192-.424.632-.68 1.104-.648.656-.032 1.216.464 1.256 1.12.008.072 0 .152-.008.224v2.328h-.712V9.608c0-.576-.272-.864-.776-.864-.464-.04-.872.304-.912.768v2.248h-.712V6.752zM84.048 10.784c-.2.68-.856 1.12-1.568 1.04-.904.024-1.656-.688-1.68-1.592 0-.088 0-.176.016-.264-.12-.912.52-1.744 1.432-1.864.08-.008.16-.016.232-.016 1.008 0 1.608.688 1.608 1.816v.248h-2.552v.04c-.048.528.344.984.872 1.032h.088c.352.04.688-.128.856-.44h.696zm-2.512-1.16h1.824c.032-.48-.328-.896-.808-.928h-.088c-.512-.008-.928.4-.936.912.008 0 .008.008.008.016z" fill="#fff"/>
    </g>
    <!-- Apple Store end-->

    <!-- Facebook start-->
    <path id="facebook" d="M5 3h14a2 2 0 0 1 2 2v14a2 2 0 0 1-2 2H5a2 2 0 0 1-2-2V5a2 2 0 0 1 2-2m13 2h-2.5A3.5 3.5 0 0 0 12 8.5V11h-2v3h2v7h3v-7h3v-3h-3V9a1 1 0 0 1 1-1h2V5z"/>
    <!-- Facebook end-->

    <!-- Twitter start-->
    <path id="twitter" d="M22.46 6c-.77.35-1.6.58-2.46.69.88-.53 1.56-1.37 1.88-2.38-.83.5-1.75.85-2.72 1.05C18.37 4.5 17.26 4 16 4c-2.35 0-4.27 1.92-4.27 4.29 0 .34.04.67.11.98C8.28 9.09 5.11 7.38 3 4.79c-.37.63-.58 1.37-.58 2.15 0 1.49.75 2.81 1.91 3.56-.71 0-1.37-.2-1.95-.5v.03c0 2.08 1.48 3.82 3.44 4.21a4.22 4.22 0 0 1-1.93.07 4.28 4.28 0 0 0 4 2.98 8.521 8.521 0 0 1-5.33 1.84c-.34 0-.68-.02-1.02-.06C3.44 20.29 5.7 21 8.12 21 16 21 20.33 14.46 20.33 8.79c0-.19 0-.37-.01-.56.84-.6 1.56-1.36 2.14-2.23z"/>
    <!-- Twitter end-->

    <!-- Instagram start-->
    <path id="instagram" d="M7.8 2h8.4C19.4 2 22 4.6 22 7.8v8.4a5.8 5.8 0 0 1-5.8 5.8H7.8C4.6 22 2 19.4 2 16.2V7.8A5.8 5.8 0 0 1 7.8 2m-.2 2A3.6 3.6 0 0 0 4 7.6v8.8C4 18.39 5.61 20 7.6 20h8.8a3.6 3.6 0 0 0 3.6-3.6V7.6C20 5.61 18.39 4 16.4 4H7.6m9.65 1.5a1.25 1.25 0 0 1 1.25 1.25A1.25 1.25 0 0 1 17.25 8 1.25 1.25 0 0 1 16 6.75a1.25 1.25 0 0 1 1.25-1.25M12 7a5 5 0 0 1 5 5 5 5 0 0 1-5 5 5 5 0 0 1-5-5 5 5 0 0 1 5-5m0 2a3 3 0 0 0-3 3 3 3 0 0 0 3 3 3 3 0 0 0 3-3 3 3 0 0 0-3-3z"/>
    <!-- Instagram end-->

    <!-- Arrow down start-->
    <path id="arrow-down" d="M16.59 8.59L12 13.17 7.41 8.59 6 10l6 6 6-6z"/>
    <!-- Arrow end start-->
</svg>