<svg fill="none" height="32" viewBox="0 0 80 32" width="80" xmlns="http://www.w3.org/2000/svg" xmlns:xlink="http://www.w3.org/1999/xlink"><clipPath id="a"><path d="m0 0h80v32h-80z"/></clipPath><g clip-path="url(#a)" fill="#041022"><path d="m72.25 7.30005c-3.04 0-4.4 1.65-4.46 1.74-.44.51-.96 1.04995-.96-.26v-.98h-6.06v24.29995h6.12v-6.7c0-.5.49-.42.85 0 .35.42 1.9 1.49 4.58 1.49 4.86 0 7.68-4.22 7.68-10.01 0-7.46995-4.72-9.57995-7.75-9.57995zm-1.83 15.28995c-2.96 0-3.73-1.9-3.67-5.49.08-3.59 1.49-5.08 3.39-5.08 3.1 0 3.67 2.4 3.67 4.86s-.43 5.71-3.39 5.71z"/><path d="m13.88 17.25c0 2.25-1.48 3.59-3.87 3.59-2.4 0-3.67-1.76-3.67-3.67v-3.1h-6.34v3.17c0 3.25.969999 9.02 10.07 9.02 9.1 0 10.37-6.2 10.37-9.16v-17.1899658h-6.56z"/><path d="m30.28 7.08997c-5.99 0-8.66 5.49003-8.66 10.22003 0 4.72 3.04 9.3 9.24 9.3 5.43.08 9.02-3.45 9.02-6.06h-5.99s-.71 1.69-2.82 1.69-3.31-1.21-3.31-4.09h12.19c-.01-9.08003-4.53-11.06003-9.67-11.06003zm-2.34 7.40003c0-1.9.78-3.45 2.96-3.45 2.26 0 3.25 1.69 3.25 3.45z"/><path d="m49.78 7.08997c-5.99 0-8.67 5.49003-8.66 10.22003 0 4.72 3.03 9.3 9.24 9.3 5.43.08 9.02-3.45 9.02-6.06h-5.99s-.71 1.69-2.82 1.69-3.31-1.21-3.31-4.09h12.19c-.01-9.08003-4.53-11.06003-9.67-11.06003zm-2.34 7.40003c0-1.9.78-3.45 2.96-3.45 2.26 0 3.25 1.69 3.25 3.45z"/></g></svg>