<svg enable-background="new 0 0 701.3 151.3" viewBox="0 0 700.3 151.3" xmlns="http://www.w3.org/2000/svg"><g fill="#e7131a"><path d="m249.6 22-7.2 39.2h-14.8c-13.9 0-19.6 7-21.5 18.3l-9.1 53.3h-36.3l13.5-77h-20.7l5.7-31.8h54.8l-4 20.8c7.4-17.6 23.5-22.9 38.5-22.9h1.1z"/><path d="m22.6 55.7 5.6-31.8h52.2l-2.5 75.8 34.8-75.8h40.9l-55.1 108.8h-55.3v-77z"/><path d="m307.1 22c-38.5 0-61.2 28.1-61.2 59.8 0 32.9 24.6 52.9 55.1 52.9 38.5 0 61.2-28.1 61.2-59.8-.1-32.9-24.6-52.9-55.1-52.9zm-4.2 81.4c-12.8 0-20.9-10.2-20.9-23.3 0-14.1 8.9-26.8 23.1-26.8 12.8 0 20.9 10.2 20.9 23.3 0 14.1-8.9 26.8-23.1 26.8z"/><path d="m429 22c-38.5 0-61.2 28.1-61.2 59.8 0 32.9 24.6 52.9 55.1 52.9 38.5 0 61.2-28.1 61.2-59.8-.1-32.9-24.7-52.9-55.1-52.9zm-4.2 81.4c-12.8 0-20.9-10.2-20.9-23.3 0-14.1 8.9-26.8 23.1-26.8 12.8 0 20.9 10.2 20.9 23.3 0 14.1-8.9 26.8-23.1 26.8z"/><path d="m608.4 64.6c6.3-4.8 13.7-9.4 20.9-9.4 7.6 0 11.1 6.1 9.6 15l-11.1 62.5h36.6l11.5-67.2c5.4-32-15.2-43.5-33.7-43.5-13.9 0-27.6 6.1-37.4 17-5-12.8-16.1-17-26.6-17-12.8 0-25 5.2-35 16.3l2.6-14.4h-54.8l-5.7 31.8h20.7l-13.5 77h36.3l12-68.1c6.3-4.8 13.7-9.4 20.9-9.4 7.6 0 11.1 6.1 9.6 15l-11.1 62.5h36.3z"/></g></svg>