<svg id="car-offer" width="88" height="76" viewBox="0 0 88 76" fill="none" xmlns="http://www.w3.org/2000/svg">
<mask id="mask0" mask-type="alpha" maskUnits="userSpaceOnUse" x="0" y="0" width="88" height="76">
<path fill-rule="evenodd" clip-rule="evenodd" d="M63.6318 0.874756L59.0268 26.9913L68.7783 38.1513L82.4643 26.9913L87.0693 0.874756H63.6318ZM63.0611 25.384L66.7203 4.62476H82.6578L78.9978 25.384L69.6903 32.974L63.0611 25.384ZM22.8882 22.9061L12.5719 42.4406L3.27415 50.7558L2.4319 55.5318L1.7044 59.6568L0.250153 67.9061H5.12515L3.7204 75.8748H18.7197L20.1252 67.9061H55.3752L53.9697 75.8748H68.9697L70.3752 67.9061H75.2502L76.7374 59.4686L77.3989 55.7186L78.2592 50.8406L72.4504 41.5623H17.0112L24.8832 26.6561H55.3362L55.9977 22.9061H22.8882ZM6.76166 52.2446L14.5122 45.3131H69.9904L74.2767 52.1591L73.6489 55.7186H58.6489L57.9874 59.4686H72.9882L72.1609 64.1561H4.66091L5.45516 59.6568H20.4544L21.1819 55.5318H6.18191L6.76166 52.2446ZM59.1251 67.9061H66.6251L65.8811 72.1248H58.3811L59.1251 67.9061ZM8.87514 67.9061H16.3751L15.6311 72.1248H8.13114L8.87514 67.9061ZM70.4383 18.9524C70.5741 19.7721 71.192 20.1816 72.1835 20.1816C73.0895 20.1816 73.7908 19.7504 73.916 19.0394C74.0338 18.3704 73.6701 18.1116 72.8241 17.8964L70.7766 17.4006C69.0845 16.9694 67.829 16.0199 68.2206 13.7991C68.5858 11.7291 70.2928 10.2419 72.5345 9.87512L72.8811 7.91313H75.6403L75.2833 9.93962C77.1658 10.3926 78.0508 11.7291 78.0553 13.5411H74.864C74.6975 12.8939 74.1995 12.4191 73.229 12.4191C72.3448 12.4191 71.6863 12.8511 71.5731 13.4976C71.4696 14.0796 71.7876 14.3601 72.425 14.5326L74.6728 15.1146C76.6948 15.6321 77.6278 16.8186 77.2745 18.8234C76.898 20.9579 75.1888 22.3379 73.025 22.7481L72.668 24.7746H69.9073L70.2688 22.7264C68.2498 22.3169 67.0588 21.0014 67.0745 18.9524H70.4383Z" fill="white"/>
</mask>
<g mask="url(#mask0)">
<path fill-rule="evenodd" clip-rule="evenodd" d="M-2 83H88V-7H-2V83Z" fill="#E7131A"/>
</g>
</svg>
