<?xml version="1.0" encoding="UTF-8"?>
<svg width="13px" height="13px" viewBox="0 0 13 13" version="1.1" xmlns="http://www.w3.org/2000/svg" xmlns:xlink="http://www.w3.org/1999/xlink">
    <!-- Generator: sketchtool 51.3 (57544) - http://www.bohemiancoding.com/sketch -->
    <title>AA25D566-3D5A-4558-8BA5-16EF5A5107B0</title>
    <desc>Created with sketchtool.</desc>
    <defs>
        <polygon id="path-1" points="0 0 13 0 13 13 0 13"></polygon>
    </defs>
    <g id="Page-1" stroke="none" stroke-width="1" fill="none" fill-rule="evenodd">
        <g id="1280_hold_completed" transform="translate(-528.000000, -325.000000)">
            <g id="top-marquee" transform="translate(0.000000, 70.000000)">
                <g id="finance-promo" transform="translate(0.000000, 72.000000)">
                    <g id="copy" transform="translate(330.000000, 60.000000)">
                        <g id="check-mark-red" transform="translate(198.000000, 123.000000)">
                            <g id="Group-3">
                                <mask id="mask-2" fill="white">
                                    <use xlink:href="#path-1"></use>
                                </mask>
                                <g id="Clip-2"></g>
                                <path d="M5.97241667,9.44125 L2.66283333,6.13058333 L3.81116667,4.98225 L5.91825,7.08825 L9.13683333,3.55983333 L10.3371667,4.65616667 L5.97241667,9.44125 Z M6.5,0 C2.90983333,0 0,2.912 0,6.5 C0,10.09125 2.90983333,13 6.5,13 C10.0901667,13 13,10.09125 13,6.5 C13,2.912 10.0901667,0 6.5,0 Z" id="Fill-1" fill="#E7131A" mask="url(#mask-2)"></path>
                            </g>
                        </g>
                    </g>
                </g>
            </g>
        </g>
    </g>
</svg>