<svg width="63" height="24" viewBox="0 0 63 24" fill="none" xmlns="http://www.w3.org/2000/svg">
<path fill-rule="evenodd" clip-rule="evenodd" d="M33.124 8.13376C32.5955 7.68936 31.6936 7.46716 30.4175 7.46716H27.5396V16.3612H29.6915V13.5741H30.6556C31.8256 13.5741 32.6836 13.3166 33.2296 12.801C33.8451 12.2233 34.1541 11.4541 34.1541 10.4941C34.1541 9.49878 33.8105 8.71199 33.124 8.13376ZM30.6021 11.5612H29.6915V9.4806H30.5096C31.5046 9.4806 32.0021 9.82955 32.0021 10.5275C32.0021 11.2163 31.5351 11.5612 30.6021 11.5612Z" fill="#041022"/>
<path fill-rule="evenodd" clip-rule="evenodd" d="M37.8367 7.46704H35.5927V16.3611H40.4377V14.3477H37.8367V7.46704Z" fill="#041022"/>
<path fill-rule="evenodd" clip-rule="evenodd" d="M44.834 7.46704L41.309 16.3611H43.725L44.187 15.0678H47.25L47.6725 16.3611H50.1155L46.616 7.46704H44.834ZM44.8075 13.2675L45.732 10.2274L46.6425 13.2675H44.8075Z" fill="#041022"/>
<mask id="mask0" mask-type="alpha" maskUnits="userSpaceOnUse" x="0" y="0" width="63" height="24">
<path d="M0 23.7369H63V0.000366211H0V23.7369Z" fill="white"/>
</mask>
<g mask="url(#mask0)">
<path fill-rule="evenodd" clip-rule="evenodd" d="M51.2368 16.3611H53.4813V7.46704H51.2368V16.3611Z" fill="#041022"/>
<path fill-rule="evenodd" clip-rule="evenodd" d="M62.1951 9.13417C61.8956 8.70744 61.5391 8.36556 61.1256 8.1075C60.4481 7.68078 59.5236 7.46716 58.3531 7.46716H55.3961V16.3612H58.8551C60.1046 16.3612 61.1081 15.9527 61.8651 15.1346C62.6221 14.317 63 13.2322 63 11.8809C63 10.8057 62.7315 9.89015 62.1951 9.13417ZM58.6041 14.3478H57.6406V9.4806H58.6176C59.3041 9.4806 59.8316 9.69522 60.2016 10.124C60.5711 10.5527 60.7561 11.1607 60.7561 11.9475C60.7561 13.5479 60.0391 14.3478 58.6041 14.3478Z" fill="#041022"/>
<path fill-rule="evenodd" clip-rule="evenodd" d="M9.31833 0.00012207L2.04433 1.90498L0.0403286 9.2194L2.54733 11.7934L-0.000671387 14.325L1.88583 21.6717L9.12783 23.6952L11.6758 21.1632L14.1828 23.7366L21.4563 21.8318L23.4603 14.5163L20.9538 11.9434L23.5013 9.41181L21.6153 2.06507L14.3723 0.0415321L11.8253 2.5731L9.31833 0.00012207ZM4.85433 3.31191L8.68583 2.30797L10.3613 4.028L7.91783 6.45604L4.85433 3.31191ZM13.2653 4.05123L14.9678 2.35948L18.7828 3.42554L15.6693 6.51917L13.2653 4.05123ZM2.33583 8.61896L3.39133 4.76631L6.45383 7.91044L4.01083 10.3385L2.33583 8.61896ZM17.1093 7.9973L20.2228 4.90317L21.2158 8.77349L19.5138 10.4652L17.1093 7.9973ZM9.35833 7.93418L11.8018 5.50614L14.2053 7.97407L11.7623 10.4021L9.35833 7.93418ZM5.45133 11.8166L7.89433 9.38858L10.2988 11.8565L7.85533 14.2846L5.45133 11.8166ZM13.2028 11.8802L15.6458 9.45221L18.0498 11.9201L15.6063 14.3482L13.2028 11.8802ZM2.28483 14.9633L3.98783 13.271L6.39133 15.7395L3.27883 18.8326L2.28483 14.9633ZM9.29533 15.7627L11.7388 13.3346L14.1428 15.8026L11.6998 18.2306L9.29533 15.7627ZM17.0463 15.8263L19.4898 13.3983L21.1653 15.1178L20.1098 18.9704L17.0463 15.8263ZM4.71833 20.3112L7.83133 17.2171L10.2358 19.685L8.53333 21.3773L4.71833 20.3112ZM13.1398 19.7088L15.5828 17.2807L18.6458 20.4248L14.8148 21.4283L13.1398 19.7088Z" fill="#041022"/>
</g>
</svg>
