<svg width="82" height="85" xmlns="http://www.w3.org/2000/svg"><g transform="translate(1 1)" stroke="#333" stroke-width="1.5" fill="none" fill-rule="evenodd"><path d="M49.303 56.568v4.953h-4.914v-4.953"/><ellipse cx="19.068" cy="48.189" rx="3.531" ry="3.559"/><ellipse cx="47.366" cy="48.189" rx="3.531" ry="3.559"/><path d="M21.037 56.568v4.953H16.13v-4.953M40.496 50.632H26.103M26.103 45.254h14.393"/><path d="M12.243 56.568V40.54l2.655-.664 5.098-15.132h26.5l5.1 15.132 2.654.664v16.03z"/><path d="M25.069 38.382h21.27l-3.096-9.993H25.069h16.514-18.168l-3.102 9.993h21.27"/><path d="M66.395 35.185c3.008 14.653-4.033 29.53-17.266 36.482-13.233 6.952-29.465 4.302-39.805-6.499-10.34-10.8-12.293-27.146-4.789-40.082S27.19 5.744 41.688 9.377"/><path d="M58.389 64.646l15.92 15.61-2.896 2.502L55.5 67.148M79.486 10.065C79.564 4.603 75.217.105 69.76 0c-3.054 0-5.778 2.118-7.563 4.4C60.412 2.119 57.68 0 54.633 0c-5.456.105-9.803 4.603-9.725 10.065 0 0-.814 10.284 17.289 23.499 18.082-13.215 17.29-23.499 17.29-23.499zM55.903 9.059l12.588 12.6M68.491 9.059l-12.588 12.6"/></g></svg>