<svg xmlns="http://www.w3.org/2000/svg">
    <path id="gas"
          d="m19.77 7.23.01-.01-3.72-3.72-1.06 1.06 2.11 2.11c-.94.36-1.61 1.26-1.61 2.33 0 1.38 1.12 2.5 2.5 2.5.36 0 .69-.08 1-.21v7.21c0 .55-.45 1-1 1s-1-.45-1-1v-4.5c0-1.1-.9-2-2-2h-1v-7c0-1.1-.9-2-2-2h-6c-1.1 0-2 .9-2 2v16h10v-7.5h1.5v5c0 1.38 1.12 2.5 2.5 2.5s2.5-1.12 2.5-2.5v-9.5c0-.69-.28-1.32-.73-1.77zm-7.77 2.77h-6v-5h6zm5-1c0 .55.45 1 1 1s1-.45 1-1-.45-1-1-1-1 .45-1 1z"/>

    <path id="engine" d="m20 10-1.94-2h-4.06v-2h3v-2h-9v2h3v2h-5v3h-2v-3h-2v9h2v-3h2v3h4l2 3h8v-2h2v-8z"/>

    <path id="seat"
          d="m7 13h10v-8c0-1.1-.9-2-2-2h-6c-1.1 0-2 .9-2 2zm-5-3h3v3h-3zm20 0h-3v3h3zm-15 11h-3v-6h16v6h-3v-3h-10z"
    />

    <g id="vroom">
        <path d="M103.877 7.57765C104.994 6.72584 106.306 5.90951 107.583 5.90951C108.93 5.90951 109.551 6.99203 109.285 8.57144L107.317 19.6628H113.806L115.845 7.73737C116.802 2.05858 113.15 0.0177612 109.87 0.0177612C107.406 0.0177612 104.977 1.10028 103.239 3.03462C102.353 0.763103 100.385 0.0177612 98.523 0.0177612C96.2536 0.0177612 94.0906 0.940565 92.3177 2.9104L92.7786 0.35494H83.0628L82.0522 5.99824H85.7223L83.3288 19.6628H89.7646L91.8921 7.57765C93.0091 6.72584 94.3211 5.90951 95.5976 5.90951C96.9451 5.90951 97.5656 6.99203 97.2997 8.57144L95.3317 19.6628H101.768L103.877 7.57765Z"/>
        <path d="M61.2023 10.6122C61.2023 4.98669 65.2269 0 72.0528 0C77.4603 0 81.8217 3.56699 81.8217 9.38776C81.8217 15.0133 77.7971 20 70.9713 20C65.5637 20 61.2023 16.4508 61.2023 10.6122ZM67.6204 10.3106C67.6204 12.6353 69.0565 14.4454 71.3258 14.4454C73.8257 14.4454 75.4036 12.2094 75.4214 9.68944C75.4214 7.36468 73.9853 5.55457 71.7159 5.55457C69.1983 5.55457 67.6204 7.80834 67.6204 10.3106Z"/>
        <path d="M39.59 10.6122C39.59 4.98669 43.6146 0 50.4405 0C55.848 0 60.2094 3.56699 60.2094 9.38776C60.2094 15.0133 56.1848 20 49.3589 20C43.9514 20 39.59 16.4508 39.59 10.6122ZM46.0081 10.3106C46.0081 12.6353 47.4442 14.4454 49.7135 14.4454C52.2134 14.4454 53.8091 12.2094 53.8091 9.68944C53.8091 7.36468 52.373 5.55457 50.1036 5.55457C47.586 5.55457 46.0081 7.80834 46.0081 10.3106Z"/>
        <path d="M40.2637 0L38.9872 6.95652H36.3632C33.8988 6.95652 32.8882 8.19876 32.5514 10.2041L30.938 19.6628H24.4844L26.8779 5.99823H23.2079L24.2185 0.354925H33.9343L33.2428 4.06389C34.5548 0.94055 37.4093 0 40.0687 0H40.2637Z"/>
        <path d="M0 5.99822L0.992855 0.354919H10.2477L9.80444 13.8066L15.9743 0.354919H23.2257L13.4567 19.6628H3.67002V5.99822H0Z"/>
    </g>

    <g id="google-play" fill="#fff">
        <path d="m104 .64a3.35 3.35 0 0 1 3.36 3.36v24a3.35 3.35 0 0 1 -3.36 3.36h-100a3.35 3.35 0 0 1 -3.36-3.36v-24a3.35 3.35 0 0 1 3.36-3.36zm0-.64h-100a4 4 0 0 0 -4 4v24a4 4 0 0 0 4 4h100a4 4 0 0 0 4-4v-24a4 4 0 0 0 -4-4z"/>
        <g stroke="#fff" stroke-miterlimit="10" stroke-width=".2">
            <path d="m37.94 8.19a2.14 2.14 0 0 1 -.6 1.6 2.34 2.34 0 0 1 -1.76.71 2.48 2.48 0 0 1 -2.5-2.5 2.38 2.38 0 0 1 .73-1.78 2.42 2.42 0 0 1 1.77-.72 2.36 2.36 0 0 1 1 .2 2 2 0 0 1 .75.53l-.42.43a1.61 1.61 0 0 0 -1.31-.57 1.82 1.82 0 0 0 -1.32.53 1.88 1.88 0 0 0 -.57 1.38 1.84 1.84 0 0 0 .55 1.38 1.87 1.87 0 0 0 1.32.54 1.82 1.82 0 0 0 1.34-.54 1.49 1.49 0 0 0 .4-1h-1.74v-.55h2.32a2.47 2.47 0 0 1 .04.36z"/>
            <path d="m41.62 6.19h-2.18v1.52h2v.58h-2v1.52h2.18v.59h-2.8v-4.8h2.8z"/>
            <path d="m44.22 10.4h-.61v-4.21h-1.35v-.59h3.3v.59h-1.34z"/>
            <path d="m48 10.4v-4.8h.62v4.8z"/>
            <path d="m51.3 10.4h-.61v-4.21h-1.35v-.59h3.3v.59h-1.34z"/>
            <path d="m58.89 9.78a2.51 2.51 0 0 1 -3.52 0 2.48 2.48 0 0 1 -.71-1.78 2.46 2.46 0 0 1 .71-1.78 2.35 2.35 0 0 1 1.76-.72 2.4 2.4 0 0 1 1.76.72 2.59 2.59 0 0 1 0 3.56zm-3.07-.4a1.78 1.78 0 0 0 1.31.53 1.74 1.74 0 0 0 1.3-.53 1.91 1.91 0 0 0 .57-1.38 1.87 1.87 0 0 0 -.54-1.38 1.75 1.75 0 0 0 -1.3-.54 1.79 1.79 0 0 0 -1.31.54 1.9 1.9 0 0 0 -.56 1.38 1.9 1.9 0 0 0 .53 1.38z"/>
            <path d="m60.46 10.4v-4.8h.76l2.33 3.74v-.93-2.81h.62v4.8h-.64l-2.44-3.91v.93 3z"/>
        </g>
        <path d="m54.51 17.4a3.4 3.4 0 1 0 3.42 3.4 3.35 3.35 0 0 0 -3.42-3.4zm0 5.46a2.07 2.07 0 1 1 1.92-2.06 2 2 0 0 1 -1.92 2.06zm-7.45-5.46a3.4 3.4 0 1 0 3.41 3.4 3.36 3.36 0 0 0 -3.41-3.4zm0 5.46a2 2 0 0 1 -1.92-2.06 1.92 1.92 0 1 1 1.92 2.06zm-8.87-4.41v1.44h3.46a3 3 0 0 1 -.79 1.81 3.48 3.48 0 0 1 -2.66 1.06 3.84 3.84 0 0 1 0-7.68 3.69 3.69 0 0 1 2.6 1l1-1a5 5 0 0 0 -3.63-1.46 5.29 5.29 0 1 0 0 10.58 4.67 4.67 0 0 0 4.94-4.86 4.7 4.7 0 0 0 -.08-.9h-4.84zm36.25 1.12a3.15 3.15 0 0 0 -2.91-2.17 3.24 3.24 0 0 0 -3.21 3.4 3.33 3.33 0 0 0 3.38 3.4 3.37 3.37 0 0 0 2.83-1.5l-1.16-.78a1.93 1.93 0 0 1 -1.67.94 1.73 1.73 0 0 1 -1.65-1l4.55-1.86zm-4.64 1.13a1.87 1.87 0 0 1 1.78-2 1.33 1.33 0 0 1 1.26.72zm-3.7 3.3h1.5v-10h-1.5zm-2.44-5.84h-.06a2.36 2.36 0 0 0 -1.79-.76 3.41 3.41 0 0 0 0 6.81 2.31 2.31 0 0 0 1.79-.78v.49a1.75 1.75 0 0 1 -1.82 2 1.89 1.89 0 0 1 -1.71-1.21l-1.3.55a3.22 3.22 0 0 0 3 2c1.75 0 3.23-1 3.23-3.54v-6.11h-1.35v.55zm-1.72 4.7a2 2 0 0 1 -1.9-2 2 2 0 0 1 1.9-2.08 1.92 1.92 0 0 1 1.81 2.08 1.88 1.88 0 0 1 -1.81 2zm19.51-8.86h-3.58v10h1.5v-3.79h2.09a3.11 3.11 0 1 0 0-6.21zm0 4.82h-2.09v-3.44h2.12a1.72 1.72 0 1 1 0 3.44zm9.23-1.44a2.8 2.8 0 0 0 -2.66 1.53l1.33.55a1.4 1.4 0 0 1 1.36-.73 1.42 1.42 0 0 1 1.59 1.27v.1a3.34 3.34 0 0 0 -1.56-.38c-1.43 0-2.88.78-2.88 2.24a2.31 2.31 0 0 0 2.48 2.2 2.11 2.11 0 0 0 1.91-1v.84h1.44v-3.85a2.74 2.74 0 0 0 -2.98-2.77zm-.18 5.48c-.49 0-1.17-.24-1.17-.84 0-.77.85-1.07 1.58-1.07a2.64 2.64 0 0 1 1.36.34 1.8 1.8 0 0 1 -1.74 1.57zm8.5-5.26-1.71 4.34-1.83-4.34h-1.61l2.66 6.06-1.51 3.34h1.56l4.11-9.43zm-13.45 6.4h1.5v-10h-1.5z"/>
        <path d="m26.45 16a1.41 1.41 0 0 0 -.84-1.16s-15.91-9-16-9h-.18-.23a.59.59 0 0 0 -.19 0 .58.58 0 0 0 -.19 0 1 1 0 0 0 -.16.06 1.77 1.77 0 0 0 -.22.1 1.35 1.35 0 0 0 -.26.44.43.43 0 0 1 0 0 2 2 0 0 0 -.1.63v17.78a1.6 1.6 0 0 0 .27 1.15l.06.05a.67.67 0 0 0 .14.09.83.83 0 0 0 .16.09.47.47 0 0 0 .17 0 .78.78 0 0 0 .22 0h.15a1.94 1.94 0 0 0 .75-.23l15.59-8.87a1.41 1.41 0 0 0 .86-1.13zm-18.45-9.25a3.26 3.26 0 0 0 0 .33 3.26 3.26 0 0 1 0-.33z"/>
    </g>

    <g id="apple-store">
        <path d="M88.352.8h.864c.2 0 .4.008.592.008h.144c.496.008.992.048 1.48.128.456.08.896.224 1.296.424.824.424 1.48 1.072 1.896 1.888.208.408.344.84.424 1.296.08.488.128.984.136 1.48v.744c.016.288.016.576.016.864v16.744c0 .288 0 .576-.008.872v.72c-.008.496-.056.992-.136 1.488-.072.448-.216.888-.416 1.288-.208.4-.48.768-.808 1.096-.32.32-.688.592-1.088.792-.416.208-.848.352-1.304.432-.488.08-.992.128-1.496.128-.24.008-.48.008-.728.008H6.768c-.24 0-.48 0-.728-.008-.496-.008-1-.048-1.48-.128-.456-.08-.888-.224-1.296-.432-.408-.208-.776-.472-1.096-.8-.32-.32-.592-.68-.792-1.088-.208-.408-.352-.84-.424-1.296-.08-.488-.128-.984-.136-1.496-.008-.16-.008-.32-.016-.48V6.528c0-.16 0-.32.008-.504.008-.488.056-.984.136-1.472.072-.448.216-.888.424-1.296.208-.408.472-.768.8-1.088.32-.32.688-.592 1.096-.792.408-.216.84-.36 1.296-.432.488-.08.992-.128 1.488-.128H6.2C6.392.808 6.584.8 6.776.8h81.576zm0-.8H6.768c-.24 0-.488.008-.736.008-.536.008-1.072.056-1.608.144-.528.088-1.04.264-1.52.504s-.92.56-1.304.944c-.384.376-.696.816-.944 1.296-.24.48-.416.992-.504 1.52-.088.528-.136 1.064-.144 1.6 0 .248-.008.496-.008.736V25.24c0 .248.008.488.016.736.008.536.056 1.072.144 1.6s.256 1.048.504 1.52c.24.48.56.912.944 1.288.376.384.816.696 1.296.944.48.24.992.416 1.528.504.528.088 1.072.136 1.608.144.24.016.488.024.728.024H89.224c.248 0 .496 0 .736-.008.536-.008 1.072-.056 1.608-.144s1.048-.264 1.528-.504.92-.56 1.296-.944c.384-.376.704-.816.944-1.288.24-.48.408-.992.496-1.52.088-.528.136-1.064.152-1.6v-.736c.016-.296.016-.592.016-.888V7.632c0-.296 0-.584-.008-.872v-.736c-.008-.536-.056-1.072-.152-1.6-.088-.528-.256-1.04-.496-1.52-.496-.96-1.28-1.744-2.248-2.24-.48-.24-1-.408-1.528-.504C91.04.072 90.504.024 89.96.016c-.248 0-.496-.008-.736-.008C88.936 0 88.64 0 88.352 0z"
              fill="#fff"/>
        <path d="M20.056 15.912c.016-1.408.76-2.712 1.968-3.456-.768-1.088-2-1.752-3.328-1.792-1.4-.144-2.76.832-3.472.832-.728 0-1.824-.824-3.008-.8-1.56.048-2.97599.912-3.72799 2.272-1.616 2.784-.408 6.88 1.136 9.128C10.4 23.2 11.304 24.432 12.48 24.384c1.16-.048 1.592-.736 2.984-.736 1.384 0 1.792.736 2.992.712 1.24-.024 2.024-1.104 2.768-2.224.552-.784.984-1.656 1.264-2.576-1.472-.608-2.432-2.048-2.432-3.648zM17.7761 9.184c.68-.808 1.008-1.856.928-2.904-1.032.112-1.992.6-2.672 1.384-.68.768-1.024 1.776-.952 2.8 1.04 0 2.04-.464 2.696-1.28zM33.9361 21.712h-3.8l-.912 2.688h-1.608l3.6-9.936h1.672l3.6 9.936h-1.632l-.92-2.688zm-3.4-1.24h3.008l-1.48-4.36h-.04l-1.488 4.36zM44.2481 20.776c0 2.248-1.208 3.696-3.032 3.696-.944.048-1.832-.44-2.288-1.264h-.032v3.584h-1.488v-9.64h1.44v1.208h.024c.472-.816 1.368-1.312 2.312-1.28 1.8559 0 3.064 1.448 3.064 3.696zm-1.528 0c0-1.464-.76-2.432-1.92-2.432-1.136 0-1.904.984-1.904 2.432 0 1.456.768 2.44 1.904 2.44 1.16 0 1.92-.96 1.92-2.44zM52.248 20.776c0 2.248-1.208 3.696-3.032 3.696-.944.048-1.832-.44-2.2879-1.264h-.0321v3.584h-1.4879v-9.64h1.44v1.208h.024c.472-.816 1.3679-1.312 2.3119-1.28 1.848 0 3.064 1.448 3.064 3.696zm-1.536 0c0-1.464-.76-2.432-1.92-2.432-1.1359 0-1.9039.984-1.9039 2.432 0 1.456.768 2.44 1.9039 2.44 1.16 0 1.92-.96 1.92-2.44zM57.528 21.632c.112.984 1.072 1.632 2.384 1.632 1.256 0 2.16-.648 2.16-1.536 0-.768-.544-1.232-1.84-1.552l-1.288-.312c-1.832-.44-2.68-1.296-2.68-2.68 0-1.712 1.496-2.888 3.624-2.888 2.104 0 3.552 1.176 3.6 2.888h-1.504c-.088-.992-.912-1.592-2.112-1.592-1.2 0-2.024.608-2.024 1.488 0 .704.528 1.112 1.808 1.432l1.096.272c2.048.48 2.896 1.304 2.896 2.752 0 1.856-1.48 3.024-3.848 3.024-2.208 0-3.704-1.136-3.8-2.936l1.528.008zM66.8642 15.44v1.712h1.384v1.176h-1.384v3.992c0 .624.28.912.88.912.16 0 .328-.016.488-.032v1.168c-.272.048-.552.072-.832.072-1.472 0-2.048-.552-2.048-1.952v-4.152h-1.056V17.16h1.056v-1.72h1.512zM69.0481 20.776c0-2.28 1.344-3.712 3.448-3.712s3.448 1.432 3.448 3.712c0 2.288-1.336 3.712-3.448 3.712-2.12 0-3.448-1.424-3.448-3.712zm5.368 0c0-1.56-.72-2.488-1.928-2.488s-1.928.928-1.928 2.488c0 1.568.72 2.488 1.928 2.488s1.928-.92 1.928-2.488zM77.168 17.152h1.424v1.232h.032c.2-.792.928-1.336 1.744-1.312.168 0 .344.016.512.056v1.392c-.216-.064-.44-.096-.672-.088-.832-.032-1.528.608-1.56 1.44 0 .08 0 .152.008.232V24.4h-1.488v-7.248zM87.752 22.272c-.2 1.312-1.488 2.216-3.128 2.216-2.112 0-3.424-1.408-3.424-3.68 0-2.272 1.32-3.744 3.36-3.744 2.008 0 3.272 1.376 3.272 3.576v.512h-5.128v.088c-.096 1.04.68 1.952 1.72 2.048.08.008.16.008.24.008.72.064 1.408-.344 1.68-1.016l1.408-.008zm-5.04-2.168h3.632c.056-.96-.68-1.784-1.648-1.832h-.136c-1.016-.008-1.84.808-1.848 1.824v.008zM30.3441 6.984c1.168-.08 2.184.79201 2.264 1.952.008.13601.008.28-.008.416 0 1.528-.824 2.4-2.256 2.4h-1.728V6.984h1.728zm-.984 4.096h.904c.832.048 1.544-.584 1.592-1.408.008-.104 0-.208-.016-.312.112-.824-.464-1.584-1.288-1.696-.096-.016-.192-.016-.288-.008h-.904v3.424zM33.4402 9.952c-.088-.936.6-1.768 1.544-1.864.944-.088 1.776.6 1.864 1.536.008.112.008.216 0 .328.088.936-.6 1.776-1.536 1.864-.944.088-1.776-.592-1.872-1.536-.016-.104-.016-.216 0-.328zm2.672 0c0-.784-.352-1.24-.968-1.24s-.968.456-.968 1.24.352 1.24.968 1.24.968-.456.968-1.24zM41.376 11.76h-.736l-.744-2.656h-.056l-.744 2.656h-.736l-.992-3.6h.72l.648 2.752h.056l.744-2.752h.68l.744 2.752h.056l.64-2.752h.712l-.992 3.6zM43.2 8.152h.688v.576h.056c.184-.424.616-.68 1.08-.64.648-.048 1.208.432 1.256 1.08.008.088 0 .176-.008.256v2.328h-.712V9.6c0-.576-.256-.864-.776-.864-.456-.024-.848.328-.864.784v2.232h-.72v-3.6zM47.4081 6.752h.712v5.008h-.712V6.752zM49.1121 9.952c-.088-.936.6-1.768 1.544-1.864.944-.088 1.776.6 1.864 1.536.008.112.008.216 0 .328.088.936-.6 1.776-1.536 1.864-.944.088-1.776-.592-1.872-1.536-.008-.104-.008-.216 0-.328zm2.672 0c0-.784-.352-1.24-.968-1.24s-.968.456-.968 1.24.352 1.24.968 1.24.968-.456.968-1.24zM53.272 10.736c0-.648.488-1.024 1.344-1.072l.976-.056v-.312c0-.384-.256-.592-.736-.592-.4 0-.672.144-.752.4h-.688c.072-.616.656-1.016 1.48-1.016.904 0 1.416.448 1.416 1.208v2.464h-.688v-.504h-.056c-.232.368-.648.584-1.088.568-.6.064-1.136-.376-1.2-.968-.008-.048-.008-.08-.008-.12zm2.32-.304v-.304l-.88.056c-.496.032-.72.2-.72.52 0 .328.28.512.672.512.464.048.888-.296.936-.76-.008-.008-.008-.016-.008-.024zM57.2401 9.952c0-1.136.5839-1.856 1.4959-1.856.464-.024.896.224 1.104.632h.056V6.752h.712v5.008h-.68v-.568h-.056c-.232.4-.672.648-1.136.632-.92-.008-1.4959-.728-1.4959-1.872zm.7359 0c0 .768.36 1.224.968 1.224.6 0 .976-.464.976-1.224 0-.752-.376-1.224-.976-1.224-.6.008-.968.472-.968 1.224zM63.56 9.952c-.088-.936.6-1.768 1.544-1.864.944-.096 1.776.6 1.864 1.536.008.112.008.216 0 .328.088.936-.6 1.776-1.536 1.864-.944.088-1.776-.592-1.872-1.536-.008-.104-.008-.216 0-.328zm2.672 0c0-.784-.352-1.24-.968-1.24s-.968.456-.968 1.24.352 1.24.968 1.24c.624 0 .968-.456.968-1.24zM67.9282 8.152h.688v.576h.056c.184-.424.616-.68 1.08-.64.648-.048 1.208.432 1.256 1.08.008.088 0 .176-.008.256v2.328h-.712V9.6c0-.576-.256-.864-.776-.864-.456-.024-.848.328-.864.784v2.232h-.712v-3.6h-.008zM75.024 7.256v.912h.784v.6h-.784v1.856c0 .376.152.544.512.544.088 0 .184-.008.272-.016v.592c-.128.024-.256.032-.384.04-.792 0-1.112-.28-1.112-.976V8.776h-.576v-.6h.576v-.92h.712zM76.7761 6.752h.704v1.984h.056c.192-.424.632-.68 1.104-.648.656-.032 1.216.464 1.256 1.12.008.072 0 .152-.008.224v2.328h-.712V9.608c0-.576-.272-.864-.776-.864-.464-.04-.872.304-.912.768v2.248h-.712V6.752zM84.048 10.784c-.2.68-.856 1.12-1.568 1.04-.904.024-1.656-.688-1.68-1.592 0-.088 0-.176.016-.264-.12-.912.52-1.744 1.432-1.864.08-.008.16-.016.232-.016 1.008 0 1.608.688 1.608 1.816v.248h-2.552v.04c-.048.528.344.984.872 1.032h.088c.352.04.688-.128.856-.44h.696zm-2.512-1.16h1.824c.032-.48-.328-.896-.808-.928h-.088c-.512-.008-.928.4-.936.912.008 0 .008.008.008.016z"
              fill="#fff"/>
    </g>

    <path id="facebook"
          d="M5 3h14a2 2 0 0 1 2 2v14a2 2 0 0 1-2 2H5a2 2 0 0 1-2-2V5a2 2 0 0 1 2-2m13 2h-2.5A3.5 3.5 0 0 0 12 8.5V11h-2v3h2v7h3v-7h3v-3h-3V9a1 1 0 0 1 1-1h2V5z"/>

    <path id="twitter"
          d="M22.46 6c-.77.35-1.6.58-2.46.69.88-.53 1.56-1.37 1.88-2.38-.83.5-1.75.85-2.72 1.05C18.37 4.5 17.26 4 16 4c-2.35 0-4.27 1.92-4.27 4.29 0 .34.04.67.11.98C8.28 9.09 5.11 7.38 3 4.79c-.37.63-.58 1.37-.58 2.15 0 1.49.75 2.81 1.91 3.56-.71 0-1.37-.2-1.95-.5v.03c0 2.08 1.48 3.82 3.44 4.21a4.22 4.22 0 0 1-1.93.07 4.28 4.28 0 0 0 4 2.98 8.521 8.521 0 0 1-5.33 1.84c-.34 0-.68-.02-1.02-.06C3.44 20.29 5.7 21 8.12 21 16 21 20.33 14.46 20.33 8.79c0-.19 0-.37-.01-.56.84-.6 1.56-1.36 2.14-2.23z"/>

    <path id="instagram"
          d="M7.8 2h8.4C19.4 2 22 4.6 22 7.8v8.4a5.8 5.8 0 0 1-5.8 5.8H7.8C4.6 22 2 19.4 2 16.2V7.8A5.8 5.8 0 0 1 7.8 2m-.2 2A3.6 3.6 0 0 0 4 7.6v8.8C4 18.39 5.61 20 7.6 20h8.8a3.6 3.6 0 0 0 3.6-3.6V7.6C20 5.61 18.39 4 16.4 4H7.6m9.65 1.5a1.25 1.25 0 0 1 1.25 1.25A1.25 1.25 0 0 1 17.25 8 1.25 1.25 0 0 1 16 6.75a1.25 1.25 0 0 1 1.25-1.25M12 7a5 5 0 0 1 5 5 5 5 0 0 1-5 5 5 5 0 0 1-5-5 5 5 0 0 1 5-5m0 2a3 3 0 0 0-3 3 3 3 0 0 0 3 3 3 3 0 0 0 3-3 3 3 0 0 0-3-3z"/>

    <path id="chevron-down"
          d="M10.7343 0L5.96825 4.70318L1.26485 0.0609197L0 1.30933L5.96825 7.2L12 1.24841L10.7343 0Z"/>

    <path id="chevron-up"
          d="M1.26575 7.20001L6.03176 2.49684L10.7351 7.13909L12 5.89068L6.03176 1.23827e-05L1.15754e-07 5.9516L1.26575 7.20001Z"/>

    <path id="close-small"
          d="M0.104837 0.854754L0.959055 0L4.0526 3.09357L7.04095 0.105452L7.89517 0.959602L4.90678 3.94775L8.00001 7.041L7.14579 7.89515L4.05243 4.80203L0.854218 7.99999L0 7.14584L3.19821 3.94789L0.104837 0.854754Z"/>

    <path id="close-large"
          d="M0.157246 1.28213L1.43857 0L6.0789 4.64036L10.5614 0.158186L11.8428 1.43941L7.36017 5.92164L12 10.5615L10.7187 11.8427L6.07865 7.20306L1.28133 12L0 10.7188L4.79732 5.92184L0.157246 1.28213Z"/>

    <rect id="minus" width="16" height="2"/>

    <path id="plus" d="M9 0H7V7H0V9H7V16H9V9H16V7H9V0Z"/>

    <circle id="bullet" cx="3" cy="3" r="3"/>

    <path id="loading"
          d="M14 8C14 11.3137 11.3137 14 8 14C4.68629 14 2 11.3137 2 8H0C0 6.94942 0.206927 5.90914 0.608965 4.93853C1.01024 3.96977 1.59804 3.08937 2.33891 2.34739C0.893683 3.79477 0 5.79302 0 8C0 12.4183 3.58172 16 8 16C12.4183 16 16 12.4183 16 8C16 3.58172 12.4183 0 8 0C5.79302 0 3.79477 0.893682 2.34739 2.3389C3.08937 1.59803 3.96978 1.01023 4.93854 0.608961C5.90914 0.206924 6.94943 0 8 0V2C11.3137 2 14 4.68629 14 8Z"/>

    <path id="caret-left"
          d="M8.60304 16L10 14.6941L2.7949 7.95844L9.9101 1.30593L8.51215 -1.30072e-07L-2.50659e-07 7.95844L8.60304 16Z"/>

    <path id="caret-right" d="M1.39696 0L0 1.30593L7.2051 8.04156L0.0899032 14.6941L1.48785 16L10 8.04156L1.39696 0Z"/>

    <g id="caret-double-left">
        <path d="M8.60304 16L10 14.6941L2.7949 7.95844L9.9101 1.30593L8.51215 -1.30072e-07L-2.50659e-07 7.95844L8.60304 16Z"/>
        <path d="M18.603 16L20 14.6941L12.7949 7.95844L19.9101 1.30593L18.5122 -1.30072e-07L10 7.95844L18.603 16Z"/>
    </g>

    <g id="caret-double-right">
        <path d="M1.39696 0L0 1.30593L7.2051 8.04156L0.0899032 14.6941L1.48785 16L10 8.04156L1.39696 0Z"/>
        <path d="M11.397 0L10 1.30593L17.2051 8.04156L10.0899 14.6941L11.4878 16L20 8.04156L11.397 0Z"/>
    </g>

    <g id="arrow-left">
        <path d="M8.60304 16L10 14.6941L2.7949 7.95844L9.9101 1.30593L8.51215 -1.30072e-07L-2.50659e-07 7.95844L8.60304 16Z"/>
        <rect x="2" y="7" width="14" height="2"/>
    </g>

    <g id="arrow-right">
        <path d="M7.39696 0L6 1.30593L13.2051 8.04156L6.0899 14.6941L7.48785 16L16 8.04156L7.39696 0Z"/>
        <rect y="7" width="14" height="2"/>
    </g>

    <g id="image-expand">
        <rect width="6" height="2"/>
        <rect x="16" y="16" width="6" height="2" transform="rotate(-180 16 16)"/>
        <rect x="16" width="6" height="2" transform="rotate(90 16 0)"/>
        <rect y="16" width="6" height="2" transform="rotate(-90 0 16)"/>
        <rect width="2" height="6"/>
        <rect x="16" y="16" width="2" height="6" transform="rotate(-180 16 16)"/>
        <rect x="16" width="2" height="6" transform="rotate(90 16 0)"/>
        <rect y="16" width="2" height="6" transform="rotate(-90 0 16)"/>
    </g>

    <g id="image-contract">
        <rect x="6" y="6" width="6" height="2" transform="rotate(180 6 6)"/>
        <rect x="10" y="10" width="6" height="2"/>
        <rect x="10" y="6" width="6" height="2" transform="rotate(-90 10 6)"/>
        <rect x="6" y="10" width="6" height="2" transform="rotate(90 6 10)"/>
        <rect x="6" y="6" width="2" height="6" transform="rotate(180 6 6)"/>
        <rect x="10" y="10" width="2" height="6"/>
        <rect x="10" y="6" width="2" height="6" transform="rotate(-90 10 6)"/>
        <rect x="6" y="10" width="2" height="6" transform="rotate(90 6 10)"/>
    </g>

    <g id="checkmark-large">
        <rect width="3.28968" height="7.67593" transform="matrix(0.729523 -0.683956 0.729523 0.683956 0 6.75006)"/>
        <rect width="14.2553" height="3.28968" transform="matrix(0.729523 -0.683956 0.729523 0.683956 3.20044 9.75)"/>
    </g>

    <g id="checkmark-small">
        <rect width="2.46726" height="5.75693" transform="matrix(0.729523 -0.683956 0.729523 0.683956 0 5.06256)"/>
        <rect width="10.6914" height="2.46726" transform="matrix(0.729523 -0.683956 0.729523 0.683956 2.40039 7.3125)"/>
    </g>

    <path id="star" d="M8 11.2516L12.944 14L11.632 8.82L16 5.33474L10.248 4.88526L8 0L5.752 4.88526L0 5.33474L4.368 8.82L3.056 14L8 11.2516Z"/>

    <path id="star-half" d="M10.248 4.87789L16 5.33474L11.64 8.82L12.944 14L8 11.2516L3.056 14L4.368 8.82L0 5.33474L5.752 4.88526L8 0L10.248 4.87789ZM8 3.02103V9.87366L11.016 11.5537L10.216 8.39998L12.872 6.27787L9.368 5.99787L8 3.02103Z"/>

    <path id="star-empty" d="M8.30367 10.7053L8 10.5365L7.69633 10.7053L4.01719 12.7506L4.97387 8.97346L5.07281 8.5828L4.75781 8.33146L1.62831 5.8344L5.80069 5.50836L6.16642 5.47978L6.31977 5.14653L8 1.49512L9.68023 5.14653L9.83358 5.47978L10.1993 5.50836L14.3717 5.8344L11.2422 8.33146L10.9272 8.5828L11.0261 8.97346L11.9828 12.7506L8.30367 10.7053Z" stroke-width="1.25"/>
    <path id="favorite" d="M13.5413 0C12.3792 0 11.2172 0.427296 10.3301 1.28119L9.00027 2.56308L7.67043 1.28119C6.78338 0.427296 5.6213 0 4.45922 0C3.29641 0 2.13433 0.427296 1.248 1.28119C-0.526081 2.99038 -0.30216 5.37865 1.248 7.46866C3.32377 10.269 9.00027 16 9.00027 16C9.00027 16 14.6768 10.269 16.7525 7.46866C18.302 5.37865 18.5259 2.99038 16.7525 1.28119C15.8662 0.427296 14.7034 0 13.5413 0ZM13.541 1.7501C14.2689 1.7501 14.953 2.0234 15.4678 2.51867C15.966 2.99799 16.1993 3.54391 16.1827 4.18832C16.164 4.89238 15.8501 5.67483 15.2741 6.45174C13.8967 8.30936 10.7813 11.6015 8.99997 13.4445C7.21869 11.6015 4.10396 8.31075 2.72587 6.45174C2.14987 5.67483 1.83595 4.89238 1.81723 4.18832C1.80067 3.54391 2.03395 2.99799 2.53147 2.51867C3.04627 2.0234 3.73099 1.7501 4.45892 1.7501C5.18612 1.7501 5.87084 2.0234 6.38564 2.51867L7.71549 3.80056L8.99997 5.03805L10.2845 3.80056L11.6143 2.51867C12.1291 2.0234 12.8131 1.7501 13.541 1.7501Z"/>

    <path id="favorite-selected" d="M13.5413 0C12.3792 0 11.2172 0.427296 10.3301 1.28119L9.00027 2.56308L7.67043 1.28119C6.78338 0.427296 5.6213 0 4.45922 0C3.29641 0 2.13433 0.427296 1.248 1.28119C-0.526081 2.99038 -0.30216 5.37865 1.248 7.46866C3.32377 10.269 9.00027 16 9.00027 16C9.00027 16 14.6768 10.269 16.7525 7.46866C18.302 5.37865 18.5259 2.99038 16.7525 1.28119C15.8662 0.427296 14.7034 0 13.5413 0Z"/>

    <path id="search" fill-rule="evenodd" d="M16 7.99386C16 11.3027 13.3152 13.9877 10 13.9877C6.68484 13.9877 4 11.3027 4 7.99386C4 4.68499 6.68484 2 10 2C13.3152 2 16 4.68499 16 7.99386ZM18 7.99386C18 12.4087 14.4183 15.9877 10 15.9877C8.15483 15.9877 6.45556 15.3635 5.10214 14.3149L1.41421 18L0 16.5869L3.68619 12.9035C2.62948 11.5486 2 9.84469 2 7.99386C2 3.57897 5.58172 0 10 0C14.4183 0 18 3.57897 18 7.99386Z"/>

    <g id="menu">
        <rect width="18" height="2"/>
        <rect y="7" width="12" height="2"/>
        <rect y="14" width="6" height="2"/>
    </g>

    <g id="sort">
        <path fill-rule="evenodd" clip-rule="evenodd" d="M5 0L0 6.87037L1.49867 7.96L4.07352 4.42148V15H5.92648V4.42148L8.50134 7.96L10 6.87037L5 0Z"/>
        <path fill-rule="evenodd" clip-rule="evenodd" d="M13 20L18 13.1296L16.5013 12.04L13.9265 15.5785L13.9265 5L12.0735 5L12.0735 15.5785L9.49867 12.04L8 13.1296L13 20Z"/>
    </g>

    <path id="filter" fill-rule="evenodd" clip-rule="evenodd" d="M14 4.5C14.8284 4.5 15.5 3.82843 15.5 3C15.5 2.17157 14.8284 1.5 14 1.5C13.1716 1.5 12.5 2.17157 12.5 3C12.5 3.82843 13.1716 4.5 14 4.5ZM14 6C15.3062 6 16.4175 5.16519 16.8293 4H20V2H16.8293C16.4175 0.834808 15.3062 0 14 0C12.6938 0 11.5825 0.834808 11.1707 2H3V4H11.1707C11.5825 5.16519 12.6938 6 14 6ZM8.82929 12L17 12V10L8.82929 10C8.41746 8.83481 7.30622 8 6 8C4.69378 8 3.58254 8.83481 3.17071 10H0V12H3.17071C3.58254 13.1652 4.69378 14 6 14C7.30622 14 8.41746 13.1652 8.82929 12ZM4.5 11C4.5 10.1716 5.17157 9.5 6 9.5C6.82843 9.5 7.5 10.1716 7.5 11C7.5 11.8284 6.82843 12.5 6 12.5C5.17157 12.5 4.5 11.8284 4.5 11Z"/>

    <g id="cart-empty">
        <path fill-rule="evenodd" clip-rule="evenodd" d="M0.571429 0H4V1V2V11H13.9091L17.0909 4H8L8.5 2H18H20L15 13H13H4H2V11V2H0L0.571429 0Z"/>
        <circle cx="4.5" cy="16.5" r="1.5" />
        <circle cx="11.5" cy="16.5" r="1.5" />
    </g>

    <g id="cart-filled">
        <path fill-rule="evenodd" clip-rule="evenodd" d="M4 0H0.571429L0 2H2V11V13H4H13H15L20 2H18L13.9091 11H4V2V1V0Z"/>
        <circle cx="4.5" cy="16.5" r="1.5" />
        <circle cx="11.5" cy="16.5" r="1.5" />
        <circle cx="10" cy="5" r="4" fill="#E7131A"/>
    </g>

    <path id="edit" d="M5.19 6.8L12 0L14 2L7.2 8.81L5 9L5.19 6.8ZM12 14H2V2H7V0H0V16H14V7H12V14Z"/>

    <path id="login" fill-rule="evenodd" clip-rule="evenodd" d="M16.8351 16.5917C17.7573 16.968 18.3232 17.4893 18.6548 18.0566C19.3093 17.353 19.8695 16.5763 20.324 15.7363C20.9642 14.5546 21.3692 13.297 21.5273 12C21.6855 10.703 21.5873 9.44544 21.2348 8.26368C20.8947 7.12128 20.3326 6.09408 19.5647 5.21184C18.7958 4.3296 17.8612 3.63648 16.7855 3.1536C15.6737 2.65344 14.457 2.4 13.1699 2.4C11.8827 2.4 10.6041 2.65344 9.37033 3.1536C8.17654 3.63648 7.07327 4.3296 6.09004 5.21184C5.10681 6.09408 4.29507 7.12128 3.67579 8.26368C3.03555 9.44544 2.63064 10.703 2.47248 12C2.31433 13.297 2.41341 14.5546 2.76497 15.7363C3.0184 16.5859 3.39378 17.3712 3.8854 18.0806C3.91874 18.0413 3.95209 18.0038 3.98639 17.9654C4.49515 17.4096 5.18208 16.9632 6.02906 16.6397C7.361 16.1299 9.10832 15.8928 11.5254 15.8928C14.014 15.8928 15.6518 16.1078 16.8351 16.5917ZM7.21442 20.8464C8.32627 21.3466 9.54292 21.6 10.8301 21.6C12.1172 21.6 13.3958 21.3466 14.6296 20.8464C15.3394 20.5594 16.0158 20.1975 16.6551 19.7664C16.5932 19.4007 16.3455 19.0915 15.7043 18.8304C14.8183 18.4685 13.3558 18.2928 11.2331 18.2928C9.18564 18.2928 7.63839 18.4867 6.63801 18.8698C5.92346 19.1424 5.60715 19.4554 5.45947 19.7731C5.99205 20.2013 6.57799 20.5603 7.21442 20.8464ZM0.0907259 12C0.898651 5.37312 6.88472 0 13.4625 0C20.0402 0 24.7172 5.37312 23.9093 12C23.1013 18.6269 17.1153 24 10.5375 24C3.96076 24 -0.717199 18.6269 0.0907259 12ZM9.44615 9.74967C9.25465 11.3212 10.3674 12.5999 11.9271 12.5999C13.4867 12.5999 14.9111 11.3212 15.1026 9.74967C15.2941 8.17815 14.1813 6.90039 12.6216 6.90039C11.062 6.90039 9.63765 8.17815 9.44615 9.74967ZM7.0645 9.74965C7.41797 6.85045 10.0371 4.49941 12.9143 4.49941C15.7916 4.49941 17.8381 6.85045 17.4846 9.74965C17.1312 12.6498 14.5121 14.9999 11.6348 14.9999C8.75752 14.9999 6.71103 12.6498 7.0645 9.74965Z"/>

    <g id="exit">
        <path fill-rule="evenodd" clip-rule="evenodd" d="M20 8L13.1296 3L12.04 4.49867L15.5785 7.07352L5 7.07352L4.5 8.92647L15.5785 8.92647L12.04 11.5013L13.1296 13L20 8Z"/>
        <path fill-rule="evenodd" clip-rule="evenodd" d="M11.5 0H4H2L0 16H2H9L9.5 14H2.25L3.75 2H11L11.5 0Z"/>
    </g>

    <g id="lock">
        <path fill-rule="evenodd" clip-rule="evenodd" d="M11.0428 2.47395C11.747 2.99078 12.1661 3.94968 12.0683 5.00342H6.10219C6.20121 4.50307 6.41868 3.99016 6.77829 3.50019C7.98986 1.84941 9.93354 1.65982 11.0428 2.47395ZM4.0835 5.00342C4.19971 4.07669 4.55701 3.1465 5.16595 2.31683C6.91439 -0.0654359 10.0754 -0.716958 12.2262 0.86161C13.5353 1.82245 14.1684 3.38804 14.0692 5.00342H16L14 16.0034H0L2 5.00342H4.0835ZM2.43961 13.8034L3.63961 7.20342H13.5604L12.3604 13.8034H2.43961Z"/>
        <path fill-rule="evenodd" clip-rule="evenodd" d="M8.6517 10.2619C8.86495 10.0785 9 9.80674 9 9.50342C9 8.95113 8.55228 8.50342 8 8.50342C7.44772 8.50342 7 8.95113 7 9.50342C7 9.75156 7.09038 9.97859 7.24001 10.1534L6.5 12.0034H9L8.6517 10.2619Z" />
    </g>

    <g id="feedback-error">
        <path fill-rule="evenodd" clip-rule="evenodd" d="M8 15C11.866 15 15 11.866 15 8C15 4.13401 11.866 1 8 1C4.13401 1 1 4.13401 1 8C1 11.866 4.13401 15 8 15ZM8 16C12.4183 16 16 12.4183 16 8C16 3.58172 12.4183 0 8 0C3.58172 0 0 3.58172 0 8C0 12.4183 3.58172 16 8 16Z" />
        <path d="M8.70073 9.26761L10 3H7.53285L6.61314 9.26761H8.70073ZM6 11.7042C6 12.4225 6.59854 13 7.34307 13C8.08759 13 8.68613 12.4225 8.68613 11.7042C8.68613 10.9859 8.08759 10.4085 7.34307 10.4085C6.59854 10.4085 6 10.9859 6 11.7042Z" />
    </g>

    <g id="feedback-info">
        <path fill-rule="evenodd" clip-rule="evenodd" d="M8 15C11.866 15 15 11.866 15 8C15 4.13401 11.866 1 8 1C4.13401 1 1 4.13401 1 8C1 11.866 4.13401 15 8 15ZM8 16C12.4183 16 16 12.4183 16 8C16 3.58172 12.4183 0 8 0C3.58172 0 0 3.58172 0 8C0 12.4183 3.58172 16 8 16Z" />
        <path d="M7.33333 4.33333C7.33333 5.07246 7.92754 5.66667 8.66667 5.66667C9.4058 5.66667 10 5.07246 10 4.33333C10 3.5942 9.4058 3 8.66667 3C7.92754 3 7.33333 3.5942 7.33333 4.33333ZM9.7971 6.26087H6.34783L6 8.21739H7.18841L6.34783 13H8.6087L9.7971 6.26087Z" />
    </g>

    <g id="feedback-question">
        <path fill-rule="evenodd" clip-rule="evenodd" d="M8 15C11.866 15 15 11.866 15 8C15 4.13401 11.866 1 8 1C4.13401 1 1 4.13401 1 8C1 11.866 4.13401 15 8 15ZM8 16C12.4183 16 16 12.4183 16 8C16 3.58172 12.4183 0 8 0C3.58172 0 0 3.58172 0 8C0 12.4183 3.58172 16 8 16Z" />
        <path d="M6.35211 9.47222H8.3662L8.74648 8.44444C10.5352 7.94444 11 6.58333 11 5.65278C11 4.13889 9.87324 3 8.14085 3C6.70423 3 5.05634 3.76389 5 5.90278H7.01408L7.04225 5.73611C7.09859 5.375 7.40845 5 7.87324 5C8.3662 5 8.67606 5.34722 8.67606 5.76389C8.67606 6.27778 8.29577 6.98611 7.09859 7.15278L6.78873 7.18056L6.35211 9.47222ZM5.84507 11.7222C5.84507 12.4306 6.42254 13 7.14085 13C7.85915 13 8.43662 12.4306 8.43662 11.7222C8.43662 11.0139 7.85915 10.4444 7.14085 10.4444C6.42254 10.4444 5.84507 11.0139 5.84507 11.7222Z" />
    </g>

    <g id="feedback-success">
        <rect width="1.64484" height="3.83795" transform="matrix(0.729525 -0.683954 0.729525 0.683954 4 8.375)" />
        <rect width="7.12763" height="1.64484" transform="matrix(0.729525 -0.683954 0.729525 0.683954 5.60034 9.87494)" />
        <path fill-rule="evenodd" clip-rule="evenodd" d="M8 15C11.866 15 15 11.866 15 8C15 4.13401 11.866 1 8 1C4.13401 1 1 4.13401 1 8C1 11.866 4.13401 15 8 15ZM8 16C12.4183 16 16 12.4183 16 8C16 3.58172 12.4183 0 8 0C3.58172 0 0 3.58172 0 8C0 12.4183 3.58172 16 8 16Z"/>
    </g>

    <path id="phone" fill-rule="evenodd" clip-rule="evenodd" d="M3.46015 2.84003C3.91026 1.16645 5.4567 0 7.22535 0H15.5716L12.976 7.61905H9.11524L7.72474 12.381H12.0611L10.1144 20H3.89548C1.34268 20 -0.519396 17.6365 0.130274 15.221L3.46015 2.84003ZM7.22535 1.90476C6.34103 1.90476 5.56781 2.48799 5.34275 3.32477L2.01288 15.7057C1.68804 16.9135 2.61908 18.0952 3.89548 18.0952H8.59442L9.56777 14.2857H5.14395L7.64684 5.71429H11.5729L12.8707 1.90476H7.22535ZM19.9489 11.1184C20.2863 8.75272 19.8265 6.29004 18.3196 4.39423L19.8562 3.22482C21.7559 5.61472 22.2696 8.62823 21.8769 11.3816C21.4859 14.1233 20.1791 16.7337 18.2613 18.3421L16.9944 16.8959C18.4833 15.6472 19.6099 13.4957 19.9489 11.1184ZM15.8082 10.436C15.9115 9.47593 15.6928 8.63877 15.358 8.14733L16.9777 7.09076C17.6162 8.0279 17.8842 9.3336 17.7442 10.6354C17.6021 11.9565 17.0322 13.3582 15.8827 14.483L14.5062 13.1361C15.3034 12.356 15.707 11.3769 15.8082 10.436Z"/>

    <path id="hot" d="M9.93649 6.75C9.53651 4.2525 7.21355 1.8225 3.78295 0C3.89064 0.75 4.10601 3.51 2.69069 4.17C2.49897 4.2698 2.28498 4.322 2.06765 4.322C1.85031 4.322 1.63633 4.2698 1.4446 4.17C1.12696 4.54233 0.843812 4.94139 0.59849 5.3625C0.0154158 6.44261 -0.148454 7.69156 0.136975 8.88C0.346923 9.58687 0.722275 10.2366 1.23348 10.778C1.74469 11.3194 2.37781 11.7377 3.08298 12C3.40842 10.739 4.14873 9.61672 5.19057 8.805C6.22681 9.64034 6.99341 10.7498 7.39815 12C9.23652 11.34 10.2749 8.865 9.93649 6.75ZM7.82121 9.6375C7.21835 8.52164 6.2786 7.61319 5.12904 7.035C3.96826 7.6679 3.01591 8.60949 2.38302 9.75C0.952319 8.46 1.74459 6.3525 2.13688 5.7075C2.59521 5.71168 3.04823 5.61152 3.45989 5.415C3.9493 5.13152 4.36807 4.74565 4.68598 4.28522C5.00389 3.82479 5.21302 3.30129 5.29826 2.7525C6.77511 3.9075 8.1212 5.355 8.37503 6.9675C8.47678 7.42329 8.48009 7.89474 8.38474 8.35184C8.28939 8.80894 8.09748 9.24168 7.82121 9.6225V9.6375Z"/>
</svg>