<?xml version="1.0" standalone="no"?>
<!DOCTYPE svg PUBLIC "-//W3C//DTD SVG 20010904//EN"
 "http://www.w3.org/TR/2001/REC-SVG-20010904/DTD/svg10.dtd">
<svg version="1.0" xmlns="http://www.w3.org/2000/svg"
 width="180.000000pt" height="180.000000pt" viewBox="0 0 180.000000 180.000000"
 preserveAspectRatio="xMidYMid meet">
<metadata>
Created by potrace 1.11, written by Peter Selinger 2001-2013
</metadata>
<g transform="translate(0.000000,180.000000) scale(0.100000,-0.100000)"
fill="#000000" stroke="none">
<path d="M745 1713 c-260 -44 -470 -176 -607 -385 -47 -71 -102 -196 -112
-254 -3 -16 -10 -51 -15 -79 -12 -61 -7 -262 8 -327 39 -169 116 -310 235
-433 71 -73 172 -155 189 -154 7 0 59 64 116 142 l104 141 -29 24 c-180 150
-247 278 -245 470 0 80 1 89 21 162 40 153 211 318 355 344 17 3 41 8 55 11
119 24 286 -16 390 -94 167 -126 243 -368 181 -582 -37 -128 -79 -187 -225
-311 l-29 -25 110 -146 110 -146 58 46 c213 167 346 381 375 602 8 65 6 255
-4 299 -58 254 -171 424 -371 557 -74 49 -207 109 -265 120 -121 23 -156 28
-235 29 -49 2 -126 -4 -170 -11z"/>
</g>
</svg>
