<svg version="1.0" xmlns="http://www.w3.org/2000/svg" width="260.000000pt" height="260.000000pt" viewBox="0 0 260.000000 260.000000" preserveAspectRatio="xMidYMid meet">
  <g transform="translate(0.000000,260.000000) scale(0.100000,-0.100000)" fill="#000000" stroke="none">
    <path d="M1125 2590 c-560 -88 -984 -488 -1102 -1040 -25 -119 -25 -382 1
    -500 59 -270 169 -474 360 -665 195 -194 398 -305 666 -362 119 -25 382 -25
    500 1 259 56 468 166 652 344 196 189 317 410 375 682 28 131 25 382 -5 520
    -113 508 -502 894 -1012 1005 -89 19 -350 28 -435 15z m135 -897 c0 -54 -5
    -221 -10 -372 -6 -150 -9 -275 -7 -277 2 -3 80 165 173 371 l169 375 203 0
    c190 0 202 -1 194 -17 -5 -10 -127 -258 -272 -550 l-264 -533 -273 0 -273 0
    -2 388 -3 387 -103 3 c-100 3 -102 3 -97 25 2 12 14 78 25 147 12 69 23 131
    25 138 3 9 64 12 260 12 l255 0 0 -97z"/>
  </g>
</svg>
