<svg fill="none" height="48" viewBox="0 0 64 48" width="64" xmlns="http://www.w3.org/2000/svg" xmlns:xlink="http://www.w3.org/1999/xlink"><clipPath id="a"><path d="m0 0h64v48h-64z"/></clipPath><g clip-path="url(#a)"><path clip-rule="evenodd" d="m17.561 23.9415c.4176-.0002.8188.1528 1.1178.4263.2989.2734.472.6456.4822 1.0371v1.4634h8.9756c1.7759.0004 3.4867.6273 4.7922 1.7561l.2029.1829c.3595.3497.7896.6287 1.2653.821.4757.1922.9875.2937 1.5054.2985h10.5366c1.1261.0002 2.2164.3709 3.0807 1.0475.8644.6767 1.448 1.6162 1.6491 2.655l5.2449-2.3122c2.5131-1.2073 5.7287-.6 7.0243 1.8731 1.2957 2.4732.4293 5.0635-2.2243 6.6805l-13.4557 6.5195c-3.6136 1.7561-11.0751 2.1147-14.9151.8927l-13.6819-2.5536v1.6609c0 .3979-.1686.7794-.4687 1.0607-.3.2813-.707.4393-1.1313.4393h-10.1932c-.96652.001-1.92379-.1765-2.81714-.5224s-1.70528-.8533-2.38945-1.4933c-.68416-.6401-1.227156-1.4002-1.597978-2.237-.370821-.8368-.56220759-1.7338-.563232-2.6399v-15.5342c.0101871-.3914.183245-.7636.482206-1.0371.298961-.2734.700124-.4264 1.117794-.4263zm1.6 17.7365 14.5092 2.722c3.2235 1.0171 9.7952.7317 12.6127-.6659l13.2683-6.4463c.2647-.1184.5007-.2863.6938-.4932.193-.207.3389-.4487.4288-.7104s.1218-.5378.0939-.8115c-.028-.2736-.1153-.5391-.2565-.78-.4136-.7903-1.5844-.9805-2.6849-.4903l-7.8751 3.4537c-.4489.4603-.9951.8281-1.6037 1.0801-.6087.2519-1.2666.3824-1.9319.3833h-9.6156c-.4233 0-.8293-.1576-1.1286-.4383-.2993-.2806-.4675-.6612-.4675-1.058 0-.3969.1682-.7775.4675-1.0581s.7053-.4383 1.1286-.4383h9.6c.3221.0003.6372-.0888.9054-.2561.1205-.2243.3006-.4159.5229-.5561.1125-.2113.1713-.4442.1717-.6805.0001-.3915-.1631-.7676-.4547-1.0479-.2917-.2803-.6887-.4425-1.1063-.4521h-10.5366c-1.8718-.0002-3.6675-.6946-4.9951-1.9317-.7269-.6759-1.7079-1.0569-2.7317-1.0609h-9.0146zm-3.2-14.7512h-12.761v14.0708c.00207 1.035.44209 2.0269 1.22348 2.7581s1.8403 1.1419 2.94432 1.1419h8.5854v-17.9708zm3.3795-26.9268c2.2552.00101911 4.4363.754886 6.1525 2.12652 1.7163 1.37163 2.8554 3.27138 3.2133 5.35885h27.3171c.4244 0 .8313.15803 1.1314.43934.3.2813.4686.66283.4686 1.06066 0 .39782-.1686.77935-.4686 1.06063-.3001.2813-.707.4394-1.1314.4394h-3.2v5.978c-.01.3704-.1651.7243-.4358.9942-.2706.2699-.6378.437-1.0315.4692h-.1561c-.414 0-.811-.1542-1.1038-.4286-.2927-.2744-.4572-.6467-.4572-1.0348v-5.978h-4.839v5.978c-.01.3704-.1651.7243-.4358.9942s-.6379.437-1.0315.4692h-.1327c-.2083.0049-.4154-.0293-.6094-.1007-.1939-.0713-.3706-.1784-.5197-.3147-.1491-.1364-.2676-.2994-.3485-.4794-.0808-.18-.1225-.3733-.1224-.5686v-5.978h-12.9171c-.3583 2.086-1.498 3.984-3.2146 5.3532-1.7165 1.3693-3.8974 2.12-6.1512 2.1175h-.281c-2.5001-.0077-4.8954-.9422-6.6632-2.5996-1.7679-1.6573-2.76467-3.9029-2.7729-6.24674v-.2561c.00825-2.34829 1.008-4.59798 2.7807-6.25711 1.7726-1.659127 4.174-2.59269403 6.6788-2.59655zm0 2.99268h-.281c-1.656 0-3.2441.61673-4.4151 1.7145s-1.8288 2.58668-1.8288 4.13916v.2561c0 1.55246.6578 3.04136 1.8288 4.13916s2.7591 1.7145 4.4151 1.7145h.281c1.656 0 3.2441-.6167 4.4151-1.7145s1.8288-2.5867 1.8288-4.13916v-.24878c0-1.55249-.6578-3.04139-1.8288-4.13916-1.171-1.09778-2.7591-1.7145-4.4151-1.7145z" fill="#ec0000" fill-rule="evenodd"/></g></svg>