<svg enable-background="new 0 0 80 80" viewBox="0 0 80 80" xmlns="http://www.w3.org/2000/svg"><path d="m75.3 38.1h-9.7c-.8 0-1.6-.6-1.8-1.4l-5.8-20.3c-1-3.8-4.5-6.4-8.4-6.4h-19c-3.9 0-7.4 2.6-8.4 6.4l-5.8 20.3c-.2.8-1 1.4-1.8 1.4h-9.9c-2.6 0-4.7 2.1-4.7 4.7v21.2c0 1.1.9 2 2 2h12.1c3.3 4.4 9.5 5.3 13.9 2 .8-.6 1.4-1.3 2-2h19.9c3.3 4.4 9.5 5.3 13.9 2 .8-.6 1.5-1.3 2-2h12.2c1.1 0 2-.9 2-2v-21.3c0-2.5-2.1-4.6-4.7-4.6zm-21.3-20.6 5.1 17.8h-9.8l-10.2-21.3h10.4c2.1 0 4 1.4 4.5 3.5zm-28.1 0c.6-2.1 2.4-3.5 4.6-3.5h4.2l10.2 21.3h-24.1zm-3.9 48.5c-3.3 0-6-2.7-6-6s2.7-6 6-6 6 2.7 6 6-2.6 6-6 6zm35.8 0c-3.3 0-6-2.7-6-6s2.7-6 6-6 6 2.7 6 6-2.7 6-6 6zm18.2-4h-8.3c.1-.7.2-1.3.2-2-.1-5.5-4.6-9.9-10.1-9.9-5.5.1-9.9 4.6-9.9 10.1 0 .6.1 1.2.2 1.8h-16.3c1.1-5.4-2.4-10.7-7.8-11.8s-10.7 2.4-11.8 7.8c-.3 1.3-.3 2.6 0 3.9h-8.2v-19.2c0-.4.3-.7.7-.7h9.7c2 0 3.9-1.1 5-2.8h41.2c1.1 1.7 3 2.8 5 2.8h9.7c.4 0 .7.3.7.7z" fill="#ec0000"/></svg>