<svg enable-background="new 0 0 80 80" viewBox="0 0 80 80" xmlns="http://www.w3.org/2000/svg"><path d="m60.9 10h-41.8c-5 0-9.1 4.1-9.1 9.1v25.4 3c0 5 4.1 9.1 9.1 9.1h14.5l-2.3 10.4h-1.8c-.8 0-1.5.7-1.5 1.5s.7 1.5 1.5 1.5h21c.8 0 1.5-.7 1.5-1.5v-.1c-.1-.8-.7-1.4-1.5-1.4h-1.8l-2.4-10.5h14.5c5 0 9.1-4.1 9.1-9.1v-3-25.3c.1-5-4-9.1-9-9.1zm-26.5 57 2.4-10.5h6.6l2.2 10.5zm32.6-19.5c0 3.4-2.7 6.1-6.1 6.1h-41.8c-3.4 0-6.1-2.7-6.1-6.1v-1.5h54zm0-4.5h-54v-23.9c0-3.4 2.7-6.1 6.1-6.1h42c3.3.1 5.9 2.8 5.9 6.1z" fill="#ea0100" stroke="#ec0000" stroke-miterlimit="10" stroke-width=".75"/><g fill="none"><path d="m45.1 31.1c-.2.2-.5.5-.7.7l5.5 5.5c.2.2.5.2.7 0s.2-.5 0-.7z"/><path d="m45.3 30.8-1.2 1.2 5.5 5.5c.3.3.9.3 1.2 0s.3-.9 0-1.2z"/><path d="m44.2 25.4c0-3.1-2.5-5.6-5.6-5.6s-5.6 2.5-5.6 5.6 2.5 5.6 5.6 5.6 5.6-2.5 5.6-5.6z"/></g><path d="m52.8 34.2-5.8-5.8c.4-1 .6-2 .6-3.1 0-5-4-9-9-9s-9 4-9 9 4 9 9 9c1.1 0 2.1-.2 3.1-.5l5.8 5.8c1.5 1.5 3.8 1.5 5.3.1s1.6-3.9 0-5.5c.1.1.1.1 0 0zm-2 3.3c-.3.3-.9.3-1.2 0l-5.5-5.5 1.2-1.2 5.5 5.5c.3.3.4.9 0 1.2zm-17.8-12.1c0-3.1 2.5-5.6 5.6-5.6s5.6 2.5 5.6 5.6-2.5 5.6-5.6 5.6-5.6-2.5-5.6-5.6z" fill="#ec0000"/></svg>