<svg enable-background="new 0 0 80 80" viewBox="0 0 80 80" xmlns="http://www.w3.org/2000/svg"><g fill="#ec0000"><path d="m68.6 49.1-6.2 2.9c-.5-2.7-2.8-4.6-5.5-4.6h-12.4c-1.2 0-2.3-.5-3.2-1.3l-.2-.2c-1.5-1.4-3.5-2.2-5.6-2.2h-10.5v-1.9c0-1-.8-1.9-1.9-1.9h-18.7c-1 0-1.9.8-1.9 1.9v19.4c0 4.8 3.9 8.6 8.6 8.6h11.9c1 0 1.9-.8 1.9-1.8v-2.1l16 3.2c4.5 1.5 13.2 1.1 17.5-1.1l15.7-8.2c3.1-2 4.1-5.3 2.6-8.3s-5.1-3.9-8.1-2.4zm-47.4 17h-10.1c-2.7 0-4.9-2.2-4.9-4.9v-17.5h15zm51.1-9.5-15.6 8c-3.3 1.7-11 2.1-14.8.8l-17-3.4v-14.6h10.5c1.2 0 2.4.5 3.2 1.3 1.6 1.6 3.7 2.4 5.9 2.4h12.3c1 0 1.9.9 1.9 1.9 0 .3-.1.6-.2.8-.3.2-.5.4-.6.7-.3.2-.7.3-1.1.3h-11.2c-1 0-1.9.8-1.9 1.9 0 1 .8 1.9 1.9 1.9h11.2c1.6 0 3.1-.7 4.1-1.8l9.2-4.3c1.3-.7 2.7-.4 3.2.6.7 1.2.2 2.8-1 3.4.1.1 0 .1 0 .1z"/><path d="m68.1 19.4h-32c-.9-5.4-5.5-9.4-11-9.3h-.3c-6.1 0-11 5-11.1 11.1v.3c0 6.1 5 11.1 11.1 11.1h.3c5.5 0 10.1-3.9 11-9.3h15.1v7.5c0 1 .8 1.9 1.9 1.9h.2c1-.1 1.7-.9 1.7-1.9v-7.5h5.6v7.5c0 1 .8 1.9 1.8 1.9h.2c1-.1 1.7-.9 1.7-1.9v-7.5h3.8c1-.1 1.8-1 1.7-2 0-1.1-.7-1.9-1.7-1.9zm-35.6 2c0 4.1-3.3 7.4-7.3 7.4h-.3c-4 0-7.3-3.3-7.3-7.3v-.3c0-4.1 3.3-7.3 7.3-7.4h.3c4 0 7.3 3.3 7.3 7.3z"/></g></svg>