<svg viewBox="0 0 64 64" xmlns="http://www.w3.org/2000/svg"><path d="m57.72 30h-3l.69 4h-41.67l6-11h12.26v-3h-14l-8.5 15.5-7 6-2.5 14.5h4.33l-1.33 6h12l1.33-6h29l-1.33 6h12l1.33-6h4.67l2-14-5.5-7.5zm-45.13 29h-5.85l.67-3h5.85zm41 0h-5.85l.67-3h5.85zm6.81-13h-12.22v3h11.82l-.57 4h-55.87l.69-4h12.25v-3h-11.73l.5-2.93 6.83-6.07h44.4l4.36 5.79z"/><path d="m37.56 29.56 6.54-6.56a11.92 11.92 0 1 0 -2-2.24l-6.66 6.66zm14.44-24.56a9 9 0 1 1 -9 9 9 9 0 0 1 9-9z"/><path d="m49.46 18.66 2.54-2.54 2.54 2.54 2.12-2.12-2.54-2.54 2.54-2.54-2.12-2.12-2.54 2.54-2.54-2.54-2.12 2.12 2.54 2.54-2.54 2.54z"/></svg>