<svg xmlns="http://www.w3.org/2000/svg" viewBox="161 277 476 58">
  <path d="M510.2 319.7h-22.9l-4.6 12.4h-7.6l19.7-52.2h8.1l19.8 52.2h-7.9l-4.6-12.4zm-2.2-6.1l-9.3-25.3-9.2 25.3H508zM560.4 295v37.1h-7v-5.5c-2.5 3.9-6.8 6.2-12.4 6.2-8.9 0-14.2-5.1-14.2-15.3V295h7v20.7c0 7.1 3.2 10.8 9 10.8 6.2 0 10.6-4.5 10.6-11V295h7zM572.5 318v-16.7h-6.4V295h6.4v-10.7l7-2.3v13h10.4v6.3h-10.4V317c0 6.2 3.3 8.8 9.3 8.8h.7l-1.1 6.8h-.4c-10.5.1-15.5-4.5-15.5-14.6zM593.4 313.6c0-11.2 8.2-19.3 19.5-19.3 11.5 0 19.5 8.1 19.5 19.3 0 11.2-7.9 19.3-19.5 19.3-11.3-.1-19.5-8.1-19.5-19.3zm31.8 0c0-7.6-5.1-12.7-12.4-12.7-7.2 0-12.3 5.1-12.3 12.7s5.2 12.7 12.3 12.7c7.4 0 12.4-5.2 12.4-12.7z"/>
  <g>
    <path d="M350.5 304.7l21.3 27.4h-15.3L337 306.5v25.6h-12.8v-52.2H337v23.3l18.9-23.3h15.2l-20.6 24.8zM390.4 321.4h24.8v10.7h-37.7v-52.2H414v10.7h-23.6v9.6h21.3v10.4h-21.3zM420.4 279.9v10.7h15.9v41.5h12.8v-41.5h15.8v-10.7z"/>
    <path d="M420.4 279.9v10.7h15.9v41.5h12.8v-41.5h15.8v-10.7zM190.2 312l15.7 20.1h-14.7l-18.7-25.2v25.2h-12.8v-52.2h23.5c11.2 0 19 6.9 19 16.9-.1 7.1-4.6 13.5-12 15.2zm-.8-15c0-3.9-3.1-6.6-7.5-6.6h-9.4v13.2h9.4c4.6 0 7.5-2.7 7.5-6.6z"/>
    <path d="M236.9 290.3c9.4 0 16.8 7.2 16.8 17.1 0 7.8-3.9 12.5-9.1 16l7.2 9.6c8.9-6.1 14.5-14.5 14.5-25.6 0-16.4-13-28.3-29.4-28.3s-29.4 12-29.4 28.3c0 11.1 5.6 19.5 14.5 25.6l7.2-9.6c-5.2-3.5-9.1-8.2-9.1-16 0-9.9 7.4-17.1 16.8-17.1z" fill="#c8102e"/>
    <path d="M311.3 317.7l6.7 9.1c-4.9 4.3-10.9 6.2-18.4 6.2-14.7 0-27.4-10.7-27.4-27.1 0-16 12.6-26.9 27.4-26.9 7.1 0 13.5 1.8 18.3 5.7l-7 9.5c-2.8-2.2-6.2-3.9-11.3-3.9-8.1 0-14.6 6.4-14.6 15.9 0 9.3 6.5 15.6 14.8 15.6 5-.1 8.6-1.9 11.5-4.1z"/>
  </g>
</svg>
