<svg xmlns="http://www.w3.org/2000/svg" data-name="Layer 1" viewBox="0 0 200 25">
  <defs>
    <mask id="a" width="20.91" height="7.03" x="26.41" y="16.93" maskUnits="userSpaceOnUse">
      <path fill="#fff" fill-rule="evenodd" d="M26.41 16.93h20.91v7.03H26.41v-7.03z"/>
    </mask>
    <mask id="b" width="20.91" height="7.04" x="26.41" y="16.93" maskUnits="userSpaceOnUse">
      <g data-name="mask-2">
        <path fill="#fff" fill-rule="evenodd" d="M26.41 16.93h20.91v7.03H26.41v-7.03z" data-name="path-1"/>
      </g>
    </mask>
  </defs>
  <g mask="url(#a)">
    <path fill="#0a0b09" fill-rule="evenodd" d="M30.79 21.41l-1.24-3.36-1.22 3.36zm.29.81H28l-.61 1.66h-1L29 16.93h1.07l2.63 7h-1.01l-.61-1.66z"/>
  </g>
  <g mask="url(#b)">
    <path fill="#0a0b09" fill-rule="evenodd" d="M37.75 19v4.93h-.93v-.74a1.86 1.86 0 01-1.64.83c-1.19 0-1.89-.68-1.89-2V19h.93v2.76c0 .93.43 1.43 1.19 1.43a1.37 1.37 0 001.41-1.46V19h.93"/>
  </g>
  <g mask="url(#a)">
    <path fill="#0a0b09" fill-rule="evenodd" d="M39.35 22v-2.22h-.85V19h.85v-1.47l.93-.3V19h1.39v.83h-1.39v2.09c0 .83.44 1.17 1.23 1.17h.09l-.14.91c-1.39 0-2.07-.6-2.07-1.95"/>
  </g>
  <g mask="url(#b)">
    <path fill="#0a0b09" fill-rule="evenodd" d="M46.37 21.41a1.64 1.64 0 10-1.64 1.69 1.58 1.58 0 001.64-1.69zm-4.23 0a2.59 2.59 0 015.18 0 2.59 2.59 0 01-5.18 0z"/>
  </g>
  <path fill="#0a0b09" fill-rule="evenodd" d="M46.15 7.4l5.16 6.62h-3.69l-4.73-6.18v6.18h-3.1V1.39h3.1v5.64l4.56-5.64h3.68L46.15 7.4m9.65 4.02h6.01v2.6H52.7V1.39h8.82v2.6H55.8V6.3h5.16v2.52H55.8v2.6m7.27-10.03v2.6h3.85v10.03h3.09V3.99h3.83v-2.6H63.07"/>
  <path fill="#0a0b09" fill-rule="evenodd" d="M63.07 1.39v2.6h3.85v10.03h3.09V3.99h3.83v-2.6H63.07M7.21 5.52a1.63 1.63 0 00-1.82-1.58H3.12v3.19h2.27a1.63 1.63 0 001.82-1.61zm.18 3.65L11.18 14H7.63L3.1 7.93V14H0V1.39h5.68c2.71 0 4.6 1.68 4.6 4.1a3.72 3.72 0 01-2.89 3.68z"/>
  <path fill="#b52532" fill-rule="evenodd" d="M18.68 3.9A4 4 0 0122.73 8a4.39 4.39 0 01-2.19 3.88l1.73 2.32A7.29 7.29 0 0025.78 8a6.85 6.85 0 00-7.1-6.85A6.85 6.85 0 0011.58 8a7.29 7.29 0 003.51 6.2l1.74-2.32A4.38 4.38 0 0114.63 8a4 4 0 014-4.13"/>
  <path fill="#0a0b09" fill-rule="evenodd" d="M36.67 10.52l1.63 2.21a6.3 6.3 0 01-4.44 1.5 6.43 6.43 0 01-6.61-6.54 6.43 6.43 0 016.61-6.51 7 7 0 014.42 1.37l-1.68 2.3a4.12 4.12 0 00-2.72-.95 3.59 3.59 0 00-3.53 3.84 3.56 3.56 0 003.59 3.77 4.26 4.26 0 002.73-1"/>
  <g style="isolation:isolate">
    <path d="M98.31 10.91a2 2 0 01.88.79 2.25 2.25 0 01.29 1.12 2.31 2.31 0 01-.29 1.12 2.22 2.22 0 01-.89.85 3.17 3.17 0 01-1.48.32h-.65V17H94.7v-6.39h2.13a3.25 3.25 0 011.48.3zm-.7 2.74a1 1 0 00.34-.8 1 1 0 00-.33-.79 1.42 1.42 0 00-.88-.26h-.57v2.12h.57a1.33 1.33 0 00.87-.27zm4.12 3.02a3.21 3.21 0 01-1.21-1.16 3.46 3.46 0 010-3.41 3.21 3.21 0 011.21-1.16 3.59 3.59 0 013.37 0 3.14 3.14 0 011.21 1.16 3.43 3.43 0 010 3.38 3.19 3.19 0 01-1.21 1.18 3.53 3.53 0 01-3.36 0zm2.59-1.21a1.82 1.82 0 00.66-.69 2.06 2.06 0 000-1.93 1.82 1.82 0 00-.66-.69 1.68 1.68 0 00-.91-.25 1.71 1.71 0 00-.91.25 1.82 1.82 0 00-.66.69 2.06 2.06 0 000 1.93 1.82 1.82 0 00.66.69 1.71 1.71 0 00.91.25 1.68 1.68 0 00.91-.25zm12.03-4.85L114.18 17h-.94l-1.55-4.41-1.58 4.41h-.91l-2.2-6.39h1.6l1.17 3.71 1.33-3.71h1.34l1.31 3.64 1.15-3.64zm.73 0h4.48v1.28h-3v1.3h2.85v1.24h-2.85v1.29h3V17h-4.52zM128.25 17h-1.72l-1.89-2.38-.42-.54V17h-1.47v-6.39h2.83a2.73 2.73 0 011.23.25 1.81 1.81 0 01.78.68 1.78 1.78 0 01.27 1 2.07 2.07 0 01-.43 1.27 2.21 2.21 0 01-1.24.76zm-3-3.5a1.19 1.19 0 00.74-.23.77.77 0 00.29-.64.75.75 0 00-.28-.63 1.16 1.16 0 00-.72-.21h-1.1v1.7zm3.67-2.89h4.47v1.28h-3v1.3h2.84v1.24h-2.84v1.29h3.05V17h-4.52zm9.87.39a3 3 0 011.21 1.13 3 3 0 01.44 1.64 3.19 3.19 0 01-.44 1.66 3.14 3.14 0 01-1.26 1.16A4 4 0 01137 17h-2.38v-6.39H137a4 4 0 011.79.39zm-.85 4.49a1.77 1.77 0 00.74-.69 1.89 1.89 0 00.27-1 1.79 1.79 0 00-.58-1.4 2.25 2.25 0 00-1.56-.52h-.75v3.87h.75a2.51 2.51 0 001.13-.25zM148 14.17a1.48 1.48 0 01.33 1 1.67 1.67 0 01-.27.94 1.88 1.88 0 01-.8.66A3 3 0 01146 17h-2.65v-6.39h2.52a2.56 2.56 0 011.58.44 1.41 1.41 0 01.56 1.19 1.51 1.51 0 01-.91 1.43 1.58 1.58 0 01.9.5zm-3.16-.93h.83a1 1 0 00.68-.21.69.69 0 00.23-.53.61.61 0 00-.24-.52 1.06 1.06 0 00-.66-.18h-.84zm1.7 2.38a.7.7 0 000-1.06 1 1 0 00-.66-.19h-1.05v1.44h1a1 1 0 00.72-.19zm5.46-1.08V17h-1.43v-2.46l-2.13-3.93H150l1.32 2.56 1.32-2.56h1.43z" fill="gray"/>
  </g>
  <g data-name="vroom logo black">
    <path d="M171.87 10l-.48 2.54h-1a1.26 1.26 0 00-1.39 1.2l-.6 3.44H166l.89-5h-1.39l.38-2.06h3.63l-.26 1.36A2.58 2.58 0 01171.8 10zM157 12.11l.36-2.09h3.39l-.16 4.99 2.25-4.99h2.66l-3.58 7.16h-3.58v-5.07H157zM175.66 10a3.87 3.87 0 00-4 4 3.42 3.42 0 003.65 3.49 3.87 3.87 0 004.05-3.95 3.43 3.43 0 00-3.7-3.54zm-.27 5.38a1.41 1.41 0 01-1.39-1.53 1.63 1.63 0 011.53-1.77 1.41 1.41 0 011.39 1.54 1.64 1.64 0 01-1.53 1.77zm8.24-5.38a3.87 3.87 0 00-4.06 4 3.42 3.42 0 003.65 3.49 3.86 3.86 0 004.05-3.95 3.42 3.42 0 00-3.64-3.54zm-.28 5.38a1.41 1.41 0 01-1.35-1.53 1.63 1.63 0 011.53-1.77 1.4 1.4 0 011.38 1.54 1.63 1.63 0 01-1.56 1.77z"/>
    <path d="M195.3 12.77a2.45 2.45 0 011.36-.6c.5 0 .73.39.63 1l-.73 4H199l.75-4.35A2.15 2.15 0 00197.5 10a3.32 3.32 0 00-2.44 1.11 1.73 1.73 0 00-1.73-1.11 3 3 0 00-2.28 1.06l.17-.93h-3.57l-.38 2.06h1.35l-.88 5h2.37l.78-4.41a2.48 2.48 0 011.37-.6c.49 0 .72.39.62 1l-.72 4h2.36z"/>
  </g>
  <path fill="none" stroke="#bebebe" stroke-linecap="square" d="M84.5 1v23"/>
</svg>
