<svg width="64" height="64" viewBox="0 0 64 64" fill="none" xmlns="http://www.w3.org/2000/svg">
<g clip-path="url(#clip0)">
<path d="M57.72 30H54.72L55.41 34H13.74L19.74 23H32V20H18L9.5 35.5L2.5 41.5L0 56H4.33L3 62H15L16.33 56H45.33L44 62H56L57.33 56H62L64 42L58.5 34.5L57.72 30ZM12.59 59H6.74L7.41 56H13.26L12.59 59ZM53.59 59H47.74L48.41 56H54.26L53.59 59ZM60.4 46H48.18V49H60L59.43 53H3.56L4.25 49H16.5V46H4.77L5.27 43.07L12.1 37H56.5L60.86 42.79L60.4 46Z" fill="#041022"/>
<path d="M37.5599 29.5601L44.0999 23.0001C46.3875 24.9888 49.3467 26.0314 52.3757 25.9157C55.4046 25.8 58.2757 24.5347 60.4049 22.3772C62.5341 20.2198 63.7613 17.3322 63.837 14.302C63.9127 11.2718 62.8311 8.32653 60.8123 6.06547C58.7935 3.80441 55.9891 2.39738 52.9697 2.13063C49.9503 1.86387 46.9427 2.75743 44.5587 4.62952C42.1748 6.50161 40.5936 9.2116 40.1368 12.2081C39.68 15.2047 40.382 18.2627 42.0999 20.7601L35.4399 27.4201L37.5599 29.5601ZM51.9999 5.00005C53.78 5.00005 55.52 5.52789 57.0001 6.51683C58.4801 7.50576 59.6337 8.91137 60.3149 10.5559C60.996 12.2004 61.1743 14.01 60.827 15.7559C60.4797 17.5017 59.6226 19.1053 58.3639 20.364C57.1052 21.6227 55.5016 22.4799 53.7558 22.8271C52.0099 23.1744 50.2003 22.9962 48.5558 22.315C46.9113 21.6338 45.5056 20.4802 44.5167 19.0002C43.5278 17.5201 42.9999 15.7801 42.9999 14.0001C42.9999 11.6131 43.9482 9.32392 45.636 7.63609C47.3238 5.94826 49.613 5.00005 51.9999 5.00005V5.00005Z" fill="#041022"/>
</g>
<defs>
<clipPath id="clip0">
<rect width="64" height="64" fill="white"/>
</clipPath>
</defs>
</svg>
