<svg width="64" height="64" viewBox="0 0 64 64" fill="none" xmlns="http://www.w3.org/2000/svg">
<path d="M60 7L54 28H57L64 4H16L0 60H47L48 57H4L18.26 7H60Z" fill="#041022"/>
<path d="M45.5701 37H14.5701L15.4301 34H46.4301L45.5701 37Z" fill="#041022"/>
<path d="M39.29 45H12.29L13.14 42H40.14L39.29 45Z" fill="#041022"/>
<path d="M31 53H10L10.86 50H31.86L31 53Z" fill="#041022"/>
<path d="M49.29 24H39.29L40 21H50.14L49.29 24Z" fill="#041022"/>
<path d="M51.5701 16H41.5701L42.4301 13H52.4301L51.5701 16Z" fill="#041022"/>
<path d="M32.14 28H17L18 25H30L30.86 22H18.86L21.43 13H36.43L35.57 16H23.57L22.71 19H34.71L32.14 28Z" fill="#041022"/>
<path d="M25.5701 30H22.5701L28.0001 11H31.0001L25.5701 30Z" fill="#041022"/>
<path d="M58 35.24L59.76 37L47.76 49H46V47.24L58 35.24ZM58 31L43 46V52H49L64 37L58 31Z" fill="#041022"/>
</svg>
