<?xml version="1.0" encoding="UTF-8"?>
<svg width="16px" height="16px" viewBox="0 0 16 16" version="1.1" xmlns="http://www.w3.org/2000/svg" xmlns:xlink="http://www.w3.org/1999/xlink">
    <!-- Generator: sketchtool 51.2 (57519) - http://www.bohemiancoding.com/sketch -->
    <title>F311132F-E86B-4ACC-9D23-DCC3BA3141F1</title>
    <desc>Created with sketchtool.</desc>
    <defs></defs>
    <g id="Style-Guide" stroke="none" stroke-width="1" fill="none" fill-rule="evenodd">
        <g id="style-guide---icons" transform="translate(-972.000000, -318.000000)" fill="#E7131A">
            <g id="icons" transform="translate(49.000000, 226.000000)">
                <g id="#2-red" transform="translate(923.000000, 92.000000)">
                    <g id="Group-6">
                        <path d="M7.52656,1.449248 C4.17456,1.449248 1.44656,4.175648 1.44656,7.527648 C1.44656,10.879648 4.17456,13.606048 7.52656,13.606048 C10.87856,13.606048 13.60656,10.879648 13.60656,7.527648 C13.60656,4.175648 10.87856,1.449248 7.52656,1.449248 M7.52656,15.055648 C3.37616,15.055648 0.00016,11.678048 0.00016,7.527648 C0.00016,3.377248 3.37616,-0.000352 7.52656,-0.000352 C11.67696,-0.000352 15.05296,3.377248 15.05296,7.527648 C15.05296,11.678048 11.67696,15.055648 7.52656,15.055648" id="Fill-1"></path>
                        <path d="M7.54064,4.624288 C6.88304,4.624288 6.54064,5.091488 6.50384,5.699488 L4.83344,5.699488 C4.98544,4.257888 5.99664,3.182688 7.52624,3.182688 C9.15984,3.182688 10.13264,4.091488 10.13264,5.496288 C10.13264,6.469088 9.38544,7.229088 8.58864,8.062688 L7.09744,9.669088 L10.22064,9.669088 L10.22064,11.072288 L4.84624,11.072288 L4.84624,10.024288 L7.31184,7.430688 C7.99504,6.685088 8.52624,6.141088 8.52624,5.560288 C8.52624,5.014688 8.14704,4.624288 7.54064,4.624288" id="Fill-4"></path>
                    </g>
                </g>
            </g>
        </g>
    </g>
</svg>