<?xml version="1.0" encoding="UTF-8"?>
<svg width="16px" height="16px" viewBox="0 0 16 16" version="1.1" xmlns="http://www.w3.org/2000/svg" xmlns:xlink="http://www.w3.org/1999/xlink">
    <!-- Generator: sketchtool 51.2 (57519) - http://www.bohemiancoding.com/sketch -->
    <title>C6B2CC92-E98D-4C4C-8885-BFE478DC44B1</title>
    <desc>Created with sketchtool.</desc>
    <defs></defs>
    <g id="Style-Guide" stroke="none" stroke-width="1" fill="none" fill-rule="evenodd">
        <g id="style-guide---icons" transform="translate(-972.000000, -356.000000)" fill="#E7131A">
            <g id="icons" transform="translate(49.000000, 226.000000)">
                <g id="#3-red" transform="translate(923.000000, 130.000000)">
                    <g id="Group-6">
                        <path d="M7.52608,1.448448 C4.17408,1.448448 1.44608,4.176448 1.44608,7.526848 C1.44608,10.880448 4.17408,13.606848 7.52608,13.606848 C10.87808,13.606848 13.60608,10.880448 13.60608,7.526848 C13.60608,4.176448 10.87808,1.448448 7.52608,1.448448 M7.52608,15.054848 C3.37568,15.054848 -0.00032,11.678848 -0.00032,7.526848 C-0.00032,3.376448 3.37568,0.000448 7.52608,0.000448 C11.67648,0.000448 15.05248,3.376448 15.05248,7.526848 C15.05248,11.678848 11.67648,15.054848 7.52608,15.054848" id="Fill-1"></path>
                        <path d="M7.03072,6.839008 L7.46912,6.839008 C8.12192,6.839008 8.62112,6.514208 8.62112,5.874208 C8.62112,5.336608 8.24672,4.923808 7.61952,4.923808 C6.92032,4.923808 6.54272,5.387808 6.49312,5.975008 L4.94112,5.975008 C5.08992,4.608608 6.09152,3.559008 7.63232,3.559008 C9.19712,3.559008 10.13632,4.485408 10.13632,5.800608 C10.13632,6.538208 9.74752,7.202208 9.19712,7.464608 C9.91232,7.776608 10.26272,8.440608 10.26272,9.141408 C10.26272,10.480608 9.27232,11.495008 7.63232,11.495008 C5.98112,11.495008 4.87712,10.480608 4.79232,8.992608 L6.36992,8.992608 C6.44512,9.667808 6.85792,10.131808 7.61952,10.131808 C8.27072,10.131808 8.73312,9.731808 8.73312,9.117408 C8.73312,8.466208 8.23232,8.077408 7.52032,8.077408 L7.03072,8.077408 L7.03072,6.839008 Z" id="Fill-4"></path>
                    </g>
                </g>
            </g>
        </g>
    </g>
</svg>