<?xml version="1.0" encoding="UTF-8"?>
<svg width="50px" height="44px" viewBox="0 0 50 44" version="1.1" xmlns="http://www.w3.org/2000/svg" xmlns:xlink="http://www.w3.org/1999/xlink">
    <!-- Generator: Sketch 55.2 (78181) - https://sketchapp.com -->
    <title>BROWSE ICON</title>
    <desc>Created with Sketch.</desc>
    <defs>
        <polygon id="path-1" points="0.395076 0 23.51008 0 23.51008 21.127744 0.395076 21.127744"></polygon>
    </defs>
    <g id="Page-1" stroke="none" stroke-width="1" fill="none" fill-rule="evenodd">
        <g id="PAGE---HOW-IT-WORKS" transform="translate(-78.000000, -1608.000000)">
            <g id="HOW-IT-WORKS" transform="translate(51.000000, 1531.000000)">
                <g id="BROWSE-ONLINE" transform="translate(27.000000, 65.000000)">
                    <g id="BROWSE-ICON" transform="translate(0.000000, 12.000000)">
                        <path d="M13.281048,12.925088 L7.228408,24.385328 L1.774168,29.263168 L1.280048,32.065088 L0.853248,34.485088 L8.8e-05,39.324648 L2.860088,39.324648 L2.035528,44.000088 L10.835528,44.000088 L11.660088,39.324648 L32.340088,39.324648 L31.515528,44.000088 L40.315528,44.000088 L41.140088,39.324648 L44.000088,39.324648 L44.872608,34.374648 L45.260688,32.175088 L45.775048,29.259648 L41.585808,23.870088 L9.833208,23.870088 L14.451448,15.124648 L26.762648,15.124648 L27.149848,12.925088 L13.281048,12.925088 Z M3.819728,30.136568 L8.367568,26.070088 L40.256128,26.070088 L43.419288,30.140528 L43.060688,32.175088 L34.260688,32.175088 L33.872608,34.374648 L42.673048,34.374648 L42.188168,37.125088 L2.588168,37.125088 L3.053688,34.485088 L11.853248,34.485088 L12.280048,32.065088 L3.480048,32.065088 L3.819728,30.136568 Z M34.540088,39.324648 L38.940088,39.324648 L38.503608,41.799648 L34.103608,41.799648 L34.540088,39.324648 Z M5.060088,39.324648 L9.460088,39.324648 L9.023608,41.799648 L4.623608,41.799648 L5.060088,39.324648 Z" id="Fill-1" fill="#E7131A"></path>
                        <g id="Group-4" transform="translate(25.960000, 0.000000)">
                            <mask id="mask-2" fill="white">
                                <use xlink:href="#path-1"></use>
                            </mask>
                            <g id="Clip-3"></g>
                            <path d="M10.236116,4.223384 C11.770836,2.918344 13.632916,2.199824 15.477836,2.199824 C17.322756,2.199824 18.931396,2.918344 20.005876,4.223384 C21.080356,5.528424 21.493516,7.262904 21.168356,9.108264 C20.842316,10.953624 19.817996,12.688104 18.283276,13.993144 C16.748556,15.298184 14.886916,16.016704 13.041556,16.016704 C11.196636,16.016704 9.587996,15.298184 8.513516,13.993144 C7.439036,12.688104 7.025876,10.953624 7.351476,9.108264 C7.677076,7.262904 8.701396,5.528424 10.236116,4.223384 L10.236116,4.223384 Z M1.676356,21.127744 L7.379636,16.279384 C8.712836,17.492904 10.535316,18.216704 12.653476,18.216704 C17.683996,18.216704 22.480876,14.138344 23.368356,9.108264 C24.254956,4.077744 20.896436,-0.000176 15.865916,-0.000176 C10.835396,-0.000176 6.038516,4.077744 5.151476,9.108264 C4.777916,11.226864 5.157636,13.176944 6.098356,14.723984 L0.395076,19.572344 L1.676356,21.127744 Z" id="Fill-2" fill="#E7131A" mask="url(#mask-2)"></path>
                        </g>
                    </g>
                </g>
            </g>
        </g>
    </g>
</svg>