<?xml version="1.0" encoding="UTF-8"?>
<svg width="43px" height="44px" viewBox="0 0 43 44" version="1.1" xmlns="http://www.w3.org/2000/svg" xmlns:xlink="http://www.w3.org/1999/xlink">
    <!-- Generator: Sketch 56.3 (81716) - https://sketch.com -->
    <title>ICON</title>
    <desc>Created with Sketch.</desc>
    <g id="Page-1" stroke="none" stroke-width="1" fill="none" fill-rule="evenodd">
        <g id="ICON" fill="#E7131A">
            <polygon id="Fill-1" points="34.226201 11.55 12.2874255 11.55 11.9004255 13.75 33.839201 13.75"></polygon>
            <polygon id="Fill-2" points="33.1300959 17.78348 11.1913204 17.78348 10.8047592 19.98348 32.7435347 19.98348"></polygon>
            <polygon id="Fill-3" points="32.0340347 24.01652 10.0952592 24.01652 9.70869796 26.21652 31.6474735 26.21652"></polygon>
            <polygon id="Fill-4" points="7.73684082 4.4e-05 -8.7755102e-05 44.000044 20.841749 44.000044 21.228749 41.800044 2.5807898 41.800044 9.54371837 2.200044 40.2580041 2.200044 35.616198 28.600044 37.8100755 28.600044 42.8388816 4.4e-05"></polygon>
            <polygon id="Fill-5" points="29.7954459 40.83002 25.8868337 36.63726 24.1317316 38.27274 29.4514459 43.97998 41.5923643 32.11714 40.1711704 30.69242"></polygon>
        </g>
    </g>
</svg>