<?xml version="1.0" encoding="UTF-8"?>
<svg width="43px" height="44px" viewBox="0 0 43 44" version="1.1" xmlns="http://www.w3.org/2000/svg" xmlns:xlink="http://www.w3.org/1999/xlink">
    <g id="Page-1" stroke="none" stroke-width="1" fill="none" fill-rule="evenodd">
        <g id="ICON" fill="#E7131A">
            <path d="M7.748444,0.000176 L4.4e-05,43.944736 L35.156044,43.944736 L42.904444,0.001936 L42.904444,0.000176 L7.748444,0.000176 Z M9.558604,2.197096 L40.320324,2.197096 L33.346324,41.748256 L2.584604,41.748256 L9.558604,2.197096 Z" id="Fill-1"></path>
            <path d="M13.114596,13.183544 L32.889516,13.183544 L33.858396,7.690584 L14.083036,7.690584 L13.114596,13.183544 Z M34.699676,15.380904 L10.529596,15.380904 L12.273316,5.492784 L36.443396,5.492784 L34.699676,15.380904 Z" id="Fill-2"></path>
            <path d="M11.177144,24.169816 L17.219664,24.169816 L17.800904,20.874216 L11.758384,20.874216 L11.177144,24.169816 Z M19.029824,26.367176 L8.592584,26.367176 L9.948664,18.676856 L20.385904,18.676856 L19.029824,26.367176 Z" id="Fill-3"></path>
            <path d="M9.240088,35.156044 L15.282608,35.156044 L15.863848,31.860444 L9.821328,31.860444 L9.240088,35.156044 Z M17.092328,37.353404 L6.655528,37.353404 L8.011608,29.663084 L18.448408,29.663084 L17.092328,37.353404 Z" id="Fill-4"></path>
            <path d="M24.90994,24.169816 L30.95246,24.169816 L31.5337,20.874216 L25.49118,20.874216 L24.90994,24.169816 Z M32.76262,26.367176 L22.32538,26.367176 L23.68146,18.676856 L34.1187,18.676856 L32.76262,26.367176 Z" id="Fill-5"></path>
            <path d="M22.972928,35.156044 L29.015448,35.156044 L29.596688,31.860444 L23.554168,31.860444 L22.972928,35.156044 Z M30.825168,37.353404 L20.388368,37.353404 L21.744448,29.663084 L32.181248,29.663084 L30.825168,37.353404 Z" id="Fill-6"></path>
        </g>
    </g>
</svg>