<?xml version="1.0" encoding="UTF-8"?>
<svg width="46px" height="44px" viewBox="0 0 46 44" version="1.1" xmlns="http://www.w3.org/2000/svg" xmlns:xlink="http://www.w3.org/1999/xlink">
    <!-- Generator: Sketch 55.2 (78181) - https://sketchapp.com -->
    <title>DELIVERY ICON</title>
    <desc>Created with Sketch.</desc>
    <g id="Page-1" stroke="none" stroke-width="1" fill="none" fill-rule="evenodd">
        <g id="PAGE---HOW-IT-WORKS" transform="translate(-854.000000, -1608.000000)" fill="#E7131A">
            <g id="HOW-IT-WORKS" transform="translate(51.000000, 1531.000000)">
                <g id="GET-IT-DELIVERED-" transform="translate(803.000000, 65.000000)">
                    <g id="DELIVERY-ICON" transform="translate(0.000000, 12.000000)">
                        <g id="Group-11">
                            <path d="M42.8263762,31.2574257 L29.2125149,31.2574257 L32.8610297,10.5643564 L39.2196832,10.5643564 L43.459802,27.6672871 L42.8263762,31.2574257 Z M41.7703762,37.2475248 L41.0075644,37.2475248 C40.9631287,35.5659406 40.0931485,34.1653465 38.7195644,33.4356436 L42.4425743,33.4356436 L41.7703762,37.2475248 Z M38.7152079,38.4921584 C38.7108515,38.5108911 38.7060594,38.5296238 38.701703,38.5483564 C38.6938614,38.5805941 38.6860198,38.6128317 38.6773069,38.6446337 C38.6707723,38.6681584 38.6642376,38.6912475 38.6572673,38.7147723 C38.6498614,38.7409109 38.6420198,38.7666139 38.6333069,38.7927525 C38.6250297,38.8188911 38.6163168,38.8454653 38.607604,38.8720396 C38.600198,38.8925149 38.5927921,38.9134257 38.5853861,38.9347723 C38.574495,38.964396 38.563604,38.9944554 38.5518416,39.0236436 C38.5470495,39.0367129 38.5413861,39.0497822 38.5361584,39.0624158 C38.4860594,39.1861386 38.4298614,39.3076832 38.3671287,39.4257426 C37.6940594,40.6934653 36.3226535,41.6039604 34.9033267,41.6039604 C33.4831287,41.6039604 32.4332277,40.6934653 32.2071287,39.4257426 C32.1862178,39.3076832 32.1727129,39.1861386 32.1661782,39.0624158 C32.1653069,39.0497822 32.1644356,39.0367129 32.164,39.0236436 C32.1626931,38.9944554 32.1622574,38.964396 32.1622574,38.9347723 C32.1622574,38.9134257 32.1618218,38.8925149 32.1622574,38.8720396 C32.1622574,38.8454653 32.1631287,38.8188911 32.164,38.7927525 C32.1648713,38.7666139 32.1661782,38.7409109 32.1679208,38.7147723 C32.1692277,38.6912475 32.1705347,38.6681584 32.1722772,38.6446337 C32.1753267,38.6128317 32.1783762,38.5805941 32.1818614,38.5483564 C32.1840396,38.5296238 32.1857822,38.5108911 32.188396,38.4921584 C32.1949307,38.4403168 32.2027723,38.3889109 32.2119208,38.3366337 C32.2210693,38.2843564 32.2315248,38.2329505 32.2432871,38.1811089 C32.2472079,38.1623762 32.2524356,38.1436436 32.2567921,38.1249109 C32.2646337,38.0926733 32.2724752,38.0604356 32.2811881,38.0286337 C32.2872871,38.0051089 32.2942574,37.9820198 32.3012277,37.958495 C32.3086337,37.9323564 32.3164752,37.9066535 32.3247525,37.8805149 C32.3330297,37.8543762 32.3417426,37.827802 32.3508911,37.8012277 C32.3578614,37.7807525 32.365703,37.7598416 32.3731089,37.738495 C32.384,37.7088713 32.3948911,37.6788119 32.4066535,37.6496238 C32.4114455,37.6365545 32.4166733,37.6234851 32.4223366,37.6108515 C32.472,37.4871287 32.5286337,37.3655842 32.5913663,37.2475248 C33.2644356,35.979802 34.6354059,35.0693069 36.055604,35.0693069 C37.4749307,35.0693069 38.5248317,35.979802 38.7513663,37.2475248 C38.7722772,37.3655842 38.7857822,37.4871287 38.7923168,37.6108515 C38.7927525,37.6234851 38.7940594,37.6365545 38.794495,37.6496238 C38.795802,37.6788119 38.795802,37.7088713 38.7962376,37.738495 C38.7962376,37.7598416 38.7966733,37.7807525 38.7962376,37.8012277 C38.7962376,37.827802 38.7953663,37.8543762 38.794495,37.8805149 C38.7936238,37.9066535 38.7923168,37.9323564 38.7905743,37.958495 C38.7892673,37.9820198 38.7875248,38.0051089 38.7857822,38.0286337 C38.7831683,38.0604356 38.7796832,38.0926733 38.776198,38.1249109 C38.7740198,38.1436436 38.7722772,38.1623762 38.770099,38.1811089 C38.7631287,38.2329505 38.7557228,38.2843564 38.7465743,38.3366337 C38.7374257,38.3889109 38.7265347,38.4403168 38.7152079,38.4921584 L38.7152079,38.4921584 Z M30.3347327,37.2475248 L13.8887525,37.2475248 C13.8443168,35.5659406 12.9743366,34.1653465 11.6007525,33.4356436 L28.8287129,33.4356436 L33.9671287,33.4356436 C32.3360792,34.1653465 30.9729505,35.5659406 30.3347327,37.2475248 L30.3347327,37.2475248 Z M7.78407921,41.6039604 C6.36431683,41.6039604 5.31441584,40.6934653 5.08831683,39.4257426 C5.06740594,39.3076832 5.05390099,39.1861386 5.04736634,39.0624158 C5.04649505,39.0497822 5.04562376,39.0367129 5.04518812,39.0236436 C5.04388119,38.9944554 5.04344554,38.964396 5.04344554,38.9347723 C5.04344554,38.9134257 5.0430099,38.8925149 5.04344554,38.8720396 C5.04344554,38.8454653 5.04431683,38.8188911 5.04518812,38.7927525 C5.04605941,38.7666139 5.04736634,38.7409109 5.04910891,38.7147723 C5.05041584,38.6912475 5.05172277,38.6681584 5.05346535,38.6446337 C5.05651485,38.6128317 5.05956436,38.5805941 5.0630495,38.5483564 C5.06522772,38.5296238 5.0669703,38.5108911 5.06958416,38.4921584 C5.07611881,38.4403168 5.0839604,38.3889109 5.09310891,38.3366337 C5.10225743,38.2843564 5.11271287,38.2329505 5.12447525,38.1811089 C5.12839604,38.1623762 5.13362376,38.1436436 5.1379802,38.1249109 C5.14582178,38.0926733 5.15366337,38.0604356 5.16237624,38.0286337 C5.16847525,38.0051089 5.17544554,37.9820198 5.18241584,37.958495 C5.18982178,37.9323564 5.19766337,37.9066535 5.20594059,37.8805149 C5.21421782,37.8543762 5.22293069,37.827802 5.23207921,37.8012277 C5.2390495,37.7807525 5.24689109,37.7598416 5.25429703,37.738495 C5.26518812,37.7088713 5.27607921,37.6788119 5.28784158,37.6496238 C5.29263366,37.6365545 5.29786139,37.6234851 5.30352475,37.6108515 C5.35318812,37.4871287 5.40982178,37.3655842 5.47255446,37.2475248 C6.14562376,35.979802 7.51659406,35.0693069 8.93679208,35.0693069 C10.3561188,35.0693069 11.4060198,35.979802 11.6325545,37.2475248 C11.6534653,37.3655842 11.6669703,37.4871287 11.673505,37.6108515 C11.6739406,37.6234851 11.6752475,37.6365545 11.6756832,37.6496238 C11.6769901,37.6788119 11.6769901,37.7088713 11.6774257,37.738495 C11.6774257,37.7598416 11.6778614,37.7807525 11.6774257,37.8012277 C11.6774257,37.827802 11.6765545,37.8543762 11.6756832,37.8805149 C11.6748119,37.9066535 11.673505,37.9323564 11.6717624,37.958495 C11.6704554,37.9820198 11.6687129,38.0051089 11.6669703,38.0286337 C11.6643564,38.0604356 11.6608713,38.0926733 11.6573861,38.1249109 C11.6552079,38.1436436 11.6534653,38.1623762 11.6512871,38.1811089 C11.6443168,38.2329505 11.6369109,38.2843564 11.6277624,38.3366337 C11.6186139,38.3889109 11.6077228,38.4403168 11.596396,38.4921584 C11.5920396,38.5108911 11.5872475,38.5296238 11.5828911,38.5483564 C11.5750495,38.5805941 11.5672079,38.6128317 11.558495,38.6446337 C11.5519604,38.6681584 11.5454257,38.6912475 11.5384554,38.7147723 C11.5310495,38.7409109 11.5232079,38.7666139 11.514495,38.7927525 C11.5062178,38.8188911 11.497505,38.8454653 11.4887921,38.8720396 C11.4813861,38.8925149 11.4739802,38.9134257 11.4665743,38.9347723 C11.4556832,38.964396 11.4447921,38.9944554 11.4330297,39.0236436 C11.4282376,39.0367129 11.4225743,39.0497822 11.4173465,39.0624158 C11.3672475,39.1861386 11.3110495,39.3076832 11.2483168,39.4257426 C10.5752475,40.6934653 9.20384158,41.6039604 7.78407921,41.6039604 L7.78407921,41.6039604 Z M3.23465347,33.4356436 L6.84831683,33.4356436 C5.21726733,34.1653465 3.85413861,35.5659406 3.21592079,37.2475248 L2.56245545,37.2475248 L3.23465347,33.4356436 Z M7.93916832,6.75247525 L31.3550099,6.75247525 L31.0670495,8.38613861 L27.034297,31.2574257 L3.61845545,31.2574257 L7.93916832,6.75247525 Z M41.0454653,8.38613861 L33.2452673,8.38613861 L33.9174653,4.57425743 L6.14518812,4.57425743 L1.44023762,31.2574257 L1.05643564,33.4356436 L0,39.4257426 L2.83168317,39.4257426 C2.89833663,41.9110891 4.76550495,43.7821782 7.40027723,43.7821782 C10.0346139,43.7821782 12.5617822,41.9110891 13.5049505,39.4257426 L29.950495,39.4257426 C30.0171485,41.9110891 31.8843168,43.7821782 34.5190891,43.7821782 C37.1534257,43.7821782 39.6805941,41.9110891 40.6237624,39.4257426 L43.5643564,39.4257426 L45.716,27.223802 L41.0454653,8.38613861 Z" id="Fill-3"></path>
                            <polygon id="Fill-5" points="23.2500792 0.217821782 11.2698812 0.217821782 10.8856436 2.3960396 22.8658416 2.3960396"></polygon>
                            <polygon id="Fill-7" points="9.09166337 0.217821782 6.91344554 0.217821782 6.52920792 2.3960396 8.70742574 2.3960396"></polygon>
                            <polygon id="Fill-9" points="34.4634139 13.8316832 34.0791762 16.009901 35.5843248 16.009901 37.3286416 21.3979406 39.4484832 20.4238416 37.314701 13.8316832"></polygon>
                        </g>
                    </g>
                </g>
            </g>
        </g>
    </g>
</svg>