<?xml version="1.0" encoding="UTF-8"?>
<svg width="50px" height="32px" viewBox="0 0 50 32" version="1.1" xmlns="http://www.w3.org/2000/svg" xmlns:xlink="http://www.w3.org/1999/xlink">
    <g id="Page-1" stroke="none" stroke-width="1" fill="none" fill-rule="evenodd">
        <g id="ICON" fill="#E7131A">
            <path d="M4.768,-1.59872116e-13 L7.10542736e-15,27.0422535 L40.5633803,27.0422535 L45.3313803,-1.59872116e-13 L4.768,-1.59872116e-13 Z M6.624,2.25352113 L42.680338,2.25352113 L38.7069296,24.7887324 L2.65059155,24.7887324 L6.624,2.25352113 Z" id="Fill-1"></path>
            <polygon id="Fill-2" points="46.9888 3.38055211 42.4195606 29.2955944 2.98294085 29.2955944 2.58541972 31.5495662 44.2755606 31.5495662 49.2423211 3.38055211"></polygon>
            <polygon id="Fill-3" points="40.0296563 4.50713239 34.3958535 4.50713239 33.9987831 6.76065352 39.6325859 6.76065352"></polygon>
            <polygon id="Fill-4" points="11.3326873 20.2817803 5.69888451 20.2817803 5.30136338 22.5353014 10.9351662 22.5353014"></polygon>
            <path d="M23.5100845,8.73248451 C26.1503099,8.73248451 27.9197746,10.8809915 27.4541972,13.5212169 C26.9886197,16.1614423 24.4615211,18.3099493 21.8212958,18.3099493 C19.1806197,18.3099493 17.4111549,16.1614423 17.8767324,13.5212169 C18.3423099,10.8809915 20.8694085,8.73248451 23.5100845,8.73248451 M21.4237746,20.5634704 C25.3129014,20.5634704 29.0221972,17.4103437 29.7077183,13.5212169 C30.3936901,9.63209014 27.7967324,6.47896338 23.9071549,6.47896338 C20.0180282,6.47896338 16.3091831,9.63209014 15.6232113,13.5212169 C14.9376901,17.4103437 17.5346479,20.5634704 21.4237746,20.5634704" id="Fill-5"></path>
        </g>
    </g>
</svg>