<?xml version="1.0" encoding="UTF-8"?>
<svg width="42px" height="44px" viewBox="0 0 42 44" version="1.1" xmlns="http://www.w3.org/2000/svg" xmlns:xlink="http://www.w3.org/1999/xlink">
    <!-- Generator: Sketch 55.2 (78181) - https://sketchapp.com -->
    <title>MAKE IT YOURS ICON</title>
    <desc>Created with Sketch.</desc>
    <g id="Page-1" stroke="none" stroke-width="1" fill="none" fill-rule="evenodd">
        <g id="PAGE---HOW-IT-WORKS" transform="translate(-470.000000, -1608.000000)" fill="#E7131A">
            <g id="HOW-IT-WORKS" transform="translate(51.000000, 1531.000000)">
                <g id="MAKE-IT-YOURS" transform="translate(419.000000, 65.000000)">
                    <g id="MAKE-IT-YOURS-ICON" transform="translate(0.000000, 12.000000)">
                        <polygon id="Fill-1" points="18.6449551 28.1378204 14.6454449 23.8594939 12.8495265 25.528351 18.2929551 31.3516163 30.7162204 19.2471265 29.2619755 17.7933306"></polygon>
                        <path d="M17.2596735,-8.52651283e-14 L16.566898,3.92857143 L7.02653061,3.92857143 L5.68434189e-14,43.7755102 L34.7959184,43.7755102 L41.822,3.92857143 L32.2816327,3.92857143 L32.9739592,-8.52651283e-14 L17.2596735,-8.52651283e-14 Z M19.1085714,2.24444898 L30.3335102,2.24444898 L29.1459592,8.97959184 L17.9210204,8.97959184 L19.1085714,2.24444898 Z M30.9948571,11.2240408 L31.8856327,6.17302041 L39.181551,6.17302041 L32.9470204,41.5301633 L2.64089796,41.5301633 L8.87542857,6.17302041 L16.170898,6.17302041 L15.2805714,11.2240408 L30.9948571,11.2240408 Z" id="Fill-2"></path>
                    </g>
                </g>
            </g>
        </g>
    </g>
</svg>