<?xml version="1.0" encoding="UTF-8"?>
<svg width="109px" height="70px" viewBox="0 0 109 70" version="1.1" xmlns="http://www.w3.org/2000/svg" xmlns:xlink="http://www.w3.org/1999/xlink">
    <defs>
        <path d="M69.6786,0.0742 C80.9866,0.0742 91.1716,2.8062 98.3586,7.7672 C101.9516,10.2472 104.6196,13.1612 106.2876,16.4272 C108.0796,19.9332 108.6406,23.6842 107.9546,27.5742 C106.5796,35.3752 100.2736,42.6682 90.5196,47.8442 L90.5196,47.8442 L94.4906,63.5842 L73.3566,53.7862 C69.5937429,54.5190571 65.7537429,54.9418735 61.9052414,55.0477219 L61.2756852,55.0602 L61.6356,55.0542 C61.4471,55.1667 61.2571,55.2787 61.065225,55.3897 L60.4836,55.7192 C52.8556,59.9542 43.3476,62.2862 33.7086,62.2862 C29.9256,62.2862 26.2646,61.9252 22.8146,61.2122 L22.8146,61.2122 L1.1756,69.8342 L9.5796,55.9412 C2.9416,51.5032 -0.1684,45.2872 1.0046,38.6322 C1.5996,35.2612 3.2286,32.0142 5.8476,28.9822 C8.2726,26.1742 11.4446,23.6722 15.2756,21.5452 C18.7966,19.5902 22.7196,18.0422 26.8706,16.9402 C26.7806,17.0492 26.7036,17.1602 26.6156,17.2682 L26.6266852,17.2522 L26.8408222,16.9870519 C26.9159333,16.8933481 26.9913778,16.7997185 27.0680444,16.7063481 L27.3026,16.4272 C30.1236,13.1612 33.8186,10.2472 38.2856,7.7672 C47.2226,2.8062 58.3716,0.0742 69.6786,0.0742 Z M23.1946,22.7932 C23.1466,22.9012 23.0876,23.0082 23.0416,23.1162 C20.9666,23.8822 18.9896,24.7792 17.1456,25.8032 C10.7986,29.3262 6.8426,33.8832 6.0046,38.6322 C5.0696,43.9372 8.1636,49.0402 14.4956,52.6312 L14.4956,52.6312 L16.3766,53.6982 L12.3746,60.3142 L23.2196,55.9932 L23.9686,56.1602 C27.3076,56.9072 30.8816,57.2862 34.5906,57.2862 C40.5086,57.2862 46.3356,56.3332 51.5846,54.5492 C51.5986,54.5512 51.6126,54.5522 51.6256,54.5532 C43.7006,53.5442 36.6646,51.0842 31.3006,47.3812 C27.7076,44.9012 25.0406,41.9882 23.3716,38.7212 C21.5796,35.2152 21.0186,31.4652 21.7046,27.5742 C21.9906,25.9532 22.4966,24.3572 23.1946,22.7932 Z M60.8096852,55.0682 L61.6356,55.0542 C61.0836,55.0672 60.5326,55.0742 59.9806,55.0742 L60.8096852,55.0682 Z M61.2756852,55.0602 L60.8096852,55.0682 L60.9429786,55.0675765 L60.9429786,55.0675765 L61.2756852,55.0602 Z M68.7966,5.0742 C58.4016,5.0742 48.2306,7.5432 40.1556,12.0252 C32.4996,16.2752 27.7236,21.7982 26.7046,27.5742 C25.6856,33.3512 28.5156,38.8732 34.6716,43.1232 C41.1656,47.6052 50.4676,50.0742 60.8626,50.0742 C65.2786,50.0742 69.6926,49.6232 73.9826,48.7342 L73.9826,48.7342 L74.7906,48.5662 L86.6486,54.0642 L84.5116,45.5902 L86.7686,44.5232 C95.9186,40.1982 101.8176,34.0202 102.9546,27.5742 C103.9736,21.7982 101.1436,16.2752 94.9876,12.0252 C88.4936,7.5432 79.1916,5.0742 68.7966,5.0742 Z M52.0591,20.9482 L53.3001,24.8612 L57.5081,25.4892 L53.8461,28.5352 L53.8261,32.8362 L50.3211,30.8052 L46.1001,32.8362 L47.5961,28.5352 L45.0081,25.4892 L49.4371,24.8612 L52.0591,20.9482 Z M66.8716,20.9482 L68.1126,24.8612 L72.3206,25.4892 L68.6586,28.5352 L68.6386,32.8362 L65.1336,30.8052 L60.9126,32.8362 L62.4086,28.5352 L59.8206,25.4892 L64.2496,24.8612 L66.8716,20.9482 Z M81.6841,20.9482 L82.9251,24.8612 L87.1331,25.4892 L83.4711,28.5352 L83.4511,32.8362 L79.9461,30.8052 L75.7251,32.8362 L77.2211,28.5352 L74.6331,25.4892 L79.0621,24.8612 L81.6841,20.9482 Z" id="path-1"></path>
    </defs>
    <g id="Page-1" stroke="none" stroke-width="1" fill="none" fill-rule="evenodd">
        <g id="reviews_error_desktop_nobox" transform="translate(-666.000000, -613.000000)">
            <g id="Group" transform="translate(330.000000, 613.000000)">
                <g id="Icons-/-Promo-/-Reviews" transform="translate(336.000000, 0.000000)">
                    <mask id="mask-2" fill="white">
                        <use xlink:href="#path-1"></use>
                    </mask>
                    <use id="Combined-Shape" fill="#000000" xlink:href="#path-1"></use>
                    <g id="Color-Override-/-Black-Color-Override-/-Red" mask="url(#mask-2)" fill="#E7131A">
                        <g transform="translate(-5.000000, -22.000000)" id="Color-BG">
                            <polygon points="0 120 120 120 120 0 0 0"></polygon>
                        </g>
                    </g>
                </g>
            </g>
        </g>
    </g>
</svg>