<svg width="64" height="64" viewBox="0 0 64 64" fill="none" xmlns="http://www.w3.org/2000/svg">
<path d="M64 41.53L59.79 14H45.33L46 7H4L0 49H3.82L2.82 58H10.16C10.4123 59.6545 11.2491 61.1639 12.5186 62.2545C13.7881 63.3451 15.4064 63.9447 17.08 63.9447C18.7536 63.9447 20.3719 63.3451 21.6414 62.2545C22.9109 61.1639 23.7477 59.6545 24 58H40.58C40.8323 59.6545 41.6691 61.1639 42.9386 62.2545C44.2081 63.3451 45.8264 63.9447 47.5 63.9447C49.1736 63.9447 50.7919 63.3451 52.0614 62.2545C53.3309 61.1639 54.1677 59.6545 54.42 58H60.73L64 41.53ZM57.21 17L61 41.47L60.07 46H42.29L45.05 17H57.21ZM3.3 46L6.73 10H42.73L39.27 46H3.3ZM17.09 61C16.2989 61 15.5255 60.7654 14.8677 60.3259C14.2099 59.8864 13.6972 59.2616 13.3945 58.5307C13.0917 57.7998 13.0125 56.9956 13.1669 56.2196C13.3212 55.4437 13.7022 54.731 14.2616 54.1716C14.821 53.6122 15.5337 53.2312 16.3096 53.0769C17.0856 52.9225 17.8898 53.0017 18.6207 53.3045C19.3516 53.6072 19.9764 54.1199 20.4159 54.7777C20.8554 55.4355 21.09 56.2089 21.09 57C21.09 58.0609 20.6686 59.0783 19.9184 59.8284C19.1683 60.5786 18.1509 61 17.09 61ZM47.5 61C46.7089 61 45.9355 60.7654 45.2777 60.3259C44.6199 59.8864 44.1072 59.2616 43.8045 58.5307C43.5017 57.7998 43.4225 56.9956 43.5769 56.2196C43.7312 55.4437 44.1122 54.731 44.6716 54.1716C45.231 53.6122 45.9437 53.2312 46.7196 53.0769C47.4956 52.9225 48.2998 53.0017 49.0307 53.3045C49.7616 53.6072 50.3864 54.1199 50.8259 54.7777C51.2654 55.4355 51.5 56.2089 51.5 57C51.5 58.0609 51.0786 59.0783 50.3284 59.8284C49.5783 60.5786 48.5609 61 47.5 61ZM54.21 55C53.7803 53.554 52.8949 52.2854 51.6858 51.3834C50.4767 50.4813 49.0085 49.994 47.5 49.994C45.9915 49.994 44.5233 50.4813 43.3142 51.3834C42.1051 52.2854 41.2197 53.554 40.79 55H23.79C23.3575 53.5579 22.4717 52.2937 21.2638 51.3949C20.056 50.4961 18.5905 50.0107 17.085 50.0107C15.5795 50.0107 14.114 50.4961 12.9062 51.3949C11.6983 52.2937 10.8125 53.5579 10.38 55H6.18L6.84 49H59.47L58.27 55H54.21Z" fill="#041022"/>
<path d="M0 0H3V3H0V0Z" fill="#041022"/>
<path d="M6 0H18V3H6V0Z" fill="#041022"/>
<path d="M52.23 23L53.02 27.75L55.98 27.25L54.77 20H49.5V23H52.23Z" fill="#041022"/>
</svg>
