<svg fill="none" height="43" viewBox="0 0 27 43" width="27" xmlns="http://www.w3.org/2000/svg" xmlns:xlink="http://www.w3.org/1999/xlink"><filter id="a" color-interpolation-filters="sRGB" filterUnits="userSpaceOnUse" height="9" width="13" x="7" y="35"><feFlood flood-opacity="0" result="BackgroundImageFix"/><feBlend in="SourceGraphic" in2="BackgroundImageFix" mode="normal" result="shape"/><feGaussianBlur result="effect1_foregroundBlur" stdDeviation="1"/></filter><linearGradient id="b" gradientUnits="userSpaceOnUse" x1="13.5" x2="13.5" y1="1" y2="39"><stop offset="0" stop-color="#fff"/><stop offset="1" stop-color="#fff" stop-opacity=".35"/></linearGradient><clipPath id="c"><path d="m0 0h27v43h-27z"/></clipPath><mask id="d" fill="#000" height="40" maskUnits="userSpaceOnUse" width="27" x="0" y="0"><path d="m0 0h27v40h-27z" fill="#fff"/><path clip-rule="evenodd" d="m26 13.5c0 2.8253-.9373 5.4316-2.5179 7.525-.5618.7816-1.3212 1.6134-2.1619 2.5341-2.9201 3.198-6.8202 7.4694-6.8202 14.4409 0 .5523-.4477 1-1 1s-1-.4477-1-1c0-6.9715-3.90011-11.2429-6.82016-14.4409-.84069-.9207-1.60015-1.7525-2.16191-2.5341-1.58062-2.0934-2.51793-4.6997-2.51793-7.525 0-6.90356 5.59644-12.5 12.5-12.5 6.9036 0 12.5 5.59644 12.5 12.5z" fill="#000" fill-rule="evenodd"/></mask><g clip-path="url(#c)"><g filter="url(#a)"><ellipse cx="13.5" cy="39.5" fill="#000" fill-opacity=".12" rx="4.5" ry="2.5"/></g><path clip-rule="evenodd" d="m26 13.5c0 2.8253-.9373 5.4316-2.5179 7.525-.5618.7816-1.3212 1.6134-2.1619 2.5341-2.9201 3.198-6.8202 7.4694-6.8202 14.4409 0 .5523-.4477 1-1 1s-1-.4477-1-1c0-6.9715-3.90011-11.2429-6.82016-14.4409-.84069-.9207-1.60015-1.7525-2.16191-2.5341-1.58062-2.0934-2.51793-4.6997-2.51793-7.525 0-6.90356 5.59644-12.5 12.5-12.5 6.9036 0 12.5 5.59644 12.5 12.5z" fill="#ea352b" fill-rule="evenodd"/><path d="m23.4821 21.025-.7981-.6026-.0071.0094-.0069.0096zm-2.1619 2.5341.7384.6743zm-15.64036 0 .73847-.6743zm-2.16191-2.5341.81202-.5836-.00686-.0096-.00709-.0093zm20.76217.6026c1.7072-2.261 2.7199-5.0775 2.7199-8.1276h-2c0 2.6004-.8619 4.9966-2.316 6.9224zm-2.2215 2.6058c.8286-.9074 1.6325-1.7857 2.2355-2.6248l-1.6241-1.1672c-.5204.7242-1.2355 1.5094-2.0883 2.4434zm-6.5586 13.7666c0-6.5494 3.6345-10.5641 6.5586-13.7666l-1.4769-1.3486c-2.9159 3.1935-7.0817 7.7217-7.0817 15.1152zm-2 2c1.1046 0 2-.8954 2-2h-2zm-2-2c0 1.1046.8954 2 2 2v-2zm-6.55864-13.7666c2.92417 3.2025 6.55864 7.2172 6.55864 13.7666h2c0-7.3935-4.16575-11.9217-7.08169-15.1152zm-2.23545-2.6247c.60303.839 1.40693 1.7173 2.23545 2.6247l1.47695-1.3486c-.85285-.934-1.56786-1.7192-2.08836-2.4434zm-2.70591-8.1087c0 3.0501 1.01274 5.8666 2.71987 8.1276l1.59613-1.2051c-1.45412-1.9259-2.316-4.3221-2.316-6.9225zm13.5-13.5c-7.45584 0-13.5 6.04416-13.5 13.5h2c0-6.35127 5.14873-11.5 11.5-11.5zm13.5 13.5c0-7.45584-6.0442-13.5-13.5-13.5v2c6.3513 0 11.5 5.14873 11.5 11.5z" fill="url(#b)" mask="url(#d)"/><circle cx="13.5" cy="13.5" fill="#000" fill-opacity=".4" r="4.5"/></g></svg>