<svg xmlns="http://www.w3.org/2000/svg" viewBox="0 0 26 26">
  <g id="mobile" stroke="none" stroke-width="1" fill="none" fill-rule="evenodd" stroke-linejoin="bevel">
    <g id="home_API-error" transform="translate(-334.000000, -83.000000)" stroke="currentColor" stroke-width="2">
      <g id="NonStock-Icon-Obsidian-Landline-P1208918" transform="translate(335.000000, 84.000000)">
        <path d="M7.12,16.9733333 L7.00444444,16.8577778 C2.22222222,12.0666667 0.208888889,7.36 0.0755555556,6.55555556 C-0.164444444,5.15555556 0.488888889,4.52 0.488888889,4.52 L4.98222222,0.0755555556 C6.25333333,0.0888888889 9.02222222,5.32888889 8.85777778,5.72888889 C8.69333333,6.12888889 7.39111111,7.32888889 6.88888889,7.80444444 C6.20444444,8.44888889 6.12888889,8.92888889 6.23111111,9.49777778 C6.52888889,11.1422222 7.18222222,12.2488889 9.35555556,14.6222222 L9.31555556,14.5822222 C11.6844444,16.76 12.7911111,17.4177778 14.4311111,17.7111111 C15,17.8133333 15.4755556,17.7377778 16.12,17.0488889 C16.5911111,16.5466667 17.7955556,15.2444444 18.1911111,15.0755556 C18.5866667,14.9066667 23.8177778,17.6844444 23.8355556,18.9555556 L19.3955556,23.4533333 C19.3955556,23.4533333 18.7644444,24.1066667 17.3644444,23.8666667 C16.5644444,23.7288889 11.8622222,21.7155556 7.08444444,16.9244444 L6.96888889,16.8088889 L7.12,16.9733333 Z" id="Path"></path>
      </g>
    </g>
  </g>
</svg>
