<svg xmlns="http://www.w3.org/2000/svg" viewBox="0 0 567 63">
  <path d="M376.1 5.4v52.2h-7.5V34.8h-28.3v22.8h-7.6V5.4h7.6v22.7h28.3V5.4h7.5zM383.1 39.1c0-11.2 8.2-19.3 19.5-19.3 11.5 0 19.5 8.1 19.5 19.3 0 11.2-7.9 19.3-19.5 19.3-11.4-.1-19.5-8.1-19.5-19.3zm31.8 0c0-7.6-5.1-12.7-12.4-12.7-7.2 0-12.3 5.1-12.3 12.7s5.2 12.7 12.3 12.7c7.4 0 12.4-5.2 12.4-12.7zM485 34.1v23.5h-7V36.2c0-6.8-3.1-10.1-8.1-10.1-5.5 0-9.5 4.3-9.5 10.4v21.1h-7v-21c0-6.9-3.1-10.5-8.1-10.5-5.4 0-9.5 3.9-9.5 10.9v20.6h-7V20.5h7v5.1c2.5-3.8 6.8-6 11.7-6 5.5 0 9.7 2.6 11.7 7.6 2.6-5.1 7.4-7.6 12.6-7.6 8.3.1 13.2 5.3 13.2 14.5zM528 41.1h-29.5c.7 6.9 5.2 11.2 11.8 11.2 5.2 0 8.5-2.3 10.8-4.6l4.8 3.6c-2.9 3.5-7.6 7.1-15.7 7.1-11.4 0-18.7-8.3-18.7-19.1 0-11.1 7.9-19.3 18.5-19.3 10.7 0 18 7.9 18 20.3v.8zm-7.4-5.1c-.7-6.5-4.7-10.4-10.6-10.4-5.7 0-10.6 3.8-11.5 10.4h22.1zM531.9 52.7l4.3-4.4c2.6 2.6 5.9 4.3 10.4 4.3 3.9 0 6.8-1.8 6.8-5.1 0-3.4-2.9-4.5-8.6-6.1-5.9-1.6-11.2-4.3-11.2-10.8s5.4-10.7 13.2-10.7c6.3 0 10.4 2.4 12.8 4.9l-4.1 4.4c-2-2-4.9-3.5-8.6-3.5-4 0-6.5 1.8-6.5 4.8 0 3.1 3.2 4.1 8.2 5.6 6.6 1.8 11.8 4.3 11.8 11.2 0 6.6-5.4 11.2-13.7 11.2-6.9-.2-11.3-2.3-14.8-5.8z"/>
  <g>
    <path d="M197.3 30.2l21.3 27.4h-15.2L183.9 32v25.6h-12.8V5.4h12.8v23.3l18.9-23.3H218l-20.7 24.8zM237.2 46.9h24.9v10.7h-37.7V5.4h36.5v10.7h-23.7v9.6h21.4v10.4h-21.4zM267.3 5.4v10.7h15.9v41.5H296V16.1h15.8V5.4z"/>
    <path d="M267.3 5.4v10.7h15.9v41.5H296V16.1h15.8V5.4zM37.1 37.5l15.7 20.1H38.1L19.4 32.4v25.2H6.6V5.4h23.5c11.2 0 19 6.9 19 16.9-.1 7.1-4.7 13.5-12 15.2zm-.8-15c0-3.9-3.1-6.6-7.5-6.6h-9.4v13.2h9.4c4.5 0 7.5-2.7 7.5-6.6z"/>
    <path d="M83.7 15.8c9.4 0 16.8 7.2 16.8 17.1 0 7.8-3.9 12.5-9.1 16l7.2 9.6c8.9-6.1 14.5-14.5 14.5-25.6 0-16.4-13-28.3-29.4-28.3S54.4 16.5 54.4 32.9c0 11.1 5.6 19.5 14.5 25.6l7.2-9.6c-5.2-3.5-9.1-8.2-9.1-16 0-9.9 7.3-17.1 16.7-17.1z" fill="#c8102e"/>
    <path d="M158.1 43.2l6.7 9.1c-4.9 4.3-10.9 6.2-18.4 6.2-14.7 0-27.4-10.7-27.4-27.1 0-16 12.6-26.9 27.4-26.9 7.1 0 13.5 1.8 18.3 5.7l-7 9.5c-2.8-2.2-6.2-3.9-11.3-3.9-8.1 0-14.6 6.4-14.6 15.9 0 9.3 6.5 15.6 14.8 15.6 5.1-.1 8.6-1.9 11.5-4.1z"/>
  </g>
</svg>
