<svg xmlns="http://www.w3.org/2000/svg" viewBox="0 0 508 67">
  <path d="M222.8 32l24.5 31.4h-17.5l-22.4-29.3v29.3h-14.7V3.5h14.7v26.7L229 3.5h17.4L222.8 32zM268.5 51.1H297v12.3h-43.2V3.6h41.8v12.3h-27.1v10.9H293v12h-24.5zM414 3.6h14.7v59.9H414V40.1h-21v23.4h-14.7V3.6H393v23.2h21V3.6zM303 3.6v12.3h18.2v47.5h14.7V15.9H354V3.6z"/>
  <path d="M303 3.6v12.3h18.2v47.5h14.7V15.9H354V3.6zM39 40.4l18 23H40.2L18.7 34.6v28.8H4V3.5h26.9c12.8 0 21.8 8 21.8 19.4-.1 8.2-5.3 15.6-13.7 17.5zm-.9-17.2c0-4.4-3.5-7.5-8.6-7.5H18.7v15.1h10.8c5.2 0 8.6-3.1 8.6-7.6z"/>
  <path d="M92.5 15.4c10.8 0 19.2 8.3 19.2 19.6 0 9-4.4 14.3-10.4 18.4l8.2 11c10.2-7 16.7-16.7 16.7-29.4 0-18.8-14.9-32.5-33.7-32.5S58.8 16.2 58.8 35c0 12.7 6.4 22.4 16.7 29.4l8.2-11c-6-4.1-10.4-9.4-10.4-18.4 0-11.3 8.4-19.6 19.2-19.6z" fill="#c8102e"/>
  <path d="M487.2 63.4l-2.7-2.7c-4.6 2.4-9.7 3.7-15.3 3.7-17.5 0-31.7-13-31.7-31s14.2-30.9 31.7-30.9S501 15.4 501 33.4c0 7.6-2.6 14.4-6.9 19.7l10 10.3h-16.9zM475 50.7l-12.2-12.9h16.8l4.6 4.8c1.4-2.6 2.1-5.7 2.1-9.2 0-10.9-7.6-18.1-17-18.1-9.7 0-17 7.2-17 18.1 0 11 7.3 18.3 17 18.3 2.1 0 3.9-.3 5.7-1zM177.8 46.9l7.7 10.5c-5.6 5-12.5 7.1-21.1 7.1-16.8 0-31.4-12.3-31.4-31 0-18.4 14.4-30.9 31.4-30.9 8.2 0 15.5 2.1 21 6.5l-8 10.9c-3.3-2.6-7.1-4.5-12.9-4.5-9.3 0-16.8 7.4-16.8 18.2 0 10.7 7.5 17.9 17 17.9 5.7-.1 9.8-2.2 13.1-4.7z"/>
</svg>
