<svg width="82" height="14" viewBox="0 0 82 14" fill="none" xmlns="http://www.w3.org/2000/svg">
<path d="M72.7141 5.30435C73.4959 4.70807 74.4143 4.13664 75.3079 4.13664C76.2511 4.13664 76.6855 4.89441 76.4993 6L75.1217 13.764H79.6641L81.0913 5.41615C81.7615 1.44099 79.2049 0.0124207 76.9089 0.0124207C75.1838 0.0124207 73.4835 0.770185 72.2673 2.12422C71.6468 0.53416 70.2692 0.0124207 68.966 0.0124207C67.3775 0.0124207 65.8634 0.658383 64.6223 2.03727L64.945 0.248446H58.1439L57.4365 4.19876H60.0055L58.3301 13.764H62.8352L64.3245 5.30435C65.1063 4.70807 66.0247 4.13664 66.9183 4.13664C67.8615 4.13664 68.2959 4.89441 68.1097 6L66.7321 13.764H71.2372L72.7141 5.30435Z" fill="#E7131A"/>
<path fill-rule="evenodd" clip-rule="evenodd" d="M42.8418 7.42857C42.8418 3.49068 45.659 0 50.4371 0C54.2224 0 57.2754 2.49689 57.2754 6.57143C57.2754 10.5093 54.4582 14 49.6801 14C45.8948 14 42.8418 11.5155 42.8418 7.42857ZM47.3345 7.21739C47.3345 8.84472 48.3397 10.1118 49.9283 10.1118C51.6782 10.1118 52.7828 8.54658 52.7952 6.78261C52.7952 5.15528 51.7899 3.8882 50.2013 3.8882C48.439 3.8882 47.3345 5.46584 47.3345 7.21739Z" fill="#E7131A"/>
<path fill-rule="evenodd" clip-rule="evenodd" d="M27.7129 7.42857C27.7129 3.49068 30.5301 0 35.3082 0C39.0935 0 42.1465 2.49689 42.1465 6.57143C42.1465 10.5093 39.3293 14 34.5512 14C30.7659 14 27.7129 11.5155 27.7129 7.42857ZM32.2056 7.21739C32.2056 8.84472 33.2108 10.1118 34.7994 10.1118C36.5493 10.1118 37.6663 8.54658 37.6663 6.78261C37.6663 5.15528 36.661 3.8882 35.0724 3.8882C33.3101 3.8882 32.2056 5.46584 32.2056 7.21739Z" fill="#E7131A"/>
<path d="M28.1847 0L27.2911 4.86957H25.4543C23.7292 4.86957 23.0218 5.73913 22.786 7.14286L21.6567 13.764H17.1392L18.8146 4.19876H16.2456L16.953 0.248447H23.7541L23.2701 2.84472C24.1884 0.658385 26.1866 0 28.0482 0H28.1847Z" fill="#E7131A"/>
<path d="M0 4.19875L0.694998 0.248444H7.17338L6.86311 9.66459L11.182 0.248444H16.258L9.41971 13.764H2.56901V4.19875H0Z" fill="#E7131A"/>
</svg>
