<svg width="32" height="32" viewBox="0 0 32 32" fill="none" xmlns="http://www.w3.org/2000/svg">
<path fill-rule="evenodd" clip-rule="evenodd" d="M16 3.888C19.2123 3.888 22.293 5.16408 24.5645 7.43552C26.8359 9.70696 28.112 12.7877 28.112 16C28.112 16.2122 28.0277 16.4157 27.8777 16.5657C27.7277 16.7157 27.5242 16.8 27.312 16.8C27.0998 16.8 26.8963 16.7157 26.7463 16.5657C26.5963 16.4157 26.512 16.2122 26.512 16C26.512 13.212 25.4045 10.5383 23.4331 8.56689C21.4617 6.59551 18.788 5.488 16 5.488C15.7878 5.488 15.5843 5.40371 15.4343 5.25369C15.2843 5.10366 15.2 4.90017 15.2 4.688C15.2 4.47583 15.2843 4.27234 15.4343 4.12231C15.5843 3.97229 15.7878 3.888 16 3.888ZM16 0C18.1012 0 20.1817 0.413852 22.1229 1.21793C24.0641 2.022 25.828 3.20055 27.3137 4.68629C28.7994 6.17203 29.978 7.93586 30.7821 9.87707C31.5861 11.8183 32 13.8989 32 16C32 16.2122 31.9157 16.4157 31.7657 16.5657C31.6157 16.7157 31.4122 16.8 31.2 16.8C30.9878 16.8 30.7843 16.7157 30.6343 16.5657C30.4843 16.4157 30.4 16.2122 30.4 16C30.4 12.1809 28.8829 8.51819 26.1823 5.81766C23.4818 3.11714 19.8191 1.6 16 1.6C15.7878 1.6 15.5843 1.51571 15.4343 1.36569C15.2843 1.21566 15.2 1.01217 15.2 0.8C15.2 0.587827 15.2843 0.384344 15.4343 0.234315C15.5843 0.0842854 15.7878 0 16 0ZM9.348 1.6H4.184C3.84466 1.6 3.50865 1.66684 3.19515 1.7967C2.88164 1.92655 2.59678 2.11689 2.35684 2.35684C1.87224 2.84143 1.6 3.49868 1.6 4.184C1.6 11.1369 4.36204 17.8051 9.27849 22.7215C14.1949 27.638 20.8631 30.4 27.816 30.4C28.5013 30.4 29.1586 30.1278 29.6432 29.6432C30.1278 29.1586 30.4 28.5013 30.4 27.816V22.652C30.3957 22.2481 30.2691 21.8551 30.0371 21.5245C29.805 21.1939 29.4783 20.9413 29.1 20.8L25.784 19.568C25.3015 19.3894 24.7687 19.4036 24.2964 19.6078C23.824 19.8119 23.4486 20.1902 23.248 20.664L21.444 24.94C21.401 25.0395 21.3382 25.1292 21.2594 25.2037C21.1806 25.2782 21.0875 25.3359 20.9858 25.3733C20.884 25.4107 20.7757 25.4271 20.6675 25.4213C20.5592 25.4156 20.4532 25.3879 20.356 25.34L20.264 25.296C15.2 22.828 9.112 16.716 6.652 11.644C6.60406 11.5468 6.57639 11.4408 6.57067 11.3325C6.56494 11.2243 6.58128 11.116 6.61869 11.0142C6.6561 10.9125 6.7138 10.8194 6.78829 10.7406C6.86277 10.6618 6.95249 10.599 7.052 10.556L11.348 8.752C11.8218 8.55142 12.2001 8.17595 12.4042 7.70365C12.6084 7.23134 12.6226 6.69854 12.444 6.216L11.22 2.9C11.0775 2.51848 10.8218 2.18957 10.4873 1.95726C10.1528 1.72495 9.75528 1.60031 9.348 1.6ZM9.348 0C10.082 0.000365142 10.7983 0.22508 11.401 0.644026C12.0037 1.06297 12.4639 1.65613 12.72 2.344L13.952 5.656C14.2742 6.52536 14.2486 7.48552 13.8805 8.33647C13.5124 9.18742 12.8302 9.86355 11.976 10.224L8.476 11.696C10.876 16.072 15.948 21.148 20.304 23.524L21.776 20.024C22.1365 19.1698 22.8126 18.4876 23.6635 18.1195C24.5145 17.7514 25.4746 17.7258 26.344 18.048L29.656 19.28C30.3439 19.5361 30.937 19.9963 31.356 20.599C31.7749 21.2017 31.9996 21.918 32 22.652V27.816C32 28.9257 31.5592 29.9899 30.7745 30.7745C29.9899 31.5592 28.9257 32 27.816 32C24.163 32.0005 20.5457 31.2814 17.1707 29.8837C13.7956 28.486 10.729 26.4371 8.14595 23.8541C5.56289 21.271 3.514 18.2044 2.1163 14.8293C0.718598 11.4543 -0.000525134 7.837 2.87714e-07 4.184C2.87714e-07 3.07433 0.440813 2.01012 1.22547 1.22547C2.01012 0.440813 3.07433 0 4.184 0H9.348Z" fill="#EC0000"/>
</svg>
