<svg width="64" height="56" viewBox="0 0 64 56" fill="none" xmlns="http://www.w3.org/2000/svg">
<path fill-rule="evenodd" clip-rule="evenodd" d="M53.6083 2.80002C51.2216 2.80002 48.8126 3.71449 46.8271 5.37545C44.8416 7.0364 43.5164 9.24391 43.0952 11.5925C42.674 13.9412 43.2085 16.1487 44.5985 17.8096C45.9886 19.4706 48.0697 20.3851 50.4565 20.3851C52.8439 20.3851 55.2523 19.4706 57.2378 17.8096C59.2233 16.1487 60.5484 13.9412 60.9702 11.5925C61.3909 9.24391 60.8564 7.0364 59.4663 5.37545C58.0762 3.71449 55.9951 2.80002 53.6083 2.80002ZM43.1316 20.7194L35.7532 26.89L34.0956 24.9104L41.474 18.7398C40.257 16.7708 39.7657 14.2889 40.249 11.5925C41.3966 5.19006 47.6024 0 54.1104 0C60.6184 0 64.9634 5.19006 63.8164 11.5925C62.6682 17.9944 56.4625 23.185 49.9544 23.185C47.2141 23.185 44.8564 22.2638 43.1316 20.7194ZM44.3232 40.9501H55.7078L56.1718 38.3607L52.0796 33.1801H10.8244L4.94143 38.3556L4.50198 40.8101H15.8866L15.3345 43.8901H3.94982L3.34814 47.2501H54.5791L55.2058 43.7501H43.8211L44.3232 40.9501ZM44.1201 53.2001H49.8124L50.3771 50.0501H44.6847L44.1201 53.2001ZM5.98145 53.2001H11.6738L12.2384 50.0501H6.54612L5.98145 53.2001ZM18.6959 19.2502L12.7206 30.3801H53.7999L59.2189 37.2395L58.5541 40.9501L58.052 43.7501L56.9232 50.05H53.2232L52.1565 56H40.7718L41.8386 50.05H15.0847L14.0179 56H2.63327L3.70001 50.05H0L1.10374 43.8901L1.6559 40.8101L2.29514 37.2446L9.35135 31.0359L17.1811 16.4502H35.1239L34.6224 19.2502H18.6959Z" fill="#E7131A"/>
<mask id="mask0" mask-type="alpha" maskUnits="userSpaceOnUse" x="0" y="0" width="64" height="56">
<path fill-rule="evenodd" clip-rule="evenodd" d="M53.6083 2.80002C51.2216 2.80002 48.8126 3.71449 46.8271 5.37545C44.8416 7.0364 43.5164 9.24391 43.0952 11.5925C42.674 13.9412 43.2085 16.1487 44.5985 17.8096C45.9886 19.4706 48.0697 20.3851 50.4565 20.3851C52.8439 20.3851 55.2523 19.4706 57.2378 17.8096C59.2233 16.1487 60.5484 13.9412 60.9702 11.5925C61.3909 9.24391 60.8564 7.0364 59.4663 5.37545C58.0762 3.71449 55.9951 2.80002 53.6083 2.80002ZM43.1316 20.7194L35.7532 26.89L34.0956 24.9104L41.474 18.7398C40.257 16.7708 39.7657 14.2889 40.249 11.5925C41.3966 5.19006 47.6024 0 54.1104 0C60.6184 0 64.9634 5.19006 63.8164 11.5925C62.6682 17.9944 56.4625 23.185 49.9544 23.185C47.2141 23.185 44.8564 22.2638 43.1316 20.7194ZM44.3232 40.9501H55.7078L56.1718 38.3607L52.0796 33.1801H10.8244L4.94143 38.3556L4.50198 40.8101H15.8866L15.3345 43.8901H3.94982L3.34814 47.2501H54.5791L55.2058 43.7501H43.8211L44.3232 40.9501ZM44.1201 53.2001H49.8124L50.3771 50.0501H44.6847L44.1201 53.2001ZM5.98145 53.2001H11.6738L12.2384 50.0501H6.54612L5.98145 53.2001ZM18.6959 19.2502L12.7206 30.3801H53.7999L59.2189 37.2395L58.5541 40.9501L58.052 43.7501L56.9232 50.05H53.2232L52.1565 56H40.7718L41.8386 50.05H15.0847L14.0179 56H2.63327L3.70001 50.05H0L1.10374 43.8901L1.6559 40.8101L2.29514 37.2446L9.35135 31.0359L17.1811 16.4502H35.1239L34.6224 19.2502H18.6959Z" fill="white"/>
</mask>
<g mask="url(#mask0)">
<path fill-rule="evenodd" clip-rule="evenodd" d="M-1.86963 61.8799H66.4383V-5.31982H-1.86963V61.8799Z" fill="#E7131A"/>
</g>
</svg>
