<?xml version="1.0" encoding="UTF-8"?>
<svg width="117px" height="101px" viewBox="0 0 117 101" version="1.1" xmlns="http://www.w3.org/2000/svg" xmlns:xlink="http://www.w3.org/1999/xlink">
    <!-- Generator: Sketch 60.1 (88133) - https://sketch.com -->
    <title>Group</title>
    <desc>Created with Sketch.</desc>
    <g id="Desktop---Finance-with-vroom-" stroke="none" stroke-width="1" fill="none" fill-rule="evenodd">
        <g id="11---Credit--application---Emoloyment-income-info---Secondary-income---Filled-in" transform="translate(-954.000000, -1898.000000)" fill="#E7131A">
            <g id="Group" transform="translate(954.620400, 1898.499700)">
                <path d="M104.3767,36.2 L95.3777,27.409 L92.6467,24.742 L88.9757,27.409 L76.8767,36.2 L82.3777,5 L109.8777,5 L104.3767,36.2 Z M78.2597,0 L69.9937,46.875 L91.4987,31.25 L107.4937,46.875 L115.7597,0 L78.2597,0 Z" id="Fill-299"></path>
                <path d="M97.865,73.1253 L77.865,73.1253 L76.984,78.1253 L96.984,78.1253 L95.882,84.3753 L5.882,84.3753 L6.939,78.3753 L26.939,78.3753 L27.909,72.8753 L7.909,72.8753 L8.682,68.4923 L19.016,59.2503 L91.607,59.2503 L98.682,68.4923 L97.865,73.1253 Z M87.509,95.0003 L77.509,95.0003 L78.5,89.3753 L88.5,89.3753 L87.509,95.0003 Z M20.509,95.0003 L10.509,95.0003 L11.5,89.3753 L21.5,89.3753 L20.509,95.0003 Z M22.348,54.2503 L32.844,34.3753 L62.198,34.3753 L63.08,29.3753 L30.184,29.3753 L16.429,55.4213 L4.032,66.5083 L2.909,72.8753 L1.939,78.3753 L7.81597009e-14,89.3753 L6.5,89.3753 L4.627,100.0003 L24.627,100.0003 L26.5,89.3753 L73.5,89.3753 L71.627,100.0003 L91.627,100.0003 L93.5,89.3753 L100,89.3753 L101.984,78.1253 L102.865,73.1253 L104.032,66.5083 L94.648,54.2503 L22.348,54.2503 Z" id="Fill-300"></path>
            </g>
        </g>
    </g>
</svg>