<?xml version="1.0" encoding="UTF-8"?>
<svg width="90px" height="90px" viewBox="0 0 82 76" version="1.1" xmlns="http://www.w3.org/2000/svg" xmlns:xlink="http://www.w3.org/1999/xlink">
    <!-- Generator: Sketch 62 (91390) - https://sketch.com -->
    <title>Combined Shape</title>
    <desc>Created with Sketch.</desc>
    <defs>
        <path d="M44.608625,41.3585 L44.813375,42.63425 L46.659125,53.74625 L46.626125,53.75675 L50.841125,59.18075 L48.775625,70.8875 L45.729875,70.8875 L44.851625,75.86825 L34.071125,75.86825 L34.949375,70.8875 L14.326625,70.8875 L13.448375,75.86825 L2.668625,75.86825 L3.546125,70.8875 L0.500375,70.8875 L2.563625,59.1875 L8.479625,53.897 L15.099875,41.3585 L44.608625,41.3585 Z M41.979875,70.8875 L38.699375,70.8875 L38.482625,72.1175 L41.763125,72.1175 L41.979875,70.8875 Z M10.577375,70.8875 L7.296125,70.8875 L7.079375,72.1175 L10.359875,72.1175 L10.577375,70.8875 Z M43.783625,56.76725 L10.419875,56.76725 L6.050375,60.6755 L5.840375,61.865 L14.511125,61.865 L13.851125,65.615 L5.179625,65.615 L4.910375,67.13825 L45.688625,67.13825 L45.956375,65.615 L37.286375,65.615 L37.946375,61.865 L46.617875,61.865 L46.826375,60.68225 L43.783625,56.76725 Z M74.979875,21.116675 L77.037875,33.504425 L77.004875,33.515675 L81.219875,38.938925 L79.155875,50.644925 L76.108625,50.644925 L75.231125,55.625675 L64.450625,55.625675 L65.328875,50.644925 L49.116875,50.644925 L48.493625,46.895675 L76.066625,46.895675 L76.335875,45.372425 L67.664375,45.372425 L68.325875,41.622425 L76.997375,41.622425 L77.205125,40.439675 L74.163125,36.525425 L40.798625,36.525425 L38.538125,38.547425 L33.387875,38.547425 L38.858375,33.654425 L45.479375,21.116675 L74.979875,21.116675 Z M41.253875,45.1085 L17.095625,45.1085 L12.918125,53.01875 L42.522875,53.01875 L41.253875,45.1085 Z M72.359375,50.644925 L69.078125,50.644925 L68.861375,51.875675 L72.142625,51.875675 L72.359375,50.644925 Z M59.923175,0.867275 L61.849925,12.876275 L65.977925,18.188525 L65.957675,18.305525 L60.887675,18.305525 L59.039675,15.925775 L26.723675,15.925775 L22.522925,19.683275 L22.333925,20.758025 L30.688175,20.758025 L30.028175,24.508025 L21.672425,24.508025 L21.431675,25.873025 L39.985925,25.873025 L38.006675,29.622275 L30.545675,29.622275 L29.694425,34.452275 L19.124675,34.452275 L19.976675,29.622275 L17.020925,29.622275 L19.036175,18.195275 L24.784175,13.054775 L31.219925,0.867275 L59.923175,0.867275 Z M71.640125,24.866675 L47.473625,24.866675 L43.296875,32.776175 L72.954125,32.776175 L71.640125,24.866675 Z M26.795675,29.622275 L23.725925,29.622275 L23.535425,30.703775 L26.605925,30.703775 L26.795675,29.622275 Z M56.568425,4.616525 L33.214925,4.616525 L29.222675,12.176525 L57.781175,12.176525 L56.568425,4.616525 Z" id="path-1"></path>
    </defs>
    <g id="Page-1" stroke="none" stroke-width="1" fill="none" fill-rule="evenodd">
        <mask id="mask-2" fill="white">
            <use xlink:href="#path-1"></use>
        </mask>
        <use id="Combined-Shape" fill="#041022" xlink:href="#path-1"></use>
    </g>
</svg>