<svg fill="none" height="64" viewBox="0 0 105 64" width="105" xmlns="http://www.w3.org/2000/svg" xmlns:xlink="http://www.w3.org/1999/xlink"><clipPath id="a"><path d="m0 0h104.828v64h-104.828z"/></clipPath><g clip-path="url(#a)"><path clip-rule="evenodd" d="m88.3435 63.5453v-13.7355h-5.7444v13.7355zm-30.4115-5.7033v-7.8244h-5.5678v5.9812c0 1.7384-.0704 2.2259-.176 2.678-.3878 1.2521-1.7271 1.8073-3.101 1.8073-1.9025 0-2.7836-.73-3.1362-1.8774-.1056-.3814-.1408-.7988-.176-1.2162-.0352-.4521 0-.9396 0-1.46v-5.9123h-5.6382v7.8591c0 1.7744.5996 3.0954 1.5857 3.9991 1.6913 1.6348 4.5459 2.1216 7.1887 2.1216 3.2066 0 5.6734-.4521 7.4351-2.1558.9169-.8701 1.5857-2.0175 1.5857-4.0002zm-27.3451-.9737c-.2792-.0479-.5621-.0709-.8454-.0689h-6.3427c-.3174 0-.67.0348-.846.0689.1056-.1048.3174-.3126.5286-.5911l2.854-4.6601c.3878-.6252.5638-1.0426.6342-1.2162.0704.1736.2463.591.6341 1.2521l2.925 4.6949c.1414.2078.3526.4156.4582.5204zm10.6422 6.677-12.6861-18.7771h-7.1177l1.8673 2.1905c.0352.0348.1062.0689.176.1048-.0704.0348-.1408.0689-.176.1036l-11.0647 16.3782h6.4132l1.7271-2.8169c.0704-.1389.1056-.2785.1056-.3473.0704 0 .247.0688.4229.0688h11.4525c.1759 0 .3167-.0347.3871-.0688-.0064.0977.0182.1951.0704.2784l1.7975 2.8858zm39.8201-7.0585c0-1.5306-.6348-3.3043-2.6077-5.7733l-4.7576-5.9459h-6.625l3.7704 4.1727c.6347.6958 1.4449 1.321 1.4449 1.321-.9158-.5221-2.0785-.7299-2.9948-.7299-2.1847 0-4.4057.4521-6.378 1.5306-2.1148 1.1462-3.5245 3.0594-3.5245 5.5985 0 1.9468.8811 3.4427 2.0086 4.5901 2.5379 2.5031 7.1529 2.7468 8.8448 2.7468 2.5014 0 6.4132-.5563 8.6342-2.5384 1.3041-1.1827 2.1847-2.8164 2.1847-4.9722zm-5.4975.1737c0 1.4258-.9521 2.5031-2.15 3.0942-.9867.5222-2.15.6611-3.1714.6611-1.0213 0-2.2198-.209-3.2066-.6958-1.1979-.5911-2.1148-1.7385-2.1148-2.9906 0-1.4947 1.1627-2.678 2.5378-3.2691.846-.3815 1.8679-.521 2.6774-.521.7762 0 1.9037.1036 2.7848.4521 1.5863.66 2.6428 1.9121 2.6428 3.2691zm10.9668-56.66047409c-4.1259-.00657307-8.1323 1.36701409-11.3653 3.89659409-3.2329-2.52975-7.2393-3.90335321-11.3653-3.89659409-4.1257-.0063004-8.1318 1.36726409-11.3647 3.89659409-3.2326-2.52987-7.2389-3.90349916-11.3647-3.89659409-4.1257-.0063004-8.1318 1.36726409-11.3647 3.89659409-3.2329-2.52941-7.239-3.90298748-11.3647-3.89659409-10.12444 0-18.3291 8.09578409-18.3291 18.08717409 0 9.9902 8.20407 18.0872 18.3291 18.0872 4.1257.0062 8.1318-1.3673 11.3647-3.8966 3.2329 2.5294 7.239 3.903 11.3647 3.8966 4.1258.0068 8.1321-1.3668 11.3647-3.8966 3.2329 2.5293 7.239 3.9029 11.3647 3.8966 4.126.0067 8.1324-1.3669 11.3653-3.8966 3.233 2.5297 7.2394 3.9033 11.3653 3.8966 10.1245 0 18.3285-8.0964 18.3285-18.0872s-8.204-18.08717409-18.3285-18.08717409zm-59.8237 29.32307409c-2.3355 1.6813-5.2534 2.7074-8.3657 2.7074-7.8103 0-14.13042-6.2361-14.13042-13.9433s6.32012-13.94391 14.13042-13.94391c3.1123 0 6.0284 1.02669 8.3657 2.7086-2.5752 3.19261-3.9734 7.15471-3.9648 11.23531.0019 4.079 1.3989 8.0379 3.9648 11.2359zm2.9996-2.9511c-1.8012-2.396-2.771-5.3015-2.7651-8.2848-.0076-2.9835.9623-5.8896 2.7651-8.28475 1.8024 2.39535 2.7723 5.30125 2.7651 8.28475.0057 2.9832-.964 5.8887-2.7651 8.2848zm19.7304 2.9511c-2.4265 1.7629-5.3626 2.7105-8.3758 2.7033-3.0071.006-5.9365-.9416-8.3562-2.7033 2.5661-3.1976 3.9631-7.1565 3.9648-11.2353.0086-4.0806-1.3896-8.0427-3.9648-11.23532 2.4195-1.76216 5.349-2.71009 8.3562-2.7039 3.135 0 6.0313 1.00079 8.3758 2.7039-2.5752 3.19262-3.9734 7.15472-3.9648 11.23532.0018 4.0788 1.3988 8.0377 3.9648 11.2353zm2.9984-2.9511c-1.8012-2.396-2.771-5.3015-2.7651-8.2848-.0073-2.9835.9626-5.8895 2.7651-8.28475 1.8029 2.39515 2.773 5.30115 2.7657 8.28475.0058 2.9834-.9642 5.8889-2.7657 8.2848zm19.7311 2.9511c-2.3446 1.7037-5.2409 2.7033-8.3753 2.7033s-6.0123-1.0014-8.3568-2.7033c2.5664-3.1975 3.9634-7.1564 3.9648-11.2353.0086-4.0806-1.3895-8.0427-3.9648-11.23532 2.3445-1.70252 5.2224-2.7039 8.3568-2.7039s6.0307 1.00079 8.3753 2.7039c-2.575 3.19282-3.9731 7.15482-3.9649 11.23532.0021 4.0788 1.3991 8.0375 3.9649 11.2353zm2.9995-2.9511c-1.8012-2.396-2.771-5.3015-2.7651-8.2848-.0078-2.9836.9621-5.8897 2.7651-8.28475 1.8025 2.39535 2.7723 5.30125 2.7651 8.28475.0055 2.9832-.9642 5.8886-2.7651 8.2848zm11.3647 5.6585c-3.1135 0-6.0307-1.0261-8.3657-2.7074 2.5659-3.1977 3.9629-7.1565 3.9648-11.2353.0083-4.0805-1.3898-8.0425-3.9648-11.23532 2.3374-1.68133 5.2528-2.7086 8.3657-2.7086 7.8092 0 14.1305 6.23662 14.1305 13.94392 0 7.7061-6.3213 13.9427-14.1305 13.9427z" fill="#000" fill-rule="evenodd"/></g></svg>