<svg fill="none" height="72" viewBox="0 0 72 72" width="72" xmlns="http://www.w3.org/2000/svg"><path d="m61.4557 10.5443c-6.7996-6.8003-15.84-10.5443-25.4557-10.5443-19.8507 0-36 16.1493-36 36 0 9.6157 3.744 18.6561 10.5443 25.4557 6.8002 6.7997 15.84 10.5443 25.4557 10.5443s18.6561-3.744 25.4557-10.5443c6.7997-6.8002 10.5443-15.84 10.5443-25.4557s-3.744-18.6561-10.5443-25.4557zm-25.4557 60.2101c-9.2831 0-18.0107-3.6153-24.575-10.1794-6.56442-6.5641-10.1794-15.2919-10.1794-24.575s3.61526-18.0107 10.1794-24.575c6.5641-6.56442 15.2919-10.1794 24.575-10.1794s18.0107 3.61498 24.5748 10.1794c6.564 6.5643 10.1796 15.2928 10.1796 24.575 0 19.1635-15.5909 34.7544-34.7544 34.7544z" fill="#000"/><path d="m36.0003 2.67847c-18.4032 0-33.32159 14.91843-33.32159 33.32163s14.91839 33.3216 33.32159 33.3216 33.3216-14.9184 33.3216-33.3216-14.9184-33.32163-33.3216-33.32163zm-4.8698 1.81929h2.6381l2.3872 6.24734 2.3876-6.24734h2.6383v8.77014h-1.7568v-6.12399l-2.3103 6.12399h-1.9178l-2.3106-6.12399v6.12399h-1.7568zm-22.11982 14.42884 4.27972-5.1002c.8858-1.0558 2.1242-1.8988 3.301-.9113.3638.305.5184.4055.9588 1.2096.1039.2854.1837.8027-.0118 1.3096 1.0238-.6336 2.1145-.4283 2.8201.2592 1.084 1.0538.9244 2.272-.1066 3.5012l-4.5135 5.3767zm26.98962 38.3584c-11.7553 0-21.2852-9.5296-21.2852-21.2849s9.5299-21.2852 21.2852-21.2852 21.2849 9.5299 21.2849 21.2852-9.5296 21.2849-21.2849 21.2849zm19.8328-32.5342-1.5926-1.9826 3.1732-4.6397-.0187-.0233-5.1981 2.139-1.6082-1.97 5.5025-7.0778 1.357 1.6773-3.4459 4.506 5.2658-2.2596 1.4559 1.7977-3.306 4.68 5.1264-2.4333 1.3571 1.6758z" fill="#000"/><path d="m36.1686 10.7769-.0127-.0325-.0123.0325z" fill="#fff"/><g fill="#000"><path d="m15.6284 15.1107c-.432-.3631-1.1059-.3778-1.4037-.0227l-2.5704 3.0634 1.59 1.3344 2.5416-3.0289c.3197-.3808.3186-.947-.1575-1.3462z"/><path d="m36.1686 10.7769-.0127-.0325-.0123.0325z"/><path d="m18.5329 17.1409c-.4588-.3851-1.1387-.2794-1.4437.0844l-2.7015 3.2192 1.6805 1.4112 2.681-3.1933c.3546-.4254.303-1.086-.2163-1.5215z"/><path d="m16.084 36h19.9158v-19.9158c-10.999 0-19.9158 8.9168-19.9158 19.9158zm19.9158 0v19.9158c10.999 0 19.9154-8.9168 19.9154-19.9158z"/></g></svg>