<svg height="174.5" width="275.3" xmlns="http://www.w3.org/2000/svg"><path d="m31.778126 146.25 4.200001.5c1.899998.199997 2.099998 1.800003 2.099998 2.800003v4.899994h-19.299999v-4.899994c0-1 .199999-2.600006 2.099998-2.800003l4.200001-.5v-4.199997h-25v4.199997l4.200001.5c1.9.199997 2.099998 1.800003 2.099998 2.800003v16.199997c0 1-.199999 2.600006-2.099998 2.800003l-4.200001.5v4.199997h25v-4.199997l-4.200001-.5c-1.9-.199997-2.099998-1.800003-2.099998-2.800003v-4.899994h19.200001v4.899994c0 1-.200001 2.600006-2.100002 2.800003l-4.200001.5v4.199997h25v-4.199997l-4.199997-.5c-1.900002-.199997-2.100002-1.800003-2.100002-2.800003v-16.199997c0-1 .200001-2.600006 2.100002-2.800003l4.199997-.5v-4.199997h-25v4.199997z"/><path d="m198.278122 142.050003h-30.800003v4.199997l3.700012.399994c1.299988.200012 2.199997.700012 2.199997 2.5v16.5c0 1-.199997 2.600006-2.100006 2.800003l-4.199997.5v4.199997h31.199997c11.199997 0 20.400009-4.5 20.400009-15.599991s-9.200012-15.5-20.400009-15.5m-2.300003 25.199997h-10.5v-19.199997h10.5c6.199997 0 8.300003 2.899994 8.300003 9.599991 0 6.600006-2.099991 9.600006-8.300003 9.600006"/><path d="m271.078125 168.550003c-2-.199997-2.600006-1.5-3.200012-2.400009l-14.399994-22c-1-1.599991-1.799988-2.099991-3.299988-2.099991h-23.600006v4.199997l5.699997.600006c.800003.099991 1.900009 1.199997 1 2.599991l-10.699997 17.300003c-.399994.699997-1 1.5-2.199997 1.699997l-4.199997.5v4.199997h19.899994v-4.199997l-3.399994-.300003c-1.5-.199997-2.300003-1.199997-1.5-2.399994l1.599991-2.600006h19.199997l1.399994 2.100006c1.300018 1.899994-.299988 2.699997-1.699982 2.800003l-3.5.399994v4.199997h27v-4.199997zm-35-10.400009 5.899994-9.600006 6.300018 9.600006z"/><path d="m145.178131 146.25 4.199997.5c1.900009.199997 2.100006 1.800003 2.100006 2.800003v15.599991l-16.5-21.799988c-.699997-1-1.399994-1.300003-3.199997-1.300003h-21.400002v4.199997l4.199997.5c1.900002.199997 2.099998 1.800003 2.099998 2.800003v16.199997c0 1-.199997 2.600006-2.099998 2.800003l-4.199997.5v4.199997h19.999992v-4.199997l-4.199997-.5c-1.899994-.199997-2.099991-1.800003-2.099991-2.800003v-15.600006l16.5 21.700012c.799988 1 1.399994 1.299988 3.199997 1.299988h.199997 15v-23.699997c0-1 .199997-2.599991 2.100006-2.800003l4.199997-.5v-4.199997h-19.900009l-.199997 4.300003z"/><path d="m83.478127 140.949997c-20.300003 0-25.5 8.900009-25.5 16.600006s5.199997 16.699997 25.5 16.699997c20.299995 0 25.5-8.899994 25.5-16.600006 0-7.799988-5.200005-16.699997-25.5-16.699997m0 27.400009c-7.900002 0-11.099998-3.300003-11.099998-10.699997s3.299995-10.699997 11.099998-10.699997c7.900002 0 11.099998 3.300003 11.099998 10.699997s-3.199997 10.699997-11.099998 10.699997"/><path d="m172.178131 10.549999c-3.399994 15.299999-4.800003 22.400002-7.599991 33.400002-2.700012 10.600002-4.800003 20.499996-8.400009 25.299999-3.599991 4.900002-8.5 5.900002-11.800003 6.300003-1.699997.199997-3 .299995-6.699997.299995s-5-.099998-6.699997-.299995c-3.300003-.400002-8.199997-1.400002-11.800003-6.300003-3.599991-4.800003-5.699997-14.699997-8.299995-25.299999-2.800003-11.100002-4.199997-18.100002-7.599998-33.400002 0 0-3.400002.1-4.900002.200001-2.099998.1-3.699997.299999-5.400002.5 0 0 2 31.5 2.900002 44.900002.900002 14 2.599998 37.699997 4.099998 55.599998 0 0 2.900002.5 7.700005.699997 5 .300003 7.299995.300003 7.299995.300003 2.100006-7.900002 4.600006-18.800003 7.5-23.5 2.399994-3.800003 6-4.199997 8.100006-4.5 3.199997-.400002 6-.5 7.199997-.5 1.300003 0 4 0 7.199997.5 2.100006.300003 5.699997.699997 8.100006 4.5 2.899994 4.699997 5.5 15.599998 7.5 23.5 0 0 2.199997 0 7.199997-.300003 4.800003-.299995 7.699997-.699997 7.699997-.699997 1.5-17.900002 3.199997-41.5 4.100006-55.599998.899994-13.300003 2.899994-44.900002 2.899994-44.900002-1.699997-.200001-3.399994-.4-5.399994-.5-1.500015-.1-4.900009-.200001-4.900009-.200001"/><path d="m211.878128 29.150002c-2-20.000002-15.400009-24.200001-27.100006-26.200002-5.899994-1-16.399994-1.8-23.099991-2.099999-5.900009-.400001-19.700012-.6-23.900009-.6s-18 .2-23.899994.6c-6.700005.299999-17.200005 1.099999-23.100006 2.099999-11.699997 2.000001-25.099998 6.2-27.099998 26.200002-.599998 5.5-.699997 12.599998-.599998 20.199997.199997 12.700005 1.300003 21.200005 1.900002 27.200005.400002 4.099998 2.099998 16.299995 4.299995 22.599998 3 8.699997 5.700005 11.199997 8.900002 13.799995 5.800003 4.699997 15.400002 6.199997 17.400002 6.600006 10.800003 1.899994 32.600006 2.300003 42.300003 2.300003 9.599991 0 31.5-.300003 42.300003-2.300003 2-.400009 11.599991-1.800003 17.399994-6.600006 3.199997-2.599998 5.899994-5.099998 8.899994-13.799995 2.200012-6.300003 3.900009-18.599998 4.300003-22.599998.600006-5.900002 1.699997-14.5 1.900009-27.200005-.100006-7.699997-.300003-14.799999-.800003-20.199997m-7.400009 33.599998c-1.199997 16-2.600006 25.599998-4.600006 32.5-1.800003 6.099998-4 10.099998-7.199997 13-5.399994 4.900002-12.800003 5.900002-17.199997 6.599998-9.400009 1.400002-25.300003 1.900002-37.699997 1.900002-12.5 0-28.300011-.5-37.700005-1.900002-4.400002-.699997-11.800003-1.699997-17.200005-6.599998-3.199997-2.900002-5.400002-7-7.199997-13-2-6.900002-3.5-16.5-4.599998-32.5-.700005-9.599998-.600006-25.200001.5-33.599998 1.500008-12.600002 7.700005-18.900002 21.000008-21.200001 6.199997-1.1 14.599998-1.900002 22.5-2.300001 6.399994-.4 16.800003-.6 22.699997-.6 5.800003-.099998 16.300003.200001 22.600006.6 7.899994.4 16.300003 1.200001 22.5 2.300001 13.300003 2.4 19.5 8.699999 21.099991 21.200001 1.100006 8.299999 1.200012 23.900002.5 33.599998"/></svg>