<svg fill="none" height="56" viewBox="0 0 94 56" width="94" xmlns="http://www.w3.org/2000/svg"><g fill="#000"><path d="m84.8933 17.85c-3.572 0-5.17 1.925-5.2405 2.03-.517.595-1.128 1.225-1.128-.3034v-1.1433h-7.1205v28.35h7.191v-7.8167c0-.5833.5757-.49.9987 0 .4113.49 2.2325 1.7384 5.3815 1.7384 5.7105 0 9.0241-4.9234 9.0241-11.6784 0-8.715-5.5461-11.1766-9.1063-11.1766zm-2.1503 17.8383c-3.478 0-4.3827-2.2167-4.3122-6.405.094-4.1883 1.7507-5.9267 3.9832-5.9267 3.6425 0 4.3123 2.8 4.3123 5.67s-.5053 6.6617-3.9833 6.6617z"/><path d="m16.309 29.4583c0 2.625-1.739 4.1883-4.5473 4.1883-2.81995 0-4.3122-2.0533-4.3122-4.2817v-3.6166h-7.4495v3.6983c0 3.7917 1.13975 10.5233 11.8322 10.5233 10.6925 0 12.1848-7.2333 12.1848-10.6866v-20.05503h-7.708z"/><path d="m35.5788 17.6049c-7.0382 0-10.1755 6.405-10.1755 11.9233 0 5.5067 3.572 10.85 10.857 10.85 6.3803.0933 10.5985-4.025 10.5985-7.07h-7.0382s-.8343 1.9717-3.3135 1.9717c-2.4793 0-3.8893-1.4117-3.8893-4.7717h14.3233c-.0118-10.5933-5.3228-12.9033-11.3623-12.9033zm-2.7495 8.6333c0-2.2167.9165-4.025 3.478-4.025 2.6555 0 3.8188 1.9717 3.8188 4.025z"/><path d="m58.4919 17.6049c-7.0382 0-10.1872 6.405-10.1755 11.9233 0 5.5067 3.5603 10.85 10.857 10.85 6.3803.0933 10.5985-4.025 10.5985-7.07h-7.0382s-.8343 1.9717-3.3135 1.9717c-2.4793 0-3.8893-1.4117-3.8893-4.7717h14.3233c-.0118-10.5933-5.3228-12.9033-11.3623-12.9033zm-2.7495 8.6333c0-2.2167.9165-4.025 3.478-4.025 2.6555 0 3.8188 1.9717 3.8188 4.025z"/></g></svg>