<svg fill="none" height="64" viewBox="0 0 106 64" width="106" xmlns="http://www.w3.org/2000/svg" xmlns:xlink="http://www.w3.org/1999/xlink"><clipPath id="a"><path d="m0 5.33337h106v53.3333h-106z"/></clipPath><g clip-path="url(#a)"><path d="m106 32.0147v-.0294c-.006-6.8908-5.358-13.4641-15.0627-18.5088-10.0964-5.24451-23.5582-8.13725-37.9139-8.14313h-.0526c-14.3499.00588-27.8117 2.89862-37.9081 8.14313-9.70486 5.0506-15.0568572 11.6239-15.0627 18.5147v.0177c.0058428 6.8908 5.35784 13.4641 15.0627 18.5146 10.0964 5.2505 23.5582 8.1373 37.9198 8.1432h.035c14.3616 0 27.8293-2.8927 37.9198-8.1432 9.7047-5.0446 15.0507-11.6179 15.0627-18.5088z" fill="#000"/><g fill="#fff"><path d="m51.8252 36.0245c-.0292-2.2107-1.449-3.7393-4.4347-3.7393h-.409c-2.4481 0-3.8387.6585-4.9839 1.8873-1.4198 1.5169-2.7637 5.615-2.7344 7.7786.0292 2.2107 1.449 3.7394 4.4346 3.7394h.4383c2.4422 0 3.8387-.6585 4.9839-1.8873 1.4198-1.5169 2.7285-5.615 2.7052-7.7787zm-4.2302 3.1632c-.4441 1.2818-.7888 2.1049-1.3088 2.6517-.4031.4292-.9348.7408-2.1677.7408-.964 0-1.5016-.3998-1.5016-1.1523-.0058-.4881.1227-1.223.6369-2.6517.444-1.2818.7946-2.1049 1.3146-2.6517.3973-.4292.9349-.7408 2.1619-.7408.964 0 1.5016.3998 1.5016 1.1524.0116.488-.1227 1.2229-.6369 2.6516z"/><path d="m31.4455 26.5115h-5.1358l3.3947-9.9247h-4.4347l-.1052.341.2221.2234c.2395.2352.2337.5174.0233 1.1171l-3.8679 11.3593h8.8401z"/><path d="m54.5947 23.6717-1.3497-7.0849h-4.5808l-.111.341.222.2234c.2396.2352.2337.5174.0234 1.1172l-3.8621 11.3475h3.2486l2.8338-8.4372 1.6593 8.4372h3.2486l4.4289-13.035-3.3947.0059z"/><path d="m24.7263 37.5533h-5.9772l6.7835-2.3166.4206-1.1112-9.775 3.2337-1.1977 3.2985h8.6239z"/><path d="m72.6496 40.252.9874-2.7281h-4.5515l.7069-2.0813h4.9314l1.0809-3.0103h-9.3134l-.1286.3821.222.2234c.2396.2352.2279.5174.0176 1.1172l-3.8796 11.3181h8.6999l1.0517-3.0339h-5.0774l.7479-2.193h4.5048z"/><path d="m61.7112 32.444-4.7444 9.3661h-.0993l-.2395-9.3661h-3.9673l-.1519.341.3389.2058c.3272.2351.4148.4703.4615 1.1171l.5376 11.371h4.4171l7.1283-13.0349z"/><path d="m82.8621 32.444h-5.5916l-.111.341.2279.2234c.2395.2352.2279.5174.0175 1.1171l-3.9088 11.3593h3.5699l1.525-4.5096h1.2095l1.3497 4.5096h3.5874l-1.6827-4.6096c.9757-.1646 1.4724-.4409 1.9573-.8878.6778-.6173 1.1452-1.4875 1.5308-2.7692.5668-1.858.2221-2.9163-.1402-3.4631-.4966-.7526-1.5483-1.3111-3.5407-1.3111zm.3097 4.7271c-.2221.5586-.4675.6938-.7888.8232-.222.0882-.6719.1175-1.1101.1175h-1.7061l.9231-2.6928h2.0625c.6135 0 .8706.3234.8764.6938.0059.2352-.0993.6644-.257 1.0583z"/><path d="m34.9812 32.444h-5.5915l-.111.341.222.2234c.2395.2352.2337.5174.0234 1.1171l-3.9089 11.3593h3.57l1.525-4.5096 1.2094.0059 1.3439 4.5096h3.5816l-1.6827-4.6096c.9757-.1646 1.4723-.441 1.9573-.8878.6778-.6173 1.1393-1.4875 1.5308-2.7693.5668-1.8579.222-2.9162-.1402-3.463-.4908-.7585-1.5425-1.317-3.5291-1.317zm.3097 4.7271c-.222.5586-.4674.6938-.7888.8232-.2162.0882-.6719.1175-1.1159.1175h-1.7061l.929-2.6928h2.0625c.6135 0 .8705.3234.8764.6938.0058.2352-.1052.6644-.2571 1.0583z"/><path d="m68.7695 27.852c1.4198-1.5169 2.7227-5.4503 2.6818-7.614-.0409-2.2107-1.4607-3.6512-4.4463-3.6512h-5.1826l-.111.341.222.2234c.2396.2352.2337.5174.0234 1.1171l-3.8679 11.3593h5.7084c2.4423-.0059 3.8387-.5468 4.9722-1.7756zm-3.681-8.1726h1.3906c.9641 0 1.4958.3234 1.5133 1.076.0058.4821-.1227 1.1465-.6252 2.5752-.444 1.2818-.7946 2.0167-1.2971 2.5635-.3973.4292-.9407.6174-2.1677.6174h-1.151z"/><path d="m38.2236 16.5868-.111.341.1636.1588c.2688.2645.1578.6467-.8355 2.2401l-6.1057 10.2892h3.7627l1.6302-2.881h3.8913l.0409 2.881h3.4122l-.7421-13.0291zm-.0467 7.5376 2.2086-3.9393h.1168l.0643 3.9393z"/><path d="m83.587 21.2611h-8.6239l-1.116 3.1044h5.9713l-6.7835 2.3165-.4206 1.1113 9.7749-3.2338z"/><path d="m4.33489 32.0206c0-11.9884 21.86371-22.90082 48.65291-22.90082 26.7893 0 48.6592 10.91242 48.6592 22.90082 0 11.9355-21.8641 22.9067-48.6592 22.9067-26.795 0-48.65291-10.9654-48.65291-22.9067zm12.61461-16.3922c-6.0298 3.1338-13.67216 8.7782-13.67216 16.3922 0 6.2676 5.17672 11.2005 10.36516 14.499.1752.1058.3447.2175.52.3233.1753.1059.3447.2117.52.3116.1753.1059.3564.2117.5317.3117.1928.1117.3914.2234.5843.3292.3856.2176.7712.4233 1.1451.6174 10.7274 5.5738 24.0724 7.708 36.0442 7.708 11.9661 0 25.3227-2.1342 36.0501-7.708 6.0239-3.1338 13.6661-8.7841 13.6661-16.3981 0-.241-.006-.4762-.023-.7114-.006-.1117-.012-.2293-.029-.341-.053-.588-.152-1.1642-.287-1.7227-.023-.0941-.052-.1941-.076-.2881-.052-.194-.111-.3881-.175-.5762-.058-.1823-.123-.3646-.193-.5409-2.1031-5.5209-8.0277-9.6895-12.8889-12.2177-10.7274-5.5797-24.0782-7.71399-36.0501-7.71399-11.966.01176-25.311 2.15189-36.0325 7.72569z"/></g></g></svg>