<svg fill="none" height="48" viewBox="0 0 106 48" width="106" xmlns="http://www.w3.org/2000/svg" xmlns:xlink="http://www.w3.org/1999/xlink"><clipPath id="a"><path d="m0 0h105.931v48h-105.931z"/></clipPath><g clip-path="url(#a)" clip-rule="evenodd" fill="#000" fill-rule="evenodd"><path d="m53.975 2.43312c-2.16 2.66482-8.2759 11.25518-9.0207 12.41378-1.349 2.1269-1.4731 3.1614-1.5062 3.8483-.0548.5203.0125 1.0463.1963 1.5361.1839.4899.4794.9302.863 1.286 1.8372 1.6551 4.4193 1.382 6.7117 1.382h18.869c.3012.0246.6028-.0409.8666-.1883s.4778-.3699.6148-.6393c1.3935-2.0871 2.1524-4.5333 2.1848-7.0427 0-4.7917-3.1117-10.83313-10.9904-13.55588l-.8855 1.29103c6.2483 2.97103 8.8304 6.85241 8.8304 12.28135.0359 1.5929-.4176 3.1585-1.2993 4.4855h-18.3476c-1.1007 0-1.258-1.2413-.8276-1.9448 1.5567-2.8025 3.2985-5.4981 5.2138-8.06895 1.8538-2.48275 3.6827-4.79172 5.6027-7.21655.5131-.67034.1656-1.324136-.8275-1.531032-2.3404-.513669-4.7295-.77173236-7.1256-.76965556-15.0289 0-20.5655 8.64827756-20.5655 15.05378756 0 6.9517 5.5531 15.0207 20.6069 15.0207 8.3504 0 13.8207-2.6897 16.9904-6.149h-3.1945c-2.7642 2.5573-7.5228 4.3697-13.7959 4.3697-12.7531 0-17.4538-7.1586-17.4538-13.3324.0911-5.51175 5.1393-13.10899 17.7683-13.35727.48 0 .8276.42207.5214.82759z"/><path d="m101.694 40.1049h-12.0747c.0683-.6952.3766-1.3448.872-1.8372s1.1469-.7968 1.8425-.8608h12.2232v-2.5572h-13.0094c-1.9514.0313-3.8154.8148-5.2032 2.1871-1.3877 1.3723-2.192 3.2275-2.2451 5.1784-.0043.0627.0054.1256.0285.184.0231.0585.059.1111.105.1539s.101.0748.1609.0937c.06.0189.1234.0241.1856.0153l14.7145-.0496c.3527.0351.6811.1956.9252.4522.245.2566.389.5924.407.9464-.021.4004-.2.7759-.498 1.0443-.2982.2684-.6903.4077-1.0908.3874h-16.2124v-10.5765h-4.7669v10.6013h-8.7641c-2.3752 0-2.8635-1.44-2.8635-2.7641v-7.9035h-7.9034c-.7779.5297-1.5393 1.109-2.3421 1.5973l-4.6924 2.8883-6.091-4.4442h-18.4304c-2.031-.0927-4.0324.515-5.6689 1.7214-2.4828 1.9531-3.269 4.0221-3.2442 4.9655h3.2359c-1.3246.9413-2.3273 2.2676-2.8717 3.7986h-10.59313c-.76822.0598-1.52904-.1855-2.11766-.6828-.58863-.4972-.95766-1.2063-1.02717-1.9737v-7.9117h-4.68414v8.1931c0 2.9545 2.80552 4.9655 7.30759 4.9655h35.58621c.7365-.5048 1.44-1.0345 2.2096-1.4979l4.8166-2.9297 6.1159 4.3697h6.9682l-9.211-6.8938 4.7255-3.0787c1.0097-.662 2.069-1.2248 3.1035-1.8289v6.9765c0 2.9462.7531 4.9655 6.6703 4.9655l33.4346-.0827c.537.0398 1.077-.0316 1.585-.2099.508-.1782.974-.4595 1.369-.8262.395-.3666.709-.8108.924-1.3046.216-.4939.326-1.0268.326-1.5655-.06-1.0742-.536-2.0828-1.327-2.812s-1.835-1.1217-2.91-1.0942zm-59.785 5.1807h-17.3793c.0862-.7053.4118-1.3596.9225-1.8536.5106-.4941 1.1753-.798 1.883-.8609h10.9489v-2.7145h-13.8538c-.1572-.8276 1.3242-2.3586 2.4828-2.3586h12.4138v-1.4566l8.069 5.7931z"/></g></svg>