<svg fill="none" height="72" viewBox="0 0 115 72" width="115" xmlns="http://www.w3.org/2000/svg" xmlns:xlink="http://www.w3.org/1999/xlink"><clipPath id="a"><path d="m0 0h114.577v72h-114.577z"/></clipPath><g clip-path="url(#a)" fill="#000"><path d="m73.5173 66.1729h4.2632v.987h-4.2632zm-70.912-5.9857-.38108 9.9059v.1721c0 .8385.24699 1.0116 1.58394 1.1062v.459c-.97314-.075-1.35618-.0942-1.88958-.0942-.53488 0-.91645.0192-1.90881438.0942v-.459c1.33547438-.0946 1.52724438-.248 1.56520438-1.2783l.40079-9.3706v-.1128c0-.8795-.26768-1.0698-1.583443-1.1457v-.4782c.742913.0576 1.029343.0769 1.564223.0769.6059.0055 1.21158-.026 1.81366-.0942l3.54846 9.6555 3.60614-9.6555c.8602.075 1.2605.0942 1.8334.0942.4752 0 .7818-.0193 1.5065-.0769v.4782c-1.297.0759-1.5849.2662-1.5849 1.1249v.1336l.2105 9.3706c.0207 1.0303.1913 1.1822 1.5657 1.2783v.459c-1.2019-.1144-1.6608-.1538-2.3855-.1538-.7262 0-1.1842.0374-2.38604.1538v-.459c1.29704-.0754 1.58344-.2864 1.58344-1.1817v-.0941l-.1701-9.8867-3.1501 8.5108-.22825.6305-.26719.705-.24945.7276-.20951.629h-.28642l-.20903-.6103-.26818-.7463-.2667-.7435-.22923-.6674zm14.3294 6.1642c.1913-2.1943.9155-3.3188 2.1371-3.3188 1.2408 0 1.8703 1.0683 1.9842 3.3188zm2.4816 4.9998c-1.7367 0-2.5013-1.336-2.5186-4.3131h5.687c-.0389-2.9386-1.2413-4.5039-3.4937-4.5039-2.2884 0-3.7205 1.8517-3.7205 4.7908 0 2.9387 1.4326 4.6557 3.893 4.6557 1.8704 0 3.0925-1.1649 3.339-3.1299h-.7642c-.2287 1.6219-1.0682 2.5004-2.422 2.5004zm4.3037-8.111v-.3426c1.0871-.0952 1.7368-.2095 2.5187-.4393.0956.707.1336 1.0111.1715 1.5845v.2105c.421-1.088 1.2399-1.7186 2.2332-1.7186.9534 0 1.6604.6306 1.6604 1.5475 0 .5536-.3244.9155-.8016.9155-.4388 0-.7819-.2677-.7819-.6483 0-.038.0197-.1129.037-.1923l.038-.1898v-.1735c0-.2672-.2293-.4575-.5729-.4575-.9909 0-1.6204 1.2019-1.6204 3.0915v3.9877c0 .8223.1898.9747 1.3547 1.0313v.3821c-1.051-.0942-1.4513-.1154-2.1193-.1154-.6867 0-1.087.0212-2.1361.1154v-.3821c1.1629-.0566 1.373-.209 1.373-1.0313v-6.2381c-.0183-.8214-.1149-.9155-1.1058-.9357zm13.8843-.876v3.1496h-.421c-.3436-1.6618-1.0491-2.4629-2.2125-2.4629-1.4326 0-2.2712 1.547-2.2712 4.2756 0 2.671.744 4.0262 2.213 4.0262 1.1832 0 1.8891-.8391 2.1184-2.5177h.7818c-.2484 2.0424-1.336 3.1487-3.0525 3.1487-2.214 0-3.7205-1.8709-3.7205-4.6557 0-2.845 1.5258-4.7908 3.7777-4.7908.8208 0 1.336.2105 1.9477.8021l.5137-.9737h.3259v-.0014zm3.1334 3.9872c.1907-2.1943.9149-3.3188 2.137-3.3188 1.2404 0 1.8699 1.0683 1.9833 3.3188zm2.4806 4.9998c-1.7367 0-2.4994-1.336-2.5186-4.3131h5.686c-.0379-2.9386-1.2413-4.5039-3.4913-4.5039-2.2913 0-3.7229 1.8517-3.7229 4.7908 0 2.9387 1.4311 4.6557 3.8945 4.6557 1.8699 0 3.0915-1.1649 3.3384-3.1299h-.7631c-.2287 1.6219-1.0683 2.5004-2.423 2.5004zm8.4521.1159c-1.3739 0-2.0986-1.4326-2.0986-4.1598 0-2.7656.6675-4.1213 2.0419-4.1213 1.4129 0 2.1381 1.4498 2.1381 4.2569-.0005 2.6497-.7069 4.0242-2.0814 4.0242zm3.5874-1.6234v-11.0172c-.9539.2554-1.8117.4068-2.8799.5211v.3254c1.2018 0 1.3547.1336 1.3547 1.1255v3.3389c-.706-1.1442-1.2596-1.4888-2.2904-1.4888-2.0414 0-3.4735 1.9271-3.4735 4.675 0 2.7483 1.4493 4.6739 3.5307 4.6739 1.0875 0 1.8319-.4959 2.3658-1.5637.0759.7251.0759.8011.2677 1.5253.7813-.2485 1.1067-.3244 2.2327-.4575l.2859-.0375v-.3244c-1.2788-.0379-1.3937-.1321-1.3937-1.296zm3.6821-3.4923c.1908-2.1943.9155-3.3188 2.1375-3.3188 1.2404 0 1.8689 1.0683 1.9833 3.3188zm2.4812 4.9998c-1.7378 0-2.4994-1.336-2.5197-4.3131h5.6865c-.0384-2.9386-1.2403-4.5039-3.4912-4.5039-2.2914 0-3.722 1.8517-3.722 4.7908 0 2.9387 1.4306 4.6557 3.8935 4.6557 1.8699 0 3.091-1.1649 3.338-3.1299h-.7636c-.2273 1.6219-1.0683 2.5004-2.4215 2.5004zm4.7873.6493v-3.1881l.42-.0183c.3426 1.7373 1.1447 2.5773 2.4811 2.5773 1.1245 0 1.965-.7449 1.965-1.716 0-.6488-.3618-1.0871-1.2985-1.5081l-.7246-.3253-.8775-.4003c-1.3947-.6483-1.8329-1.1832-1.8329-2.2904 0-1.5081 1.1821-2.5369 2.8627-2.5369.7444 0 1.299.1715 1.9468.6083l.3234-.7818h.3436v2.9578h-.4398c-.173-1.5272-.8016-2.2509-2.0029-2.2509-1.0111 0-1.7955.6872-1.7955 1.5839 0 .7627.2865 1.0121 2.0232 1.7748l.8021.3446c1.4489.6275 1.966 1.2398 1.966 2.3663 0 1.6031-1.2793 2.7464-3.0713 2.7464-.8785 0-1.5657-.2293-2.2903-.8011l-.46.8578h-.3411zm16.775-6.5843c1.0106 0 1.583.1726 2.0227.6103.4393.4407.6882 1.2606.6882 2.175 0 1.9084-.9554 2.9781-2.6532 2.9781h-.6867c-1.0121 0-1.1832-.1538-1.1832-.9933v-4.7716zm-1.8136-5.7826h1.6223c1.6032 0 2.3087.7838 2.3087 2.5575 0 .8775-.2095 1.5086-.6291 2.003-.42.4787-.9347.6296-2.0025.6296h-1.298v-5.1906h-.0014zm5.6288 2.5191c0-.9924-.419-1.8689-1.1447-2.424-.6478-.4767-1.3912-.6857-2.6335-.6857h-5.0185v.4767c1.3749.0769 1.5647.2292 1.5647 1.2595v9.2548c0 1.0308-.1538 1.1629-1.5647 1.2792v.459h4.8277c1.4114 0 2.176-.173 2.9781-.669.9534-.6103 1.5829-1.7747 1.5829-2.9746 0-1.0328-.4392-1.967-1.1831-2.5374-.3998-.3051-.8203-.4792-1.508-.6113 1.3754-.5176 2.0991-1.4912 2.0991-2.8272zm3.7072 4.1987c.1917-2.1943.9164-3.3188 2.1385-3.3188 1.2394 0 1.8699 1.0683 1.9833 3.3188zm2.4821 4.9998c-1.7367 0-2.5013-1.336-2.5196-4.3131h5.6875c-.0385-2.9386-1.2413-4.5039-3.4932-4.5039-2.2899 0-3.7215 1.8517-3.7215 4.7908 0 2.9387 1.4316 4.6557 3.8925 4.6557 1.8699 0 3.0915-1.1649 3.3395-3.1299h-.7637c-.2272 1.6219-1.0668 2.5004-2.4215 2.5004zm4.177-8.0351v-.3229c1.1073-.1538 1.756-.3051 2.5182-.5728.0966.4407.1543.9352.1912 1.6603.6877-1.0313 1.4687-1.4878 2.5767-1.4878 1.146 0 2.137.5891 2.52 1.5253.192.459.287.9924.287 1.7166v4.5802c0 .8213.19.9737 1.353 1.0304v.382c-1.011-.0961-1.392-.1144-2.079-.1144-.707 0-1.088.0183-2.081.1144v-.382c1.03-.0365 1.278-.2283 1.278-.9914v-4.6759c0-1.6599-.496-2.3289-1.716-2.3289-1.299 0-1.985.8218-1.985 2.3856v4.6192c0 .7631.249.9549 1.242.9914v.382c-.993-.0961-1.374-.1144-2.0617-.1144-.668 0-1.0697.0183-2.0616.1144v-.382c1.1629-.0567 1.3547-.2091 1.3547-1.0304v-6.1814c-.0192-.7844-.1336-.8973-1.087-.8973-.0592 0-.1533-.0202-.2495-.0202zm10.1881 8.4561 5.171-8.5118h-2.347c-1.24 0-1.547.2662-2.233 1.9843h-.38l.439-2.4807h6.565l-5.192 8.5113h2.232c1.299 0 1.833-.5142 2.405-2.2519h.401l-.495 2.7488z"/><path d="m80.6342 41.2243c2.5424-4.2277 3.8824-9.0692 3.8754-14.0025 0-15.0344-12.1885-27.2218-27.2223-27.2218-15.0344 0-27.2218 12.1879-27.2218 27.2218-.007 4.9334 1.3333 9.775 3.8763 14.0025l-.0991.0794.1183-.0458c4.7646 7.9004 13.4277 13.1857 23.3263 13.1857 9.899 0 18.5611-5.2853 23.3253-13.1857l.1183.0458zm.531-14.0025c.0046 4.1688-1.0883 8.2653-3.1689 11.8778l-16.8401-13.5633-3.4539-22.1801c12.9945.22184 23.4629 10.8179 23.4629 23.8656zm-47.7529 0c0-13.0472 10.4674-23.64327 23.4618-23.8656l-3.4538 22.1801-16.8401 13.5633c-2.08-3.6127-3.1725-7.7092-3.1679-11.8778zm23.8759 23.8759c-8.4723 0-15.9089-4.4171-20.1465-11.0698l20.1465-7.794 20.1466 7.7945c-4.2381 6.6522-11.6732 11.0693-20.1466 11.0693z"/></g></svg>