<svg id="Layer_1" data-name="Layer 1" xmlns="http://www.w3.org/2000/svg" viewBox="0 0 277.48 138.43"><defs><style>.cls-1{fill-rule:evenodd;}</style></defs><path class="cls-1" d="M162.76,88.64c-6.22,5.67-11.58,8.73-22.85,14.65a109.63,109.63,0,0,1-23.3-14.13C108.4,82.75,102.5,72.36,102,66L97.89,5.3c27.76-7.23,57.28-7.06,82.82.48l-4.16,60.07c-.53,5.44-5.39,16-13.79,22.79Zm9-24.78,3.76-53.64c-22-7-48.31-7.11-72.56-.73l3.83,54.34c.39,5.65,4.46,14.28,12.25,20.9,4.68,4,13.86,10.67,20.65,13.24a104.05,104.05,0,0,0,20.54-13.74c7-6.37,11.11-14.29,11.53-20.37Zm-12.43,19A94.17,94.17,0,0,1,139.72,96c-6.24-1.93-15.46-9-19.89-12.88-7.74-6.69-10.88-13.69-11.36-20.3L104.71,11C127.81,4.9,153,4.9,174,11.58l-3.72,51.18c-.53,6.81-3.7,13.31-10.88,20.05ZM106.44,12l.74,8.94c22-5.52,45.14-5,64.31.84l.83-9.09C152.45,6.57,128.34,6.24,106.44,12Zm54.82,3.32-5-.82-.19,2.33-1.62-.24.38-6.2,1.65.24L156.34,13l5,.82.17-2.38,1.69.32L162.72,18l-1.64-.31.18-2.36Zm-24-2.11a1.47,1.47,0,0,1-1.41-.7,3.39,3.39,0,0,1,0-2.35,1.4,1.4,0,0,1,1.3-.71h7l0,1.53h-6.67c-.33,0-.34.74,0,.74h5.25a1.43,1.43,0,0,1,1.34.85,4.77,4.77,0,0,1,0,2.19,1.34,1.34,0,0,1-1.4.75h-7V13.92H142a.37.37,0,0,0,.34-.39.38.38,0,0,0-.34-.34Zm-4.08.62a.58.58,0,0,0-.59-.57h0l-4.68.34L128,15.9l-1.51.16-.32-6.13,7-.52a1.34,1.34,0,0,1,1.48,1.17c.05.67.07,1.53-.45,1.88a1.66,1.66,0,0,1,.56,1.47l0,1.56-1.52.07,0-1.75Zm-1-2c.6,0,.55-1,0-.91l-4.45.33.05.85ZM117.6,11a50.93,50.93,0,0,1,5.89-.92,1.18,1.18,0,0,1,1.35.86,15.35,15.35,0,0,1,.2,4.3,1.22,1.22,0,0,1-1,1,49.74,49.74,0,0,1-5.82.82,1.18,1.18,0,0,1-1.18-.8,16.63,16.63,0,0,1-.31-4.25,1.27,1.27,0,0,1,.91-1Zm5.57,3.73c.2,0,.28-.26.3-.41a8.39,8.39,0,0,0-.1-2.14c0-.17-.18-.27-.49-.25-.85.06-3.09.38-4.2.62-.29.07-.41.24-.42.4a10.15,10.15,0,0,0,.17,2.15.37.37,0,0,0,.36.24,35.6,35.6,0,0,0,4.38-.61Zm24.56-3.47a.55.55,0,0,0-.58.36,14,14,0,0,0-.1,2c0,.11.19.43.35.45,1.49.21,4.39.47,6,.57l-.09,1.61c-2.07-.1-4.24-.43-6.48-.58a1.23,1.23,0,0,1-1.3-1.16,21.32,21.32,0,0,1,.23-4,1.34,1.34,0,0,1,1.43-.95,61.18,61.18,0,0,1,6.43.63l-.1,1.59c-1.32-.11-3.82-.5-5.75-.58Zm-33.9.47c2.1-.5,2.42,3.23.67,3.66l-4.88,1.22.23,2.41-1.53.41-.55-6.28,6.06-1.42Zm0,2.44c.5-.12.43-1-.11-.91l-4.41,1.07.11.93Zm51.84,2.05-.1,1,4.84,1.22-.13,1.41-6.5-1.54.56-6.31,6.54,1.58-.14,1.48-4.87-1.18-.1,1.06,4.84,1.18-.12,1.25-4.82-1.15Zm-46.86,18a10.39,10.39,0,0,0-1.59,3.47,1.25,1.25,0,0,0,0,.8c.64-.28,1.47-.56,2-.72.19-.42.29-.91.46-1.3a8,8,0,0,1,.69-1.29,5.11,5.11,0,0,1,3.6-2.34,11,11,0,0,0-1.56,1.73,10.55,10.55,0,0,0-.71,1.38,5,5,0,0,0-.26,1.11,8.28,8.28,0,0,1,1.64-.33c.27-.15.36-.44.5-.71a6.16,6.16,0,0,1,1.94-2.13,2.36,2.36,0,0,1,1.62-.34,6.39,6.39,0,0,0-1.31,1.39,4,4,0,0,0-.64,1.53,4.94,4.94,0,0,0,1.27-.06l0-1.19h12.45v-17a116.1,116.1,0,0,0-31.55,4.06l2.33,32h16.77V48c-.67-.5-3.81-.87-5.74-.11a13.74,13.74,0,0,0-2.68,1.38l-2,1.54a1,1,0,0,0-.21.76,1,1,0,0,1-1,.88,2.22,2.22,0,0,0-1.1-.08c-.41.09-.77-.42-.81-.72s.24-.84.26-1a1.17,1.17,0,0,1,.45-1.09.87.87,0,0,1,.83,0,.31.31,0,0,0,.23,0,2.24,2.24,0,0,0,.38-.29c0-.35,0-.89,0-1.2a7.12,7.12,0,0,1,.3-1.5,8.54,8.54,0,0,1,.74-1.62,2.68,2.68,0,0,1,2-1.38,5.49,5.49,0,0,0-.54.88,11.08,11.08,0,0,0-.84,2.45,4.93,4.93,0,0,0-.13,1.33,13.73,13.73,0,0,1,1.41-.89,9.23,9.23,0,0,1,.86-2.47,3.18,3.18,0,0,1,2.37-1.65,6.76,6.76,0,0,0-1.42,2.56,1.82,1.82,0,0,0-.13.77,3.84,3.84,0,0,1,1.16-.34,9,9,0,0,1,.67-1.39,3.32,3.32,0,0,1,2.34-1.64,7.21,7.21,0,0,0-1.17,2.08,2.22,2.22,0,0,0-.13.65,8.75,8.75,0,0,1,1.18-.06c.44-.39.75-.86,1.27-1.26a6,6,0,0,1,1.43-.83V38.49a5.6,5.6,0,0,0-2.07-.13,26.12,26.12,0,0,0-8.29,3,5.89,5.89,0,0,1-.16,1,1.39,1.39,0,0,1-.68.67c-.49.22-1.06-.44-1.31-.35a1.41,1.41,0,0,1-1.42-.1,1.23,1.23,0,0,1-.31-1.13,1.8,1.8,0,0,1,.52-.69c.18-.17,0-.84.68-1.24.43-.28,1-.05,1.49.19a.64.64,0,0,0,.25-.15c.06-.18.16-.73.24-1.17s.14-.77.28-1.2a9,9,0,0,1,2-3.34,3.93,3.93,0,0,1,2.54-1c-.08.12-1,1-1.34,1.38Zm2-10.25c.66-.92,2.39-2.31,3.73-2.23a9,9,0,0,0-1.82,2.08,8.26,8.26,0,0,0-1.17,3.09,21.44,21.44,0,0,1,2.08-.59,8.89,8.89,0,0,1,2.08-3.11,3.37,3.37,0,0,1,2.32-.82,4.39,4.39,0,0,1-.74.69,4.15,4.15,0,0,0-1,1.39,15.48,15.48,0,0,0-.48,1.58,10.94,10.94,0,0,1,1.88.13,4.53,4.53,0,0,1,4.07-1.95c-.79.43-2.25,1.69-2.16,2.39,1.19.77,3,2.39,3.06,3.89a9,9,0,0,0-2.84-1.92,10.45,10.45,0,0,0-5.16-.36A28,28,0,0,0,115.51,32a3.48,3.48,0,0,1-.53,1.39,1.55,1.55,0,0,1-.86.51,2,2,0,0,1-1.22-.29c-.23-.13-.85,0-1.24-.18a1.06,1.06,0,0,1-.57-1.14c.1-.55.64-.87.72-1.39a1.32,1.32,0,0,1,1-1.15,1.57,1.57,0,0,1,.92.18c.12.06.25.16.36.2s.28-.18.38-.22.31-1.67.46-2.37a19.87,19.87,0,0,1,.65-1.93c.68-1.92,2.77-3.86,4.44-3.76a17.91,17.91,0,0,0-1.37,1.38c-1.2,1.41-1.51,2.91-2,5.48.93-.43,1.74-.74,2.58-1a14.52,14.52,0,0,1,.79-2.33,8.16,8.16,0,0,1,.78-1.39Zm50.49,2.13-31,0,0,9.12,30.24,0,.7-9.12ZM143.87,73.26a1.26,1.26,0,0,1-1,0,.93.93,0,0,1-.54-.82c0-.29.26-.65.32-1,0-.13-.11-.77.43-1.1a1.28,1.28,0,0,1,.63-.14c.22,0,.39.18.61.22a4.35,4.35,0,0,0,.84-.41,19.26,19.26,0,0,0,.39-2.12,14,14,0,0,1-5.3,1.36V94.19a88.23,88.23,0,0,0,18.54-13c5.47-5.32,9.15-10.72,9.71-18.5l.51-7.09H152.61a13.8,13.8,0,0,1-5.18,11.24,14.59,14.59,0,0,0-.3,2.38c.53-.21,1-.4,1.45-.53a19.2,19.2,0,0,1,.93-1.76,7.22,7.22,0,0,1,2.59-2.44,2.88,2.88,0,0,1,2.2-.38,7.68,7.68,0,0,0-2.12,1.73,5.13,5.13,0,0,0-1.1,1.74c0,.11-.05.23-.07.34a24.13,24.13,0,0,1,2.44-.42c.07,0,.25-.4.39-.59a7.44,7.44,0,0,1,.56-.69,3.83,3.83,0,0,1,3.08-1.42,5.75,5.75,0,0,0-1.91,2.08c-.07.16-.18.38-.13.47s1,0,1.55.08a6.18,6.18,0,0,1,1.91-.85,2.88,2.88,0,0,1,2.18.33,3.21,3.21,0,0,0-1.34.22,2,2,0,0,0-.91.64,5.77,5.77,0,0,1,1.69,1,6,6,0,0,1,1,1,3.2,3.2,0,0,1,.42,2.86,3.92,3.92,0,0,0-.34-.79,5.18,5.18,0,0,0-1.19-1.37c-2-1.5-4.8-1.58-7.11-1.11-2,.41-5.56,1.15-7.9,2.82a1.14,1.14,0,0,1-.39,1c-.36.26-.86-.1-1.12,0Zm3.86,2.8c.26-.4.57-1,.73-1.23a5,5,0,0,1,1.87-1.77,3.54,3.54,0,0,1,2.45-.31,4.07,4.07,0,0,0-1.43.7,8.16,8.16,0,0,0-1.44,1.34,5.75,5.75,0,0,0-.45.82,10.36,10.36,0,0,1,1.86-.27A10.72,10.72,0,0,1,153,73.66a2.56,2.56,0,0,1,2.09-.39,5.18,5.18,0,0,0-2,1.62,1.62,1.62,0,0,0-.19.37c.32,0,.93.08,1.26.13a11.55,11.55,0,0,1,1.34-.67,1.89,1.89,0,0,1,1.94.24,2.87,2.87,0,0,0-1.06.18,1.61,1.61,0,0,0-.8.59,5.36,5.36,0,0,1,2.21,1.72,1.93,1.93,0,0,1,.3,1.4,3.35,3.35,0,0,0-.9-.81,7.05,7.05,0,0,0-1.19-.65,11.49,11.49,0,0,0-5.2-.52,15.89,15.89,0,0,0-6,2.21,1,1,0,0,1-.34,1c-.5.25-1-.17-1.06-.14a1.3,1.3,0,0,1-.81.06.84.84,0,0,1-.36-.94,2.39,2.39,0,0,1,.44-.59.8.8,0,0,1,.77-.91c.26,0,.45.18.67.23l.44-.22c.12-.43.31-.87.43-1.24a7.35,7.35,0,0,1,.86-1.73A3.38,3.38,0,0,1,148.41,73a4,4,0,0,0-.76.68,8,8,0,0,0-.92,1.4,4.45,4.45,0,0,0-.49,1.68c.49-.24,1-.46,1.49-.67Zm-.16,4.69a1.8,1.8,0,0,1,.91-.17,3.36,3.36,0,0,0-1.57,2c0,.09,0,.26.06.31a7.78,7.78,0,0,0,.87-.23,4.84,4.84,0,0,1,.45-.66,2.23,2.23,0,0,1,2.3-1.12,2.67,2.67,0,0,0-1.36,1.26c0,.1-.09.28,0,.28l.93,0a2.31,2.31,0,0,1,1.79-.59,2.88,2.88,0,0,0-.82.57.54.54,0,0,0-.16.25,7,7,0,0,1,1.46,1,2.66,2.66,0,0,1,.78,1.21,7.31,7.31,0,0,0-3.15-1.3,8.38,8.38,0,0,0-1.74.17A16,16,0,0,0,144,85.35a.93.93,0,0,1-.32.79c-.19.15-.61.23-.76,0s-.65,0-.77-.15a1.19,1.19,0,0,1-.17-.5.75.75,0,0,1,.33-.6c0-.05,0-.54.4-.7a.64.64,0,0,1,.64,0,2.2,2.2,0,0,0,.19-.12,5.68,5.68,0,0,1,.36-1.65c.28-.8,1.22-1.77,2-1.73a4.91,4.91,0,0,0-1.13,2.08,4.82,4.82,0,0,0-.06.84,3.36,3.36,0,0,1,.6-.3c.09-.21.34-.73.47-1a4.17,4.17,0,0,1,1.73-1.65Zm-37.2-17.13a19.11,19.11,0,0,0,3,9.17h25.2l-.06-3.52c-3.23,0-8.18-2.14-10.14-5.64Zm17.33-7.86c0,16,23.44,16,23.44.16V36.64H127.7Zm7.55-7.68a2.25,2.25,0,0,0,.57-1c0-.28-.73-.26-1-.09a1.74,1.74,0,0,0-.43.46.42.42,0,0,1-.55.09c-.16-.16.13-.43.12-.59s-.53.13-.77,0a.32.32,0,0,1-.06-.47c.06-.08.23-.05.31-.13a.76.76,0,0,0,.11-.33c0-.13.17-.19.26-.29a4.82,4.82,0,0,1,1.07-.86c.29,0,.69.18.94,0,.06,0,.15-.12.06-.17l-.67-.44a.46.46,0,0,1,.15-.37c.32-.28.8-.09,1.21-.15a1.38,1.38,0,0,0,.76-.36c.05.21-.08.42-.08.64.26.24.53.45.78.68a4.27,4.27,0,0,1,1.12,2.78c0,.44,0,.89,0,1.63A4.12,4.12,0,0,0,139.4,48a4.3,4.3,0,0,0-.74-3.12,7.53,7.53,0,0,0-.92-1c0-.34.33-.93.61-.72s-.08.35.11.47a1,1,0,0,0,.64.09,4.82,4.82,0,0,1,.87-.18c.13,0,.35-.07.39.06s-.06.14-.16.18-.28,0-.38.1a.35.35,0,0,0-.13.28.25.25,0,0,0,.32.16,6.67,6.67,0,0,1,1.6-.25c.29,0,.22.21.09.29a1.18,1.18,0,0,1-.34.1c-.51.06-.89.1-.83.39s.36,0,.43.16-.14.24-.12.34c0,.33.68.26,1,.2s.56-.23.66-.09a.23.23,0,0,1-.1.35,2.71,2.71,0,0,0-1,.41.37.37,0,0,0,.19.52,6.66,6.66,0,0,1,1.08.13c.11,0,.21.11.21.23s-.13.18-.24.21-.54.06-.72.14-.18.07-.16.14.31.09.53.12.35.1.35.23-.12.19-.34.17a1.9,1.9,0,0,0-.79.08c-.05,0-.31.05-.3.17s.3.05.37.2-.13.22-.15.39,0,.1.1.13a1.24,1.24,0,0,0,.71,0c.24,0,.32.27.26.31-.3.16-1,0-1.13.08s.36.45.35.52a.3.3,0,0,1-.14.18c-.3.11-.68-.11-.89,0s-.11.4-.22.55-.45.1-.59.21a.42.42,0,0,0,0,.63,1.8,1.8,0,0,0,.5.35,5.69,5.69,0,0,0,2.71.84,6.07,6.07,0,0,1,1.6.05,4.88,4.88,0,0,1,1.34.71,1.09,1.09,0,0,0,.87.07.48.48,0,0,0,.31-.52c-.13-.7-1.28-.91-1.29-1.6a3.61,3.61,0,0,0-.35-1.74c-.1-.19-.11-.63.11-.69s.25.21.39.15c.67-.26.7-1.32,1.39-1.52.4-.11,1.77-.13,1.66-.3a1,1,0,0,1,0-1.09c.1-.14.39-.28.5-.14s-.23.4-.2.67.39.73.11,1-1.41.21-1.77.76c-.22.34-.25.61,0,.58s.4-.28.6-.43.64-.36.84-.17,0,.28-.23.33-.54.46-.43.56,1-.59,1.24-.43-.43.64-.33.79.47-.11.59,0-.29.62-.55.8-.12.61-.41.76-.47.43-.43.48a.14.14,0,0,0,.23,0c.36-.23.8-.49,1-.43s0,.54-.17.78.53.1.43.3a1,1,0,0,0-.07.58c.05.27-.71.33-.78.51s.08.26.16.27a.38.38,0,0,1,.22.67,1.21,1.21,0,0,1-1,.28,3.63,3.63,0,0,1-1.43-.49.21.21,0,0,0-.34.1c0,.15.13.42.2.64a2,2,0,0,1-.07,1.09c-.24.69-.89,1.26-1.08,2.08a1.31,1.31,0,0,0,.11.7,5.24,5.24,0,0,0,.78,1.25.57.57,0,0,1,0,.38c-.07.17-.61.54-.76.69a3.08,3.08,0,0,0-1,1.71c0,.23-.53.46-.87.56a2.08,2.08,0,0,0-.72.3c0,.19.09.36.11.55s-.37.49-.69.59a1.25,1.25,0,0,1-.48.1c-.06,0-.08-.1-.07-.16a5.09,5.09,0,0,1,.36-1.18,1.23,1.23,0,0,1,.29-.35l1.24-1,1-1.39a.61.61,0,0,0,.12-.34.92.92,0,0,0-.3-.69,3.23,3.23,0,0,0-.87-.39,8.24,8.24,0,0,1-.92-.7c-.18-.09-.3.25-.32.45a6.78,6.78,0,0,0,0,.9.43.43,0,0,1-.09.3c-.81.47-1.82.64-2.42,1.38a2,2,0,0,1-.34.37c-.34.23-.9,0-1.15.33-.12.16,0,.38,0,.56s-.22.24-.38.32a1.89,1.89,0,0,1-.66.17c-.25-.13-.09-.48,0-.73a1.55,1.55,0,0,1,.41-.69,5.4,5.4,0,0,1,.9-.71c.2-.09.5-.09.75-.19a2.73,2.73,0,0,0,.71-.34,2.45,2.45,0,0,0,.89-.89,1.34,1.34,0,0,0-.09-1.38,6.24,6.24,0,0,1-.74-1,.74.74,0,0,1,.13-.69s-.12-.07-.18-.06a8.65,8.65,0,0,1-3.64-.54c-.31-.12-.62-.51-.84-.54s-.32.23-.52.28a3.38,3.38,0,0,1-1.1,0,12.41,12.41,0,0,1-2-.44.69.69,0,0,0-.31.09.59.59,0,0,0-.17.48c0,.23,0,.45,0,.69s-.08.25,0,.37.17.2.27.28a1.05,1.05,0,0,1,.18.7c0,.26-.1.62.13.8s.33,0,.5,0,.25.27.26.45a1.42,1.42,0,0,1-.28.76c-.07.08-.2,0-.3,0a1.36,1.36,0,0,1-.62-.54c-.06-.1-.06-.23-.12-.35a1.33,1.33,0,0,0-.45-.43,1,1,0,0,1-.28-.69,4.1,4.1,0,0,1,0-.7,4.27,4.27,0,0,0-.08-1.38,2.4,2.4,0,0,1-.19-1,.62.62,0,0,1,.32-.39,10.32,10.32,0,0,0,2.46-.43l-.51-.52c-.13,0-.24.13-.37.13s-.33-.19-.38-.26a4.23,4.23,0,0,1-.56-1.33,1.11,1.11,0,0,0-.46-.45,1.22,1.22,0,0,0-.46-.09,1.37,1.37,0,0,0-.87,1c0,.12.06.23.05.35a.92.92,0,0,1-.33.49,1.2,1.2,0,0,0-.35.51.75.75,0,0,0,.09.52.46.46,0,0,1,.07.34c-.11.29-.79.58-1,.58s-.13-.09-.16-.17a1.67,1.67,0,0,1,0-.8,1.72,1.72,0,0,0,.4-.69,5.81,5.81,0,0,1,.22-1A21.85,21.85,0,0,1,131,50.48a.44.44,0,0,1,.42-.08c.47.3.75.67,1.2.91.24.12.54.3.76.13s.25-1.34.39-1.63a10.21,10.21,0,0,1,1.44-1.73Zm8.62-7.22-.19.73H143l.9-3.42h.79l.87,3.39h-.7l-.17-.7Zm.71-.62-.31-1.37L144,40.24Zm-2.53-1.09c0-.22-.06-.51-.24-.58a.41.41,0,0,0-.48.12,2.22,2.22,0,0,0-.14,1.07,4.29,4.29,0,0,0,.07.93c.15.46.54.48.73.2a1.18,1.18,0,0,0,.09-.65h-.4v-.51h1v1.84h-.49v-.25a2,2,0,0,1-.33.23,1.09,1.09,0,0,1-.77,0,1.13,1.13,0,0,1-.54-.79,6.29,6.29,0,0,1-.05-1.38,1.52,1.52,0,0,1,.6-1.21,1.32,1.32,0,0,1,1,0,1,1,0,0,1,.57,1Zm-11.6-.93a.88.88,0,0,1,.37.87h-.55c0-.34-.14-.51-.44-.52a.44.44,0,0,0-.4.36c0,.46.39.55.67.64a1.08,1.08,0,0,1,.58.37,1.1,1.1,0,0,1,.07,1.13,1.12,1.12,0,0,1-.69.53,1.22,1.22,0,0,1-1-.2,1,1,0,0,1-.31-.9h.62a.65.65,0,0,0,.09.39.39.39,0,0,0,.31.19.44.44,0,0,0,.48-.41v-.08c0-.53-.92-.56-1.22-.9a1,1,0,0,1,0-1.35,1.13,1.13,0,0,1,1.39-.12Zm17.49,2.26c0,.13,0,.59,0,.89a.82.82,0,0,0,.1.21h-.65c-.09,0-.1-.16-.1-.29,0-.35,0-1.17-.32-1.17h-.42v1.45h-.65V38.19h1.17a.78.78,0,0,1,.88.8c0,.3,0,.66-.35.8A1.13,1.13,0,0,1,147.94,40.48Zm-.89-1.8h-.49v.91h.36C147.51,39.59,147.5,38.68,147.05,38.68Zm-14.63,2.9h-.65V38.73H131v-.57h2.15v.57h-.76v2.85Zm4.18,0V38.73h-.74v-.57H138v.57h-.77v2.85Zm1.71-3.42h2.16v.58h-.77v2.84h-.65V38.74h-.74Zm11.27.58v2.85h-.65V38.74h-.75v-.58h2.15v.58Zm-14.7,1.86V38.17h.63v2.37a1,1,0,1,1-2.06,0V38.17h.63v2.44a.4.4,0,1,0,.8,0Zm1.45,2.56a6.34,6.34,0,0,1,.77-.59c.28-.18,0,.23,0,.4-.05.47-.4.52-.79.44-.07,0,0-.15.07-.25Zm16.29,10.92h16.55l.74-9.15H152.62v9.15Zm-14,28.49-17.06,0c3.51,3.17,11.66,9.08,17,11.48l0-11.44ZM126.32,44.68A5.74,5.74,0,0,0,125.2,46a6.4,6.4,0,0,1,1.12.54V44.68Z"/><polygon points="244.6 122.96 244.6 127.13 277.48 127.13 277.48 130.69 244.6 130.69 244.6 134.87 277.48 134.87 277.48 138.41 240.42 138.41 240.42 119.41 277.48 119.41 277.48 122.96 244.6 122.96"/><polygon points="231.3 127.1 205.9 127.1 205.9 119.38 201.72 119.38 201.72 138.38 205.9 138.38 205.9 131.28 231.3 131.28 231.3 138.38 235.47 138.38 235.47 119.38 231.3 119.38 231.3 127.1"/><path d="M162.38,123.6v10.61a4.19,4.19,0,0,0,4.17,4.22h0l30.28,0v-4.17H167.14a.57.57,0,0,1-.55-.52v-9.54a.69.69,0,0,1,.68-.59h29.58v-4.17H166.62a4.23,4.23,0,0,0-4.24,4.2Z"/><path d="M153.18,127.13H126.51a.66.66,0,0,1-.7-.63v-2.88a.68.68,0,0,1,.68-.67h30.29v-3.55h-31a4.17,4.17,0,0,0-4.12,4.22v2.85a4.22,4.22,0,0,0,4.22,4.22H152.5a.67.67,0,0,1,.7.65h0v2.86a.65.65,0,0,1-.66.65H122.18v3.55h31a4.21,4.21,0,0,0,4.22-4.2h0v-2.86a4.23,4.23,0,0,0-4.22-4.22Z"/><path d="M112.69,131.92a4.2,4.2,0,0,0,4-4.22v-4.12h0a4.2,4.2,0,0,0-4.2-4.19H80.88v19h4.18v-5h23.29a4.22,4.22,0,0,1,4.22,4.23v.74h4.2v0A7,7,0,0,0,112.69,131.92Zm-.15-3.4a.67.67,0,0,1-.63.69H85.06v-5.64h26.77a.73.73,0,0,1,.71.72Z"/><path d="M71.71,119.4H44.91a4.22,4.22,0,0,0-4.24,4.21v10.6h0a4.2,4.2,0,0,0,4.24,4.18H71.67a4.19,4.19,0,0,0,4.17-4.2V123.59A4.19,4.19,0,0,0,71.71,119.4ZM71,134.23H45.42a.57.57,0,0,1-.55-.52v-9.53a.67.67,0,0,1,.69-.59H70.94a.74.74,0,0,1,.73.71v9.23A.72.72,0,0,1,71,134.23Z"/><path d="M31.55,119.4H0v19H4.18v-5H31.57a4.21,4.21,0,0,0,4.19-4.21v-5.6h0v0A4.18,4.18,0,0,0,31.55,119.4Zm-.61,9.82H4.18v-5.64H30.86a.71.71,0,0,1,.71.72v4.21A.66.66,0,0,1,30.94,129.22Z"/></svg>