<svg viewBox="0 0 216.87 126.99" xmlns="http://www.w3.org/2000/svg"><g fill="#231f20"><path d="m183.72 98.79v20.28c.2 4.85 3.08 7.55 8 7.74 5.62.22 11.38.24 17.49 0 4.68-.19 7.41-3.09 7.66-7.75v-20.27h-7.38v18.66a2.41 2.41 0 0 1 -2.49 2.55 92.12 92.12 0 0 1 -13.7 0 2.68 2.68 0 0 1 -2.27-2.61v-18.6z"/><path d="m8.54 98.78c-3.82.22-7.89 2.24-8.45 7a9.17 9.17 0 0 0 0 2.45c.6 5.19 4.39 6.45 7.42 6.71s15.89 1 17.45 1.08c2.09.17 2.39 1 2.39 2.11 0 1.26-.58 2-2.39 2.1-3.94.23-11.33.16-15 0-1.3 0-2.25-.39-2.29-2v-1.36h-7.48s0 .65 0 .82c0 5.82 2 8.52 7.57 9a159.71 159.71 0 0 0 19.44 0c5.24-.33 7.17-4 7.37-8.13 0-.23 0-.64 0-1-.17-4.93-3-7.35-7-7.72-2.56-.22-16.2-.84-18.11-1-1.47-.13-2.06-.87-2.06-2.09a1.82 1.82 0 0 1 1.93-1.85c4.37-.29 11.93-.23 14.92 0 1.47.09 2 .82 2.13 1.67v1.29h7.4v-1.15c-.14-5.56-2.82-7.68-7.93-7.89-5.54-.32-11.57-.38-17.31-.04z"/><path d="m74.41 126.91h24.51c5.74-.15 8.31-3.18 8.31-8.63 0-3.82-1.83-5.89-3.21-6.31 1.15-.5 2.47-2.19 2.47-5.48 0-4.93-3.13-7.52-7.77-7.7-4.76 0-24.31 0-24.31 0zm22.44-22c1.35.1 2.52.66 2.52 2.17s-1.06 2.34-2.65 2.43h-14.92v-4.51zm0 10.44c1.24.06 2.94.59 2.94 2.62s-1.4 2.63-3.11 2.69h-14.88v-5.26z"/><path d="m37.33 98.79v20.28c.21 4.85 3.08 7.55 8 7.74 5.62.22 11.38.24 17.49 0 4.67-.19 7.4-3.09 7.66-7.75v-20.27h-7.37v18.66a2.43 2.43 0 0 1 -2.47 2.55 92 92 0 0 1 -13.64 0 2.68 2.68 0 0 1 -2.28-2.61v-18.6z"/><path d="m147.64 98.78v28.13h7.36v-10.08h15.26a2.65 2.65 0 0 1 2.75 2.71c.18 2.87.11 7.35.11 7.35h7.46s0-4.07-.12-7.1c-.1-3.23-1.74-5.75-3.22-6.22 1.22-.68 2.92-2.44 2.92-6.33 0-5.79-3-8.25-7.89-8.48zm22.62 6.22c1.74.14 2.66.91 2.66 2.69a2.48 2.48 0 0 1 -2.66 2.72h-15.26v-5.41z"/><path d="m117.89 121.91h16.73l2.57 5h8.62l-15.32-28.13h-8.26l-15.34 28.12h8.38l2.62-5zm13.67-6h-10.56l5.32-10.16z"/><path d="m28.17 41.22c0-22.78 37.29-41.22 81.13-41.22s80.43 18.44 80.43 41.22-36.6 41.22-80.43 41.22c-44.43 0-81.13-18.44-81.13-41.22zm81.16 36.86c40.59 0 74.48-16.51 74.48-36.86 0-20.52-34.26-36.86-74.48-36.86-40.56 0-75.22 16.34-75.22 36.86 0 20.35 33.26 36.86 75.22 36.86zm21-14.57c1.2.18 5.43.77 7.16 1.07a3.32 3.32 0 0 1 2.88 2.35 23.54 23.54 0 0 1 .78 2.37c.26.85.58 2.14.62 2.26a.49.49 0 0 0 .49.32.51.51 0 0 0 .48-.33c.09-.19.46-1.5.7-2.29a21.21 21.21 0 0 1 .8-2.33 3.38 3.38 0 0 1 2.72-2.3c1.74-.3 5.73-.78 7.71-1 1.49-.15 4.74-.55 5.12-.59s.56-.27.56-.52-.16-.48-.58-.51c-.62 0-3.61-.34-5.1-.52-2.29-.25-6.23-.8-7.55-1.08a3.21 3.21 0 0 1 -2.68-1.88 11.65 11.65 0 0 1 -.86-2.18c-.14-.55-.71-2.33-.78-2.62a.52.52 0 0 0 -.52-.45c-.24 0-.44.08-.55.47s-.58 2-.77 2.63a17.21 17.21 0 0 1 -.8 2.12 3.28 3.28 0 0 1 -2.62 1.91c-2.24.43-6.27 1-7.22 1.17a24.21 24.21 0 0 1 -7 .33c-1.91-.17-6.19-.8-9-1.22-1.71-.24-3.47-.36-4.43-1.89a12.9 12.9 0 0 1 -1.24-2.92c-.33-1-.83-2.66-.94-3.08s-.26-.52-.57-.52-.46.19-.57.55-.67 2.16-.94 3a10.35 10.35 0 0 1 -1.26 2.95c-1 1.33-1.88 1.5-4.22 1.88s-5.52.72-7.89.94c-2.1.24-3.41.37-4.18.45-.38 0-.61.16-.61.52s.23.49.61.53c.7.09 2.75.3 4.19.44 2.42.25 4.6.45 7.88.94s3.73.87 4.75 3.15a13.58 13.58 0 0 1 .92 2.84c.22 1 .69 2.88.77 3.28a.52.52 0 0 0 .53.53c.35 0 .5-.21.57-.54s.56-2.48.79-3.27a23.82 23.82 0 0 1 .87-2.84c1-2.46 1.85-2.72 5-3.17 2.38-.35 6.8-1 9-1.23a24.16 24.16 0 0 1 7 .27zm23.44-15.51c1.29.17 3.5.58 6 1.1a3.13 3.13 0 0 1 2.58 2.17 30.62 30.62 0 0 1 1 3.27c.29 1 .48 1.87.5 2a.57.57 0 0 0 .54.47.56.56 0 0 0 .56-.44c.05-.21.24-1.09.5-2.08s.62-2.25 1-3.27a3 3 0 0 1 2.36-2.06c1.39-.3 3.66-.66 5.52-.92 1.61-.24 4.4-.57 4.79-.63s.56-.29.56-.51-.12-.49-.56-.53l-4.81-.64c-2.12-.3-4.3-.64-5.5-.89a3.31 3.31 0 0 1 -2.19-1.6 16 16 0 0 1 -1-2.52c-.21-.75-.53-1.84-.63-2.14a.55.55 0 0 0 -1.07 0c-.11.38-.39 1.35-.65 2.13a11.46 11.46 0 0 1 -1 2.51 3.19 3.19 0 0 1 -2.42 1.64c-2.48.5-4.63.92-6 1.12a24.69 24.69 0 0 1 -8.66 0c-2-.27-5.29-.74-7.89-1.22-1.44-.27-2.73-.65-3.45-2a19.37 19.37 0 0 1 -1.11-3c-.22-.69-.65-2.07-.8-2.6-.1-.36-.25-.5-.56-.5s-.46.14-.57.5-.54 1.79-.78 2.58a18.89 18.89 0 0 1 -1.13 3c-.7 1.37-1.87 1.69-3.38 2-2.16.43-5.62.78-8.7 1.09-1.36.16-3.87.44-4.45.53-.33 0-.52.19-.52.5s.13.47.51.51c.54.08 3.49.39 4.44.5 1.65.17 5.6.68 8.71 1.1a4 4 0 0 1 3.89 3.45c.33 1.28.63 2.22.84 3.21.19.81.49 2.09.57 2.35s.31.52.55.52.48-.11.58-.54c.06-.24.43-1.83.53-2.27.22-.94.52-2.09.85-3.28.63-2.13 1.29-2.85 4-3.44 2.1-.47 6-.93 7.85-1.18a25.1 25.1 0 0 1 8.7-.05zm18.68-16.56c-.23 0-3.57-.43-5.33-.65-2-.28-4.58-.55-6.86-1a3.79 3.79 0 0 1 -2.78-1.87 22.46 22.46 0 0 1 -1.24-3.46c-.17-.49-.54-1.87-.63-2.2a.55.55 0 0 0 -.55-.47c-.2 0-.42.07-.55.47l-.66 2.16a23.34 23.34 0 0 1 -1.25 3.51c-.6 1.16-1.57 1.63-3.18 1.92s-4.83.68-8.06 1.08c-6.32.74-6.59.72-12.64.08-1.82-.18-6.62-.77-8.21-1-5.8-.65-15.45-1.58-21.32-2.57-3.18-.55-6-1.2-7.87-5.49a67.86 67.86 0 0 1 -2.66-7.82c-.58-1.94-1.24-4.59-1.46-5.48-.11-.42-.29-.57-.59-.57s-.44.14-.58.57c-.24.87-1 3.63-1.56 5.47a69.7 69.7 0 0 1 -2.62 7.83c-1.59 3.62-3.62 4.74-7.78 5.52-5.94 1.07-13.18 1.91-19.9 2.6l-13.25 1.35a.54.54 0 0 0 -.54.51.53.53 0 0 0 .54.51c.4.06 10.21 1 13.29 1.35 7 .71 13.4 1.47 19.57 2.49 6 1 7.38 3.88 8.52 7.47.9 2.85 2.1 7.83 2.52 9.77.41 1.71 1.12 5.28 1.21 5.59s.27.55.57.55.47-.14.58-.55.81-4 1.17-5.6c.45-1.91 1.68-7.11 2.53-9.8 1.52-4.74 3-6.39 8.31-7.27s15.37-2 21.36-2.7c1.51-.18 5-.46 8.17-.83 6.11-.63 6.64-.59 12.67.12 3.17.36 5.34.65 7.9 1.06 2.05.32 2.82.88 3.44 2.56a36.9 36.9 0 0 1 1.16 3.82c.23.89.54 2.32.62 2.63a.52.52 0 0 0 .51.44.6.6 0 0 0 .56-.44c.09-.38.37-1.74.6-2.63s.77-2.73 1.17-3.82a3.57 3.57 0 0 1 3-2.51c1.7-.35 4.64-.73 6.77-1 1.63-.22 5-.63 5.3-.66a.51.51 0 0 0 .53-.53.54.54 0 0 0 -.5-.53z"/></g></svg>