<svg fill="none" height="72" viewBox="0 0 56 72" width="56" xmlns="http://www.w3.org/2000/svg" xmlns:xlink="http://www.w3.org/1999/xlink"><clipPath id="a"><path d="m0 0h55.8v72h-55.8z"/></clipPath><g clip-path="url(#a)" fill="#000"><path d="m47.6719 67.6144v4.377h1.407v-2.9142h5.1211v2.9142h1.406v-4.3694z"/><path d="m48.9218 66.1984h5.4104c.7515-.149 1.3103-.8106 1.4679-1.4506h-8.346c.156.6402.723 1.3016 1.4677 1.4506z"/><path d="m43.41 71.9943c.7094-.3001 1.0911-.819 1.2373-1.4263h-6.3109l.004-5.8165-1.4146.004v7.2388z"/><path d="m26.4063 66.1789h4.9967c.7533-.2184 1.3858-.7909 1.54-1.4255h-7.9373v4.2778h6.4964v1.5012l-5.0958.004c-.7985.2221-1.4757.7571-1.8135 1.4636l.4129-.0076h7.8922v-4.3835h-6.4916z"/><path d="m14.0711 66.1927h5.4085c.7525-.1496 1.3118-.8106 1.4685-1.4512h-8.3456c.1558.6406.7233 1.3016 1.4686 1.4512"/><path d="m14.0711 69.0535h5.4085c.7525-.148 1.3118-.8096 1.4685-1.4506h-8.3456c.1558.6412.7233 1.3026 1.4686 1.4506"/><path d="m14.0711 71.9934h5.4085c.7525-.1492 1.3118-.8106 1.4685-1.4508h-8.3456c.1558.6404.7233 1.3016 1.4686 1.4508"/><path d="m0 64.759c.162591.6326.711637 1.2792 1.46492 1.4412h2.27668l.11614.0458v5.7312h1.42167v-5.7312l.12915-.0458h2.27868c.76169-.1957 1.29892-.8086 1.45871-1.4412v-.014h-9.14595z"/><path d="m27.9027 50.4391 7.1035-39.8553c6.771 0 8.9067.7407 9.215 3.764 0 0 4.5422-1.6896 6.8331-5.121-8.9397-4.13257-17.9221-4.31894-17.9221-4.31894l-5.2414 6.36864.0119-.0008-5.2414-6.36884s-8.9826.18657-17.92107 4.31915c2.28889 3.43139 6.83287 5.12099 6.83287 5.12099.3101-3.0235 2.4432-3.7642 9.1687-3.769z"/><path d="m27.9 3.06827c7.2265-.05514 15.498 1.11524 23.9655 4.79696 1.1318-2.03213 1.4227-2.93023 1.4227-2.93023-9.2563-3.65336-17.9247-4.9036382-25.3892-4.935-7.4642.0313618-16.1322 1.28184-25.38728 4.935 0 0 .41288 1.10625 1.42167 2.93023 8.46591-3.68172 16.73891-4.8521 23.96561-4.79696z"/></g></svg>