<svg fill="none" height="64" viewBox="0 0 68 64" width="68" xmlns="http://www.w3.org/2000/svg"><g clip-rule="evenodd" fill="#000" fill-rule="evenodd"><path d="m34 43.7475c18.7744 0 34-9.7904 34-21.879 0-12.07803-15.2256-21.8685-34-21.8685s-34 9.79047-34 21.879c0 12.0781 15.2256 21.8685 34 21.8685zm0-9.0349c-2.7306 0-4.9513-5.6035-5.0681-12.6342h-.0107.0107v.0105c1.6362.1469 3.3362.2308 5.0681.2308s3.4319-.0734 5.0787-.2308c0 0 0 0 0-.0105h.0107-.0107c-.1275 7.0307-2.3481 12.6342-5.0787 12.6342zm-4.7175-18.1853s.0106 0 0 0c.7544-4.8585 2.5819-8.27938 4.7175-8.27938s3.9631 3.43138 4.7069 8.27938c-1.5088.1259-3.0919.1994-4.7069.1994-1.6256 0-3.1981-.063-4.7175-.1994.0106 0 .0106 0 0 0zm30.2919-5.593.0318.0629c2.4225 2.9802 3.8144 6.4221 3.8144 10.0948 0 10.7979-11.9956 19.6439-27.2212 20.4204l-.0638.0105c3.5594-2.2036 6.1944-9.8114 6.1944-18.8569 0-.3253 0-.6611-.0106-.9864 9.9131-1.5425 17.0743-5.7504 17.255-10.7453zm-25.5744-8.3424c10.9544 0 19.8475 3.15856 19.8475 7.07265 0 2.90675-4.9406 5.41465-11.9956 6.49545v.0105c-1.1475-7.58679-4.2288-13.01195-7.8519-13.01195s-6.7044 5.43566-7.8519 13.01195v-.0105c-7.055-1.0808-11.985-3.5887-11.985-6.49545-.0106-3.91409 8.8719-7.07265 19.8369-7.07265zm-25.60625 8.4053.03187-.0629c.18063 4.9844 7.34188 9.2028 17.26568 10.7453-.0107.3253-.0107.6506-.0107.9864 0 9.0455 2.6244 16.6533 6.1944 18.8569l-.0637-.0105c-15.2257-.787-27.2213-9.633-27.2213-20.4204 0-3.6727 1.38125-7.1146 3.80375-10.0948z"/><path d="m39.9708 52.1213c-3.3256 0-6.0138 2.6654-6.0138 5.9394 0 3.2845 2.6988 5.9393 6.0138 5.9393 3.3256 0 6.0137-2.6653 6.0137-5.9393s-2.6987-5.9394-6.0137-5.9394zm0 9.7066c-1.8594 0-3.3575-1.6895-3.3575-3.7672s1.5087-3.7672 3.3575-3.7672c1.8594 0 3.3575 1.6895 3.3575 3.7672 0 2.0882-1.5088 3.7672-3.3575 3.7672z"/><path d="m56.3549 52.5305h-9.6156v2.0672h3.5381v9.1399h2.5394v-9.1399h3.5381z"/><path d="m61.7414 52.5305h-1.5831l-4.6856 11.2071h2.9643l.9775-2.5184h2.3269 2.3269l.9775 2.5184h2.9537l-4.6856-11.2071zm1.5938 6.7998h-1.5938-1.5937l1.5831-4.1029h.0212z"/><path d="m0 54.5977h3.53812v9.1399h2.53938v-9.1399h3.53813v-2.0672h-9.61563z"/><path d="m16.2774 52.1213c-3.3256 0-6.0137 2.6654-6.0137 5.9394 0 3.2845 2.6987 5.9393 6.0137 5.9393 3.3256 0 6.0138-2.6653 6.0138-5.9393s-2.6882-5.9394-6.0138-5.9394zm0 9.7066c-1.8594 0-3.3575-1.6895-3.3575-3.7672s1.5088-3.7672 3.3575-3.7672c1.8594 0 3.3575 1.6895 3.3575 3.7672 0 2.0882-1.4981 3.7672-3.3575 3.7672z"/><path d="m28.1245 57.2421-2.7519-4.7116h-2.9644l4.4306 6.9572v.0525 4.1974h1.2857 1.2856v-4.1974-.0525l4.42-6.9572h-2.9644z"/></g></svg>