<svg viewBox="0 0 800 110.07" xmlns="http://www.w3.org/2000/svg"><g fill-rule="evenodd"><path d="m0 4.72v14.61h24l46.89 87.93h57.69l46.89-88.08 23.91-.18.06-14.31h-71.68v14.39h19.09l-33.11 62.52-35.81-62.3 26.12-.12v-14.46z"/><path d="m462.4 4.72v14.61h24l46.88 87.93h57.7l46.89-88.08 24-.15v-14.31h-71.7v14.36h19.08l-33.11 62.52-35.81-62.3 26.13-.12-.05-14.46z"/><path d="m344.52 4.72v14.61h24v71.79h-25.26v16l25.27.14h119.61v-47.73h-15.58c-.86 25.27-22.78 31.62-32 31.62-8.46 0-24.86 0-24.86 0v-71.85l23.6-.12v-14.46z"/><path d="m262.81 94.13c-14.36 0-26-17.2-26-38.42s11.63-38.43 26-38.43 26 17.21 26 38.43-11.65 38.42-26 38.42zm1.05-92.35c-40.72 0-73.72 24.24-73.72 54.14s33 54.15 73.72 54.15 73.74-24.25 73.74-54.15-33.02-54.14-73.74-54.14z"/><path d="m725.22 93.86c-14.35 0-26-17.48-26-39.06s11.63-39 26-39 26 17.48 26 39-11.65 39.06-26 39.06zm1.06-93.86c-40.73 0-73.73 24.64-73.73 55s33 55 73.73 55 73.72-24.59 73.72-55-33-55-73.72-55z"/></g></svg>