<?xml version="1.0" standalone="no"?>
<!DOCTYPE svg PUBLIC "-//W3C//DTD SVG 20010904//EN"
 "http://www.w3.org/TR/2001/REC-SVG-20010904/DTD/svg10.dtd">
<svg version="1.0" xmlns="http://www.w3.org/2000/svg"
 width="256.000000pt" height="256.000000pt" viewBox="0 0 256.000000 256.000000"
 preserveAspectRatio="xMidYMid meet">
<metadata>
Created by potrace 1.11, written by Peter Selinger 2001-2013
</metadata>
<g transform="translate(0.000000,256.000000) scale(0.100000,-0.100000)"
fill="#000000" stroke="none">
<path d="M1262 2249 c-36 -77 -43 -105 -44 -195 -2 -128 8 -152 205 -491 80
-138 153 -273 163 -300 22 -64 30 -190 15 -250 -15 -56 -51 -143 -60 -143 -3
0 -12 19 -19 41 -7 23 -64 130 -126 238 -63 108 -125 216 -139 241 -14 25 -52
91 -86 148 -34 57 -61 106 -61 109 0 3 -10 18 -21 35 -12 16 -32 59 -44 95
l-23 66 -22 -43 c-69 -135 -70 -303 -4 -431 9 -19 78 -140 153 -269 75 -129
147 -260 159 -290 28 -68 39 -186 23 -259 -12 -59 -50 -151 -61 -151 -4 0 -12
18 -19 41 -7 22 -22 57 -33 77 -34 61 -247 430 -305 530 -75 128 -95 189 -102
309 -1 18 -121 -22 -246 -81 -166 -79 -269 -170 -328 -286 -29 -59 -32 -73
-32 -155 1 -79 4 -97 29 -145 101 -199 346 -340 711 -411 179 -35 566 -31 695
6 8 3 33 7 55 11 62 9 241 72 314 109 90 46 130 72 191 125 151 129 198 307
122 462 -70 143 -249 272 -481 348 l-85 27 -21 84 c-21 86 -16 77 -295 559
-40 69 -82 141 -93 160 -11 19 -28 59 -37 89 l-17 55 -31 -65z"/>
</g>
</svg>
