<svg xmlns="http://www.w3.org/2000/svg" viewBox="0 0 105.5 21.8">
  <path fill="currentColor" fill-rule="evenodd" d="M2.77606 9.40521h2.66262c2.2462 0 3.3062.575 3.3062 2.23611 0 2.07-1.9812 2.31278-3.41977 2.31278h-2.5238V9.40521zM-.00013 16.3691h5.61548c2.95286 0 5.90571-1.07333 5.90571-4.49778.04796-1.97672-1.42469-3.65316-3.36928-3.83333 1.60767-.36289 2.74086-1.82083 2.7131-3.48833 0-2.875-2.42286-3.9739-4.78263-3.9739H-.00013zm2.7762-13.37833h2.27142c2.09476 0 3.01596.66444 3.01596 2.03166 0 1.36723-.90858 1.98056-2.75096 1.98056H2.7887V2.99077z M13.26262 16.44103h2.7888V.27713h-2.7888zM17.72976 11.08765c-.04543 3.06283 2.3686 5.58261 5.39338 5.62861.11988.00256.24103 0 .3609-.00639 3.021.1559 5.59403-2.19778 5.74798-5.25678.00631-.12138.00884-.24277.00631-.36544.04543-3.06156-2.3686-5.58261-5.39338-5.62861-.12114-.00128-.24102 0-.3609.00639-3.021-.15461-5.59403 2.19778-5.74798 5.25678-.0063.12138-.00757.24405-.0063.36544m2.65 0c0-1.73522 1.38935-3.14333 3.10428-3.14333 1.71366 0 3.10428 1.4081 3.10428 3.14333 0 1.7365-1.39062 3.14333-3.10428 3.14333-1.71493 0-3.10429-1.40683-3.10429-3.14333M30.42452 11.08765c-.04542 3.06283 2.3686 5.58261 5.39338 5.62861.11989.00256.24103 0 .3609-.00639 3.021.1559 5.59403-2.19778 5.74799-5.25678.0063-.12138.00883-.24277.0063-.36544.04543-3.06156-2.36859-5.58261-5.39338-5.62861-.12114-.00128-.24102 0-.3609.00639-3.021-.15461-5.59402 2.19778-5.74798 5.25678-.0063.12138-.00757.24405-.0063.36544m2.65 0c0-1.73522 1.38935-3.14333 3.10428-3.14333 1.71367 0 3.10429 1.4081 3.10429 3.14333 0 1.7365-1.39062 3.14333-3.10429 3.14333-1.71493 0-3.10429-1.40683-3.10429-3.14333M43.5482 5.73376h2.52382v1.67389c.58678-1.25861 1.8714-2.02783 3.2431-1.94222 1.41206-.14695 2.75347.65678 3.30618 1.98055.67638-1.29566 2.03924-2.07 3.48286-1.98055 2.81405 0 3.78571 2.03166 3.78571 4.6v6.38889h-2.59952v-6.08223c0-1.27777-.3912-2.55555-1.95595-2.55555s-2.33453 1.40555-2.33453 2.82389v5.8011h-2.5238v-6.38888c0-1.27778-.53-2.185-1.80453-2.185-1.3086-.07667-2.42917.93533-2.50488 2.25911-.0101.15972-.00252.31817.01893.47533v5.83945H43.5482zM62.07322 16.44141h2.52381v-1.61c.79752 1.23306 2.18183 1.9435 3.63429 1.86556 2.8355.05877 5.18138-2.22078 5.24069-5.09323.00252-.17633-.00253-.35266-.0164-.529.20316-2.89288-1.94839-5.405-4.8066-5.61072a7.60366 7.60366 0 00-.24103-.0115c-1.3881-.069-2.72571.53922-3.59643 1.63556h-.10095V.27752h-2.63738zm8.77024-5.35389c.00126 1.7365-1.38683 3.14461-3.10176 3.1459s-3.10555-1.40429-3.10681-3.14079v-.0051c-.00126-1.73523 1.38683-3.14462 3.10176-3.1459 1.71367-.00127 3.10555 1.40428 3.1068 3.14078zM85.38022 12.0203v-.72833c0-3.73111-2.00642-5.82667-4.95928-5.82667-3.021-.15461-5.59403 2.19778-5.74798 5.25678-.0063.12139-.00757.24405-.0063.36544.12366 3.22256 2.8052 5.7334 5.98773 5.60817 1.64805-.06645 3.18883-.84206 4.2337-2.13261l-1.89287-1.4439c-.6625.91618-1.71745 1.45412-2.83928 1.4439-1.47138.06005-2.72445-1.0695-2.83929-2.55556h8.06357zm-8.06357-2.00611c.05426-1.46689 1.27326-2.6105 2.72193-2.55556h.00379c1.33762-.14183 2.53643.84078 2.6765 2.19523a2.45678 2.45678 0 01.01135.36033zM87.07168 5.73376h2.63738v1.69945c.56534-1.22667 1.79317-1.99845 3.12953-1.96778.32052.00383.63978.05622.94642.15333v2.55556c-.41138-.11884-.83538-.18784-1.2619-.20445-1.4676-.09839-2.73581 1.02606-2.83298 2.51084-.00504.0626-.0063.12394-.0063.18527v5.72445h-2.61215zM102.9212 5.73376v1.61c-.79373-1.23689-2.1793-1.95244-3.63428-1.87833-2.8355-.05878-5.18264 2.22078-5.2407 5.09322-.00378.17633.00253.35267.01641.529-.1325 2.89033 2.07331 5.34239 4.92774 5.47656.11105.0051.22336.00638.3344.0051 1.32753.04728 2.60332-.52772 3.45762-1.55888v.77944c0 2.12111-.78238 3.59056-3.34404 3.59056-1.36917.0051-2.68029-.55328-3.63429-1.54611l-1.57738 2.185c1.46002 1.242 3.3327 1.87322 5.2369 1.76333 4.11382 0 5.96882-2.45333 5.96882-6.31222V5.73376h-2.52381zm-3.14214 2.14667c1.62029-.10861 3.021 1.13339 3.12826 2.77405.00758.12267.00884.24661.00127.36928.0795 1.65728-1.1824 3.06539-2.81784 3.14589-.10852.00511-.21705.00383-.3243-.00256-1.68591.02812-3.07653-1.33272-3.1043-3.0411v-.0639c-.0858-1.67005 1.18241-3.0935 2.83172-3.18038.09843-.0064.19812-.0064.29781-.00128z" />
</svg>
