<svg xmlns="http://www.w3.org/2000/svg" viewBox="60 13 79 33">
  <path fill="currentColor" fill-rule="evenodd" d="M66.96237 20.5924c-.35562-.256-.74298-.37467-1.40268-.40933-.30406-.016-.47196-.016-.7258-.016-.06742 0-.10179.03333-.10179.11866v4.03734c0 1.124.05156 1.41333.59227 1.63466.45478.188.84346.20534 1.23214.20534.76017 0 2.04386-.40934 2.04386-2.18134 0-1.056-.3543-2.48666-1.638-3.38933zm-2.23027-1.36267c0 .136.05156.16934.11898.18667.15204.03467.40455.052.79323.052.5579 0 .92938-.06933 1.21627-.324.43891-.35733.69274-.97067.69274-1.80533 0-1.14134-.65837-2.64-2.11129-2.64-.23664 0-.38867 0-.5579.03333-.11766.03467-.15203.10267-.15203.28933zm-2.02668-.28933c0-2.58933 0-3.06667-.03305-3.612-.03437-.57867-.16922-.85067-.7258-.97067-.13616-.03466-.42304-.05066-.65969-.05066-.1864 0-.28688-.03467-.28688-.15334 0-.12.11898-.15333.3715-.15333.895 0 1.95925.05067 2.29636.05067.8276 0 1.4873-.05067 2.06106-.05067 3.05654 0 3.59857 1.652 3.59857 2.55467 0 1.39733-.79454 2.232-1.72393 2.98133 1.3855.476 3.07505 1.68667 3.07505 3.67867 0 1.82266-1.40268 3.71333-4.51078 3.71333-.20227 0-.69275-.03333-1.1819-.05067-.50634-.03466-1.014-.05066-1.2665-.05066-.18641 0-.5579 0-.96245.016-.38867 0-.82891.03466-1.16603.03466-.21946 0-.33712-.05066-.33712-.17066 0-.08534.06742-.136.2697-.136.25383 0 .4561-.03467.60813-.068.33844-.068.42305-.44267.48915-.93734.08461-.71466.08461-2.06.08461-3.628zm10.25198 1.1748c0-2.19733.01719-2.60667-.01719-3.06533-.03305-.512-.16922-.648-.64118-.784-.11766-.03467-.3715-.052-.57509-.052-.16922 0-.2525-.05067-.2525-.15334 0-.10133.10179-.136.32125-.136.79322 0 1.79003.03467 2.22895.03467.37149 0 1.3683-.03467 1.90901-.03467.21946 0 .31994.03467.31994.136 0 .10267-.08461.15334-.23533.15334-.16922 0-.25383.01733-.44023.052-.38736.068-.50634.272-.54071.784-.03306.45866-.03306.868-.03306 3.06533v2.028c0 2.11067.40587 2.92933 1.13167 3.508.65837.528 1.3683.57867 1.87464.57867.6425 0 1.40136-.18667 1.99363-.76534.82759-.784.86064-2.044.86064-3.52666V20.1152c0-2.19733-.01719-2.60667-.03305-3.06533-.03437-.49467-.15336-.648-.62532-.784-.11766-.03467-.3715-.052-.54071-.052-.16922 0-.25383-.05067-.25383-.15334 0-.10133.1018-.136.30406-.136.76017 0 1.75699.03467 1.77417.03467.16922 0 1.16471-.03467 1.7398-.03467.20227 0 .30407.03467.30407.136 0 .10267-.08461.15334-.25383.15334s-.25383.01733-.43892.052c-.40586.068-.50634.272-.54071.784-.01719.45866-.03305.868-.03305 3.06533v1.55067c0 1.61733-.16922 3.32133-1.41987 4.36-1.04705.88666-2.1787 1.03866-3.14115 1.03866-.77735 0-2.31356-.03333-3.39498-.98666-.76017-.66534-1.35112-1.73867-1.35112-3.83334zm11.95766 6.57547c-.23664-.10267-.28688-.17067-.28688-.49467 0-.78267.06743-1.68533.08461-1.924 0-.22133.06743-.37467.18509-.37467.13485 0 .15203.136.15203.23734 0 .188.05156.49466.13617.75066.31993 1.07334 1.43573 1.43067 2.3638 1.43067 1.2837 0 2.06105-.81867 2.06105-1.84 0-.63067-.15204-1.26-1.4701-2.044l-.86065-.51067c-1.75698-1.03866-2.33206-2.01066-2.33206-3.288 0-1.772 1.68955-2.91333 3.7506-2.91333.96245 0 1.72262.13733 2.10997.23867.13617.03466.2036.08533.2036.188 0 .18666-.05024.596-.05024 1.73733 0 .30667-.06875.46-.1864.46-.1018 0-.15204-.08533-.15204-.256 0-.136-.06743-.57867-.38868-.95333-.21946-.27334-.69275-.68134-1.65519-.68134-1.06423 0-2.02668.56134-2.02668 1.54934 0 .648.23665 1.15866 1.57058 1.908l.60814.34133c1.95925 1.08933 2.56739 2.19733 2.56739 3.50933 0 1.072-.40587 1.94134-1.48597 2.708-.70993.51067-1.68956.596-2.48278.596-.86197 0-1.77417-.08533-2.41536-.37466m8.88368-6.57547c0-2.19733 0-2.60667-.0172-3.06533-.03304-.49467-.18508-.66534-.50633-.768-.1679-.05067-.3543-.068-.54071-.068-.15071 0-.23532-.03334-.23532-.16934 0-.08533.11766-.12.3543-.12.5579 0 1.57058.03467 1.9923.03467.3715 0 1.33526-.03467 1.90902-.03467.18509 0 .30407.03467.30407.12 0 .136-.0846.16934-.23664.16934s-.2697.01733-.43892.052c-.40586.068-.52352.272-.5579.784-.03305.45866-.03305.868-.03305 3.06533v2.556c0 1.396 0 2.55467.06743 3.168.05023.39067.15203.61333.59095.68133.20227.03467.5407.05067.76017.05067.1679 0 .23664.08533.23664.15333 0 .10267-.11898.15334-.2882.15334-.9783 0-1.9923-.05067-2.39685-.05067-.33844 0-1.35112.05067-1.9434.05067-.18508 0-.28687-.05067-.28687-.15334 0-.068.05156-.15333.23664-.15333.21946 0 .38868-.016.52353-.05067.30406-.068.38867-.272.43891-.69866.06743-.596.06743-1.75467.06743-3.15067zm7.09376 4.78707c.03438 1.124.21946 1.46533.50634 1.56666.25383.08534.54072.10267.77736.10267.16922 0 .25383.068.25383.15333 0 .11867-.13485.15334-.33844.15334-.96244 0-1.65519-.052-1.92488-.052-.13485 0-.84478.052-1.60495.052-.2036 0-.33844-.01734-.33844-.15334 0-.08533.1018-.15333.23664-.15333.20227 0 .4733-.01733.67556-.068.38868-.10267.43892-.49467.4561-1.75467l.13617-8.58533c0-.28933.10048-.49467.25251-.49467.1864 0 .38868.22134.64251.47734.18508.188 2.41536 2.48666 4.57688 4.61733 1.01268 1.004 2.98912 3.048 3.20858 3.252h.06742l-.15071-6.43867c-.01719-.88533-.15336-1.14133-.50766-1.27733-.21946-.08533-.57376-.08533-.77736-.08533-.18508 0-.23532-.068-.23532-.15334 0-.11866.15071-.136.3715-.136.77603 0 1.57057.03334 1.89182.03334.16922 0 .7258-.03334 1.4516-.03334.20359 0 .33844.01734.33844.136 0 .08534-.08461.15334-.25383.15334-.15204 0-.2697 0-.4561.05066-.40587.12-.52353.376-.54072 1.19334l-.1679 9.13066c0 .32267-.11898.45867-.23664.45867-.25383 0-.4561-.152-.60814-.30667-.92939-.868-2.78684-2.656-4.34155-4.172-1.62082-1.568-3.1914-3.32266-3.47828-3.57866h-.05023zm12.56567-4.78707c0-2.19733 0-2.60667-.01718-3.06533-.03438-.49467-.16922-.648-.64251-.784-.11766-.03467-.37017-.052-.58963-.052-.15336 0-.25383-.05067-.25383-.15334 0-.10133.11766-.136.33712-.136.77735 0 1.7226.03467 2.14566.03467.47329 0 3.76647.01733 4.05336 0 .27101-.01733.50633-.068.62532-.08533.0846-.01734.16922-.068.23532-.068.08461 0 .1018.068.1018.136 0 .10266-.08461.272-.11766.93733-.0172.152-.05024.784-.08461.95333-.0172.068-.05024.23867-.16922.23867-.10048 0-.11767-.068-.11767-.18667 0-.10266-.01718-.35866-.1018-.528-.11765-.256-.23664-.46133-.97962-.52933-.25383-.03333-2.02668-.068-2.33075-.068-.06742 0-.1018.05067-.1018.136v3.57867c0 .08533.0172.152.1018.152.33845 0 2.26333 0 2.60177-.03334.3543-.03333.57376-.068.7086-.22133.119-.10267.16923-.188.23665-.188.06743 0 .11766.06933.11766.15333 0 .08534-.03305.324-.11766 1.056-.03437.28934-.06742.86934-.06742.972 0 .11867-.01719.32267-.15204.32267-.1018 0-.13484-.05067-.13484-.11867-.01719-.15333-.01719-.34133-.05156-.528-.08461-.28933-.2697-.51066-.8276-.56266-.2697-.03334-1.95793-.068-2.33074-.068-.06743 0-.08461.068-.08461.15333v1.15867c0 .49333-.01587 1.72 0 2.14533.03437.98933.49047 1.21067 2.01081 1.21067.38868 0 1.01268-.01734 1.40136-.188.37149-.17067.5407-.47734.6425-1.07334.03306-.15333.06743-.22133.1679-.22133.11899 0 .13617.18667.13617.34133 0 .32267-.11898 1.312-.20359 1.6-.10047.376-.23664.376-.79322.376-1.11447 0-2.01081-.01733-2.73661-.05066-.7258-.01867-1.2837-.03467-1.72261-.03467-.16922 0-.48915.016-.84478.016-.3543.01867-.7258.03467-1.02986.03467-.18641 0-.28689-.05067-.28689-.15334 0-.068.05024-.15333.23665-.15333.21946 0 .38868-.016.52352-.05067.30407-.068.38868-.34133.43892-.76666.06742-.61334.06742-1.75467.06742-3.08267zm8.20785 6.57547c-.23664-.10267-.28688-.17067-.28688-.49467 0-.78267.06742-1.68533.0846-1.924 0-.22133.06743-.37467.1851-.37467.13484 0 .15203.136.15203.23734 0 .188.05156.49466.13617.75066.31993 1.07334 1.43573 1.43067 2.3638 1.43067 1.28369 0 2.06104-.81867 2.06104-1.84 0-.63067-.15203-1.26-1.4701-2.044l-.86064-.51067c-1.75698-1.03866-2.33207-2.01066-2.33207-3.288 0-1.772 1.68956-2.91333 3.75061-2.91333.96244 0 1.72261.13733 2.11129.23867.13485.03466.20227.08533.20227.188 0 .18666-.05024.596-.05024 1.73733 0 .30667-.06874.46-.1864.46-.1018 0-.15204-.08533-.15204-.256 0-.136-.06742-.57867-.38868-.95333-.21945-.27334-.69274-.68134-1.65518-.68134-1.06424 0-2.02668.56134-2.02668 1.54934 0 .648.23664 1.15866 1.57058 1.908l.60813.34133c1.95926 1.08933 2.5674 2.19733 2.5674 3.50933 0 1.072-.40587 1.94134-1.48597 2.708-.70994.51067-1.68956.596-2.48278.596-.86197 0-1.77417-.08533-2.41536-.37466m8.41118 0c-.23665-.10267-.28688-.17067-.28688-.49467 0-.78267.0661-1.68533.0846-1.924 0-.22133.0661-.37467.18509-.37467.13485 0 .15203.136.15203.23734 0 .188.05024.49466.13485.75066.32126 1.07334 1.43573 1.43067 2.36512 1.43067 1.2837 0 2.05973-.81867 2.05973-1.84 0-.63067-.15071-1.26-1.46878-2.044l-.86064-.51067c-1.75699-1.03866-2.33207-2.01066-2.33207-3.288 0-1.772 1.68956-2.91333 3.7506-2.91333.96245 0 1.72262.13733 2.10997.23867.13617.03466.2036.08533.2036.188 0 .18666-.05024.596-.05024 1.73733 0 .30667-.06875.46-.1864.46-.1018 0-.15204-.08533-.15204-.256 0-.136-.06742-.57867-.38868-.95333-.21946-.27334-.69274-.68134-1.65519-.68134-1.06423 0-2.02667.56134-2.02667 1.54934 0 .648.23664 1.15866 1.57057 1.908l.60814.34133c1.95925 1.08933 2.56739 2.19733 2.56739 3.50933 0 1.072-.40587 1.94134-1.48597 2.708-.70993.51067-1.68956.596-2.48278.596-.86196 0-1.77417-.08533-2.41535-.37466M63.39777 37.136c0-2.58933 0-3.06667-.03305-3.61067-.03437-.58-.2036-.86933-.57508-.95466-.18509-.05067-.40587-.068-.60814-.068-.1679 0-.2697-.03334-.2697-.17067 0-.10267.13485-.136.40587-.136.64119 0 1.70542.05067 2.19458.05067.42305 0 1.41986-.05067 2.06105-.05067.21946 0 .3543.03333.3543.136 0 .13733-.10047.17067-.2697.17067-.16921 0-.30406.01733-.50633.05066-.4561.08534-.59227.37467-.62532.972-.03438.544-.03438 1.02134-.03438 3.61067v2.99867c0 1.652 0 2.99733.06743 3.72933.05156.46133.16922.76667.67556.83467.23664.03466.60813.06933.86196.06933.18509 0 .2697.05067.2697.136 0 .11867-.13485.17067-.31993.17067-1.11448 0-2.17872-.052-2.63482-.052-.38868 0-1.45291.052-2.12847.052-.21946 0-.33844-.052-.33844-.17067 0-.08533.06874-.136.27101-.136.25251 0 .4561-.03467.60814-.06933.33712-.068.43892-.35734.48915-.85067.08461-.716.08461-2.06133.08461-3.71333zm8.59719 5.96227c.03305 1.124.21946 1.46533.50634 1.56666.25383.08534.54071.10267.77735.10267.16922 0 .25383.068.25383.15333 0 .11867-.13484.15334-.33844.15334-.96244 0-1.65518-.052-1.92488-.052-.13617 0-.84478.052-1.60495.052-.20359 0-.33844-.01734-.33844-.15334 0-.08533.1018-.15333.23665-.15333.20227 0 .47329-.01733.67556-.068.38867-.10267.43891-.49467.4561-1.75467l.13617-8.58533c0-.28933.10047-.49467.2525-.49467.18641 0 .38868.22134.6412.47734.1864.188 2.41667 2.48666 4.5782 4.616 1.01267 1.00533 2.98911 3.04933 3.20857 3.25333h.06743l-.15204-6.43867c-.01718-.88533-.15203-1.14133-.50634-1.27733-.21945-.08533-.57376-.08533-.77735-.08533-.18509 0-.23533-.068-.23533-.15334 0-.11866.15072-.136.37017-.136.77736 0 1.5719.03334 1.89316.03334.1679 0 .7258-.03334 1.45159-.03334.2036 0 .33844.01734.33844.136 0 .08534-.0846.15334-.25383.15334-.15203 0-.2697 0-.4561.05066-.40587.12-.52353.376-.54071 1.19334l-.16922 9.13066c0 .32267-.11766.45867-.23533.45867-.25383 0-.4561-.152-.60813-.30667-.9294-.868-2.78685-2.656-4.34156-4.172-1.62081-1.568-3.19271-3.32266-3.47827-3.57866h-.05156zm13.17314 1.7884c-.23664-.10267-.28688-.17067-.28688-.49467 0-.78267.06742-1.68533.08461-1.924 0-.22133.06742-.37467.18509-.37467.13616 0 .15335.136.15335.23734 0 .188.05024.49466.13485.75066.31993 1.07334 1.43573 1.43067 2.3638 1.43067 1.28369 0 2.06105-.81867 2.06105-1.84 0-.63067-.15204-1.26-1.4701-2.044l-.86065-.51067c-1.75698-1.03866-2.33075-2.01066-2.33075-3.288 0-1.772 1.68824-2.91333 3.7493-2.91333.96243 0 1.7226.13733 2.11128.23867.13485.03466.20227.08533.20227.188 0 .18666-.05024.596-.05024 1.73733 0 .30667-.06742.46-.18508.46-.1018 0-.15336-.08533-.15336-.256 0-.136-.06742-.57867-.38867-.95333-.21946-.27334-.69143-.68134-1.65519-.68134-1.06292 0-2.02668.56134-2.02668 1.54934 0 .648.23665 1.15866 1.5719 1.908l.60814.34133c1.95925 1.08933 2.56739 2.19733 2.56739 3.50933 0 1.072-.40587 1.94134-1.4873 2.708-.70992.51067-1.68823.596-2.48277.596-.86065 0-1.77285-.08533-2.41536-.37466m10.30261-6.57547c0-2.19733 0-2.60667-.01718-3.06533-.03306-.49467-.18509-.66534-.50634-.768-.1679-.05067-.3543-.06667-.54072-.06667-.1507 0-.23532-.03467-.23532-.17067 0-.08533.11766-.12.3543-.12.5579 0 1.57058.03467 1.99231.03467.3715 0 1.33526-.03467 1.90902-.03467.18508 0 .30407.03467.30407.12 0 .136-.08461.17067-.23665.17067s-.2697.016-.43891.05067c-.40587.068-.52353.272-.5579.784-.03305.45866-.03305.868-.03305 3.06533v2.556c0 1.396 0 2.55467.06742 3.168.05024.392.15204.61333.59095.68133.20227.03334.54071.05067.76017.05067.1679 0 .23665.08533.23665.15333 0 .10267-.11899.15334-.2882.15334-.97831 0-1.99231-.05067-2.39686-.05067-.33844 0-1.35111.05067-1.94339.05067-.18508 0-.28688-.05067-.28688-.15334 0-.068.05156-.15333.23665-.15333.21946 0 .38868-.01733.52352-.05067.30407-.068.38868-.272.43892-.69866.06742-.596.06742-1.75467.06742-3.15067zm9.57695 1.60147c0 1.53333.01718 2.64.03305 2.92933.01718.35867.05024.86933.16922 1.02267.18508.272.77735.57866 1.94339.57866 1.35112 0 2.3466-.23866 3.24163-.988.96376-.8 1.26783-2.09466 1.26783-3.59466 0-1.83867-.72712-3.032-1.3855-3.61067-1.3683-1.22667-2.98911-1.38-4.15515-1.38-.30407 0-.79322.03467-.9122.10267-.13485.05066-.18509.11866-.18509.28933-.01718.49467-.01718 1.68667-.01718 2.828zm-1.99363-1.60134c0-2.19733 0-2.60666-.01719-3.06533-.03305-.49467-.1679-.648-.64118-.784-.11899-.03467-.3715-.05067-.59095-.05067-.15204 0-.25383-.052-.25383-.15466 0-.10134.11898-.136.33844-.136.77603 0 1.7226.03466 2.14434.03466.4561 0 1.52034-.03466 2.41535-.03466 1.85746 0 4.35743 0 5.97956 1.65333.74299.74933 1.40136 1.95867 1.40136 3.67867 0 1.82266-.77604 3.20266-1.62081 4.03733-.67556.68133-2.24746 1.70267-4.98275 1.70267-.54071 0-1.18322-.05067-1.77285-.08534-.59227-.05066-1.13298-.084-1.50447-.084-.1679 0-.48916.016-.84346.016-.35563.01734-.72712.03467-1.03119.03467-.18508 0-.28688-.05067-.28688-.15333 0-.068.05024-.15334.23665-.15334.21945 0 .38867-.01733.52352-.05066.30407-.068.38868-.34134.43892-.76667.06742-.61333.06742-1.75467.06742-3.084zm14.57556-.00013c0-2.19733 0-2.60667-.01719-3.06533-.03305-.49467-.1679-.648-.64119-.784-.11766-.03467-.37149-.05067-.59095-.05067-.15203 0-.25383-.052-.25383-.15467 0-.10133.11899-.136.33844-.136.77736 0 1.72261.03467 2.14434.03467.4733 0 3.76648.01733 4.05336 0 .27102-.01733.50766-.068.62532-.08533.08461-.01734.16922-.068.23665-.068.0846 0 .1018.068.1018.136 0 .10266-.08462.27333-.119.93733-.01586.152-.05023.784-.0846.95333-.01587.068-.05024.23867-.16922.23867-.10048 0-.11766-.068-.11766-.18667 0-.10266-.01719-.35866-.1018-.528-.11766-.256-.23532-.46133-.97963-.52933-.2525-.03333-2.02667-.068-2.33074-.068-.06743 0-.10048.05067-.10048.136v3.57867c0 .08533.01719.152.10048.152.33844 0 2.26332 0 2.60176-.03334.3543-.03333.57376-.068.70861-.22133.11898-.10267.16922-.188.23665-.188s.11898.06933.11898.15333c0 .08534-.03437.324-.11898 1.056-.03306.28934-.06743.86934-.06743.972 0 .11867-.01586.32267-.15203.32267-.1018 0-.13485-.05067-.13485-.11867-.01719-.15333-.01719-.34133-.05156-.528-.08329-.28933-.2697-.51066-.8276-.56266-.26969-.03334-1.95792-.068-2.32942-.068-.06742 0-.0846.068-.0846.15333v1.15867c0 .49333-.0172 1.72 0 2.14533.03304.98933.48915 1.21067 2.00949 1.21067.38867 0 1.01267-.01734 1.40135-.188.37281-.16934.54203-.476.6425-1.07334.03438-.15333.06743-.22133.16923-.22133.11766 0 .13485.18667.13485.34133 0 .32267-.11899 1.312-.2036 1.6-.10047.376-.23532.376-.79322.376-1.11447 0-2.00949-.01733-2.7366-.052-.7258-.01733-1.2837-.03333-1.72262-.03333-.16922 0-.48915.016-.84345.016-.35563.01733-.72712.03467-1.0312.03467-.18508 0-.28687-.05067-.28687-.15334 0-.068.05024-.15333.23664-.15333.21946 0 .38868-.01733.52353-.05067.30407-.068.38868-.34133.43891-.76666.06743-.61334.06743-1.75467.06743-3.08267zM129.62149 39.43546c0 .15334.03305.204.13485.256.32125.10267.76017.136 1.13166.136.59095 0 .79454-.052 1.04705-.23866.4561-.324.96376-.95467.96376-2.14667 0-2.044-1.38549-2.572-2.26332-2.572-.37281 0-.72712.01733-.87915.05067-.1018.03466-.13485.08533-.13485.20533zm-1.89183-1.124c0-2.19733 0-2.60666-.01719-3.06666-.03305-.49334-.1679-.64667-.64118-.78267-.11899-.03467-.3715-.052-.59095-.052-.15204 0-.25383-.05067-.25383-.15333 0-.10134.11766-.136.33712-.136.77735 0 1.72393.03466 2.028.03466.50634 0 1.85745-.03466 2.31356-.03466.94657 0 2.02667.08533 2.8199.61333.42304.28933 1.04704 1.02267 1.04704 1.99333 0 1.072-.6068 2.02667-2.05972 3.20267 1.31674 1.63467 2.3638 2.94667 3.26013 3.84933.8276.83467 1.35112.90267 1.58644.95334.15336.03466.23797.03466.35563.03466.11766 0 .1864.084.1864.15334 0 .11866-.1018.15333-.2882.15333h-1.41854c-.8276 0-1.23346-.08533-1.62214-.28933-.64118-.324-1.19776-1.00534-2.02667-2.12934-.58963-.784-1.21495-1.75466-1.40136-1.976-.0846-.08533-.16922-.10266-.2697-.10266l-1.33524-.03334c-.06742 0-.11766.03334-.11766.11867v.204c0 1.34667.01719 2.47067.08461 3.084.05024.42533.11766.69867.57376.76533.21946.03467.54072.052.72712.052.11766 0 .18509.084.18509.15334 0 .10133-.11766.15333-.30407.15333-.86065 0-2.0941-.052-2.31356-.052-.28688 0-1.23346.052-1.8244.052-.18641 0-.28689-.052-.28689-.15333 0-.06934.05024-.15334.23665-.15334.21945 0 .38735-.01733.52352-.052.30407-.06666.38736-.34.43892-.76533.06742-.61333.06742-1.75467.06742-3.084z"/>
</svg>
