<svg xmlns="http://www.w3.org/2000/svg" viewBox="0 0 91 31">
  <path fill="currentColor" fill-rule="evenodd" d="M84.64445 20.51093c-.00401.81467.50318 1.26 1.43325 1.25867.76949-.00133 1.21512-.448 1.21512-1.21467-.00134-.88666-.44162-1.31333-1.3543-1.31466-.8685-.00134-1.29005.412-1.29407 1.27066zM30.39373 30.5056h1.36233v-5.94h-1.36233zm-5.59248-5.936v5.94133h1.36634V27.5096h2.50383a95.13285 95.13285 0 00-.03078-.44133H26.1957v-2.092h2.8143v-.40667zm37.45051 5.412v-2.464h2.4222v-.43867h-2.4329v-2.08h2.9749v-.42266h-4.37737v5.93733h4.38405v-.532zm-18.86778-1.62667c-.31047-.67866-.59417-1.30133-.9274-2.03066-.34526.73733-.63833 1.36533-.95014 2.03066zm.24222.55734H41.2281a874.9934 874.9934 0 01-.7909 1.612h-.92472c.97557-2.04534 1.93509-4.056 2.8946-6.068h.6263c.914 1.99733 1.83605 4.00533 2.77683 6.06h-1.4279c-.24088-.51067-.49782-1.05467-.7561-1.604zm11.81796-4.316c-1.4734.41466-2.28437 1.60933-2.2295 3.16.04818 1.39066 1.05988 2.464 2.65773 2.82533 1.4453.32533 2.92806-.30133 3.56774-1.53467-.16327-.12-.33054-.24266-.5072-.37333-.20876.232-.39745.448-.59015.65867-1.08264 1.18533-2.88122.652-3.32418-.7-.18066-.55467-.21144-1.204-.1365-1.78667.10706-.82.61157-1.42267 1.43726-1.66667.8538-.252 1.547.06667 2.1385.676.15792.16267.30646.336.48445.53334.1753-.12267.34794-.24134.54198-.37734-.85513-1.48533-2.39276-1.87866-4.04013-1.41466zm-21.98587 5.90666h.8297V26.5176c.03614-.016.07361-.03333.10974-.04933 1.23252 1.392 2.4637 2.784 3.69086 4.16933.19002-.00933.35195-.016.52726-.024v-6.04h-.81499v3.724l-.10973.02667c-1.13616-1.26267-2.27232-2.52667-3.37904-3.75734h-.8538zm17.46932-2.18666a6004.99306 6004.99306 0 01-3.36967-3.748h-.88591v5.948h.8538v-4.00934l.1124-.044c1.22583 1.38667 2.45165 2.77334 3.6641 4.144h.56205v-6.048H51.036v3.724c-.03613.01067-.07226.02267-.1084.03334zm36.1792-11.60934c.35061-1.76666.66778-3.54266 1.05854-5.30133.64101-2.89733 1.33154-5.784 1.99932-8.676.18602-.80933-.24356-1.51067-.98226-1.61467-1.07059-.14933-1.60455.23067-1.68216 1.192-.09368 1.152-.18736 2.30267-.28906 3.45334-.14185 1.604-.27835 3.20933-.44296 4.81066-.1579 1.54-.3466 3.07734-.52459 4.616-.07226.62934-.14988 1.25867-.2275 1.89467.3466.068.63968.12533.97424.19067.04416-.20934.0803-.38667.11643-.56534zm-63.66655-3.12266c-1.00234-2.60534-1.97122-5.12267-2.93341-7.62667-.96487 2.51467-1.93241 5.03333-2.92806 7.62667zM19.51388 3.1376h1.98059c2.2121 5.44933 4.37335 11.016 6.98692 16.34667h-2.68985c-.60488-1.51467-1.24322-3.116-1.89226-4.744h-6.7795c-.63968 1.604-1.27802 3.20533-1.89093 4.74266h-2.69387c2.61358-5.316 4.77483-10.88533 6.9789-16.34533zM.0653 1.08293c2.23351 3.78134 4.47238 7.56 6.69117 11.34934.15925.272.24891.628.24356.94266-.02944 2.348-.09234 4.69467-.14051 7.04267-.00937.43867-.00134.87867-.00134 1.256h2.6109c0-.06267.00267-.18267 0-.30133-.05621-2.652-.1191-5.304-.15925-7.956-.00536-.27467.04951-.59067.18601-.824 2.24154-3.828 4.50049-7.64534 6.75541-11.46667.04283-.07067.06691-.15333.0803-.184h-2.66042c-1.78788 2.96133-3.62394 6.00667-5.50817 9.128C6.27739 6.9376 4.45204 3.9056 2.6695.94427H-.00027c.01606.032.03613.088.06558.13866zm43.68669 2.056h-2.58414c.06558 2.488.13249 5.02534.20074 7.59867-3.14351.12667-6.17997.14267-9.27799-.00933.05487-2.59734.1084-5.132.1606-7.588h-2.58012v16.33466h2.5761c-.05085-2.488-.10037-5.012-.15256-7.57733h9.27397c-.06691 2.57867-.13249 5.11333-.19538 7.57867H43.752zm16.08559 8.22134c-.04818-.63734-.06156-1.27867-.15256-1.90934-.21144-1.46933-.72667-2.812-1.74506-3.93066-2.3446-2.57734-8.47505-2.68-10.06086 2.47333-.57945 1.88267-.60622 3.8-.2556 5.72267.2168 1.17733.65574 2.272 1.44663 3.196 1.26062 1.47466 2.90264 2.03466 4.79222 1.96133 2.33389-.088 4.09099-1.10133 5.12143-3.256.6437-1.34667.84577-2.77867.8538-4.25733zm-6.19603 8.48133c-2.03145-.05733-3.97189-.39733-5.66877-1.58667-1.90832-1.33733-2.89193-3.22666-3.18634-5.50666-.19538-1.51334-.12178-3.00534.35999-4.46134.72398-2.192 2.1278-3.796 4.26763-4.64933 2.97088-1.18267 5.96987-1.17467 8.86447.23467 2.43693 1.18533 3.75107 3.25066 4.11909 5.91333.2382 1.72267.1713 3.43333-.48846 5.07067-1.0746 2.66666-3.09533 4.18-5.87351 4.708-.78822.148-1.59652.188-2.3941.27733zm27.79782-8.55333c-.08699-.816-.11643-1.64267-.273-2.444-.47106-2.41467-1.64737-4.344-3.98259-5.36667-1.43459-.628-2.9468-.77867-4.5045-.58533-2.9013.36-4.8966 1.88533-5.85745 4.64533-.79893 2.296-.80295 4.664-.18067 7 .62094 2.32933 2.01672 4.03867 4.35997 4.82667 1.78789.60133 3.6012.604 5.41317.068 1.94445-.57467 3.29607-1.82134 4.13247-3.65067.65038-1.42533.86851-2.93333.8926-4.49333zm-7.64266 9.58266c-2.24556-.08933-4.40146-.44666-6.31647-1.68133-2.30444-1.48667-3.53027-3.656-3.86349-6.35733-.2168-1.74534-.11509-3.46534.50184-5.12267.88591-2.384 2.52124-4.088 4.89259-4.98267 3.50751-1.324 7.02573-1.30533 10.41682.37867 2.65238 1.31733 4.10303 3.568 4.55268 6.47867.30244 1.96133.17932 3.88933-.58883 5.73066-1.20842 2.90267-3.46067 4.54667-6.48508 5.16134-1.02108.208-2.07293.26666-3.11006.39466z" />
</svg>
